<svg width="96" height="96" viewBox="0 0 96 96" fill="none" xmlns="http://www.w3.org/2000/svg">
<g filter="url(#filter0_d_1_540)">
<circle cx="47" cy="46.9999" r="43" fill="#F7F9FC"/>
<circle cx="47" cy="46.9999" r="45" stroke="white" stroke-width="4"/>
</g>
<g clip-path="url(#clip0_1_540)">
<path d="M60.6207 79.099C60.3368 78.7996 59.951 78.6173 59.5395 78.5881C59.4764 78.5908 59.4138 78.5754 59.3591 78.5439C59.3044 78.5123 59.2598 78.4658 59.2306 78.4099C58.9884 78.0002 58.6927 77.6246 58.3514 77.293C57.9474 76.8177 57.7217 76.1048 56.9732 76.1048C56.795 76.1048 56.7949 75.8671 56.8068 75.7483C56.7996 75.0763 56.7199 74.4071 56.5692 73.7522C56.3197 71.5897 56.3078 69.4153 55.9157 67.2765C55.7973 66.2306 55.5084 65.2111 55.0603 64.2585C54.7609 63.736 54.5558 63.1649 54.4544 62.5713C54.2616 61.0376 53.9719 59.5176 53.587 58.0205C53.2424 56.6779 52.8385 55.3471 52.4702 54.0163C52.1018 52.6856 51.282 51.5687 50.7593 50.2736C50.4865 49.6692 50.3216 49.0218 50.2722 48.3606C50.2705 48.1316 50.2386 47.9039 50.1771 47.6833C49.7819 46.3376 49.5976 44.9387 49.6306 43.5365C49.6185 43.1781 49.5828 42.8209 49.5236 42.4672C49.4702 42.2808 49.4702 42.0832 49.5236 41.8968C49.7719 41.2833 49.8696 40.6192 49.8088 39.9601C49.8088 39.2709 49.8088 38.5818 49.8088 37.8808C49.8088 37.5005 49.892 37.3104 50.3434 37.3223C51.1945 37.3696 52.0352 37.1174 52.7197 36.6094C52.8429 36.5059 52.9838 36.4254 53.1355 36.3718C54.4785 35.8874 55.7137 35.1447 56.7711 34.1855C56.8872 34.081 57.0253 34.0039 57.1751 33.9597C57.7496 33.8029 58.24 33.4277 58.5415 32.9141C58.7831 32.4885 59.0699 32.0901 59.3969 31.7259C59.789 31.3457 60.4068 31.2031 60.4187 30.5378C60.4187 30.4189 60.6563 30.3001 60.5731 30.1219C60.49 29.9437 60.2167 30.1219 60.0147 30.1219C60.0147 29.8248 60.2405 29.409 59.8128 29.409C59.3851 29.409 58.7316 29.4803 58.5296 30.1457C58.4073 30.4248 58.2517 30.6881 58.0662 30.9299C57.7113 31.5818 57.1996 32.135 56.5773 32.5395C55.955 32.9441 55.2417 33.1871 54.5019 33.2468C53.4053 33.3249 52.3595 33.7399 51.5078 34.435C51.3739 34.5497 51.2108 34.6248 51.0366 34.6521C50.8625 34.6794 50.6842 34.6577 50.5217 34.5895C49.7891 34.3449 48.9968 34.3449 48.2642 34.5895C47.9079 34.6834 47.5367 34.7076 47.1712 34.6608C46.8053 34.6013 46.4322 34.6013 46.0662 34.6608C45.686 34.7558 45.4721 34.5776 45.484 34.2568C45.4959 33.936 45.0325 33.5082 45.7098 33.3775C45.824 33.3528 45.9282 33.2942 46.0087 33.2095C46.0893 33.1247 46.1424 33.0176 46.1612 32.9022C46.4598 31.523 46.2576 30.0824 45.591 28.8386C45.5026 28.6629 45.3719 28.5118 45.2108 28.399C44.7345 28.0921 44.1879 27.9114 43.6226 27.8739C43.0572 27.8365 42.4917 27.9436 41.9791 28.1851C41.6346 28.4109 41.3613 28.803 40.8623 28.5416C40.7672 28.5416 40.5534 28.6248 40.4227 28.7079C40.1878 28.8534 39.9868 29.0474 39.8331 29.2769C39.6794 29.5064 39.5766 29.7662 39.5316 30.0387C39.4544 30.5877 39.4894 31.1466 39.6343 31.6817C39.7793 32.2168 40.0313 32.7169 40.3751 33.1518C40.5354 33.4265 40.6305 33.7343 40.6531 34.0515C40.6758 34.3687 40.6255 34.6869 40.5059 34.9816C40.5059 35.0766 40.4346 35.2786 40.2682 35.1836C39.686 34.8271 38.9019 34.8984 38.4267 34.2805C37.8869 33.5743 37.2556 32.943 36.5494 32.4032C36.288 32.2131 36.3712 32.118 36.5494 31.9398C36.9027 31.6641 37.1975 31.3208 37.4167 30.9299C37.6777 30.2668 38.0884 29.6731 38.6167 29.1951C39.9409 28.2291 40.9628 26.9062 41.5632 25.381C41.9217 24.2287 42.0191 23.0111 41.8484 21.8165C41.8484 21.4719 41.5395 21.258 41.2425 21.46C40.7316 21.7927 40.2563 22.1729 40.3514 22.8977C40.3489 23.0946 40.3209 23.2902 40.2682 23.4799C40.0781 23.2542 40.1494 23.0403 40.09 22.8621C40.0306 22.6838 39.995 22.4224 39.7573 22.4462C39.5197 22.47 39.5435 22.7314 39.5197 22.9096C39.5197 23.3373 39.6504 23.7651 39.4484 24.1809C39.2595 24.5472 39.1732 24.9578 39.1989 25.3691C39.2335 25.6782 39.1832 25.9909 39.0534 26.2735C38.9236 26.5561 38.7192 26.798 38.4623 26.9732L34.2919 30.4665C34.1076 30.5803 33.948 30.7299 33.8222 30.9063C33.6964 31.0827 33.6071 31.2824 33.5595 31.4938C33.5119 31.7052 33.507 31.9239 33.545 32.1372C33.5831 32.3505 33.6633 32.554 33.7811 32.7359C33.8732 32.9659 33.9972 33.1819 34.1494 33.3775C34.9057 34.587 35.8342 35.6798 36.9058 36.6213C37.3811 36.9896 37.7969 37.4411 38.3078 37.8095C39.4009 38.4867 39.389 39.7106 39.7692 40.7205C40.0303 41.5941 40.3724 42.4414 40.791 43.2514C41.0261 43.5635 41.1737 43.9326 41.2187 44.3207C41.5014 46.7003 41.3809 49.1104 40.8623 51.4499C40.7909 51.9433 40.6592 52.4262 40.4702 52.8876C40.2088 53.3985 40.1375 54.0758 39.6385 54.4085C39.6012 54.4475 39.5732 54.4946 39.5568 54.546C39.5403 54.5975 39.5357 54.652 39.5434 54.7055C39.7692 55.157 39.5434 55.5491 39.4246 55.965C39.0444 57.7591 38.9731 59.5295 38.5929 61.3831C38.5201 61.786 38.3573 62.1673 38.1166 62.4985C37.8759 62.8298 37.5636 63.1024 37.2029 63.2961C36.1775 63.8143 35.3448 64.647 34.8266 65.6725C34.5193 66.5244 34.1622 67.3576 33.7573 68.1677C33.3771 68.7499 33.0563 69.2727 32.2246 69.2727C31.8563 69.2727 31.2504 69.2727 31.1316 69.7955C30.9728 70.1865 30.9211 70.6127 30.9816 71.0304C31.0422 71.448 31.2129 71.842 31.4761 72.1719C31.6067 72.2919 31.6913 72.4538 31.7151 72.6295C31.739 72.8052 31.7007 72.9838 31.6068 73.1343C31.4471 73.4601 31.3619 73.8173 31.3572 74.1801C31.3525 74.5429 31.4286 74.9021 31.5798 75.2319C31.731 75.5617 31.9537 75.8537 32.2317 76.0869C32.5096 76.3201 32.836 76.4885 33.187 76.58C33.4769 76.6768 33.7888 76.6868 34.0843 76.6087C34.3798 76.5306 34.6461 76.3678 34.8504 76.1404C35.2306 75.7127 34.8504 75.3443 34.684 74.9522C34.5524 74.6796 34.4781 74.3829 34.4658 74.0804C34.4536 73.7779 34.5036 73.4761 34.6128 73.1937C34.9206 72.5529 35.1404 71.8735 35.2662 71.1738C35.3659 70.3211 35.6718 69.5054 36.1573 68.7974C36.398 68.3403 36.7352 67.9409 37.1455 67.627C37.5558 67.3131 38.0294 67.0922 38.5335 66.9795C39.0102 66.9119 39.4698 66.7547 39.888 66.5161C40.6117 66.0701 41.2025 65.4383 41.5989 64.6863C42.242 63.6935 42.7382 62.6129 43.0722 61.4782C43.1459 61.0015 43.3157 60.5447 43.5712 60.1355C44.5098 58.8285 45.1751 57.3433 46.0425 55.9887C46.0773 55.9037 46.1334 55.8291 46.2055 55.7721C46.2775 55.7151 46.3631 55.6776 46.4538 55.6633C46.5446 55.649 46.6375 55.6583 46.7236 55.6903C46.8097 55.7223 46.8861 55.776 46.9454 55.8462C47.204 56.0946 47.3855 56.4122 47.4682 56.7611C47.9345 58.2599 48.6277 59.6784 49.5236 60.9673C50.1372 61.8826 50.6023 62.8891 50.9019 63.9496C51.187 64.8645 51.4603 65.7913 51.8286 66.6706C52.178 67.3852 52.3647 68.1684 52.3752 68.9638C52.3542 69.8745 52.5327 70.7789 52.8979 71.6134C53.29 72.5521 53.7296 73.467 54.086 74.4057C54.734 75.6342 54.995 77.0302 54.8346 78.4099C54.5851 79.7644 54.6207 79.8238 55.9157 80.2278L56.2128 80.2872C56.7593 80.3822 57.4008 80.2872 57.7454 80.8456C57.8167 80.9407 58.0068 80.9526 58.1494 80.9645C58.978 81.0683 59.8171 80.8837 60.5256 80.4417C61.1435 80.0971 61.1554 79.5505 60.6207 79.099ZM42.2761 33.9479H42.4068C42.4068 34.2211 42.5494 34.4825 42.5851 34.7558C42.6207 35.0291 42.5851 35.1836 42.2761 35.3024C41.8888 35.4722 41.5253 35.6919 41.1949 35.9559C41.7232 35.3639 42.095 34.6491 42.2761 33.8766V33.9479Z" fill="#B9C3CD"/>
<path d="M56.8064 19.5943C58.7549 19.5943 59.9192 18.1091 60.0618 16.1129C60.1806 14.4613 58.6836 13.1068 56.6757 12.9999C55.9079 13.0377 55.1788 13.3479 54.6192 13.8749C54.0596 14.4019 53.7061 15.1112 53.6222 15.8753C53.5713 16.3316 53.6147 16.7934 53.7497 17.2322C53.8847 17.671 54.1084 18.0773 54.407 18.4261C54.7056 18.7748 55.0727 19.0584 55.4854 19.2594C55.8981 19.4604 56.3477 19.5744 56.8064 19.5943Z" fill="#B9C3CD"/>
</g>
<defs>
<filter id="filter0_d_1_540" x="0" y="-0.00012207" width="96" height="96" filterUnits="userSpaceOnUse" color-interpolation-filters="sRGB">
<feFlood flood-opacity="0" result="BackgroundImageFix"/>
<feColorMatrix in="SourceAlpha" type="matrix" values="0 0 0 0 0 0 0 0 0 0 0 0 0 0 0 0 0 0 127 0" result="hardAlpha"/>
<feOffset dx="2" dy="2"/>
<feColorMatrix type="matrix" values="0 0 0 0 0.0509804 0 0 0 0 0.137255 0 0 0 0 0.266667 0 0 0 0.08 0"/>
<feBlend mode="normal" in2="BackgroundImageFix" result="effect1_dropShadow_1_540"/>
<feBlend mode="normal" in="SourceGraphic" in2="effect1_dropShadow_1_540" result="shape"/>
</filter>
<clipPath id="clip0_1_540">
<rect width="30" height="68" fill="white" transform="translate(31 12.9999)"/>
</clipPath>
</defs>
</svg>
