<svg width="170" height="170" viewBox="0 0 170 170" fill="none" xmlns="http://www.w3.org/2000/svg">
<g filter="url(#filter0_d_1_535)">
<circle cx="84" cy="84" r="80" fill="white"/>
<circle cx="84" cy="84" r="82" stroke="white" stroke-width="4"/>
</g>
<circle cx="83.9933" cy="84.0001" r="70.5714" stroke="url(#paint0_linear_1_535)" stroke-width="4"/>
<g clip-path="url(#clip0_1_535)">
<path d="M136.111 85.0634L135.27 84.4078L110.327 66.4627C110.186 66.3666 110.026 66.3001 109.859 66.2672C109.691 66.2344 109.518 66.2358 109.351 66.2715L106.64 66.9543C105.745 66.3534 104.851 65.7525 103.929 65.0697C103.685 64.8785 103.468 64.7965 103.712 64.3868C103.956 63.9771 103.712 63.4035 103.143 63.3762H102.383C102.112 63.3762 101.95 63.3762 101.895 63.0485C101.888 62.9337 101.855 62.822 101.799 62.7218C101.743 62.6216 101.665 62.5355 101.571 62.4698C101.477 62.4042 101.37 62.3608 101.257 62.3427C101.144 62.3247 101.029 62.3325 100.919 62.3656C100.594 62.3656 99.591 61.8194 99.591 61.5189C99.591 60.5902 98.9945 59.8801 98.8047 59.0333C98.7011 58.806 98.5537 58.6018 98.3709 58.4324C97.862 57.9118 97.2653 57.4864 96.6087 57.1759C95.7543 56.6902 94.9303 56.152 94.1415 55.5644C93.9788 55.5644 93.789 55.3733 93.7348 55.2367C93.545 54.4992 92.9485 54.4719 92.3792 54.4719C91.7958 54.4782 91.23 54.2714 90.7864 53.8898C90.3428 53.5081 90.0514 52.9774 89.9662 52.396C89.8867 51.8489 89.7315 51.3157 89.5053 50.8119C89.1228 50.1361 88.9089 49.3769 88.8817 48.5995C88.9518 47.0181 88.4292 45.4679 87.4177 44.2566C86.882 43.6989 86.2704 43.2206 85.6012 42.8362C84.6322 42.1225 83.507 41.6541 82.3206 41.4705C81.1582 41.3287 79.9789 41.4678 78.8804 41.8763C77.7819 42.2848 76.7957 42.9509 76.0035 43.8195C75.2986 44.5024 75.1631 44.5024 74.4039 43.8195C73.3287 42.9673 72.1652 42.2346 70.9336 41.6344C69.9667 41.1307 68.8685 40.9418 67.7905 41.0934C66.7125 41.2451 65.7077 41.73 64.9147 42.4812C64.1277 43.1488 63.4664 43.9537 62.9627 44.8575C61.6927 46.7813 60.8936 48.981 60.631 51.2762C60.8171 53.3329 60.4715 55.403 59.6279 57.2852C59.6134 57.3296 59.6134 57.3775 59.6279 57.4218C59.3139 58.3616 59.2121 59.3599 59.3297 60.3444C59.9751 62.3666 60.4468 64.441 60.7395 66.5446C60.7415 66.7089 60.7879 66.8696 60.874 67.0092C60.96 67.1488 61.0822 67.262 61.2275 67.3367L61.9595 67.7191C62.2578 67.9103 62.556 68.1288 62.4204 68.5385C62.2976 68.9014 62.2158 69.277 62.1764 69.6584C62.0409 70.6963 61.4173 71.5703 61.3631 72.6356C61.2412 74.3268 61.2412 76.0247 61.3631 77.716C61.6395 80.007 62.5828 82.1644 64.0743 83.9162C65.0179 85.3696 66.4229 86.4577 68.0597 87.0027C68.2224 87.0027 68.3037 87.1392 68.3851 87.3031C68.6547 87.8923 69.113 88.3733 69.6864 88.6688C69.826 88.7434 69.9443 88.853 70.0297 88.9869C70.1152 89.1208 70.165 89.2746 70.1745 89.4335C70.3371 90.7173 70.5269 92.001 70.6896 93.2848C70.6578 95.1165 71.077 96.9277 71.9096 98.5564C71.9096 98.7203 71.9096 98.9115 71.9096 99.1026C71.6577 99.7831 71.3493 100.441 70.9878 101.069C70.8537 101.24 70.7596 101.44 70.7127 101.653C70.6657 101.865 70.6671 102.086 70.7167 102.298C70.7167 102.49 70.7167 102.572 70.4998 102.653C69.5476 103.457 68.5112 104.153 67.409 104.729C65.457 105.685 63.5591 106.805 61.58 107.706C59.257 108.935 56.8126 109.914 54.2868 110.629C53.8531 110.629 53.7446 110.957 53.853 111.367C53.2701 111.084 52.6179 110.981 51.977 111.068C51.3361 111.155 50.7347 111.43 50.2471 111.858C49.6236 112.295 49.0271 112.787 48.3764 113.224C47.6543 113.696 47.1236 114.412 46.8799 115.243C46.6363 116.075 46.6959 116.967 47.0479 117.758C48.0232 120.018 49.3301 122.117 50.9249 123.986C51.7384 124.983 52.6464 125.897 53.6361 126.717C54.1777 127.223 54.8574 127.553 55.5873 127.665C56.3172 127.777 57.0637 127.665 57.7301 127.345C57.8441 127.307 57.9391 127.227 57.9948 127.119C58.0505 127.012 58.0625 126.887 58.0283 126.772C58.0436 126.672 58.0436 126.571 58.0283 126.471C57.6855 125.431 57.3959 124.373 57.1607 123.303C56.9167 122.538 56.9167 121.691 56.7269 120.899C56.5371 120.107 57.0794 120.271 56.8896 119.943C56.6998 119.615 56.8896 119.124 56.8896 118.714C56.8896 118.304 57.5132 117.84 57.5132 117.321C57.5367 116.987 57.6434 116.664 57.8234 116.382C58.0035 116.101 58.2511 115.869 58.5434 115.709C60.3538 114.469 62.4056 113.631 64.5623 113.251C65.6806 113.084 66.7859 112.837 67.8699 112.514C70.5811 111.585 73.1025 110.493 75.7866 109.646C77.7479 109.094 79.6612 108.381 81.5073 107.515C82.1309 106.887 82.9984 106.45 83.134 105.439C83.134 104.893 83.378 104.948 83.7033 105.248C84.5441 106.044 85.4511 106.766 86.4145 107.406C87.6959 108.186 89.0171 108.897 90.3729 109.537C92.7618 110.699 94.9569 112.229 96.8798 114.071C97.0424 114.235 97.3407 114.371 97.2593 114.699C97.0506 116.524 97.1514 118.371 97.5576 120.162C97.6015 120.437 97.7391 120.688 97.9468 120.873C98.1546 121.057 98.4195 121.163 98.6963 121.172C100.269 120.954 101.868 121.172 103.468 121.036C104.467 121.072 105.467 120.998 106.45 120.817C108.316 120.374 110.133 119.743 111.873 118.932C113.558 118.247 114.937 116.965 115.75 115.327C115.806 115.245 115.845 115.152 115.862 115.054C115.879 114.955 115.874 114.854 115.848 114.758C115.822 114.662 115.776 114.572 115.712 114.496C115.648 114.42 115.568 114.358 115.479 114.316C115.318 114.193 115.134 114.105 114.938 114.058C114.742 114.011 114.538 114.006 114.34 114.043L112.876 114.316C112.22 114.482 111.545 114.555 110.87 114.535C110.01 114.383 109.238 113.916 108.701 113.224C108.224 112.611 107.623 112.109 106.938 111.749C106.588 111.459 106.171 111.262 105.726 111.176C105.281 111.09 104.822 111.118 104.39 111.257C103.658 111.667 103.278 111.257 102.763 111.012L102.112 110.602C100.179 109.539 98.3619 108.276 96.69 106.833C95.4971 105.603 94.2499 104.456 93.057 103.254C91.864 102.053 91.2405 101.397 90.3458 100.523C89.5926 99.5388 88.9301 98.4874 88.3666 97.3819C88.3425 97.2556 88.3425 97.1258 88.3666 96.9995C88.3512 96.1999 88.0855 95.4256 87.6075 94.7871C86.2153 92.3662 85.39 89.657 85.1945 86.8661C85.2353 85.8899 85.1255 84.9131 84.8692 83.9708C84.2456 82.1681 83.4593 80.3654 82.9984 78.508C82.7002 77.3335 82.3748 76.1864 82.0224 74.9027C82.606 75.1235 83.2298 75.2158 83.8518 75.1734C84.4738 75.131 85.0795 74.9549 85.6283 74.6568C86.767 74.1652 87.9057 73.6189 89.0444 73.0726C89.3103 72.9402 89.5643 72.7849 89.8035 72.6083C91.8098 71.1334 93.8975 69.8769 95.8224 68.1834C95.958 68.1834 96.0935 67.9376 96.3375 68.0195C97.3769 68.4178 98.5127 68.4846 99.591 68.2107C100.106 68.0742 100.567 68.4566 101.001 68.402C101.353 68.4185 101.705 68.3588 102.032 68.2269C102.359 68.095 102.655 67.8939 102.899 67.6372C102.928 67.5921 102.969 67.5551 103.016 67.5296C103.063 67.504 103.116 67.4906 103.17 67.4906C103.223 67.4906 103.276 67.504 103.324 67.5296C103.371 67.5551 103.411 67.5921 103.441 67.6372C104.227 68.2654 105.149 68.757 105.989 69.3306L106.396 71.1607C106.473 71.5486 106.697 71.8912 107.02 72.1166L132.532 90.2257C133.345 90.6627 133.915 90.4442 134.159 90.0891L136.301 86.511C136.436 85.8555 136.436 85.2819 136.111 85.0634ZM95.2802 64.4688C94.9925 64.8064 94.6427 65.0847 94.2499 65.2881C92.3768 66.0673 90.4459 66.6975 88.4751 67.1728C87.7701 67.3367 87.0652 67.5552 86.3874 67.7737C86.235 67.8345 86.0658 67.8376 85.9112 67.7824C85.7567 67.7271 85.6273 67.6173 85.547 67.4733C85.1585 66.9927 84.8391 66.4593 84.598 65.8891C84.598 65.8891 84.598 65.5886 84.4083 65.5613C83.5949 65.3155 83.4865 64.578 83.2696 63.9225C83.0527 63.2669 82.9984 63.1031 82.8629 62.6934C82.8364 62.595 82.8364 62.4913 82.8629 62.3929C83.1068 61.6572 83.1068 60.8616 82.8629 60.1259C82.8224 59.8726 82.8224 59.6144 82.8629 59.3611C83.0491 58.203 82.975 57.0176 82.646 55.8922C82.5778 55.6978 82.5778 55.4857 82.646 55.2913C82.646 54.9908 82.89 54.909 83.1882 55.1002C84.0253 55.6858 84.9374 56.1543 85.8994 56.4931C86.3395 56.6669 86.8096 56.7506 87.2821 56.739C87.6049 56.7786 87.9322 56.7314 88.231 56.6024C88.3956 56.467 88.6015 56.3932 88.814 56.3932C89.0264 56.3932 89.2323 56.467 89.3969 56.6024C89.7222 56.8482 90.1289 56.9301 90.2916 57.4491C90.4542 57.9681 91.2134 58.4324 91.7285 58.8148C92.2436 59.1972 92.1894 59.1699 91.9725 59.5523C91.8215 59.8104 91.7766 60.1177 91.8475 60.4086C91.9185 60.6996 92.0996 60.9509 92.3521 61.1091C92.3521 61.1091 92.5961 61.273 92.5961 61.3823C92.7587 62.0378 93.2739 62.147 93.789 62.1197C94.3041 62.0924 94.5481 62.3383 94.6837 62.8299C94.8193 63.3216 94.6837 63.8678 95.3615 64.1137C95.4157 64.2502 95.3886 64.3868 95.2802 64.4688Z" fill="#B9C3CD"/>
</g>
<defs>
<filter id="filter0_d_1_535" x="0" y="0" width="170" height="170" filterUnits="userSpaceOnUse" color-interpolation-filters="sRGB">
<feFlood flood-opacity="0" result="BackgroundImageFix"/>
<feColorMatrix in="SourceAlpha" type="matrix" values="0 0 0 0 0 0 0 0 0 0 0 0 0 0 0 0 0 0 127 0" result="hardAlpha"/>
<feOffset dx="2" dy="2"/>
<feColorMatrix type="matrix" values="0 0 0 0 0.0509804 0 0 0 0 0.137255 0 0 0 0 0.266667 0 0 0 0.08 0"/>
<feBlend mode="normal" in2="BackgroundImageFix" result="effect1_dropShadow_1_535"/>
<feBlend mode="normal" in="SourceGraphic" in2="effect1_dropShadow_1_535" result="shape"/>
</filter>
<linearGradient id="paint0_linear_1_535" x1="83.9933" y1="15.4287" x2="83.9933" y2="152.572" gradientUnits="userSpaceOnUse">
<stop stop-color="#D0D8E3"/>
<stop offset="0.552083" stop-color="#DBE3EF"/>
<stop offset="1" stop-color="#C7CFDB" stop-opacity="0.12"/>
</linearGradient>
<clipPath id="clip0_1_535">
<rect width="89.5238" height="86.6667" fill="white" transform="translate(46.8594 41.1431)"/>
</clipPath>
</defs>
</svg>
