<svg width="148" height="148" viewBox="0 0 148 148" fill="none" xmlns="http://www.w3.org/2000/svg">
<g filter="url(#filter0_d_1_502)">
<circle cx="73.0201" cy="72.9225" r="68.7487" fill="#F9F9F9"/>
<circle cx="73.0201" cy="72.9225" r="70.5578" stroke="white" stroke-width="3.61835"/>
</g>
<g clip-path="url(#clip0_1_502)">
<path d="M111.301 50.7664L110.167 48.782L109.498 48.9546L107.463 46.6827L107.026 46.9703C106.545 45.0905 106.311 43.1574 106.328 41.2184C106.722 39.9914 106.66 38.6656 106.154 37.4797C105.684 36.4286 104.907 35.5409 103.922 34.9309C102.937 34.3209 101.79 34.0166 100.629 34.0573C99.6776 34.0593 98.7372 34.2551 97.8661 34.6325C96.3198 35.2021 95.0639 36.353 94.3721 37.8345C93.6803 39.316 93.6086 41.0079 94.1728 42.5413C94.6676 43.5777 95.4557 44.4498 96.4416 45.0521C97.4274 45.6545 98.5687 45.9611 99.7272 45.9349H100.192C102.301 46.0672 104.359 46.6251 106.241 47.5742L107.899 49.386C107.627 50.5091 107.186 51.5852 106.59 52.5783C106.232 52.8902 105.853 53.1785 105.456 53.4411C104.584 54.045 103.391 54.879 102.315 55.483C101.682 55.9294 100.973 56.2605 100.222 56.4608C99.4209 56.6211 98.666 56.9551 98.0115 57.4386H96.2666L92.7479 57.6399L90.596 57.036L95.3943 53.7862L99.0002 54.1313C99.0002 54.1313 101.269 55.1954 101.618 54.994C101.966 54.7927 102.752 54.9941 100.658 53.7862L103.188 54.3038C103.188 54.3038 104.235 53.6136 103.188 53.1822C102.124 52.5919 101.104 51.9288 100.134 51.1978L101.443 51.4567L102.752 51.8018C102.752 51.8018 103.362 51.1978 102.926 51.1115C102.49 51.0252 99.4364 50.0762 98.3023 49.9037C97.1682 49.7311 97.5753 49.0409 98.3023 48.6095C99.0293 48.1781 99.1747 46.6252 98.3023 47.2291L97.3136 47.833L94.0856 51.2842C92.2547 52.7298 90.1481 53.7959 87.8916 54.4189L88.764 51.543L89.6363 50.8527C89.4618 50.5076 89.0838 49.3285 88.8512 48.5808C89.7838 48.2035 90.6187 47.6235 91.2939 46.8839C92.6607 46.8839 92.4281 46.0499 92.2536 45.7336V45.5898L88.9384 45.0722C87.1936 40.1256 81.7556 42.1962 81.7556 42.1962C81.14 42.5093 80.5988 42.9482 80.1676 43.4838C79.7365 44.0194 79.4254 44.6395 79.2549 45.303C79.0844 45.9665 79.0585 46.6582 79.1787 47.3324C79.299 48.0066 79.5628 48.6478 79.9526 49.2135C80.0129 49.3132 80.0616 49.4193 80.098 49.5298C79.022 49.5298 77.0446 50.1338 74.8054 53.6137C74.8054 53.6137 74.3401 53.6136 74.3401 54.3901C73.6621 55.3451 73.2782 56.4738 73.2351 57.6399C72.9638 57.9306 72.7627 58.2782 72.6469 58.6568C72.531 59.0354 72.5034 59.435 72.5662 59.8256C72.0909 60.3537 71.7077 60.9564 71.4321 61.6087C70.9619 62.6482 70.345 63.6164 69.6 64.4846C69.5483 64.5739 69.479 64.6521 69.3964 64.7147C69.3095 64.813 69.2317 64.919 69.1638 65.0311C68.2914 65.9226 67.3026 68.6547 66.6629 69.0286C66.2483 69.2275 65.895 69.5324 65.6394 69.9116C65.3838 70.2908 65.2351 70.7305 65.2089 71.1855C64.3343 72.6185 63.5383 74.097 62.8243 75.6145C62.5431 77.7769 62.6021 79.9693 62.9988 82.114C62.9988 82.114 62.5335 82.8043 62.9988 83.0919H63.1442C63.5513 83.3795 63.1441 84.0697 62.737 84.3573C62.3299 84.6449 62.4753 85.6227 62.4172 86.1116C61.5501 88.7567 60.8221 91.4445 60.2361 94.1641C60.2361 94.1641 60.556 95.027 58.6658 94.7681C56.7756 94.5093 57.3571 93.1288 51.9191 93.9053C50.2156 94.1637 48.4953 94.2983 46.7719 94.308C45.7983 94.3315 44.8247 94.2641 43.8639 94.1066L41.4793 92.0935V91.9209C41.3048 91.6045 40.9268 90.9719 40.636 90.9719C39.849 91.1503 39.1254 91.5358 38.5418 92.0877C37.9582 92.6395 37.5363 93.3371 37.3208 94.1066L37.001 94.8831H35.6923C34.6542 95.6155 33.7961 96.5698 33.1819 97.6751C32.5677 98.7804 32.2132 100.008 32.1445 101.268C32.1445 101.268 32.1446 103.511 33.4532 103.338C35.7721 101.819 38.2364 100.528 40.8105 99.4846C41.0125 99.6171 41.2417 99.7033 41.4817 99.737C41.7216 99.7707 41.9662 99.751 42.1974 99.6794C42.4287 99.6077 42.6409 99.4859 42.8185 99.3228C42.9961 99.1598 43.1347 98.9597 43.2241 98.7369H43.4277L46.7719 98.248C49.2906 98.5155 51.7752 99.0359 54.1874 99.801C55.7577 100.664 58.1714 99.8009 59.3056 100.204C60.083 100.649 60.997 100.801 61.8788 100.631C62.7607 100.462 63.5509 99.9834 64.1038 99.2833C65.5869 97.2126 65.1507 99.5421 66.8374 94.8831C66.8374 94.8831 67.4481 94.8831 67.8843 93.5314C69.5767 90.0059 71.5203 86.6038 73.7004 83.3507C74.4274 82.8043 74.5727 80.8774 84.0238 85.0187C84.0238 85.0187 85.0126 85.0187 86.0595 81.7114C86.748 81.8897 87.4474 82.0241 88.1533 82.114C88.6186 82.114 89.2002 82.6317 89.5201 83.8683C89.7528 84.7514 90.1639 85.5786 90.7287 86.3003C91.2935 87.0219 92.0002 87.6229 92.8062 88.0672C94.313 89.2373 95.6021 90.6582 96.6157 92.2661C97.4008 93.3877 97.9242 94.308 97.9242 94.308C97.1871 94.9264 96.6342 95.7317 96.3249 96.6375C96.3249 96.6375 96.3249 96.6375 96.3249 96.81C96.3249 96.9826 95.278 97.644 95.8596 98.2192C96.4412 98.7944 99.5236 100.578 100.629 100.175C101.492 100.11 102.352 100.332 103.072 100.808C104.642 101.67 110.807 102.447 111.069 100.232C110.807 98.5356 109.964 98.4205 108.161 97.5865C106.358 96.7525 103.769 94.9694 103.769 94.0778C103.769 93.1863 102.897 92.87 102.519 93.6753C102.503 93.722 102.503 93.7723 102.519 93.819C102.519 93.819 101.298 92.0647 100.192 90.3104C99.5507 89.3393 98.9868 88.32 98.5059 87.2619C97.9824 85.7664 93.853 79.727 93.853 78.6341C93.853 77.5413 91.2939 76.3622 90.4506 76.1033C90.1905 75.9993 89.9682 75.8202 89.8126 75.5894C89.657 75.3585 89.5753 75.0866 89.5782 74.8092H89.2874C88.2564 74.3774 87.2803 73.8272 86.3793 73.1699C84.8201 72.2323 83.15 71.4886 81.4066 70.9555L81.2322 70.0352C83.3317 68.2081 85.2057 66.1423 86.8155 63.8806C88.1034 63.6565 89.3618 63.29 90.5669 62.7879C91.8343 62.6998 93.0962 62.5462 94.3474 62.3277L94.9581 61.8962L100.192 61.3786C101.883 60.5575 103.466 59.5337 104.904 58.3301C105.973 57.4764 106.948 56.5123 107.812 55.4542C108.194 54.9592 108.543 54.4404 108.858 53.9012C109.863 53.5512 110.836 53.1183 111.767 52.6071C111.934 52.4711 112.059 52.2905 112.126 52.0866C112.193 51.8827 112.199 51.6641 112.145 51.4567L111.301 50.7664ZM99.3492 45.4747L99.0584 45.1009L99.6109 44.727L99.9017 45.1296L99.3783 45.4747H99.3492ZM94.1728 39.7229L94.4055 39.5503L94.7545 39.9817L94.2311 40.3268C94.1729 40.0967 94.202 39.953 94.202 39.7805L94.1728 39.7229ZM94.1728 39.0327L94.8126 38.6013L95.0453 38.9176L94.3764 39.349L94.1728 39.119V39.0327ZM94.6091 37.8823L95.1325 37.5372L95.4815 37.9973L94.8708 38.4L94.5509 37.9973C94.5679 38.0074 94.5869 38.0138 94.6066 38.0164C94.6262 38.0189 94.6462 38.0174 94.6653 38.0121C94.6844 38.0067 94.7021 37.9975 94.7174 37.985C94.7327 37.9726 94.7454 37.9573 94.7545 37.9398L94.6091 37.8823ZM100.89 34.3449L101.181 34.7188L100.6 35.1214L100.309 34.7476L100.861 34.3449H100.89ZM105.689 37.5085L105.311 37.7673L104.962 37.3359L105.485 37.0195L105.689 37.5085ZM106.009 40.183L105.747 39.8667L106.067 39.6654C106.081 39.8377 106.081 40.0108 106.067 40.183H106.009ZM105.34 42.1674L104.904 42.4551L104.555 41.9949L105.485 41.5347L105.718 41.8223C105.654 41.9637 105.576 42.0985 105.485 42.2249L105.34 42.1674ZM102.228 40.5281L101.966 40.2118L102.606 39.7805L102.897 40.1256L102.228 40.5281ZM102.984 40.2118L103.275 40.6144L102.606 41.0458L102.315 40.6432L102.984 40.2118ZM101.879 40.2118L101.559 39.7805L102.228 39.349L102.548 39.7805L101.879 40.2118ZM99.3783 40.2118L98.7095 40.6432L98.3895 40.2118L99.0293 39.8092L99.3783 40.2118ZM99.2038 39.6941L99.8144 39.3203L100.134 39.7229L99.5237 40.1256L99.2038 39.6941ZM99.4365 40.3268L99.7563 40.7295L99.1165 41.1321L98.7967 40.7295L99.4365 40.3268ZM99.6109 40.3268L100.222 39.9242L100.512 40.3556L99.9017 40.7295L99.6109 40.3268ZM100.367 39.838L101.007 39.4353L101.327 39.838L100.687 40.2405L100.367 39.838ZM100.6 40.4419L100.949 40.8732L100.309 41.2759L99.9889 40.8445L100.6 40.4419ZM100.745 40.4419L101.385 40.0105L101.734 40.4419L101.094 40.8732L100.745 40.4419ZM101.472 39.838L101.152 39.4353L101.821 39.0039L102.141 39.4066L101.472 39.838ZM101.094 39.3203L100.745 38.9176L101.414 38.4863L101.734 38.8888L101.094 39.3203ZM100.92 39.3203L100.28 39.7517L99.9599 39.3203L100.6 38.9176L100.92 39.3203ZM99.8727 39.3203L99.6691 38.6588L100.309 38.2561L100.629 38.6876L99.8727 39.3203ZM99.7272 39.3203L99.1165 39.7229L98.7676 39.2627L99.6691 38.6588L99.7272 39.3203ZM98.9712 39.8092L98.3023 40.2118L97.9825 39.7805L98.6222 39.3778L98.9712 39.8092ZM97.8952 39.8092L97.5172 39.3203L98.186 38.8888L98.564 39.3778L97.8952 39.8092ZM97.7498 39.8092L97.2263 40.1543L96.8483 39.6654L97.3717 39.3203L97.7498 39.8092ZM97.7498 39.8092L98.0697 40.2405L97.5462 40.5857L97.1972 40.1256L97.7498 39.8092ZM98.1569 40.3556L98.4768 40.7583L97.9533 41.1034L97.6334 40.672L98.1569 40.3556ZM98.564 40.8445L98.8548 41.2759L98.3314 41.5922L98.0406 41.1896L98.564 40.8445ZM98.9421 41.3622L99.291 41.7936L98.7385 42.1387L98.4186 41.7073L98.9421 41.3622ZM99.0874 41.3622L99.7563 40.9308L100.076 41.3622L99.4365 41.7936L99.0874 41.3622ZM100.163 41.3622L100.425 41.7073L99.7854 42.11L99.4946 41.7648L100.163 41.3622ZM100.309 41.3622L100.92 40.9883L101.181 41.3334L100.571 41.7073L100.309 41.3622ZM101.065 40.8732L101.705 40.4707L101.995 40.8158L101.356 41.2184L101.065 40.8732ZM102.054 40.8732L102.374 41.2759L101.734 41.6785L101.414 41.2759L102.054 40.8732ZM102.461 41.3622L102.752 41.7648L102.112 42.1674L101.821 41.7648L102.461 41.3622ZM102.461 41.3622L103.13 40.9308L103.42 41.3047L102.752 41.7361L102.461 41.3622ZM102.897 40.3268L103.624 39.838L103.944 40.2405L103.188 40.7295L102.897 40.3268ZM102.897 40.3268L102.635 39.9817L103.391 39.5216L103.653 39.8667L102.897 40.3268ZM102.548 39.8954L102.228 39.4641L102.984 38.9751L103.304 39.4066L102.548 39.8954ZM102.722 38.3712L103.449 37.911L103.799 38.3137L103.042 38.7739L102.722 38.3712ZM102.897 38.8888L102.141 39.3778L101.821 38.9464L102.577 38.4863L102.897 38.8888ZM101.763 38.8888L101.443 38.4575L102.17 37.9973L102.49 38.4L101.763 38.8888ZM101.356 38.3712L101.007 37.9398L101.763 37.4509L102.112 37.8823L101.356 38.3712ZM101.21 38.3712L100.541 38.8026L100.192 38.3712L100.861 37.9398L101.21 38.3712ZM100.134 38.3712L99.7272 37.8823L100.396 37.4509L100.774 37.9398L100.134 38.3712ZM99.9599 38.3712L99.6691 38.6588L99.291 38.1699L99.9308 37.7385L99.9599 38.3712ZM99.1747 38.8601L98.564 39.2627L98.186 38.7739L98.7967 38.3712L99.1747 38.8601ZM98.0987 38.6588L97.7498 38.1987L98.3314 37.7961L98.7095 38.2849L98.0987 38.6588ZM97.9533 38.6588L97.2845 39.0902L96.9646 38.6588L97.5753 38.2274L97.9533 38.6588ZM97.1391 39.2052L96.6157 39.5216L96.2957 39.0902L96.7902 38.7451L97.1391 39.2052ZM96.9064 40.2118L96.2957 40.6144L95.9177 40.1256L96.5284 39.7229L96.9064 40.2118ZM96.9064 40.2118L97.2554 40.6432L96.6447 41.0458L96.2957 40.5857L96.9064 40.2118ZM97.3136 40.7583L97.6625 41.1609L97.0228 41.5635L96.7029 41.1321L97.3136 40.7583ZM97.7207 41.2759L98.0406 41.6785L97.4299 42.0524L97.11 41.6498L97.7207 41.2759ZM98.1278 41.7648L98.4477 42.1962L97.837 42.5988L97.4881 42.1674L98.1278 41.7648ZM98.5349 42.3112L98.7967 42.6564L98.186 43.0302L97.9242 42.6851L98.5349 42.3112ZM98.6804 42.3112L99.2038 41.9949L99.4655 42.34L98.9421 42.6564L98.6804 42.3112ZM99.5527 42.3112L99.8727 42.7139L99.3492 43.059L99.0293 42.6564L99.5527 42.3112ZM99.6982 42.3112L100.367 41.8798L100.658 42.3112L100.018 42.7139L99.6982 42.3112ZM100.512 41.7936L101.123 41.391L101.443 41.7936L100.832 42.1962L100.512 41.7936ZM101.501 41.7936L101.821 42.1962L101.21 42.5988L100.89 42.1962L101.501 41.7936ZM101.908 42.2825L102.17 42.6276L101.559 43.0302L101.298 42.6851L101.908 42.2825ZM102.054 42.2825L102.693 41.851L102.955 42.1962L102.315 42.6276L102.054 42.2825ZM102.839 41.7648L103.508 41.3334L103.74 41.6498L103.101 42.0812L102.839 41.7648ZM103.275 40.7295L104.031 40.2693L104.322 40.6432L103.566 41.1321L103.275 40.7295ZM103.799 39.6654L104.584 39.1478L104.904 39.5503L104.089 40.068L103.799 39.6654ZM103.799 39.6654L103.537 39.3203L104.293 38.8314L104.584 39.1765L103.799 39.6654ZM103.449 39.234L103.13 38.8026L103.886 38.3137L104.235 38.7163L103.449 39.234ZM103.624 37.7385L104.293 37.3071L104.613 37.681L103.944 38.1124L103.624 37.7385ZM103.624 37.7385L103.275 37.3359L103.944 36.9045L104.293 37.3071L103.624 37.7385ZM103.479 37.7385L102.752 38.1987L102.432 37.7673L103.13 37.3071L103.479 37.7385ZM102.345 37.7385L101.995 37.2783L102.693 36.847L103.042 37.2783L102.345 37.7385ZM101.937 37.1921L101.559 36.7032L102.199 36.2718L102.606 36.7607L101.937 37.1921ZM101.763 37.1921L101.036 37.681L100.658 37.1921L101.385 36.7032L101.763 37.1921ZM100.571 37.1921L100.163 36.6744L100.89 36.1856L101.327 36.7319L100.571 37.1921ZM100.425 37.1921L99.7563 37.5947L99.3492 37.1058L100.018 36.6744L100.425 37.1921ZM99.5818 37.7098L98.9712 38.1124L98.5931 37.6235L99.2038 37.2208L99.5818 37.7098ZM98.5059 37.5372L98.1569 37.0771L98.7967 36.6744L99.1165 37.1058L98.5059 37.5372ZM98.3604 37.5372L97.7498 37.9398L97.4008 37.5085L98.0115 37.1058L98.3604 37.5372ZM97.6044 38.0549L96.9646 38.4863L96.6157 38.0549L97.2554 37.6235L97.6044 38.0549ZM96.8192 38.6013L96.2957 38.9464L95.9468 38.4863L96.4702 38.1699L96.8192 38.6013ZM96.1504 39.0327L95.5396 39.4641L95.1907 39.0327L95.8014 38.6013L96.1504 39.0327ZM96.1504 39.0327L96.4993 39.4641L95.8887 39.838L95.5687 39.4353L96.1504 39.0327ZM96.1504 40.5281L95.5106 40.9595L95.1034 40.4707L95.7723 40.0393L96.1504 40.5281ZM96.1504 40.5281L96.4702 40.9595L95.8304 41.3622L95.5106 40.9308L96.1504 40.5281ZM96.5575 41.0746L96.8774 41.4772L96.2666 41.8798L95.9177 41.4772L96.5575 41.0746ZM96.9646 41.5922L97.2845 41.9949L96.6738 42.3975L96.3539 41.9949L96.9646 41.5922ZM97.3427 42.11L97.6916 42.5125L97.0809 42.9152L96.7319 42.4838L97.3427 42.11ZM97.7498 42.6276L98.0115 42.9727L97.4299 43.3466L97.1682 43.0015L97.7498 42.6276ZM98.0987 43.059L98.4186 43.4903L97.837 43.8354L97.5172 43.4329L98.0987 43.059ZM98.2442 43.059L98.8839 42.6564L99.1747 43.059L98.564 43.4616L98.2442 43.059ZM99.2619 43.059L99.6109 43.4903L99.0002 43.893L98.6512 43.4616L99.2619 43.059ZM99.4074 43.059L99.9308 42.7427L100.28 43.1452L99.7563 43.5191L99.4074 43.059ZM100.105 42.6276L100.745 42.2249L101.065 42.6276L100.425 43.059L100.105 42.6276ZM101.152 42.6276L101.414 42.9439L100.774 43.3754L100.512 43.0302L101.152 42.6276ZM101.472 43.059L101.763 43.4329L101.123 43.8642L100.832 43.4903L101.472 43.059ZM101.618 43.059L102.228 42.6564L102.519 43.0302L101.908 43.4329L101.618 43.059ZM102.403 42.57L103.013 42.1387L103.304 42.5125L102.664 42.9152L102.403 42.57ZM103.159 42.0524L103.828 41.621L104.089 41.9661L103.449 42.3975L103.159 42.0524ZM103.653 41.0746L104.409 40.5857L104.642 40.902L103.915 41.4197L103.653 41.0746ZM104.176 40.0105L104.991 39.4929L105.282 39.8667L104.467 40.3844L104.176 40.0105ZM104.729 38.9176L105.427 38.4575L105.747 38.8601L105.078 39.2915L104.729 38.9176ZM104.729 38.9176L104.438 38.5725L105.107 38.1699L105.398 38.4863L104.729 38.9176ZM104.351 38.4863L104.002 38.0836L104.671 37.6522L105.02 38.0549L104.351 38.4863ZM104.351 37.0483L104.845 36.7319L105.194 37.1346L104.7 37.4509L104.351 37.0483ZM104.351 37.0483L104.002 36.6456L104.496 36.3293L104.845 36.7319L104.351 37.0483ZM103.944 36.5307L103.566 36.128L104.06 35.8117L104.438 36.2143L103.944 36.5307ZM103.769 36.5307L103.101 36.962L102.752 36.5307L103.42 36.0992L103.769 36.5307ZM102.664 36.5307L102.257 36.0705L102.926 35.6391L103.333 36.128L102.664 36.5307ZM102.577 35.7829L102.112 35.2365L102.781 34.8051L103.246 35.3802L102.577 35.7829ZM102.577 35.7829L101.937 36.1856L101.501 35.6391L102.112 35.2365L102.577 35.7829ZM101.443 35.5529L101.094 35.0927L101.676 34.69L102.054 35.1214L101.443 35.5529ZM101.268 35.5529L100.541 36.0417L100.192 35.6103L100.949 35.1214L101.268 35.5529ZM100.396 36.1568L99.7563 36.6169L99.4074 36.1568L100.047 35.7254L100.396 36.1568ZM99.3201 36.1568L99.0584 35.8117L99.6982 35.3802L99.9889 35.7254L99.3201 36.1568ZM99.1747 36.1568L98.564 36.5881L98.3023 36.243L98.913 35.8117L99.1747 36.1568ZM98.3895 36.6744L97.8079 37.1058L97.5462 36.7607L98.1278 36.3581L98.3895 36.6744ZM97.4589 36.6744L97.1391 36.2718L97.7498 35.8692L98.0697 36.243L97.4589 36.6744ZM97.6334 37.1921L97.0228 37.6235L96.761 37.3071L97.4008 36.8758L97.6334 37.1921ZM96.8483 37.7385L96.3539 38.0836L96.0922 37.7961L96.6157 37.4222L96.8483 37.7385ZM96.1794 38.1987L95.5978 38.6013L95.3652 38.2849L95.9468 37.8823L96.1794 38.1987ZM95.8596 39.234L95.1907 39.6941L94.8417 39.2627L95.5106 38.8026L95.8596 39.234ZM95.8596 39.234L96.1794 39.6366L95.5396 40.068L95.2198 39.6654L95.8596 39.234ZM95.8596 40.7295L95.3361 41.0746L94.929 40.5857L95.4524 40.2405L95.8596 40.7295ZM95.8596 40.7295L96.2085 41.1609L95.7142 41.4772L95.3652 41.0458L95.8596 40.7295ZM96.2957 41.2471L96.6447 41.6785L96.1213 41.9949L95.8014 41.5635L96.2957 41.2471ZM96.7029 41.7648L97.0228 42.1674L96.5284 42.4838L96.2085 42.0812L96.7029 41.7648ZM97.11 42.2537L97.4589 42.6851L96.9646 43.0015L96.6157 42.5988L97.11 42.2537ZM97.11 43.5479L96.5575 43.893L96.2957 43.5479L96.8192 43.2027L97.11 43.5479ZM97.11 43.1165L97.6044 42.7714L97.8952 43.1165L97.4008 43.4329L97.11 43.1165ZM97.9825 43.1165L98.3023 43.5191L97.8079 43.8354L97.4881 43.4329L97.9825 43.1165ZM98.3604 43.6054L98.7385 44.0656L98.2442 44.3819L97.8952 43.9217L98.3604 43.6054ZM98.5349 43.6054L99.1165 43.2315L99.4365 43.6629L98.8839 44.0368L98.5349 43.6054ZM99.5237 43.778L99.7854 44.123L99.2329 44.4969L98.9712 44.1518L99.5237 43.778ZM99.6691 43.778L100.28 43.4041L100.541 43.7205L99.6691 44.4107V43.778ZM100.425 43.289L100.949 42.9439L101.239 43.289L100.716 43.6342L100.425 43.289ZM101.298 43.289L101.588 43.6629L101.065 44.008L100.774 43.6342L101.298 43.289ZM101.676 43.778L101.966 44.1806L101.443 44.5257L101.152 44.123L101.676 43.778ZM101.821 43.778L102.461 43.3466L102.781 43.778L102.112 44.1806L101.821 43.778ZM102.606 43.2603L103.217 42.8289L103.537 43.2603L102.926 43.6629L102.606 43.2603ZM103.362 42.7427L103.973 42.3112L104.322 42.7427L103.682 43.174L103.362 42.7427ZM104.147 42.2249L104.787 41.7648L105.136 42.2249L104.467 42.6564L104.147 42.2249ZM104.874 41.5635L104.584 41.2184L105.34 40.7295L105.601 41.0746L104.874 41.5635ZM105.165 40.2118L105.98 39.6654L106.241 39.953L105.398 40.5281L105.165 40.2118ZM106.067 39.4641L105.747 39.119L106.445 38.6876C106.445 38.8602 106.445 39.0327 106.445 39.2052L106.067 39.4641ZM106.067 38.0836C106.081 38.1982 106.081 38.3142 106.067 38.4288V38.0836ZM106.067 38.0836L105.776 37.7385L106.125 37.5372C106.186 37.6665 106.235 37.8013 106.27 37.9398L106.067 38.0836ZM104.467 35.2077L103.973 35.5241L103.595 35.0639L103.915 34.8339L104.438 35.179L104.467 35.2077ZM103.508 34.9488L103.042 34.4312C103.307 34.5167 103.561 34.6325 103.799 34.7763L103.508 34.9488ZM102.781 34.3737L102.141 34.8339L101.763 34.3737L102.112 34.1436L102.722 34.3161L102.781 34.3737ZM101.676 34.3737L101.501 34.1436H101.937L101.676 34.3737ZM100.803 34.9776L100.076 35.4666L99.7854 35.1214L100.512 34.6037L100.803 34.9776ZM99.7272 34.9776L99.4365 34.6037L100.192 34.1149L100.454 34.46L99.7272 34.9776ZM99.3783 34.5175L99.1747 34.2586H99.9599L99.3783 34.5175ZM99.5527 35.0639L98.913 35.5241L98.6222 35.1502L99.291 34.7188L99.5527 35.0639ZM98.7676 35.6391L98.1569 36.0705L97.8661 35.6678L98.4768 35.2652L98.7676 35.6391ZM97.7789 35.6391L97.3717 35.0927C97.5853 34.9607 97.8089 34.8453 98.0406 34.7476L98.4186 35.2077L97.7789 35.6391ZM97.7789 35.6391L97.1682 36.0417L96.761 35.5241L97.3427 35.0927L97.7789 35.6391ZM97.4008 36.6456L96.761 37.1058L96.4412 36.6744L97.0809 36.243L97.4008 36.6456ZM96.6157 37.1921L96.1213 37.5659L95.7723 37.1346L96.2957 36.7895L96.6157 37.1921ZM95.7142 37.0195L95.5396 36.8182L95.9468 36.3293L96.2376 36.6744L95.7142 37.0195ZM95.5396 37.0195L95.2489 37.2208C95.3058 37.0998 95.3739 36.9843 95.4524 36.8758L95.5396 37.0195ZM95.2198 38.0549L94.7545 38.4C94.8067 38.1808 94.8849 37.9684 94.9872 37.7673L95.2198 38.0549ZM94.7254 39.0327H94.58C94.58 39.0327 94.58 38.8889 94.58 38.8314L94.7254 39.0327ZM95.2198 39.6654L95.5106 40.0393L95.0162 40.3556L94.6964 40.0105L95.2198 39.6654ZM95.2198 41.0458L94.6381 41.391C94.576 41.1931 94.5274 40.9913 94.4928 40.787L94.8126 40.5569L95.2198 41.0458ZM95.2198 41.0458L95.5687 41.4485L95.0162 41.8223L94.6673 41.391L95.2198 41.0458ZM95.656 41.5635L96.0049 41.9661L95.4524 42.3112L95.1034 41.9086L95.656 41.5635ZM95.656 42.9152H95.5106C95.397 42.7866 95.2902 42.6522 95.1907 42.5125L95.656 42.9152ZM95.4815 42.4263L96.034 42.0812L96.3539 42.4838L95.8014 42.8289L95.4815 42.4263ZM96.4121 42.57L96.761 43.0015L96.2376 43.3466L95.8887 42.9152L96.4121 42.57ZM96.4121 43.8067L96.1213 43.5766L96.4121 43.8067ZM96.9064 44.123L96.7029 43.8642L97.2263 43.5191L97.5753 43.9217L97.11 44.2093L96.9064 44.123ZM97.6334 44.123L98.0115 44.5544L97.3427 44.2956L97.6334 44.123ZM98.0987 44.6695L98.564 44.3532L98.8548 44.6983L98.4768 44.9571H98.3023L98.0987 44.6695ZM98.9421 44.6695L99.1457 44.8996H98.6512L98.9421 44.6695ZM99.7854 44.0944L100.396 43.6917L100.687 44.0656L100.076 44.4681L99.7854 44.0944ZM100.745 44.0944L101.065 44.4681L100.541 44.8133L100.28 44.4969L100.745 44.0944ZM101.152 44.5832H100.774H101.152ZM101.298 44.5832L101.821 44.2381L102.054 44.5544L101.414 44.7558L101.298 44.5832ZM102.374 44.4394H102.228L101.966 44.0944L102.606 43.6629L102.955 44.0944L102.374 44.4394ZM103.101 44.0656L102.752 43.6342L103.391 43.2315L103.711 43.6629C103.564 44.0026 103.357 44.3141 103.101 44.5832V44.0656ZM103.857 43.5479L103.537 43.1165L104.176 42.7139L104.438 43.059L103.857 43.5479ZM104.555 42.9439L104.322 42.6276L104.991 42.1674V42.3112C104.914 42.7167 104.766 43.106 104.555 43.4616V42.9439ZM105.194 42.1674L105.398 42.0237L105.194 42.1674ZM105.776 41.1609L105.485 41.5347L105.834 41.3047L105.776 41.1609ZM106.067 40.2981V40.5281L105.601 40.8158L105.34 40.4707L106.183 39.9242C106.238 40.2262 106.197 40.5374 106.067 40.8158V40.2981ZM100.803 33.8848L100.396 34.1724L100.163 33.8848H100.803ZM98.7967 34.1436L99.0002 34.4312L98.3604 34.8626L98.0115 34.4312L98.7967 34.1436ZM96.2666 35.4953L96.6738 36.0129L96.034 36.4444L95.7142 36.0417L96.2666 35.4953ZM94.1728 40.0968L94.4637 40.4707L94.202 40.6432C94.202 40.9596 94.2019 40.787 94.1728 40.6144V40.0968ZM94.4347 41.391C94.4896 41.5776 94.5576 41.7601 94.6381 41.9374L94.9872 42.34C94.8077 42.1014 94.661 41.8403 94.5509 41.5635C94.525 41.6824 94.486 41.7981 94.4347 41.9086V41.391ZM95.4815 43.174H95.6269L95.9759 43.6054C95.8142 43.6493 95.6486 43.6781 95.4815 43.6917V43.174ZM99.6109 44.9571L100.018 44.6983L100.192 44.9571H99.6691H99.6109ZM101.734 44.9571L102.519 44.6695C104.028 44.0483 105.265 42.9169 106.009 41.4772C106.006 43.1976 106.241 44.9101 106.707 46.5676C105.097 46.038 103.426 45.7095 101.734 45.5898V44.9571Z" fill="#B9C3CD"/>
<path d="M109.179 70.2939C108.703 70.3584 108.271 70.6057 107.977 70.9824C107.683 71.359 107.551 71.8349 107.609 72.3071C107.721 72.7347 107.986 73.1073 108.356 73.3548C108.726 73.6023 109.174 73.7077 109.617 73.6512C110.06 73.5947 110.467 73.3801 110.761 73.0479C111.055 72.7156 111.217 72.2886 111.215 71.847C111.15 71.3757 110.9 70.9486 110.519 70.658C110.138 70.3674 109.657 70.2367 109.179 70.2939Z" fill="#AAB6C1"/>
</g>
<circle cx="73.4737" cy="72.4698" r="62.8688" stroke="url(#paint0_linear_1_502)" stroke-width="3.61835"/>
<defs>
<filter id="filter0_d_1_502" x="0.653076" y="0.55542" width="146.543" height="146.543" filterUnits="userSpaceOnUse" color-interpolation-filters="sRGB">
<feFlood flood-opacity="0" result="BackgroundImageFix"/>
<feColorMatrix in="SourceAlpha" type="matrix" values="0 0 0 0 0 0 0 0 0 0 0 0 0 0 0 0 0 0 127 0" result="hardAlpha"/>
<feOffset dx="1.80918" dy="1.80918"/>
<feColorMatrix type="matrix" values="0 0 0 0 0.0509804 0 0 0 0 0.137255 0 0 0 0 0.266667 0 0 0 0.08 0"/>
<feBlend mode="normal" in2="BackgroundImageFix" result="effect1_dropShadow_1_502"/>
<feBlend mode="normal" in="SourceGraphic" in2="effect1_dropShadow_1_502" result="shape"/>
</filter>
<linearGradient id="paint0_linear_1_502" x1="73.4737" y1="11.4102" x2="73.4737" y2="133.529" gradientUnits="userSpaceOnUse">
<stop stop-color="#D0D8E3"/>
<stop offset="0.552083" stop-color="#DBE3EF"/>
<stop offset="1" stop-color="#C7CFDB" stop-opacity="0.12"/>
</linearGradient>
<clipPath id="clip0_1_502">
<rect width="80" height="70" fill="white" transform="translate(32 34)"/>
</clipPath>
</defs>
</svg>
