<svg width="96" height="96" viewBox="0 0 96 96" fill="none" xmlns="http://www.w3.org/2000/svg">
<g filter="url(#filter0_d_1_509)">
<circle cx="47" cy="46.9999" r="43" fill="#F7F9FC"/>
<circle cx="47" cy="46.9999" r="45" stroke="white" stroke-width="4"/>
</g>
<g clip-path="url(#clip0_1_509)">
<path d="M60.9884 34.1059L60.347 32.1174C60.347 32.1174 62.2585 28.3417 59.3661 26.4665C58.8898 26.1113 58.3224 25.8991 57.7301 25.8545C57.1378 25.8099 56.5451 25.9349 56.021 26.2148C55.83 25.9433 55.5872 25.7124 55.3067 25.5353C55.0261 25.3582 54.7133 25.2384 54.3862 25.1827C51.8712 24.566 52.0472 27.2216 49.507 27.0202C49.507 27.0202 51.2549 29.6506 54.2856 27.0202C54.5612 26.7952 54.9116 26.6828 55.2665 26.7056C54.9121 26.9918 54.5952 27.3216 54.3233 27.6873C53.8034 28.4759 53.4641 29.3698 53.3299 30.3051L52.9149 30.7204C52.4333 30.7726 51.9576 30.8695 51.4939 31.0099V31.1231L51.5693 31.2742L51.4939 31.1231C51.0008 29.5037 50.1644 28.0097 49.0417 26.7434C48.0484 25.49 47.2745 24.0772 46.7529 22.5649L46.4637 20.3247L45.9607 19.8339C47.2368 17.671 48.7057 15.628 50.3495 13.7298C50.4917 14.5807 50.8132 15.3916 51.2927 16.1085C51.4561 16.3476 52.5502 15.6177 52.437 14.7241C52.3062 14.2959 52.0636 13.9103 51.7342 13.6072C51.4048 13.3042 51.0006 13.0945 50.5633 12.9999C48.741 15.0122 47.0603 17.1485 45.5331 19.3934L45.0552 18.9277L43.5839 19.708L43.4205 21.105C42.8854 22.6558 42.0283 24.0756 40.9054 25.2708C39.7204 26.6281 38.8602 28.2379 38.3903 29.9779C38.3903 29.9779 37.774 31.4881 39.7358 32.1426C41.1111 32.629 42.5668 32.8469 44.0241 32.7844C44.1631 32.8878 44.3221 32.9612 44.4909 33.0002C44.6597 33.0392 44.8347 33.0429 45.0049 33.011C45.6211 33.1242 44.7283 34.1563 44.4768 34.2695C44.2253 34.3828 44.4013 34.7981 44.4013 34.7981C43.7929 35.6876 43.3656 36.6884 43.1438 37.7432C43.0901 38.3392 42.8578 38.9051 42.4773 39.3667C42.4381 39.4268 42.3916 39.4817 42.3389 39.5303C42.1 39.7823 41.8481 40.0218 41.5844 40.2477C40.9452 40.9254 40.3725 41.6629 39.8742 42.4502C38.9498 42.8031 38.1375 43.3987 37.5226 44.1744C36.3585 45.6889 35.7942 47.5802 35.938 49.4855C36.1027 50.165 36.3974 50.8061 36.8058 51.3734L36.6423 54.3184C37.0283 54.5493 37.4553 54.7031 37.8998 54.7715L37.7866 54.2051C37.9375 54.7715 38.1262 55.4008 38.2268 55.6777C38.4406 56.2063 40.1886 61.2027 40.1886 61.2027C40.2575 61.943 40.1893 62.6897 39.9873 63.4052C39.3281 65.0324 38.8228 66.7178 38.4783 68.4395C38.4783 69.4966 38.604 76.381 38.604 76.381L38.3022 77.1864L37.4723 79.5651C37.4192 79.8098 37.4192 80.063 37.4723 80.3077C37.4925 80.4279 37.5536 80.5374 37.6453 80.6177C37.737 80.698 37.8535 80.7441 37.9753 80.7482C38.7549 80.7482 46.4889 81.239 47.2685 80.7482C47.3943 80.6601 47.4572 80.572 47.4572 80.4964C47.4572 80.1189 46.1996 79.9427 45.3822 80.0056L43.2192 78.3695L42.8923 77.1109C43.2579 74.8145 44.2013 72.649 45.6337 70.8181C46.1827 69.9649 46.5824 69.0243 46.8158 68.0367C47.5881 67.1449 48.2587 66.1698 48.8153 65.1294C48.9033 64.5505 48.4506 59.6799 48.4506 58.5849C48.4356 57.741 48.3558 56.8995 48.2117 56.0678C48.0544 54.6711 47.7466 53.2954 47.2937 51.9649L47.1805 51.7006C47.0911 51.4916 46.986 51.2896 46.8661 51.0965C47.0232 50.7674 47.0925 50.4032 47.0673 50.0393C47.0673 50.0393 48.0105 49.8757 48.0482 49.5485C48.0482 49.2212 48.4506 48.8437 48.5009 48.2899C48.5512 47.7361 48.7776 47.5096 48.7398 46.8929C48.7398 46.8929 50.5381 45.1435 50.5884 43.9101C50.5884 43.9101 52.2987 43.2179 52.4245 42.3117C52.5502 41.4056 54.2982 40.8015 54.8767 40.512C55.4551 40.2225 58.1086 38.6745 57.8193 37.4411C57.6055 36.4972 57.6181 35.5407 56.3606 35.1002L56.9265 34.5338L57.6181 34.8233L58.4858 33.5647C58.6857 33.597 58.8895 33.597 59.0895 33.5647C59.2564 33.5785 59.421 33.6123 59.5799 33.6654C60.3218 33.892 60.0326 34.3325 60.0326 34.3325C60.0326 34.3325 60.6488 35.0373 60.9758 34.1311L60.9884 34.1059ZM51.9466 31.7273L51.7705 31.4504L51.9466 31.7273ZM51.7579 31.4378L51.6825 31.2868L51.7579 31.4378ZM47.8596 30.5316C47.8596 30.5316 47.8093 30.5568 47.8093 30.5442L47.8596 30.5316ZM44.3636 29.3612C43.541 29.1399 42.6985 29.0008 41.8485 28.9458C42.5296 27.8783 43.0905 26.7387 43.521 25.5477C43.8273 24.7348 44.3385 24.0151 45.0049 23.4585L45.0804 23.383L45.3822 23.7732L45.5331 23.9619C45.5331 23.9619 46.3128 26.6427 47.2811 29.0843C46.2834 29.051 45.2857 29.1483 44.3133 29.3737L44.3636 29.3612ZM43.1689 66.1615L44.4265 63.5814C44.5028 64.0958 44.418 64.6213 44.1839 65.0855C43.9497 65.5498 43.5775 65.9301 43.1186 66.174L43.1689 66.1615ZM54.8264 38.3599C54.8264 38.3599 54.8264 38.2592 54.8264 38.1963C54.8264 38.1333 54.7887 38.3221 54.7761 38.3725L54.8264 38.3599ZM54.8264 38.1837C54.8264 38.1837 54.8264 38.0578 54.8264 37.9949C54.8264 37.932 54.8138 38.1459 54.8012 38.1963L54.8264 38.1837ZM54.8264 37.9823C54.8321 37.9195 54.8321 37.8563 54.8264 37.7935C54.8397 37.8725 54.8439 37.9527 54.8389 38.0326L54.8264 37.9823ZM54.8893 37.7683C54.8849 37.7013 54.8849 37.634 54.8893 37.567C54.8885 37.6385 54.8927 37.71 54.9018 37.7809L54.8893 37.7683Z" fill="#B9C3CD"/>
</g>
<defs>
<filter id="filter0_d_1_509" x="0" y="-0.00012207" width="96" height="96" filterUnits="userSpaceOnUse" color-interpolation-filters="sRGB">
<feFlood flood-opacity="0" result="BackgroundImageFix"/>
<feColorMatrix in="SourceAlpha" type="matrix" values="0 0 0 0 0 0 0 0 0 0 0 0 0 0 0 0 0 0 127 0" result="hardAlpha"/>
<feOffset dx="2" dy="2"/>
<feColorMatrix type="matrix" values="0 0 0 0 0.0509804 0 0 0 0 0.137255 0 0 0 0 0.266667 0 0 0 0.08 0"/>
<feBlend mode="normal" in2="BackgroundImageFix" result="effect1_dropShadow_1_509"/>
<feBlend mode="normal" in="SourceGraphic" in2="effect1_dropShadow_1_509" result="shape"/>
</filter>
<clipPath id="clip0_1_509">
<rect width="25" height="68" fill="white" transform="translate(36 12.9999)"/>
</clipPath>
</defs>
</svg>
