<svg width="96" height="96" viewBox="0 0 96 96" fill="none" xmlns="http://www.w3.org/2000/svg">
<g filter="url(#filter0_d_1_522)">
<g filter="url(#filter1_d_1_522)">
<circle cx="47" cy="46.9999" r="43" fill="#F7F9FC"/>
<circle cx="47" cy="46.9999" r="45" stroke="white" stroke-width="4"/>
</g>
<g clip-path="url(#clip0_1_522)">
<path d="M47.8965 33.0293L51.6863 29.6629L51.9885 29.3709L52.4477 29.1214L63.1999 18.6862C63.1999 18.6862 63.5405 17.7629 63.5266 17.5097C63.5139 17.2633 62.8826 16.0926 63.5384 15.9989C63.6615 15.981 64.317 16.0902 64.4265 16.1635C64.6622 16.3232 64.8009 16.7434 64.8519 16.9728C64.9147 17.2539 65.0846 17.7942 64.9474 18.0211C64.8884 18.1218 64.2846 18.4699 64.1894 18.5347L63.4615 19.0272L52.6628 29.4697L52.3941 29.8683L48.3219 33.5407L47.8965 33.0293Z" fill="#96A7B6"/>
<path d="M44.1289 36.1798C44.1289 36.1798 44.8332 35.5662 45.0612 35.3538C45.2554 35.1737 45.6309 34.7989 45.8065 34.5996C46.2401 34.1156 47.4385 32.5753 47.4385 32.5753L47.4956 32.7687L47.5469 33.1147L47.6515 33.4493L47.7443 33.7426L47.6191 34.0042C47.6191 34.0042 47.3793 34.3885 47.3189 34.5278C47.212 34.7712 47.004 35.5796 46.5215 36.254C46.3353 36.5136 45.8378 37.3313 45.8378 37.3313L44.1289 36.1798ZM44.5543 75.6997C44.6345 75.6682 44.7132 75.6326 44.7899 75.5929C44.8703 75.5531 44.9611 75.4186 44.9982 75.337C45.0539 75.2135 45.0353 74.93 45.0297 74.7943C45.0226 74.6118 44.9469 74.2528 44.9343 74.0702C44.9237 73.9011 44.9237 73.56 44.9343 73.3896C44.9637 72.9455 45.1375 72.0665 45.1667 71.6224C45.1932 71.2238 45.0913 70.4167 45.1667 70.0254C45.2168 69.7614 45.5084 69.288 45.5665 69.0242C45.6425 68.6844 45.6094 67.9783 45.6398 67.6314C45.6725 67.2664 45.805 66.5401 45.8201 66.1726C45.8259 65.7817 45.8084 65.3907 45.7677 65.0019C45.7352 64.7449 45.5399 64.2481 45.5561 63.991C45.5747 63.6788 45.8802 63.112 45.9559 62.8096C46.0761 62.3366 46.2304 61.3688 46.2826 60.8823C46.3594 60.1862 46.312 58.7755 46.4198 58.0834C46.5023 57.5625 46.8747 56.5683 46.9675 56.0496C47.0603 55.5309 47.113 54.4767 47.1687 53.9534C47.2046 53.6148 47.2709 52.9364 47.3257 52.6014C47.3696 52.3398 47.5348 51.8317 47.5487 51.567C47.5649 51.2019 47.5221 50.4468 47.379 50.1106C47.3092 49.9448 47.0116 49.7133 46.9256 49.556C46.8373 49.3927 46.7784 49.0169 46.7583 48.832C46.7289 48.5886 46.7604 47.8846 46.7604 47.8846L46.7766 47.6999C46.7907 47.6302 46.7931 47.4766 46.8163 47.42C46.8885 47.2411 46.8069 47.0516 46.7677 46.863C46.7383 46.7108 46.6107 46.4258 46.5615 46.2785C46.4755 46.019 46.2988 45.5003 46.2313 45.2362C46.1789 45.0233 46.1152 44.5973 46.0663 44.3862C46.0001 44.0957 45.8348 43.5203 45.7626 43.2301C45.6943 42.9493 45.6012 42.3731 45.5013 42.1014C45.3225 41.6201 44.5513 40.279 44.5513 40.279L44.3725 40.0989C44.3725 40.0989 45.6501 40.3508 46.1756 40.2933C46.4337 40.2644 46.9825 40.2599 47.1964 40.1132C47.3613 39.9979 47.6088 39.4168 47.6088 39.4168C47.6088 39.4168 48.4469 37.7168 48.6693 36.1311C48.7064 35.8655 48.7249 35.0602 48.7249 35.0602C48.7249 35.0602 49.5353 34.4442 49.7424 34.1992C50.0432 33.8448 50.6665 32.8302 50.7631 32.6805C50.8303 32.5734 50.8733 32.313 50.9399 32.2074C50.9853 32.1353 51.1096 32.0212 51.1756 31.9698C51.2533 31.9123 51.3203 31.8407 51.3732 31.7584C51.4118 31.6965 51.4467 31.6323 51.4778 31.5661C51.5455 31.4055 51.5779 31.4773 51.6592 31.309C51.6849 31.254 51.7102 31.1219 51.7335 31.0656C51.7709 30.9759 51.9571 30.8749 52.0057 30.7918C52.0404 30.731 52.0498 30.584 52.0861 30.5241C52.1223 30.4642 52.2578 30.3884 52.2846 30.3212C52.3382 30.1916 52.3415 29.8864 52.2846 29.7581C52.251 29.6823 52.122 29.5719 52.0543 29.525C51.9732 29.4712 51.6987 29.3677 51.6987 29.3677C51.6987 29.3677 51.0153 29.4493 50.7896 29.3677C50.6465 29.3175 50.2453 29.3616 50.1015 29.4112C49.8829 29.4867 49.5271 29.6884 49.3088 29.7654C48.8577 29.9385 48.4166 30.1385 47.9879 30.3644C47.5183 30.6248 46.4195 31.4292 46.2301 31.553C45.9488 31.7404 45.3676 32.086 45.0736 32.2494C44.556 32.5351 42.9659 33.3203 42.9659 33.3203C42.9659 33.3203 42.109 33.7201 41.822 33.8512C41.394 34.0441 40.7987 34.6748 40.6779 34.7828C40.5662 34.8835 40.3209 35.059 40.1966 35.1454C40.12 35.1968 39.5175 35.467 38.8176 35.5199C38.6297 35.5342 38.2482 35.4813 38.0611 35.4503C37.9563 35.4335 37.6487 35.3529 37.6487 35.3529L36.8572 34.5522L36.5187 34.2111C36.5187 34.2111 36.5305 34.0024 36.5187 33.9327C36.4801 33.7544 36.4199 33.5817 36.3396 33.4189C36.2353 33.2278 35.9319 32.912 35.8029 32.7368C35.7189 32.6239 35.561 32.39 35.5004 32.2637C35.4538 32.1703 35.4052 31.9683 35.3622 31.8746C35.3033 31.7462 35.1704 31.4977 35.0868 31.3878C34.9901 31.2594 34.7545 31.0337 34.6307 30.93C34.5144 30.8302 34.2705 30.6428 34.1356 30.5685C34.0057 30.4964 33.7299 30.3741 33.5844 30.3452C33.4569 30.3212 33.1914 30.3452 33.0615 30.3452C32.9195 30.3452 31.5421 30.4061 30.7874 30.9865C30.6722 31.0751 30.5223 31.3346 30.4436 31.4593C30.3888 31.5457 30.311 31.738 30.2503 31.8208C30.2041 31.8843 30.0854 31.9878 30.0306 32.0428C29.9422 32.1305 29.7714 32.3048 29.6853 32.3912C29.5519 32.5375 29.4313 32.6958 29.3251 32.8643C29.1065 33.2294 28.9333 34.0623 29.0252 34.3121C29.1495 34.6532 29.3077 34.9772 29.6494 35.0937C29.8736 35.1691 30.6412 35.2701 30.9806 35.2154C31.0967 35.1974 31.4225 35.0633 31.4225 35.0633C31.4225 35.0633 31.7854 35.5936 31.9457 35.7308C32.0803 35.8458 32.4152 35.983 32.5663 36.0788C32.7454 36.1929 33.0686 36.4773 33.2548 36.5796C33.3779 36.648 33.6395 36.7621 33.7779 36.7886C33.8754 36.8065 34.0849 36.7487 34.1777 36.7886C34.2198 36.8065 34.3082 36.9194 34.3082 36.9194L34.4461 37.0587C34.4461 37.0587 34.2012 37.2939 34.1291 37.3791C34.1291 37.3791 33.8966 37.69 33.8345 37.805C33.7417 37.9696 33.5694 38.3155 33.5299 38.5002C33.4754 38.7667 33.5046 39.3168 33.5299 39.5854C33.5638 39.9243 33.681 40.6015 33.7927 40.924C33.8371 41.0524 33.9971 41.2806 34.0416 41.4108C34.1005 41.5869 34.1414 41.9712 34.2334 42.1333C34.3865 42.4011 34.8785 42.796 35.1018 43.0098C35.346 43.245 35.8924 43.6627 36.1063 43.9295C36.4177 44.3114 36.9293 45.1675 37.1129 45.6272C37.2896 46.0738 37.4499 47.0318 37.5406 47.5049C37.5827 47.7273 37.6779 48.396 37.6779 48.396V48.6217C37.6779 48.6217 37.6814 49.013 37.6779 49.145C37.6661 49.4885 37.6128 50.1794 37.5306 50.5141C37.4307 50.94 37.0213 51.7279 36.9099 52.1517C36.8283 52.459 36.7332 53.0918 36.7123 53.4088C36.6607 54.1652 36.7329 55.6875 36.7865 56.4439C36.8216 56.9328 37.0257 57.8993 37.0133 58.3867C37.0074 58.6234 36.8702 59.0843 36.8528 59.321C36.826 59.7004 36.8967 60.4616 36.8911 60.8422C36.8864 61.1351 36.8133 61.7199 36.8248 62.0116C36.8342 62.2386 36.8887 62.6892 36.947 62.9073C36.9818 63.0372 37.1076 63.2748 37.1444 63.4032C37.2015 63.5988 37.2622 64.0025 37.2958 64.2039C37.3933 64.8191 37.5191 66.0616 37.6166 66.6774C37.6888 67.1337 37.8767 68.0388 37.956 68.4951C37.9854 68.6561 38.0167 68.985 38.0597 69.1435C38.1003 69.2974 38.27 69.5831 38.2862 69.744C38.3 69.8867 38.2246 70.1736 38.1911 70.3129C38.1304 70.5673 37.9421 71.0586 37.8806 71.313C37.849 71.4462 37.7748 71.7188 37.7863 71.8545C37.7863 71.8545 36.8563 72.8956 36.6098 73.2905C36.3284 73.7395 35.6518 75.0626 35.7796 75.5813C36.0447 76.6571 37.1444 76.2826 37.6873 76.0858C38.3374 75.8527 38.9396 74.9714 39.2191 74.4913C39.5679 73.8883 40.436 73.1779 40.8172 72.7191C41.0199 72.4757 41.2279 71.9649 41.2279 71.9649C41.2279 71.9649 41.2264 71.7033 41.2279 71.6169C41.2279 71.556 41.2358 71.4368 41.2338 71.3765C41.2291 71.2853 41.2196 71.0933 41.1893 71.0045C41.1684 70.9436 41.0591 70.7882 41.0591 70.7882V70.4194C40.9895 70.1219 41.1905 69.5107 41.2279 69.2067C41.2485 69.0339 41.2918 68.6895 41.3009 68.5152C41.3195 68.1635 41.2942 67.4611 41.3009 67.1094C41.3104 66.7263 41.3171 65.9566 41.3637 65.576C41.3858 65.4127 41.3369 64.9204 41.5021 64.9277C41.6674 64.935 41.5752 65.4367 41.5858 65.6098C41.6079 65.9651 41.5778 66.6783 41.5858 67.036C41.5914 67.3385 41.6311 67.9448 41.6382 68.2487C41.6438 68.5034 41.6382 69.0148 41.6382 69.2703C41.6382 69.5259 41.6615 70.0376 41.6382 70.2923C41.6217 70.4845 41.5204 70.8566 41.5021 71.0489C41.4871 71.2034 41.508 71.5192 41.5021 71.6753C41.4844 72.1231 41.4845 73.0322 41.3637 73.4642C41.3195 73.6227 41.108 73.8901 41.0691 74.0504C41.0367 74.1944 41.0131 74.5068 41.0691 74.6458L40.5648 75.2379C40.5648 75.2379 40.1229 75.7803 39.96 75.9461C39.7971 76.1119 39.4159 76.4229 39.2639 76.5823C38.9894 76.8646 38.2329 77.0928 38.2329 77.0928C38.2329 77.0928 37.7615 77.2978 37.6025 77.3617C37.3818 77.4502 37.2982 77.7146 37.2516 77.8613C37.2222 77.9525 37.2516 78.2455 37.2516 78.2455L37.497 78.4974C37.497 78.4974 38.5119 78.7712 38.8559 78.836C39.1605 78.8935 39.7721 78.9933 40.0811 78.9994C40.3757 79.004 40.9707 78.9611 41.2612 78.9057C41.6182 78.8394 42.311 78.6127 42.6666 78.5333C43.011 78.4591 43.7118 78.3812 44.0511 78.279C44.2346 78.2236 44.7634 77.9811 44.7634 77.9811C44.7634 77.9811 44.8206 77.3243 44.8079 77.1059C44.7823 76.7493 44.5543 75.7 44.5543 75.7V75.6997Z" fill="#B9C3CD"/>
</g>
</g>
<defs>
<filter id="filter0_d_1_522" x="0" y="-0.00012207" width="96" height="96" filterUnits="userSpaceOnUse" color-interpolation-filters="sRGB">
<feFlood flood-opacity="0" result="BackgroundImageFix"/>
<feColorMatrix in="SourceAlpha" type="matrix" values="0 0 0 0 0 0 0 0 0 0 0 0 0 0 0 0 0 0 127 0" result="hardAlpha"/>
<feOffset dx="2" dy="2"/>
<feColorMatrix type="matrix" values="0 0 0 0 0.0509804 0 0 0 0 0.137255 0 0 0 0 0.266667 0 0 0 0.08 0"/>
<feBlend mode="normal" in2="BackgroundImageFix" result="effect1_dropShadow_1_522"/>
<feBlend mode="normal" in="SourceGraphic" in2="effect1_dropShadow_1_522" result="shape"/>
</filter>
<filter id="filter1_d_1_522" x="0" y="-0.00012207" width="96" height="96" filterUnits="userSpaceOnUse" color-interpolation-filters="sRGB">
<feFlood flood-opacity="0" result="BackgroundImageFix"/>
<feColorMatrix in="SourceAlpha" type="matrix" values="0 0 0 0 0 0 0 0 0 0 0 0 0 0 0 0 0 0 127 0" result="hardAlpha"/>
<feOffset dx="2" dy="2"/>
<feColorMatrix type="matrix" values="0 0 0 0 0.0509804 0 0 0 0 0.137255 0 0 0 0 0.266667 0 0 0 0.08 0"/>
<feBlend mode="normal" in2="BackgroundImageFix" result="effect1_dropShadow_1_522"/>
<feBlend mode="normal" in="SourceGraphic" in2="effect1_dropShadow_1_522" result="shape"/>
</filter>
<clipPath id="clip0_1_522">
<rect width="36" height="63" fill="white" transform="translate(29 15.9999)"/>
</clipPath>
</defs>
</svg>
