<svg width="136" height="136" viewBox="0 0 136 136" fill="none" xmlns="http://www.w3.org/2000/svg">
<g filter="url(#filter0_d_1_516)">
<circle cx="67" cy="66.9999" r="63" fill="#F7F9FC"/>
<circle cx="67" cy="66.9999" r="65" stroke="white" stroke-width="4"/>
</g>
<g clip-path="url(#clip0_1_516)">
<path fill-rule="evenodd" clip-rule="evenodd" d="M61.2863 54.5166L60.9401 54.4174L59.5405 55.2045L58.9086 55.774C58.9086 55.774 58.4902 56.1727 58.3323 56.2839C58.1004 56.4485 57.5842 56.6911 57.3417 56.8431C56.8588 57.1404 55.951 57.8297 55.4588 58.114C55.0373 58.358 54.1415 58.7418 53.7098 58.9598C53.2986 59.1687 52.5047 59.6468 52.0971 59.8661C51.7411 60.0589 51.0054 60.4271 50.673 60.6661C50.5132 60.7809 50.2307 61.0554 50.0945 61.193C49.9997 61.2868 49.8204 61.4921 49.7612 61.611C49.6904 61.7419 49.6499 62.1523 49.0393 62.494C48.9023 62.5734 48.6437 62.7666 48.4893 62.8039C48.3171 62.8429 47.9553 62.7985 47.783 62.7684C47.6464 62.7469 47.3901 62.6442 47.2566 62.6195C47.1088 62.5913 46.7671 62.5209 46.6434 62.4402C46.5837 62.4011 46.4115 62.2455 46.4115 62.2455C46.4115 62.2455 46.2695 62.4756 46.2335 62.5594C46.1974 62.6433 46.1916 62.8514 46.132 62.9276C46.077 62.9815 46.0086 63.0193 45.934 63.037C45.8508 63.0478 45.7911 63.0725 45.7279 63.0214C45.6229 62.9384 45.4894 62.6904 45.4698 62.5577C45.4538 62.4603 45.5539 62.172 45.5539 62.172L45.5611 61.6585L45.282 61.8164C45.282 61.8164 45.0342 62.1155 44.9901 62.2267C44.9345 62.3684 44.8499 62.7115 44.7885 62.8496C44.7338 62.977 44.578 63.2178 44.4565 63.285C44.372 63.3348 44.3088 63.3241 44.2104 63.3115C44.1508 63.3025 44.0177 63.2886 43.9754 63.2424C43.898 63.1613 43.8807 62.9151 43.8838 62.8039C43.8909 62.6245 44.0088 62.2872 44.0734 62.1245C44.1548 61.9258 44.4828 61.3702 44.4828 61.3702C44.4828 61.3702 44.1508 61.5787 44.0734 61.6675C43.9893 61.763 43.8295 61.9366 43.74 62.0262C43.659 62.1115 43.5451 62.2706 43.4285 62.285C43.316 62.2864 43.2054 62.2553 43.1099 62.1953C43.0737 62.1596 43.0455 62.1165 43.0275 62.0688C43.0094 62.0211 43.0019 61.97 43.0053 61.9191C43.0138 61.8294 43.1633 61.5877 43.1633 61.5877L43.4966 61.2464C43.4966 61.2464 43.1766 61.1966 43.0961 61.1316C43.0443 61.0862 43.0094 61.0243 42.9973 60.9563C43.0009 60.8536 43.1468 60.6836 43.2198 60.6127C43.3867 60.4553 43.8032 60.2289 44.0244 60.1598C44.1686 60.115 44.4694 60.0997 44.6127 60.0625C44.8956 59.9811 45.1731 59.8818 45.4436 59.7652C45.5993 59.6925 45.8824 59.4696 46.0475 59.4235C46.2255 59.3741 46.6029 59.3741 46.7835 59.3952C47.168 59.4432 48.2744 59.8235 48.2744 59.8235L49.1105 59.0907C49.1105 59.0907 50.1341 58.2979 50.4558 58.0113C50.9302 57.5866 51.8114 56.666 52.2577 56.2094C52.6035 55.8574 53.2764 55.13 53.6239 54.7793C53.8749 54.5287 54.3885 54.0313 54.6497 53.7869C54.9341 53.5232 55.5033 52.9954 55.8068 52.7515C56.0084 52.5887 56.4178 52.2613 56.6479 52.1407C56.8535 52.0331 57.2998 51.9088 57.5192 51.8348C57.6856 51.7815 58.0265 51.7003 58.1867 51.6312C58.3977 51.5416 58.9824 51.1828 58.9824 51.1828L59.6816 50.5101L59.3879 49.7684L59.8832 49.337C59.8832 49.337 60.3366 48.9119 60.4617 48.7491C60.6143 48.5473 60.8128 48.0661 60.9655 47.8643C61.099 47.6907 62.8519 45.6059 63.2453 45.2023C63.3615 45.0821 64.8207 44.0718 64.9448 44.022C65.093 43.9637 65.3703 43.8081 65.5127 43.7372C65.7125 43.6345 68.1948 42.7991 68.1948 42.7991C68.1948 42.7991 67.2745 42.2506 67.0636 42.0914C66.5647 41.7053 65.9185 40.9179 65.9185 40.9179C65.9185 40.9179 65.4375 40.3304 65.2474 40.1658C65.1366 40.0703 64.8714 39.9358 64.7579 39.842C64.6925 39.7836 64.6302 39.7216 64.5715 39.6564C64.5452 39.6277 64.4998 39.5667 64.4731 39.5357C64.3926 39.446 64.2061 39.2913 64.1345 39.1958C64.0628 39.1003 63.9587 38.8819 63.9061 38.7747C63.8394 38.6438 63.6921 38.3855 63.6605 38.2438C63.632 38.1128 63.5003 37.8702 63.5003 37.8702C63.5003 37.8702 63.3054 37.7236 63.1888 37.7092C63.0722 37.6949 62.8239 37.6545 62.7184 37.594C62.6129 37.5334 61.8595 37.1164 62.0032 36.706C62.1648 36.237 62.4322 36.0298 62.5092 35.9374C62.6531 35.7553 62.7856 35.5645 62.9062 35.3661C62.9694 35.2598 63.0606 35.028 63.1332 34.9288C63.2017 34.8369 63.3877 34.697 63.4544 34.6051C63.588 34.423 63.7807 34.0104 63.8688 33.805C63.932 33.6651 64.0058 33.3683 64.0779 33.2337C64.2061 32.9983 64.5203 32.5521 64.7205 32.3772C64.8349 32.2745 65.1295 32.1646 65.2492 32.0704C65.3689 31.9763 65.5514 31.7274 65.6742 31.6426C65.8179 31.5467 67.8166 31.0305 68.0026 31.0018C68.1806 30.9753 69.4645 31.0655 69.6447 31.0727C70.5347 31.1224 71.2379 32.8602 71.3714 33.0229C71.4875 33.1611 71.751 33.6333 71.751 33.6333L71.9196 34.1288L72.1301 35.1378C72.1301 35.1378 72.2191 35.5114 72.2601 35.6311C72.2988 35.7387 72.4007 35.945 72.4501 36.0486C72.4995 36.1522 72.6148 36.3428 72.6392 36.4522C72.6588 36.5848 72.6588 36.7196 72.6392 36.8522C72.6272 36.9195 72.5569 37.0469 72.5449 37.1177C72.5394 37.2003 72.5394 37.2831 72.5449 37.3657L72.8083 37.9003L73.1314 38.4698C73.1314 38.4698 73.4385 38.9972 73.5653 39.1564C73.6268 39.2338 73.6968 39.3039 73.774 39.3653C73.9688 39.4777 74.1787 39.5612 74.3971 39.6133C74.5831 39.6487 74.9658 39.6411 75.1536 39.6133C75.3227 39.5869 75.7984 39.4043 75.7984 39.4043C75.7984 39.4043 76.401 39.1864 76.6119 39.1564C76.7802 39.1317 77.121 39.1496 77.2933 39.1564C77.4655 39.1631 77.8184 39.22 77.9902 39.1954C78.1504 39.1707 78.4414 39.0236 78.5963 38.985C79.0385 38.8813 79.4866 38.805 79.938 38.7563C80.2583 38.7335 80.5798 38.7335 80.9002 38.7563C81.2237 38.7904 81.8525 38.9514 82.1685 39.0223C82.4706 39.0895 83.0817 39.2115 83.3789 39.3088C83.8105 39.462 84.2331 39.6398 84.6446 39.8416C84.8942 39.9667 85.3633 40.2748 85.6071 40.4129C85.8296 40.5407 86.515 40.9062 86.515 40.9062L86.9662 41.1542L87.9502 41.3241L88.1963 41.5717L89.0285 41.7434L90.3524 42.0479L90.8811 42.1435L91.2589 41.5914C91.2589 41.5914 91.691 40.8959 91.8245 40.6587C91.9295 40.4743 92.136 40.1084 92.2215 39.9151C92.2971 39.7452 92.4373 39.3949 92.4671 39.2106C92.4863 39.1012 92.4671 38.772 92.4671 38.772C92.4671 38.772 91.8717 38.2411 91.7222 38.0218C91.6207 37.8729 91.4836 37.533 91.4276 37.3635C91.3831 37.22 91.2869 36.9244 91.2941 36.7724C91.318 36.6187 91.3693 36.4706 91.4454 36.3352C91.4792 36.28 91.5664 36.1773 91.626 36.1558C91.6932 36.1275 91.918 36.1558 91.918 36.1558C91.918 36.1558 91.983 35.2176 92.1022 34.9257C92.1374 34.8409 92.278 34.7118 92.3568 34.6674C92.4707 34.6073 92.5463 34.54 92.6745 34.5261C92.7871 34.5154 93.128 34.5261 93.128 34.5261C93.128 34.5261 93.4373 34.4109 93.5441 34.3947C93.6424 34.3791 93.8498 34.3562 93.941 34.3947C94.0323 34.4333 94.2045 34.6602 94.2045 34.6602L94.4154 34.8692C94.4154 34.8692 94.6753 34.8378 94.7523 34.8692C94.8524 34.914 94.9806 35.0993 95.0563 35.1737C95.1088 35.2266 95.2369 35.3154 95.2637 35.3845C95.2859 35.4428 95.2637 35.632 95.2637 35.632L95.4897 35.8603C95.4897 35.8603 95.6535 35.9876 95.6797 36.0495C95.7327 36.1787 95.6797 36.6038 95.6797 36.6038L95.8675 36.9626C95.8675 36.9626 95.9944 37.2141 96.001 37.3061C96.0099 37.4123 95.9361 37.62 95.9063 37.724C95.88 37.8137 95.8253 38.0052 95.7728 38.0864C95.7096 38.1823 95.5235 38.3222 95.4514 38.4106C95.3645 38.5307 95.2887 38.6586 95.2249 38.7927C95.1743 38.8949 95.1364 39.003 95.1123 39.1146C95.0211 39.6492 94.9245 40.7465 94.8809 41.2865C94.8364 41.7627 94.67 42.7076 94.5578 43.17C94.4764 43.5103 94.4764 44.1754 94.354 44.5027C94.2873 44.687 94.1355 45.0498 94.0519 45.227C93.9918 45.3575 93.8939 45.6427 93.788 45.7418C93.7092 45.8162 93.4951 45.8817 93.3914 45.9135C93.2352 45.9611 92.9099 46.0127 92.7484 46.0481C92.6011 46.0763 92.3074 46.1279 92.1636 46.1611C91.9932 46.1983 91.6563 46.3095 91.4805 46.3311C91.2665 46.3593 90.8308 46.3503 90.6127 46.3311C90.3947 46.3118 89.9732 46.223 89.7627 46.179C89.4641 46.1189 88.8691 45.9808 88.5719 45.9135C88.2314 45.836 87.211 45.5893 87.211 45.5893C87.211 45.5893 87.0446 45.9189 86.9845 46.0266C86.9039 46.1719 86.644 46.5983 86.644 46.5983L86.2858 46.9611C86.2858 46.9611 85.5974 46.9275 85.4287 46.8903C84.7839 46.7557 83.0367 46.7508 83.0367 46.7508C83.0367 46.7508 82.7412 47.2266 82.6749 47.3979C82.601 47.5948 82.5271 48.0105 82.4849 48.2177C82.4404 48.4585 82.3692 48.9468 82.334 49.1877C82.2984 49.4406 82.2357 49.9446 82.2005 50.1962C82.1707 50.4317 82.0861 50.8953 82.0861 51.1308C82.0897 51.4564 82.2588 52.1003 82.2588 52.4263C82.2548 52.812 82.0265 53.5658 81.9735 53.9484C81.9108 54.3941 81.8267 55.2897 81.8031 55.7395C81.7702 56.457 81.8614 57.8983 81.8031 58.6149C81.7737 58.9938 81.5895 59.7387 81.5579 60.1194C81.5377 60.4938 81.5377 60.8689 81.5579 61.2433C81.5837 61.6114 81.7034 62.3437 81.7666 62.7088C81.8298 63.0738 81.9985 63.8075 82.0688 64.1739C82.1551 64.6308 82.3883 66.004 82.3883 66.004L82.7292 66.9385L82.2588 67.1861L82.3883 67.717L82.8235 68.1561L82.8805 68.5148C82.8805 68.5148 83.8195 70.975 84.1502 71.8862C84.1795 71.9728 84.2534 72.1428 84.2837 72.2275C84.5925 73.102 85.2458 76.4573 85.2458 76.4573L84.5466 77.0663L83.876 77.7421C83.876 77.7421 84.0985 79.5013 83.637 81.218C83.5106 81.6888 83.2681 82.6763 83.2419 83.1611C83.2271 83.3413 83.1955 83.5196 83.1475 83.6939C83.0999 83.8405 83.0362 83.9813 82.9575 84.1136C82.8645 84.2513 82.6046 84.4692 82.4849 84.5912C82.3652 84.7132 82.1022 84.9347 82.0038 85.076C81.881 85.2495 81.7225 85.6316 81.7225 85.8477C81.7225 86.1433 81.5824 86.924 81.5699 86.9895C81.5086 87.2503 81.4098 87.5006 81.2766 87.7326C81.1712 87.8936 80.7395 88.2707 80.7395 88.2707C80.7395 88.2707 80.2211 89.2465 80.0297 89.5595C79.805 89.9223 79.3239 90.6286 79.0676 90.9681C78.7934 91.3237 78.1998 91.9946 77.9105 92.3381C77.6502 92.652 77.1308 93.2798 76.8727 93.5978C76.4722 94.0776 75.6783 95.0369 75.2831 95.5198C74.9035 95.9835 74.1487 96.9181 73.7727 97.3849C73.548 97.6652 72.1502 99.1411 72.1502 99.1411C72.3282 99.311 72.5155 99.4895 72.6842 99.6433C72.7494 99.694 72.8074 99.7536 72.8564 99.8204C72.9356 99.9657 73.0073 100.139 73.0883 100.298C73.1223 100.38 73.1622 100.46 73.2075 100.536C73.26 100.607 73.3904 100.67 73.4745 100.727C73.5676 100.792 73.6646 100.856 73.7416 100.911C73.9961 101.09 74.1648 101.431 74.3931 101.651C74.5457 101.804 74.7139 101.94 74.895 102.058C74.9841 102.114 75.078 102.167 75.1727 102.228C75.4625 102.401 76.7392 103.038 76.9083 103.18C76.9893 103.247 77.0734 103.318 77.1544 103.388C77.2354 103.459 77.3614 103.534 77.4121 103.617C77.4597 103.706 77.4982 103.8 77.5269 103.896C77.5425 103.969 77.6529 104.734 77.1086 104.783C76.9644 104.795 75.644 104.769 75.3383 104.728C75.3257 104.782 75.3057 104.834 75.2787 104.882C75.1594 105.084 74.6361 104.964 74.5591 104.829C74.533 104.774 74.5243 104.712 74.5341 104.652C74.365 104.603 74.167 104.588 73.993 104.546C73.9369 104.613 73.9649 104.691 73.8839 104.748C73.7086 104.872 73.252 104.761 73.192 104.617C73.1608 104.537 73.1871 104.468 73.1782 104.381C73.0095 104.33 72.8221 104.296 72.6566 104.242C72.6094 104.34 72.6143 104.433 72.4933 104.471C72.2997 104.532 71.9241 104.457 71.8645 104.319C71.8102 104.194 71.8644 104.043 71.8729 103.918C71.6059 103.809 71.3536 103.659 71.0674 103.573C70.8814 103.517 70.658 103.483 70.456 103.434C70.14 103.36 69.7817 103.39 69.4142 103.352C69.3514 103.466 69.3866 103.608 69.2335 103.657C69.0386 103.721 68.655 103.648 68.5976 103.484C68.5682 103.397 68.5891 103.321 68.5909 103.215C68.3853 103.167 68.1904 103.111 67.9799 103.068C67.9354 103.158 67.9465 103.259 67.8673 103.317C67.7017 103.443 67.2104 103.35 67.1646 103.152C67.1419 103.051 67.1615 102.997 67.1704 102.882C67.1014 102.846 66.9839 102.851 66.8976 102.796C66.842 102.759 66.7258 102.679 66.7049 102.619C66.6604 102.491 66.6697 102.233 66.6555 102.081C66.6239 101.722 66.5571 101.348 66.6065 101.042C66.631 100.886 66.6448 100.733 66.6782 100.603C66.7133 100.463 66.8962 100.368 66.9452 100.258C67.0475 100.034 67.0996 99.798 67.2122 99.5891C67.3177 99.3805 67.4018 99.159 67.5567 98.9908C67.627 98.9679 67.7284 98.9715 67.813 98.9594L68.1343 98.8567C68.1343 98.8567 68.5504 98.2549 68.6875 98.0495C69.0969 97.4585 69.9166 96.2705 70.314 95.6728C70.5668 95.2938 71.0652 94.54 71.2975 94.148C71.5427 93.7337 72.1368 92.1906 72.2685 91.8421C72.4844 91.2722 72.7269 90.0228 72.8026 89.7622C72.8675 89.538 73.0041 89.0954 73.1061 88.8846C73.2431 88.5927 73.5956 88.0442 73.7843 87.7819C73.9912 87.4953 74.4073 86.9222 74.6552 86.6742C74.9329 86.3984 75.8897 85.7114 75.8897 85.7114L76.3147 85.2831L76.5131 84.6836L76.7503 84.4446L77.0441 84.3203C77.0441 84.3203 77.0174 83.1207 77.0441 82.7207C77.0543 82.5346 77.1388 81.979 77.1388 81.979L76.7766 81.6202L75.6195 82.0965C75.6195 82.0965 74.9965 80.4292 74.8995 80.2839C74.677 79.9619 74.2605 79.3053 74.054 78.9708C73.977 78.8488 73.8697 78.5605 73.7522 78.4775C73.6347 78.3946 73.3072 78.3838 73.2235 78.2667C72.981 77.938 73.1301 77.8631 71.8569 77.7129L71.7376 78.1255C71.6197 78.4017 71.4145 81.035 70.6771 81.5337C70.4239 81.7072 69.4618 81.4243 69.4618 81.4243C69.4618 81.4243 67.6879 83.5288 67.3929 83.7638C67.1325 83.9764 66.1562 85.4419 65.0343 85.5603C64.701 85.5971 64.0263 85.5477 63.6925 85.5231C63.3939 85.502 62.8025 85.4024 62.5075 85.3818C62.0522 85.3495 61.139 85.3248 60.6829 85.3464C60.4301 85.3567 59.9312 85.7177 59.6802 85.7352C59.443 85.7495 58.9682 85.7352 58.7332 85.7392C58.5352 85.7424 58.1347 85.7392 57.9362 85.7706C57.6692 85.8155 55.9514 86.1213 55.635 86.2132C55.101 86.3688 54.0231 86.6469 53.4824 86.7689C53.0819 86.8585 52.2773 86.9989 51.8772 87.0859C51.5715 87.155 50.6619 87.385 50.6619 87.385C50.6619 87.385 49.9628 87.9034 49.706 88.029C49.5725 88.0927 49.1497 88.2084 49.1497 88.2084L48.593 88.2877L48.0661 88.3178L48.0269 88.5232L47.6816 88.7568C47.6816 88.7568 47.0559 89.0707 46.8405 89.1604C46.6011 89.2595 46.0884 89.3761 45.8637 89.5071C45.6265 89.6452 45.2491 90.0645 45.0279 90.2313C44.7573 90.4398 44.1655 90.7847 43.8931 90.9937C43.7035 91.1408 43.3613 91.4789 43.1713 91.6255C42.943 91.8009 42.4811 92.1583 42.2141 92.2682C42.0276 92.3457 41.6173 92.4238 41.413 92.4166C41.2586 92.4099 40.9475 92.3547 40.8016 92.2928C40.6585 92.2285 40.526 92.1426 40.4086 92.0381C40.2893 91.9193 40.0779 91.6345 40.0308 91.4681C39.9516 91.1883 40.0254 90.5905 40.0797 90.3022C40.1064 90.1604 40.268 89.7533 40.268 89.7533C40.268 89.7533 40.0677 89.5905 40.0535 89.5089C40.0286 89.3689 40.1447 89.0604 40.2626 88.9815C40.3258 88.9366 40.5741 88.9743 40.5741 88.9743L40.9498 88.1146C40.9498 88.1146 40.8256 87.8985 40.8341 87.8187C40.8519 87.6581 41.0521 87.355 41.1958 87.2841C41.2733 87.2473 41.5367 87.311 41.5367 87.311C41.5367 87.311 43.1348 85.8845 43.7463 85.5253C43.9145 85.4226 44.3043 85.3181 44.4801 85.2262C44.7262 85.0917 45.4093 84.5984 45.4093 84.5984C45.4093 84.5984 45.4057 84.432 45.4284 84.384C45.464 84.301 45.5918 84.145 45.6799 84.1239C45.7204 84.1172 45.8325 84.1786 45.8325 84.1786L46.2611 83.7208C46.2611 83.7208 46.2135 83.6019 46.2224 83.5611C46.2402 83.4714 46.3852 83.3369 46.4578 83.2763C46.5468 83.2001 46.7564 83.0337 46.8703 83.0521C46.9246 83.0588 47.0283 83.2041 47.0283 83.2041C47.0283 83.2041 47.7043 83.0589 47.933 83.066C48.2445 83.0732 48.864 83.197 49.155 83.3104C49.2796 83.3619 49.3962 83.4311 49.5013 83.5158C49.5647 83.5973 49.6217 83.6837 49.6717 83.7741L50.3072 83.6217C50.3072 83.6217 51.6369 83.1476 52.0615 82.944C52.5835 82.6978 53.5492 82.0575 54.0641 81.7938C54.579 81.5301 55.6341 81.0839 56.161 80.8574C56.5824 80.6731 57.4342 80.3229 57.861 80.1493C58.1841 80.0188 58.8271 79.7426 59.1573 79.6327C59.3874 79.5583 59.8529 79.4273 60.0919 79.3941C60.4083 79.3529 61.3669 79.378 61.3669 79.378L61.0193 78.7551C61.0193 78.7551 61.6125 78.2134 61.7887 78.0098C62.0838 77.6627 62.4118 76.7165 62.6454 76.3286C62.9053 75.9021 63.3868 75.0312 63.5866 74.5747C63.9836 73.6778 64.4322 71.5481 64.5528 71.0176C64.6476 70.5979 64.9212 69.7767 64.9711 69.3507C65.0156 68.9749 65.3925 68.209 65.4415 67.8323C65.486 67.5063 65.7926 66.5645 65.7926 66.5645L66.3809 65.321L65.9052 64.6376L66.1442 63.7474C66.1442 63.7474 66.2812 63.2303 66.3582 63.0747C66.3969 62.9985 66.5198 62.8675 66.5514 62.7895C66.6359 62.5877 66.6568 62.1384 66.7325 61.933C66.7659 61.8433 66.8709 61.6854 66.9105 61.6002C67.0035 61.3912 67.1775 60.8567 67.1775 60.7222C67.1659 60.4606 67.1341 60.2003 67.0823 59.9437C67.0511 59.8199 66.9403 59.5916 66.9123 59.4674C66.854 59.2055 66.8335 58.6678 66.8192 58.4006C66.8086 58.2162 66.8406 57.8391 66.7983 57.6588C66.7454 57.427 66.4997 57.0162 66.4027 56.8005C66.3168 56.6112 66.1063 56.2449 66.0623 56.0381C66.0271 55.8753 66.0957 55.5359 66.0623 55.3731C66.0374 55.2489 65.9163 55.0296 65.8727 54.9161C65.8077 54.7462 65.6742 54.4062 65.6284 54.2295C65.5849 54.0542 65.5526 53.8763 65.5318 53.6968C65.5145 53.4865 65.5318 52.8578 65.5318 52.8578L65.4949 52.116L64.6271 53.0071L64.5381 53.0622L61.2863 54.5166Z" fill="#B9C3CD"/>
<path d="M56.4358 97.8424C56.4358 98.7301 56.1745 99.5979 55.6851 100.336C55.1957 101.074 54.5 101.649 53.6861 101.989C52.8722 102.329 51.9766 102.418 51.1126 102.245C50.2486 102.071 49.4549 101.644 48.832 101.016C48.209 100.389 47.7848 99.5887 47.6129 98.7181C47.4411 97.8474 47.5293 96.9449 47.8664 96.1247C48.2035 95.3045 48.7744 94.6035 49.5069 94.1103C50.2394 93.6171 51.1006 93.3539 51.9815 93.3539C52.5665 93.3538 53.1458 93.4698 53.6863 93.6953C54.2267 93.9208 54.7178 94.2515 55.1314 94.6683C55.5451 95.0851 55.8731 95.5799 56.097 96.1246C56.3208 96.6692 56.4359 97.2529 56.4358 97.8424Z" fill="#AAB6C1"/>
</g>
<circle cx="67" cy="66.9999" r="59" stroke="url(#paint0_linear_1_516)" stroke-width="4"/>
<defs>
<filter id="filter0_d_1_516" x="0" y="-0.00012207" width="136" height="136" filterUnits="userSpaceOnUse" color-interpolation-filters="sRGB">
<feFlood flood-opacity="0" result="BackgroundImageFix"/>
<feColorMatrix in="SourceAlpha" type="matrix" values="0 0 0 0 0 0 0 0 0 0 0 0 0 0 0 0 0 0 127 0" result="hardAlpha"/>
<feOffset dx="2" dy="2"/>
<feColorMatrix type="matrix" values="0 0 0 0 0.0509804 0 0 0 0 0.137255 0 0 0 0 0.266667 0 0 0 0.08 0"/>
<feBlend mode="normal" in2="BackgroundImageFix" result="effect1_dropShadow_1_516"/>
<feBlend mode="normal" in="SourceGraphic" in2="effect1_dropShadow_1_516" result="shape"/>
</filter>
<linearGradient id="paint0_linear_1_516" x1="67" y1="9.99988" x2="67" y2="124" gradientUnits="userSpaceOnUse">
<stop stop-color="#D0D8E3"/>
<stop offset="0.552083" stop-color="#DBE3EF"/>
<stop offset="1" stop-color="#C7CFDB" stop-opacity="0.12"/>
</linearGradient>
<clipPath id="clip0_1_516">
<rect width="56" height="74" fill="white" transform="translate(40 30.9999)"/>
</clipPath>
</defs>
</svg>
