<svg width="164" height="164" viewBox="0 0 164 164" fill="none" xmlns="http://www.w3.org/2000/svg">
<g filter="url(#filter0_d_1_545)">
<circle cx="81" cy="80.9999" r="77" fill="#F7F9FC"/>
<circle cx="81" cy="80.9999" r="79" stroke="white" stroke-width="4"/>
</g>
<g clip-path="url(#clip0_1_545)">
<path d="M53.1754 44.5095C52.296 43.9544 51.2749 43.6694 50.237 43.6894C49.1992 43.7094 48.1897 44.0335 47.3321 44.6221C46.4745 45.2106 45.8061 46.038 45.4086 47.003C45.0112 47.968 44.9021 49.0286 45.0945 50.0551C45.2869 51.0815 45.7726 52.0293 46.4921 52.7822C47.2115 53.5352 48.1336 54.0606 49.1453 54.2943C50.157 54.528 51.2145 54.4597 52.1882 54.0978C53.162 53.7359 54.0097 53.0962 54.6277 52.2568L55.0003 52.4507C55.1895 52.591 55.5362 52.9051 55.7494 53.0047C56.0243 53.133 56.6545 53.1704 56.9294 53.3014C57.0961 53.3816 57.3943 53.6215 57.5331 53.7478C57.8738 54.0525 58.4303 54.789 58.7716 55.0917C59.2989 55.5662 60.4816 56.3567 61.0521 56.7798L62.9361 58.1731C63.5073 58.5928 64.5997 59.5097 65.2173 59.8579C65.7286 60.1432 66.8576 60.5148 67.4001 60.748C67.9819 61 69.1109 61.6021 69.7065 61.8052C69.9483 61.8848 70.4417 62.0164 70.6947 62.0251C70.9477 62.0338 71.4491 61.9075 71.7048 61.8674C71.9459 61.8333 72.4419 61.7932 72.669 61.719C72.9951 61.6168 73.5987 61.28 73.9002 61.1176C74.2323 60.9405 74.8346 60.4667 75.1859 60.3377C75.4841 60.2328 76.1336 60.2328 76.4377 60.1466C76.7837 60.047 77.4392 59.7382 77.7566 59.5672C78.0223 59.4275 78.4918 59.0218 78.7694 58.9129C79.047 58.804 79.624 58.673 79.9016 58.7392C80.063 58.7813 80.3333 59.0018 80.4382 59.1355C80.6939 59.4609 80.9542 60.2782 81.0651 60.6772C81.1811 61.1728 81.2572 61.6769 81.2929 62.1848C81.3633 63.3737 81.3865 65.7661 81.3181 66.9597C81.2697 67.8452 81.0372 69.5981 80.9037 70.4722C80.7955 71.214 80.6594 72.7363 80.3612 73.4273C80.2901 73.5957 80.0889 73.9158 79.9329 74.012C79.6945 74.1557 79.0642 74.0354 78.8272 74.1838C78.5376 74.3582 78.2022 74.9777 78.0302 75.2718C77.781 75.7207 77.5646 76.1872 77.3828 76.6678C77.3037 76.9104 77.2924 77.4397 77.1643 77.6615C76.9371 78.0585 76.1462 78.5811 75.8281 78.9065C75.5386 79.2039 75.1189 79.929 74.8519 80.2431C74.3518 80.8339 73.1917 81.8737 72.6896 82.4705C72.3775 82.842 71.8442 83.6553 71.5441 84.0383C71.22 84.4573 70.4025 85.1884 70.2046 85.6802C70.0625 86.0398 70.2445 86.8678 70.1077 87.234C69.9084 87.7933 69.0604 88.6721 68.7091 89.1519C68.3312 89.6712 67.5715 90.7164 67.1903 91.2343C66.9864 91.5163 66.6265 92.1278 66.3675 92.3617C66.1291 92.5782 65.5168 92.8295 65.2498 93.0126C64.764 93.3523 64.2955 93.7163 63.846 94.1032C63.3209 94.5966 62.8214 95.117 62.3497 95.6623C62.0496 96.0199 61.4818 96.7563 61.2546 97.1646C61.0016 97.6217 60.657 98.6208 60.4777 99.112C60.2984 99.6032 60.0208 100.602 59.8295 101.082C59.7053 101.394 59.5327 102.093 59.2684 102.293C59.202 102.344 59.0273 102.33 58.945 102.338C58.8122 102.361 58.5419 102.367 58.4197 102.421C58.0743 102.578 57.5311 103.144 57.2482 103.395C56.95 103.652 56.3457 104.158 56.0847 104.449C55.9034 104.649 55.6563 105.14 55.4525 105.318C55.1025 105.614 54.2286 105.926 53.8202 106.131C53.4118 106.336 52.6461 106.819 52.2715 107.076C51.9136 107.319 51.2289 107.844 50.9001 108.118C50.5468 108.417 50.2087 108.733 49.8874 109.066C49.6497 109.338 49.1702 109.903 49.0361 110.24C48.8913 110.583 48.8521 111.351 48.8029 111.728C48.7631 112.063 48.6276 112.742 48.6814 113.078C48.7352 113.38 48.9902 113.967 49.1835 114.209C49.3681 114.438 49.8648 114.795 50.1364 114.911C50.4605 115.048 51.1698 115.163 51.5158 115.134C52.3791 115.061 53.4689 114.181 53.769 113.915C54.0533 113.652 54.6257 113.118 54.8814 112.827C55.1822 112.482 55.6876 111.719 55.9599 111.351C56.1863 111.039 56.612 110.397 56.8617 110.109C57.1665 109.77 57.494 109.453 57.8419 109.159C58.0847 108.996 58.3368 108.847 58.597 108.714C58.9861 108.508 59.7923 108.165 60.1808 107.971C60.5215 107.8 61.2248 107.504 61.5203 107.266C61.7753 107.058 62.1492 106.48 62.3086 106.19C62.4447 105.922 62.7004 105.344 62.707 105.042C62.719 104.722 62.276 104.122 62.3551 103.808C62.452 103.448 63.138 102.997 63.4389 102.769C63.9987 102.34 65.2983 101.74 65.8568 101.318C66.3456 100.919 66.8054 100.486 67.2328 100.022C67.4852 99.7302 67.9115 99.0913 68.138 98.7792C68.2887 98.574 68.5497 98.1316 68.7356 97.9572C69.1215 97.6177 70.0864 97.2061 70.5234 96.9321C70.9949 96.6407 71.9054 96.0098 72.3623 95.6984C72.8331 95.3696 73.7529 94.696 74.2217 94.3739C74.6202 94.0939 75.4244 93.5452 75.8328 93.2886C76.1648 93.0801 76.8149 92.4145 77.1955 92.498C77.4159 92.5401 77.5276 93.1082 77.7221 93.2091C78.1711 93.4316 79.7429 93.1857 79.7429 93.1857L81.1136 92.9712L81.9471 92.472L83.9539 91.5364L84.1578 92.8783L84.2774 95.0261L84.211 97.031L84.2468 99.4368L84.721 100.653L85.0417 101.393L85.7138 101.889L85.5332 103.269C85.5332 103.269 85.1812 105.28 85.1181 105.956C85.0876 106.275 85.0477 106.924 85.0702 107.252C85.0875 107.598 85.3631 108.294 85.2775 108.631C85.0703 109.494 83.7501 110.802 83.1922 111.493C82.7978 111.98 81.7923 112.812 81.4975 113.374C81.2982 113.753 81.2245 114.644 81.0917 115.057C80.9841 115.391 80.6866 116.027 80.5445 116.346C80.34 116.814 79.9149 117.746 79.7157 118.217C79.5689 118.569 79.3299 119.303 79.1459 119.637C78.9892 119.926 78.5701 120.428 78.3769 120.693C78.2627 120.845 78.1186 121.261 77.9313 121.299C77.7633 121.336 77.4917 121.016 77.3263 120.959C77.0514 120.867 76.4729 120.799 76.1854 120.799C75.8855 120.815 75.588 120.862 75.2975 120.939C75.0624 121.006 74.5936 121.177 74.4043 121.325C74.2284 121.467 73.9873 121.856 73.8731 122.052C73.6813 122.415 73.5239 122.795 73.4029 123.188C73.3112 123.532 73.1758 124.233 73.2037 124.592C73.2269 124.891 73.4255 125.468 73.5417 125.742C73.622 125.925 73.8704 126.242 73.9401 126.431C74.0055 126.654 74.04 126.885 74.0424 127.118C74.0371 127.342 73.9096 127.772 73.8432 127.987C73.7356 128.33 73.4772 129.004 73.3046 129.318C73.1173 129.652 72.5841 130.229 72.3961 130.56C72.2201 130.877 71.9704 131.571 71.8403 131.913C71.7101 132.255 71.4252 132.953 71.3522 133.321C71.2925 133.697 71.2667 134.077 71.2751 134.457C71.3102 134.879 71.3748 135.298 71.4684 135.71C71.5421 136.016 71.6981 136.63 71.8569 136.904C72.0156 137.167 72.4273 137.655 72.697 137.812C72.8962 137.92 73.367 137.998 73.5935 138.006C73.9361 138.002 74.2763 137.948 74.6036 137.846C74.9044 137.741 75.4609 137.395 75.6986 137.177C75.9476 136.949 77.1862 135.253 77.3396 134.93C77.5667 134.47 77.7646 133.46 77.9067 132.968C78.009 132.62 78.258 131.937 78.3151 131.575C78.3723 131.197 78.2753 130.416 78.3291 130.038C78.3829 129.66 78.5994 128.902 78.7667 128.554C78.8464 128.394 79.1214 128.137 79.1918 127.971C79.2655 127.794 79.2741 127.411 79.3053 127.226C79.3365 127.041 79.4328 126.652 79.4381 126.455C79.4381 126.332 79.3332 126.089 79.3584 125.967C79.4467 125.624 79.9721 125.098 80.1985 124.821C80.6926 124.231 81.7824 123.119 82.3156 122.559C83.0395 121.806 84.5403 120.345 85.2442 119.573C85.7755 118.993 86.7929 117.8 87.275 117.18C87.6589 116.698 88.3993 115.71 88.736 115.19C89.1504 114.527 89.8995 113.151 90.2342 112.44C90.4215 112.044 90.7396 111.215 90.893 110.804C91.0405 110.41 91.2915 109.611 91.4362 109.219C91.6189 108.737 91.9715 107.763 92.2205 107.312C92.5618 106.704 93.4916 105.656 93.8608 105.064C94.1158 104.653 94.754 103.346 94.754 103.346L96.1134 98.4397L96.7436 95.2246C96.7436 95.2246 97.6322 92.1806 97.939 91.1728C98.1781 90.405 98.7107 88.886 98.9218 88.1121C99.1085 87.4064 99.4432 85.9963 99.5195 85.2739C99.5859 84.7052 99.5859 83.5544 99.5421 82.981C99.5049 82.4464 99.0912 81.3899 99.2213 80.8673C99.2698 80.6668 99.6703 80.3995 99.7148 80.191C99.7719 79.9337 99.4425 79.4198 99.497 79.1658C99.5474 78.9313 99.92 78.5831 100.061 78.3886C100.323 78.0344 100.901 77.3555 101.106 76.9612C101.48 76.2307 101.912 74.6342 102.155 73.849C102.274 73.4667 102.487 72.7069 102.588 72.3273C102.692 71.907 102.882 71.0623 102.989 70.6452C103.146 70.0632 103.498 68.9077 103.671 68.335C103.881 67.6467 104.357 66.2814 104.534 65.5824C104.726 64.7998 105.051 63.2153 105.127 62.4127C105.194 61.7077 105.15 59.5832 105.15 59.5832L104.778 57.1447C104.778 57.1447 105.984 56.9388 106.39 56.8934C106.827 56.8479 107.712 56.7651 108.149 56.7905C108.464 56.8105 109.387 57.019 109.387 57.019C109.387 57.019 110.464 57.1874 110.796 57.3391C111.072 57.4648 111.511 57.8697 111.75 58.0442C111.961 58.1866 112.187 58.3034 112.425 58.3923C112.752 58.5089 113.09 58.5913 113.433 58.6383C113.971 58.675 115.059 58.7893 115.597 58.7612C116.225 58.7325 117.445 58.4752 118.06 58.3783C118.566 58.3041 119.596 58.2266 120.078 58.0702C120.517 57.9272 121.326 57.4648 121.729 57.2309C122.15 56.9929 123.347 56.1903 123.347 56.1903L124.431 55.4425C124.431 55.4425 125.197 54.9687 125.401 54.7522C125.563 54.5858 125.784 54.1661 125.946 54.0037C126.278 53.6696 127.009 53.0681 127.187 52.9585C127.365 52.8489 127.694 52.2675 127.694 52.2675C127.694 52.2675 127.955 51.785 127.989 51.6507C128.014 51.468 127.984 51.282 127.904 51.1161C127.864 51.0446 127.634 50.8702 127.634 50.8702C127.634 50.8702 127.767 50.4024 127.648 50.1912C127.542 50.0019 127.395 49.8396 127.217 49.7167C127.217 49.7167 127.365 49.4374 127.105 49.0144C126.99 48.8312 126.646 48.723 126.646 48.723C126.646 48.723 126.695 48.2632 126.417 48.0093C126.275 47.8803 126.019 47.907 125.889 47.9424C125.594 48.0286 125.021 48.437 125.021 48.437C125.021 48.437 124.948 48.5365 124.954 48.4229C124.971 48.1082 125.22 47.3664 125.26 47.194C125.314 46.9754 125.526 46.7776 125.63 46.5751C125.809 46.2183 125.669 46.0405 125.563 45.84C125.359 45.4598 124.818 45.9068 124.706 45.9737C124.507 46.0933 124.255 46.5223 124.153 46.7335C123.969 47.0957 123.688 47.8696 123.651 48.2779C123.634 48.5452 123.143 49.2436 123.143 49.2436L122.72 50.1792C122.72 50.1792 122.184 50.8421 122.056 51.09C121.937 51.3212 121.806 51.8298 121.729 52.0811C121.652 52.3324 121.557 52.8783 121.436 53.1203C121.383 53.2258 121.262 53.435 121.162 53.4972C120.935 53.6348 120.379 53.6569 120.112 53.6609C119.684 53.6609 118.418 53.3776 118.418 53.3776C118.418 53.3776 117.006 53.2125 116.528 53.1771C116.163 53.145 115.417 53.2279 115.073 53.1102C114.889 53.0481 114.584 52.748 114.446 52.6505C114.304 52.5422 113.728 52.4219 113.504 52.3163C113.345 52.2361 113.067 51.9909 112.922 51.8819C112.718 51.7336 112.329 51.4081 112.107 51.2805C111.886 51.1528 111.377 50.9951 111.138 50.8922C110.769 50.7325 110.041 50.3616 109.677 50.2039C109.24 50.0181 107.918 49.5162 107.918 49.5162L106.204 48.5806L104.116 47.3617C104.116 47.3617 103.28 46.65 102.955 46.5016C102.597 46.3419 100.21 46.1768 99.8084 46.1989C99.4067 46.2209 98.6217 46.533 98.2325 46.4395C98.0712 46.3994 97.0923 46.3132 96.8884 46.2731C96.7317 46.245 95.778 45.8053 95.5768 45.8106C95.4865 45.8106 95.3012 45.8901 95.2109 45.8681C95.1087 45.8394 94.4532 45.7084 94.1975 45.711C93.9944 45.7301 93.7925 45.7616 93.5932 45.8053L93.6981 44.6024C93.6981 44.6024 93.9737 43.6915 94.0527 43.3827C94.1191 43.1094 94.2859 42.5521 94.2945 42.2701C94.3031 42.0295 94.1889 41.567 94.149 41.3345C94.1211 41.14 94.0641 40.7544 94.0335 40.5599C94.0103 40.4089 93.9392 40.1068 93.9392 39.9525C93.9482 39.697 93.9789 39.4428 94.0309 39.1926C94.0754 38.9875 94.2659 38.6099 94.2805 38.4047C94.3031 38.1374 94.161 37.6101 94.1211 37.3455C94.0873 37.1223 94.0547 36.6685 93.9883 36.4513C93.9219 36.2342 93.6198 35.8659 93.5799 35.6434C93.5487 35.4897 93.6463 35.1696 93.6423 35.0092C93.6423 34.7953 93.5514 34.3984 93.5175 34.1558C93.4836 33.9132 92.9265 33.1814 92.6316 32.9623C92.2464 32.6822 91.3552 32.322 90.905 32.1904C90.5012 32.0654 89.5914 31.9745 89.2248 32.0313C88.8583 32.0881 88.1623 32.5225 87.7837 32.5914C87.6078 32.6194 87.2491 32.5025 87.0732 32.5339C86.603 32.6081 85.7516 33.0765 85.3286 33.2991C85.0371 33.4534 84.4035 33.7502 84.1997 34.0181C83.8869 34.4244 83.7308 35.4803 83.5893 35.9775C83.4837 36.3665 83.2686 37.137 83.2089 37.536C83.1584 37.8761 83.1584 38.5758 83.1291 38.918C83.084 39.4265 82.8549 40.443 82.9 40.9515C82.9392 41.3746 83.2659 42.1738 83.3961 42.5795C83.5156 42.9276 83.7368 43.63 83.8955 43.9555C83.9865 44.1386 84.2362 44.4614 84.3331 44.6378C84.4407 44.8383 84.5656 45.2807 84.7043 45.4544C84.792 45.5607 85.1466 45.7772 85.1466 45.7772L85.8539 45.9429L85.9788 46.7542L86.1315 47.7707C86.1315 47.7707 86.4044 48.2218 86.4323 48.3875C86.4602 48.5532 86.4841 48.9382 86.3699 49.0665C86.2709 49.1694 85.9442 49.1126 85.8054 49.1527C85.1187 49.3465 83.9406 49.3953 83.5375 49.4614C83.1344 49.5276 82.3156 49.3238 81.9152 49.3752C81.6967 49.4066 81.291 49.5978 81.0977 49.7094C80.6998 49.9634 80.329 50.2581 79.9913 50.5888C79.7529 50.8367 79.4122 51.4576 79.1705 51.7135C78.9414 51.9508 78.3683 52.2989 78.1411 52.5362C77.9366 52.7447 77.6696 53.276 77.4578 53.4718C77.2586 53.6509 76.7731 53.8888 76.546 54.0285C76.3189 54.1681 75.8819 54.4682 75.6442 54.5851C75.2703 54.7649 74.4641 54.9995 74.0776 55.1592C73.9023 55.23 73.5463 55.3817 73.3803 55.4726C73.1559 55.5929 72.7667 55.9725 72.517 56.0213C71.7905 56.1609 70.3348 55.6611 69.6229 55.4673C68.312 55.1244 65.724 54.2764 64.4808 53.7297C63.6839 53.3729 62.1565 52.5101 61.414 52.0397C61.0342 51.7971 60.3329 51.2377 59.9696 50.9744C59.5951 50.6977 58.8121 50.1952 58.4821 49.8698C58.1254 49.5263 57.5404 48.7183 57.2515 48.3153C57.0331 48.0052 56.6439 47.351 56.4367 47.0276C56.343 46.8765 56.1784 46.5511 56.0535 46.4201C55.8862 46.2403 55.4353 46.0144 55.2646 45.8373C55.0096 45.5747 54.6748 44.8977 54.4198 44.6385C54.2856 44.5131 54.1382 44.4028 53.9802 44.3097C53.7664 44.1987 53.3825 43.896 53.2079 44.047C53.1732 44.0853 53.1485 44.1317 53.1361 44.182C53.1237 44.2323 53.124 44.2849 53.1368 44.335C53.1734 44.4306 53.223 44.5206 53.2843 44.6024L53.1754 44.5095Z" fill="#B9C3CD"/>
</g>
<defs>
<filter id="filter0_d_1_545" x="0" y="-0.00012207" width="164" height="164" filterUnits="userSpaceOnUse" color-interpolation-filters="sRGB">
<feFlood flood-opacity="0" result="BackgroundImageFix"/>
<feColorMatrix in="SourceAlpha" type="matrix" values="0 0 0 0 0 0 0 0 0 0 0 0 0 0 0 0 0 0 127 0" result="hardAlpha"/>
<feOffset dx="2" dy="2"/>
<feColorMatrix type="matrix" values="0 0 0 0 0.0509804 0 0 0 0 0.137255 0 0 0 0 0.266667 0 0 0 0.08 0"/>
<feBlend mode="normal" in2="BackgroundImageFix" result="effect1_dropShadow_1_545"/>
<feBlend mode="normal" in="SourceGraphic" in2="effect1_dropShadow_1_545" result="shape"/>
</filter>
<clipPath id="clip0_1_545">
<rect width="83" height="106" fill="white" transform="translate(45 31.9999)"/>
</clipPath>
</defs>
</svg>
