<svg width="146" height="146" viewBox="0 0 146 146" fill="none" xmlns="http://www.w3.org/2000/svg">
<g filter="url(#filter0_d_1_528)">
<circle cx="72" cy="71.9999" r="68" fill="#F7F9FC"/>
<circle cx="72" cy="71.9999" r="70" stroke="white" stroke-width="4"/>
</g>
<circle cx="72" cy="71.9999" r="59" stroke="url(#paint0_linear_1_528)" stroke-width="4"/>
<g opacity="0.8" clip-path="url(#clip0_1_528)">
<path d="M96.7563 52.7466C96.2597 52.6557 96.0466 51.7859 96.0466 51.7859L95.6516 51.0184L93.307 46.481C93.3056 46.2194 93.2598 45.96 93.1716 45.7139C93.0574 45.4141 92.7675 45.0063 92.6055 44.7724C91.0761 42.5923 89.8446 41.9459 88.4976 41.4164C85.5155 40.2355 84.4299 39.3103 83.6146 38.3011C81.441 35.6123 81.1679 32.7986 82.0089 30.5345C82.6554 28.7749 83.6927 28.0909 84.1987 27.7848C85.4948 26.9981 86.2044 26.9341 87.4964 27.0426C89.6835 27.2275 91.751 29.0411 92.9513 32.3689C93.4451 33.7351 93.5237 35.0146 92.9716 38.6167C92.9716 38.6167 92.6592 41.6117 93.711 44.0938C93.8252 44.3622 94.0446 44.7678 94.18 45.0312C94.3001 45.2522 94.4715 45.4406 94.6798 45.5804L97.075 50.0859L97.4871 50.838C97.4871 50.838 98.1295 51.557 97.9764 51.9649C97.8478 52.3064 97.0944 52.802 96.7563 52.7466ZM92.3247 43.7055C92.4859 43.9267 92.7242 44.241 92.9143 44.543C93.1124 44.8532 93.5083 44.6615 93.3386 44.2323C93.1824 43.8372 92.7901 42.6091 92.7215 42.2339C92.4173 40.5716 92.4055 39.9303 92.5734 38.4083C92.5734 38.4083 92.113 39.556 91.0653 40.2704C89.8297 41.1116 88.6615 41.0521 88.6615 41.0521C88.6615 41.0521 90.7398 41.5249 92.3243 43.7055H92.3247ZM90.8454 39.8903C92.7305 38.5277 92.9052 36.0392 92.8845 34.9233C92.8696 34.0712 92.6335 32.898 92.443 32.3707C91.3108 29.2509 89.4289 27.5209 87.3871 27.3592C86.2225 27.2684 85.5467 27.3211 84.3283 28.0523C83.857 28.3371 82.8987 28.9748 82.3023 30.613C81.5291 32.7323 81.8401 35.3248 83.8277 37.8905C84.4488 38.6917 85.7029 39.5415 85.7074 39.5437C86.5524 40.0602 86.1868 39.8094 86.6369 40.0688C87.249 40.4194 88.9576 41.2488 90.845 39.8885L90.8454 39.8903Z" fill="#96A7B6"/>
<path d="M97.7567 62.8495C97.9138 62.0043 98.0727 60.2997 97.847 58.8072C97.7251 58.021 97.0823 55.7133 97.0823 55.7133C97.0823 55.7133 96.6155 54.1595 96.6431 53.6263C96.6561 53.3924 96.8688 52.955 96.9392 52.7338C96.9956 52.5639 97.0656 52.4999 97.1929 52.1216C97.3066 51.775 97.6615 51.8132 97.7544 51.4498C97.8091 51.2413 97.7039 51.0928 97.6782 50.8844C97.6615 50.7358 97.7373 50.6405 97.6741 50.4915C97.6064 50.323 97.391 50.1072 97.391 50.1072C97.391 50.1072 97.4881 49.8116 97.3319 49.5563C97.1757 49.301 97.1283 49.3883 96.9916 49.227C96.9437 49.1716 96.8846 48.9972 96.7997 48.9313C96.4991 48.7042 95.8301 48.9459 95.4689 49.0063C94.8731 49.1062 94.172 49.5118 94.4307 50.0055C94.4523 50.0473 94.4758 50.6177 94.442 50.8062C94.3336 51.3649 94.3891 52.5408 94.3611 53.0994C94.3232 53.937 94.2325 56.3696 94.2325 56.3696C94.2325 56.3696 94.2235 57.5641 94.0104 58.631C93.9851 58.7586 93.856 59.1238 93.856 59.1238C93.856 59.1238 92.6521 58.3676 92.2761 58.1505C91.9212 57.9493 91.3132 57.7467 91.3132 57.7467C91.3132 57.7467 91.3515 57.5069 91.2712 57.4687C90.8649 57.2752 89.8154 56.9237 89.5644 56.782C89.3612 56.6716 88.9518 56.4672 88.7405 56.3696C88.3595 56.1947 87.5718 55.8786 87.1791 55.721C86.9231 55.6175 86.4234 55.3622 86.1508 55.3259C85.9774 55.3027 85.6307 55.3776 85.4619 55.3686C85.2971 55.3686 84.5216 54.6777 84.5044 54.4602C84.4873 54.2426 84.5916 53.7843 84.6805 53.5781C84.7356 53.4505 85.052 53.0595 85.1897 52.7901C85.2421 52.6902 85.28 52.3864 85.563 52.3732C85.9896 52.3518 87.3804 49.4273 86.4658 49.2574C86.2523 49.2152 87.3904 46.4869 85.4308 44.7433C83.9894 43.4643 81.7165 43.8104 81.1874 43.9257C79.965 44.2019 78.9276 45.3337 78.7642 45.8297C78.689 46.086 78.6326 46.3476 78.5954 46.6122C78.5638 46.867 78.5534 47.3844 78.5448 47.6405C78.5385 47.8826 78.6044 48.1719 78.5832 48.444C78.5683 48.6143 78.5489 48.7733 78.3042 48.8691C78.1056 48.9413 78.1395 49.3283 78.1237 49.4514C78.1002 49.6126 78.1566 49.9442 78.1823 50.1063C78.2144 50.3566 78.478 51.587 78.6915 51.7169C78.7818 51.7723 78.7719 52.3904 78.7719 52.3904L77.2998 52.3714C77.2998 52.3714 74.6906 52.0235 73.8691 52.0166C73.4515 52.0166 71.6183 52.2015 71.2508 52.365C70.2081 52.8219 69.6257 52.9555 68.7568 53.7126L66.0568 55.0365C65.8392 55.1428 65.5395 55.8441 65.4018 55.9209C64.9545 56.1589 64.099 56.7793 63.5962 56.8347C62.7326 56.9346 57.9286 59.7633 57.5065 60.054C57.0018 60.3969 56.1013 61.219 55.6106 61.5782C55.2946 61.8099 54.6197 62.2246 54.2965 62.4494C54.0604 62.6111 53.1625 63.2669 53.1625 63.2669L52.9996 63.3369C51.741 63.573 50.4098 63.564 49.3562 63.9618C49.1549 64.0386 48.9824 64.2975 48.7964 64.4037C48.2809 64.7035 47.4738 65.1477 47.3849 65.5429C47.3072 65.8767 47.6106 65.9026 47.6106 65.9026C47.6106 65.9026 47.2914 66.0806 47.3334 66.3141C47.3754 66.5475 47.6674 66.5375 47.6674 66.5375C47.6674 66.5375 47.3375 66.6969 47.5234 67.1007C47.625 67.3201 48.1103 67.167 48.2949 67.0603C48.7382 66.7969 49.5684 66.3827 49.8961 66.0743C50.0708 65.9171 50.8508 65.8581 50.8508 65.8581L52.0782 65.9003C52.0782 65.9003 51.7889 66.3545 51.6602 66.4821C51.4314 66.7033 50.7791 67.0776 50.6184 67.3451C50.3475 67.7938 50.7177 67.8956 50.9709 67.8674C51.2797 67.8315 51.7835 67.4727 52.0399 67.3178C52.4412 67.0689 53.2253 66.5312 53.6614 66.34C54.0487 66.1701 54.3954 65.834 54.5285 65.5279L54.6716 65.4007C54.8632 65.2607 55.0636 65.1334 55.2716 65.0196C55.6025 64.838 62.2857 61.6682 63.1673 61.1649C63.4355 61.0096 64.0011 60.7562 64.2507 60.5786C64.5216 60.391 65.4244 60.391 65.8966 60.1657C65.8966 60.1657 66.5769 59.9745 66.5024 60.0513C65.9891 60.5677 66.5173 60.8974 66.2934 61.169C66.0695 61.4406 65.4948 61.8598 65.3174 62.1596C65.0962 62.5293 64.9838 63.4136 64.8046 63.8065C64.7094 64.0172 64.4412 64.3969 64.3288 64.5972C64.2426 64.7435 64.118 65.0664 64.0015 65.1877C63.9239 65.2731 63.704 65.3666 63.6047 65.4302C63.5199 65.4897 63.3361 65.596 63.2766 65.6814C63.1168 65.9021 63.0387 66.4717 62.9181 66.7201C62.7665 67.0181 62.3985 67.5831 62.1701 67.8315C61.8135 68.2185 60.9111 68.8048 60.582 69.2191C60.2778 69.5915 59.8471 70.4631 59.6526 70.8996C59.4806 71.2888 59.2129 72.1004 59.1109 72.5106C58.9863 72.9952 58.7601 73.9817 58.7412 74.4831C58.7199 75.0781 58.9903 76.8508 58.9903 76.8508L59.7614 78.3342L59.8923 80.5356C59.8923 80.5356 59.6616 82.4273 59.3957 83.6005C59.2517 84.2337 58.58 85.4391 58.6373 86.0913C58.6522 86.2657 58.9606 86.5455 58.9646 86.7226C58.9682 86.8053 58.8129 87.8581 58.5931 87.9035C58.3602 87.9489 57.3743 86.0586 56.2191 85.0812C56.0263 84.9195 55.648 84.5816 55.4494 84.4285C55.1158 84.1737 54.4355 83.6868 54.0898 83.4534C53.5106 83.0664 52.3234 82.3497 51.7365 81.9781C51.3858 81.7511 50.6843 81.2969 50.3371 81.0698C49.8686 80.755 48.4832 79.8089 48.4832 79.8089L47.4183 78.9955C47.4183 78.9955 47.1777 78.3596 47.1095 78.1412C47.0549 77.9595 46.9953 77.5793 46.9325 77.4008C46.8094 77.0683 46.6639 76.7446 46.4969 76.432C46.3554 76.2029 46.2019 75.9816 46.0369 75.7689C45.8677 75.55 45.4921 75.1376 45.3187 74.9187C45.2005 74.7656 44.968 74.4468 44.8542 74.2937C44.7526 74.1534 44.5834 73.8518 44.4547 73.7414C44.3491 73.6506 44.0976 73.4821 43.9581 73.4907C43.6137 73.5121 42.7989 74.256 42.7989 74.256C42.7989 74.256 41.4726 75.6754 41.0298 76.1468C40.7368 76.4598 40.1721 77.1056 39.8606 77.4008C39.5835 77.6606 38.9524 78.0985 38.6815 78.3701C38.3249 78.7293 37.7227 79.5605 37.4523 79.9943C37.3169 80.2045 37.0298 80.6356 37.0009 80.8845C36.9756 81.1202 37.1237 81.5925 37.2352 81.8047C37.3178 81.9663 37.5227 82.3361 37.702 82.3592C38.4459 82.4501 39.5717 81.7688 39.8945 81.6134C40.127 81.4944 40.577 81.2165 40.824 81.1374C41.0438 81.067 41.5011 81.0184 41.7268 81.0062C41.9376 80.9912 42.3692 81.0012 42.5845 81.0098C42.8427 81.0185 43.3578 81.0062 43.6115 81.0552C43.8652 81.1043 44.3418 81.3041 44.5743 81.4145C44.8831 81.5589 45.4659 81.9205 45.753 82.1008C46.0193 82.2666 46.5394 82.624 46.7913 82.8084C47.3447 83.2104 49.1526 84.647 50.1453 85.8515C50.4744 86.2489 51.1637 87.0156 51.4905 87.4157C51.7162 87.6882 52.1347 88.255 52.3631 88.5248C52.7694 88.9986 53.6113 89.9256 54.0631 90.3588C54.3191 90.6037 54.8639 91.0606 55.0797 91.339C55.2206 91.5207 55.4052 91.9444 55.5311 92.1379C55.6796 92.3677 56.0024 92.8097 56.1794 93.0177C56.4502 93.3392 57.0285 93.951 57.3503 94.2226C57.5607 94.4043 58.0216 94.7091 58.2582 94.8517C58.4739 94.9798 58.9086 95.2278 59.1501 95.3059C59.4137 95.3876 59.687 95.4334 59.9627 95.4421C60.2119 95.4371 60.7102 95.3481 60.9387 95.2468C61.196 95.1401 61.6334 94.7745 61.8514 94.6005C62.0541 94.4388 62.4469 94.0909 62.6283 93.907C62.854 93.6822 63.2666 93.1912 63.4625 92.9405C63.7356 92.6003 64.2611 91.9013 64.5067 91.5397C64.7279 91.2168 65.3386 90.1967 65.3386 90.1967L66.5277 89.0876C66.5277 89.0876 66.9078 88.7983 67.0093 88.6788C67.1782 88.4749 67.4341 88.0007 67.5289 87.7541C67.9433 86.7063 68.5672 83.3702 68.5672 83.3702L70.1923 84.2287L72.1004 85.3101C72.1004 85.3101 73.2678 84.2327 73.5969 84.1183C73.7897 84.0604 73.9897 84.0298 74.1909 84.0275C74.5268 84.0488 75.1818 84.2545 75.5 84.3781C76.007 84.5757 76.9766 85.0898 77.4411 85.3705C77.7648 85.5662 78.6748 86.2334 78.6748 86.2334C78.6748 86.2334 78.5227 87.3848 78.4762 87.7718C78.4126 88.3581 78.2392 89.5395 78.2505 90.1336C78.2672 91.0665 78.5214 92.9277 78.734 93.8375C78.9028 94.5728 79.4188 96.0076 79.6973 96.713C79.9483 97.3529 80.5062 98.611 80.7581 99.251C81.01 99.8909 81.4714 101.204 81.7084 101.852C81.8772 102.313 82.418 103.215 82.3796 103.707C82.3611 103.954 82.0185 104.358 81.8628 104.558C81.7273 104.732 81.387 105.019 81.2601 105.199C81.0827 105.448 80.8087 106.005 80.6922 106.29C80.5825 106.562 80.4624 107.136 80.3604 107.404C80.2679 107.641 80.5275 108.289 80.6137 108.482C80.7703 108.825 81.7675 109.061 81.7675 109.061C81.7675 109.061 91.5411 111.002 92.0061 111.002C92.2354 111.002 92.7031 111.011 92.9333 110.978C93.0845 110.955 93.4123 110.914 93.531 110.818C93.6637 110.706 93.837 110.364 93.8244 110.187C93.8073 109.949 93.4759 109.548 93.3044 109.384C93.1419 109.222 92.7243 109.012 92.5212 108.904C92.272 108.765 91.7416 108.555 91.4991 108.404C91.2897 108.271 90.9258 107.935 90.7259 107.788C90.5354 107.652 90.1174 107.431 89.9467 107.276C89.7138 107.066 89.3825 106.532 89.1667 106.311C88.9658 106.11 88.4954 105.789 88.3009 105.58C88.1591 105.429 87.9312 105.083 87.8043 104.922C87.6486 104.718 86.7272 103.852 86.6369 103.714C86.4571 103.437 86.2969 103.147 86.1575 102.847C85.9728 102.407 85.8148 101.955 85.6845 101.495C85.549 100.977 85.3631 99.9209 85.2782 99.3913C85.2195 99.0343 85.1427 98.3158 85.0881 97.9593C85.0145 97.5019 84.7459 94.8644 84.727 94.4434C84.7053 94.031 84.6254 93.2171 84.588 92.8083C84.5582 92.5113 84.5257 91.9199 84.4774 91.6274C84.4096 91.2236 84.1858 90.4379 84.0932 90.0418C84.0029 89.6553 83.793 88.8864 83.7425 88.4908C83.6915 88.0784 83.7425 87.2454 83.7063 86.8307C83.6815 86.5228 83.5614 85.9146 83.5334 85.6044C83.5122 85.3773 83.5226 84.9077 83.51 84.6738C83.4784 84.2041 83.3876 83.2626 83.3199 82.7948C83.2779 82.4932 83.2021 81.8896 83.1114 81.6044C83.0432 81.3882 82.8726 80.9567 82.7304 80.7782C82.4839 80.4571 81.4777 79.7731 81.4777 79.7731L79.7984 78.4977L78.3579 77.6116L78.4997 77.1756L74.4207 74.5912L74.1629 73.9831L75.2463 72.9334C75.2463 72.9334 76.4295 72.1645 76.8389 71.9256C77.1549 71.7439 77.832 71.4546 78.1313 71.2443C78.4537 70.9988 78.7524 70.7232 79.0233 70.4213C79.3064 70.077 79.6905 69.2595 79.9713 68.9152C80.2521 68.5709 80.4318 68.4706 80.7004 68.1349C81.0195 67.7352 81.4881 66.8155 81.7684 66.3945C82.0754 65.9353 82.6839 65.0087 83.0509 64.6004C83.5095 64.0908 85.0913 62.7682 85.0913 62.7682L85.8939 62.1455C85.8939 62.1455 87.0184 62.369 87.7899 62.2541C87.9397 62.2332 88.4638 62.2159 88.5397 62.1696L88.6322 62.0715C88.6322 62.0715 91.5285 63.1488 92.5144 63.4441C93.3066 63.682 95.0536 64.6813 96.5866 64.2048C97.1112 64.0336 97.5242 64.1271 97.7567 62.8495Z" fill="#B9C3CD"/>
</g>
<defs>
<filter id="filter0_d_1_528" x="0" y="-0.00012207" width="146" height="146" filterUnits="userSpaceOnUse" color-interpolation-filters="sRGB">
<feFlood flood-opacity="0" result="BackgroundImageFix"/>
<feColorMatrix in="SourceAlpha" type="matrix" values="0 0 0 0 0 0 0 0 0 0 0 0 0 0 0 0 0 0 127 0" result="hardAlpha"/>
<feOffset dx="2" dy="2"/>
<feColorMatrix type="matrix" values="0 0 0 0 0.0509804 0 0 0 0 0.137255 0 0 0 0 0.266667 0 0 0 0.08 0"/>
<feBlend mode="normal" in2="BackgroundImageFix" result="effect1_dropShadow_1_528"/>
<feBlend mode="normal" in="SourceGraphic" in2="effect1_dropShadow_1_528" result="shape"/>
</filter>
<linearGradient id="paint0_linear_1_528" x1="72" y1="14.9999" x2="72" y2="129" gradientUnits="userSpaceOnUse">
<stop stop-color="#D0D8E3"/>
<stop offset="0.552083" stop-color="#DBE3EF"/>
<stop offset="1" stop-color="#C7CFDB" stop-opacity="0.12"/>
</linearGradient>
<clipPath id="clip0_1_528">
<rect width="61" height="84" fill="white" transform="translate(37 26.9999)"/>
</clipPath>
</defs>
</svg>
