<?xml version="1.0" standalone="no"?>
<!DOCTYPE svg PUBLIC "-//W3C//DTD SVG 1.1//EN" "http://www.w3.org/Graphics/SVG/1.1/DTD/svg11.dtd" >
<svg xmlns="http://www.w3.org/2000/svg" xmlns:xlink="http://www.w3.org/1999/xlink" version="1.1">
<metadata>
Created by FontForge 20170731 at Thu Mar 24 21:06:57 2022
 By Aleksey,,,
Copyright (c) 2014 by Kostas Bartsokas. All rights reserved.
</metadata>
<defs>
<font id="ZonaPro-Bold" horiz-adv-x="0" >
  <font-face 
    font-family="Zona Pro"
    font-weight="700"
    font-stretch="normal"
    units-per-em="2048"
    panose-1="2 1 10 3 4 0 2 2 0 4"
    ascent="1638"
    descent="-410"
    x-height="1118"
    cap-height="1452"
    bbox="-1059 -528 2841 2111"
    underline-thickness="112"
    underline-position="-329"
    unicode-range="U+000D-25CA"
  />
<missing-glyph horiz-adv-x="1024" 
 />
    <glyph glyph-name=".notdef" horiz-adv-x="1024" 
 />
    <glyph glyph-name=".null" 
 />
    <glyph glyph-name="nonmarkingreturn" horiz-adv-x="682" 
 />
    <glyph glyph-name="CR" unicode="&#xd;" horiz-adv-x="569" 
 />
    <glyph glyph-name="space" unicode=" " horiz-adv-x="428" 
 />
    <glyph glyph-name="exclam" unicode="!" horiz-adv-x="528" 
d="M168 424l-49 1028h297l-51 -1028h-197zM266 -29q-72 0 -123 51t-51 123t51 123t123 51q70 0 120 -51t50 -123t-50 -123t-120 -51z" />
    <glyph glyph-name="quotedbl" unicode="&#x22;" horiz-adv-x="901" 
d="M66 913l43 539h315l-203 -539h-155zM477 913l43 539h316l-203 -539h-156z" />
    <glyph glyph-name="numbersign" unicode="#" horiz-adv-x="1421" 
d="M1358 887h-271l-55 -328h258v-221h-297l-53 -338h-211l53 338h-295l-53 -338h-211l56 338h-226v221h262l56 328h-252v221h289l55 344h213l-58 -344h295l56 344h211l-56 -344h234v-221zM526 559h295l56 328h-295z" />
    <glyph glyph-name="dollar" unicode="$" horiz-adv-x="1267" 
d="M1204 424q0 -202 -122.5 -320t-352.5 -131v-161h-154v161q-143 7 -256.5 38.5t-248.5 94.5l106 246q106 -58 198 -89t201 -40v381q-245 57 -365 159t-120 284q0 185 127 302.5t358 129.5v133h154v-137q232 -17 422 -109l-119 -236q-154 75 -303 93v-375h2
q106 -25 185.5 -57t147.5 -81t104 -121t36 -165zM356 1063q0 -61 53.5 -101.5t165.5 -74.5v342q-102 -6 -160.5 -48.5t-58.5 -117.5zM729 223q93 11 149 54t56 120q0 62 -50.5 101.5t-154.5 68.5v-344z" />
    <glyph glyph-name="percent" unicode="%" horiz-adv-x="2004" 
d="M401 0l1002 1452h213l-1000 -1452h-215zM444 557q-186 0 -294.5 121.5t-108.5 333.5t108 333t295 121q188 0 296 -121t108 -333t-108 -333.5t-296 -121.5zM444 721q101 0 159.5 76t58.5 213q0 138 -58.5 215.5t-159.5 77.5q-100 0 -158.5 -78t-58.5 -215
q0 -136 58.5 -212.5t158.5 -76.5zM1559 -20q-187 0 -295.5 121.5t-108.5 332.5q0 212 108.5 333.5t295.5 121.5q188 0 295.5 -121.5t107.5 -333.5t-107.5 -333t-295.5 -121zM1559 143q101 0 159 76t58 213q0 138 -58 215.5t-159 77.5q-100 0 -159 -78t-59 -215
q0 -135 58.5 -212t159.5 -77z" />
    <glyph glyph-name="ampersand" unicode="&#x26;" horiz-adv-x="1333" 
d="M1350 109l-166 -162l-189 184q-158 -158 -430 -158q-244 0 -378 111t-134 303q0 131 72 233t217 160q-89 93 -124.5 164t-35.5 162q0 92 35 163t95.5 113.5t135.5 64t160 21.5q187 0 301.5 -103t114.5 -269q0 -75 -25 -142t-93.5 -133t-176.5 -108l258 -252q71 97 74 229
h221q3 -96 -30.5 -201t-100.5 -186zM608 1255q-80 0 -125 -47t-45 -123q0 -57 30.5 -102.5t109.5 -122.5q99 34 150.5 94.5t51.5 132.5q0 67 -44 117.5t-128 50.5zM582 209q149 0 249 86l-333 328q-82 -32 -126 -89t-44 -126q0 -90 64 -144.5t190 -54.5z" />
    <glyph glyph-name="quotesingle" unicode="'" horiz-adv-x="489" 
d="M66 913l43 539h315l-203 -539h-155z" />
    <glyph glyph-name="parenleft" unicode="(" horiz-adv-x="792" 
d="M659 -262q-282 158 -437.5 398t-155.5 548q0 307 157 549t436 397l97 -166q-199 -137 -308.5 -335t-109.5 -445q0 -246 109.5 -443.5t308.5 -332.5z" />
    <glyph glyph-name="parenright" unicode=")" horiz-adv-x="792" 
d="M133 -262l-96 170q199 135 308.5 332.5t109.5 443.5q0 247 -109.5 445t-308.5 335l96 166q280 -155 437 -397t157 -549q0 -308 -155.5 -548t-438.5 -398z" />
    <glyph glyph-name="asterisk" unicode="*" horiz-adv-x="862" 
d="M342 735l16 277l-233 -150l-90 158l246 123l-248 125l92 157l233 -149l-16 276h180l-16 -276l231 147l90 -155l-245 -123l247 -125l-92 -160l-227 152l12 -277h-180z" />
    <glyph glyph-name="plus" unicode="+" horiz-adv-x="1191" 
d="M475 156v399h-401v242h401v401h240v-401h401v-242h-401v-399h-240z" />
    <glyph glyph-name="comma" unicode="," horiz-adv-x="479" 
d="M242 317q71 0 121.5 -53.5t50.5 -177.5q0 -207 -98.5 -303t-266.5 -96v127q166 0 166 170q-61 8 -101 52t-40 111q0 81 47.5 125.5t120.5 44.5z" />
    <glyph glyph-name="hyphen" unicode="-" horiz-adv-x="802" 
d="M68 547v256h665v-256h-665z" />
    <glyph glyph-name="period" unicode="." horiz-adv-x="516" 
d="M260 -29q-72 0 -123 51t-51 123t51 123t123 51q71 0 121.5 -51t50.5 -123t-50.5 -123t-121.5 -51z" />
    <glyph glyph-name="slash" unicode="/" horiz-adv-x="1038" 
d="M-70 -264l912 1906h258l-914 -1906h-256z" />
    <glyph glyph-name="zero" unicode="0" horiz-adv-x="1513" 
d="M758 -29q-313 0 -492.5 200t-179.5 554t179.5 555t492.5 201q311 0 489 -201t178 -555t-178 -554t-489 -200zM758 240q173 0 272.5 128t99.5 357t-99.5 358t-272.5 129q-174 0 -275.5 -129t-101.5 -358q0 -228 101 -356.5t276 -128.5z" />
    <glyph glyph-name="one" unicode="1" horiz-adv-x="862" 
d="M401 0v1149l-299 -105l-84 230l486 180h186v-1454h-289z" />
    <glyph glyph-name="two" unicode="2" horiz-adv-x="1267" 
d="M383 264h805v-264h-1116v90q4 90 30 162t82.5 138.5t131 125t192.5 133.5q71 44 110.5 69.5t88 61t74 61t50 58t34 65t9.5 70.5q0 89 -69 139t-176 50q-133 0 -210 -69.5t-77 -188.5v-41h-272v57q0 232 149.5 365t413.5 133q156 0 277.5 -46t195.5 -142.5t74 -231.5
q0 -58 -11.5 -109.5t-29 -93t-51.5 -83t-66.5 -73t-87 -70t-100 -67t-117.5 -71.5q-24 -14 -68 -39.5t-63.5 -37.5t-52 -31.5t-49.5 -31.5t-38.5 -28t-36 -30.5t-26.5 -29.5z" />
    <glyph glyph-name="three" unicode="3" horiz-adv-x="1273" 
d="M725 909q115 -1 208 -38.5t152 -100.5t90 -144.5t31 -172.5q0 -233 -154.5 -357.5t-418.5 -124.5q-267 0 -421.5 122t-154.5 331v25h271v-13q0 -98 80 -155.5t215 -57.5q140 0 217.5 64.5t77.5 177.5q0 115 -79.5 176t-217.5 61q-101 0 -199 -43l-103 134l424 405h-614
v254h1024v-147z" />
    <glyph glyph-name="four" unicode="4" horiz-adv-x="1353" 
d="M1098 504h227v-248h-227v-256h-285v256h-776v152l854 1050h207v-954zM395 489h441v541z" />
    <glyph glyph-name="five" unicode="5" horiz-adv-x="1296" 
d="M694 977q248 0 394.5 -137.5t146.5 -368.5q0 -245 -152.5 -372.5t-423.5 -127.5q-267 0 -426 122.5t-159 332.5v23h272v-9q0 -98 85 -156.5t220 -58.5q147 0 222 66.5t75 189.5q0 129 -77 198t-232 69q-76 0 -151 -29t-113 -70h-246l45 803h967v-254h-723l-19 -289
q123 68 295 68z" />
    <glyph glyph-name="six" unicode="6" horiz-adv-x="1374" 
d="M776 944q106 0 195 -26t160.5 -79.5t112 -144.5t40.5 -211q0 -243 -156 -377.5t-413 -134.5q-307 0 -469 188.5t-162 536.5q0 162 30.5 293t85.5 222t133.5 152t173 89.5t206.5 28.5q238 0 382 -112t144 -275v-27h-283q-6 76 -67 123t-172 47q-166 0 -257 -122t-93 -327
q66 72 173 114t236 42zM715 217q135 0 208.5 73t73.5 187q0 120 -81.5 183t-204.5 63q-121 0 -206 -59.5t-116 -133.5q6 -133 93 -223t233 -90z" />
    <glyph glyph-name="seven" unicode="7" horiz-adv-x="1177" 
d="M49 1452h1075v-147l-688 -1305h-321l639 1188h-705v264z" />
    <glyph glyph-name="eight" unicode="8" horiz-adv-x="1351" 
d="M1004 776q128 -36 203 -135.5t75 -222.5q0 -113 -44.5 -199.5t-125.5 -140t-190.5 -80.5t-245.5 -27q-183 0 -316.5 46t-211.5 147t-78 250q0 124 74.5 224t201.5 136q-96 41 -151.5 123t-55.5 195q0 192 146.5 290.5t390.5 98.5t391 -98.5t147 -290.5
q0 -112 -56.5 -193.5t-153.5 -122.5zM676 1243q-128 0 -199 -46.5t-71 -139.5q0 -82 71.5 -135.5t198.5 -53.5t198.5 53.5t71.5 135.5q0 93 -71 139.5t-199 46.5zM676 217q145 0 229 53t84 162q0 102 -85 161.5t-228 59.5t-228.5 -59t-85.5 -162q0 -109 84.5 -162t229.5 -53
z" />
    <glyph glyph-name="nine" unicode="9" horiz-adv-x="1355" 
d="M645 1481q307 0 469 -188.5t162 -536.5q0 -201 -47.5 -354t-133.5 -246t-199 -139t-251 -46q-127 0 -229.5 31t-168.5 84.5t-101 123t-35 148.5v29h282q6 -79 69 -125.5t181 -46.5q161 0 252 120.5t94 323.5q-66 -70 -171 -110.5t-232 -40.5q-106 0 -195.5 26
t-161.5 79.5t-112.5 144.5t-40.5 211q0 242 156 377t413 135zM649 729q123 0 207 59t115 134q-6 132 -92 222.5t-232 90.5q-136 0 -210.5 -73.5t-74.5 -186.5q0 -121 82 -183.5t205 -62.5z" />
    <glyph glyph-name="colon" unicode=":" horiz-adv-x="501" 
d="M254 797q-72 0 -123 51.5t-51 124.5q0 72 51 123t123 51q70 0 120 -51t50 -123q0 -73 -49.5 -124.5t-120.5 -51.5zM254 -29q-72 0 -123 51t-51 123t51 123t123 51q70 0 120 -51t50 -123t-50 -123t-120 -51z" />
    <glyph glyph-name="semicolon" unicode=";" horiz-adv-x="495" 
d="M246 797q-72 0 -123 51.5t-51 124.5q0 72 51 123t123 51q70 0 120 -51t50 -123q0 -73 -49.5 -124.5t-120.5 -51.5zM242 317q71 0 121.5 -53.5t50.5 -177.5q0 -207 -98.5 -303t-266.5 -96v127q166 0 166 170q-61 8 -101 52t-40 111q0 81 47.5 125.5t120.5 44.5z" />
    <glyph glyph-name="less" unicode="&#x3c;" horiz-adv-x="1142" 
d="M1059 1239v-272l-641 -291l641 -291v-272l-1010 479v168z" />
    <glyph glyph-name="equal" unicode="=" horiz-adv-x="1196" 
d="M100 809v242h994v-242h-994zM100 303v242h994v-242h-994z" />
    <glyph glyph-name="greater" unicode="&#x3e;" horiz-adv-x="1142" 
d="M82 1239l1010 -479v-168l-1010 -479v272l643 291l-643 291v272z" />
    <glyph glyph-name="question" unicode="?" horiz-adv-x="1191" 
d="M1130 1020q0 -191 -134 -323.5t-367 -147.5l-31 -125h-152l-32 299l86 8q164 15 254 88.5t90 184.5q0 76 -41 131t-100.5 79.5t-129.5 24.5q-135 0 -216 -74t-81 -213v-24h-262v39q0 161 74 278.5t202 176.5t294 59q114 0 211.5 -28t173 -83t118.5 -145t43 -205zM524 -29
q-72 0 -123 51t-51 123t51 123t123 51q71 0 121.5 -51t50.5 -123t-50.5 -123t-121.5 -51z" />
    <glyph glyph-name="at" unicode="@" horiz-adv-x="1898" 
d="M1425 1047l-84 -570q-19 -123 15.5 -171t103.5 -48q116 0 180 95.5t64 260.5q0 158 -56 295t-155 234.5t-239.5 153t-303.5 55.5q-218 0 -390 -100.5t-267.5 -277t-95.5 -396.5q0 -165 52.5 -304t148 -237.5t235 -153.5t307.5 -55q319 0 506 176l96 -102
q-215 -215 -606 -215q-200 0 -367 66t-282 183t-178.5 282t-63.5 360t68 365t187.5 290t287.5 189t362 69t362.5 -66t287 -181t186 -277t67.5 -349q0 -228 -125.5 -370t-320.5 -142q-103 0 -173 44.5t-97 123.5q-95 -153 -301 -153q-185 0 -300.5 118.5t-115.5 331.5
q0 231 125.5 379t324.5 148q117 0 199 -53.5t107 -139.5l22 142h227zM877 360q100 0 166.5 74t66.5 195q0 104 -57 167.5t-148 63.5q-101 0 -165 -78.5t-64 -195.5q0 -100 56 -163t145 -63z" />
    <glyph glyph-name="A" unicode="A" horiz-adv-x="1538" 
d="M1212 0l-127 276h-634l-125 -276h-316l664 1458h188l666 -1458h-316zM768 1075l-111 -297l-108 -258h440l-108 258z" />
    <glyph glyph-name="B" unicode="B" horiz-adv-x="1427" 
d="M1069 778q142 -30 225.5 -121.5t83.5 -230.5q0 -210 -132 -318t-412 -108h-695v1452h652q232 0 354.5 -92t122.5 -264q0 -122 -52.5 -202.5t-146.5 -115.5zM428 1202v-354h334q115 0 170 45.5t55 138.5q0 83 -55.5 126.5t-155.5 43.5h-348zM836 252q243 0 243 184
q0 87 -67.5 133.5t-204.5 46.5h-379v-364h408z" />
    <glyph glyph-name="C" unicode="C" horiz-adv-x="1527" 
d="M844 -29q-227 0 -398.5 91.5t-265.5 264t-94 404.5q0 347 206 547.5t552 200.5q205 0 366 -73.5t269 -205.5l-226 -190q-64 90 -167 142t-234 52q-211 0 -338 -127t-127 -346q0 -223 127 -354t338 -131q131 0 234 51.5t167 140.5l226 -190q-226 -277 -635 -277z" />
    <glyph glyph-name="D" unicode="D" horiz-adv-x="1507" 
d="M139 0v1452h566q341 0 529.5 -180t188.5 -529q0 -348 -183.5 -545.5t-528.5 -197.5h-572zM422 266h293q186 0 295.5 121t109.5 356q0 212 -108.5 326.5t-304.5 114.5h-285v-918z" />
    <glyph glyph-name="E" unicode="E" horiz-adv-x="1298" 
d="M139 0v1452h1055v-262h-774v-350h651v-248h-651v-332h807v-260h-1088z" />
    <glyph glyph-name="F" unicode="F" horiz-adv-x="1253" 
d="M139 0v1452h1061v-268h-772v-420h657v-262h-657v-502h-289z" />
    <glyph glyph-name="G" unicode="G" horiz-adv-x="1597" 
d="M809 797h719v-611q-108 -105 -269 -160t-356 -55q-377 0 -597 203t-220 551q0 230 98 401.5t276 263t412 91.5q376 0 601 -209l-183 -205q-75 66 -183.5 103.5t-232.5 37.5q-221 0 -354 -130.5t-133 -352.5q0 -229 141 -358t385 -129q217 0 342 94v211h-446v254z" />
    <glyph glyph-name="H" unicode="H" horiz-adv-x="1519" 
d="M139 0v1452h289v-649h666v649h286v-1452h-286v535h-666v-535h-289z" />
    <glyph glyph-name="I" unicode="I" horiz-adv-x="604" 
d="M154 0v1452h297v-1452h-297z" />
    <glyph glyph-name="J" unicode="J" horiz-adv-x="1265" 
d="M590 -29q-254 0 -406 147t-159 410h286q4 -77 28 -133.5t64 -88.5t86.5 -47t102.5 -15q126 0 193 78.5t67 257.5v872h293v-872q0 -318 -136.5 -463.5t-418.5 -145.5z" />
    <glyph glyph-name="K" unicode="K" horiz-adv-x="1447" 
d="M1081 0l-442 590l-217 -244v-346h-283v1452h283v-731l596 731h360l-534 -651l596 -801h-359z" />
    <glyph glyph-name="L" unicode="L" horiz-adv-x="1228" 
d="M139 0v1452h293v-1180h760v-272h-1053z" />
    <glyph glyph-name="M" unicode="M" horiz-adv-x="1794" 
d="M1503 1458h154v-1458h-285v819l-420 -569h-108l-422 565v-815h-283v1458h152l608 -825z" />
    <glyph glyph-name="N" unicode="N" horiz-adv-x="1579" 
d="M1155 1452h287v-1460h-150l-866 921v-913h-287v1460h146l870 -921v913z" />
    <glyph glyph-name="O" unicode="O" horiz-adv-x="1730" 
d="M864 -29q-225 0 -401.5 93t-276.5 265t-100 396q0 164 56 304t156.5 240t246.5 156t319 56q226 0 404 -93.5t278.5 -266t100.5 -396.5q0 -163 -56.5 -303t-158 -239.5t-248 -155.5t-320.5 -56zM864 244q212 0 345.5 132t133.5 349q0 214 -131.5 348.5t-347.5 134.5
q-209 0 -343 -133t-134 -350q0 -212 131.5 -346.5t345.5 -134.5z" />
    <glyph glyph-name="P" unicode="P" horiz-adv-x="1343" 
d="M717 1452q289 0 438.5 -133t149.5 -389q0 -537 -619 -537h-258v-393h-289v1452h578zM676 647q167 0 248.5 71.5t81.5 203.5q0 137 -75 204.5t-233 67.5h-270v-547h248z" />
    <glyph glyph-name="Q" unicode="Q" horiz-adv-x="1730" 
d="M1647 725q0 -163 -55.5 -301.5t-157.5 -239.5l157 -180l-192 -160l-172 201q-164 -74 -363 -74q-225 0 -401.5 93t-276.5 265t-100 396q0 164 56 304t156.5 240t246.5 156t319 56q226 0 404 -93.5t278.5 -266t100.5 -396.5zM864 244q96 0 170 26l-162 189l187 157
l180 -206q104 126 104 315q0 214 -131.5 348.5t-347.5 134.5q-209 0 -343 -133t-134 -350q0 -212 131.5 -346.5t345.5 -134.5z" />
    <glyph glyph-name="R" unicode="R" horiz-adv-x="1398" 
d="M1368 0h-352l-289 414h-39h-260v-414h-289v1452h590q285 0 435.5 -133.5t150.5 -384.5q0 -348 -289 -465zM682 662q164 0 247 69t83 189q0 274 -307 274h-277v-532h254z" />
    <glyph glyph-name="S" unicode="S" horiz-adv-x="1284" 
d="M686 -29q-185 0 -324 31.5t-296 103.5l110 250q264 -127 496 -127q123 0 189.5 44.5t66.5 129.5q0 80 -71 119.5t-236 71.5q-103 20 -178.5 42.5t-146 58t-114.5 81t-70 112t-26 150.5q0 203 140 322t405 119q316 0 547 -113l-121 -244q-213 95 -424 95
q-119 0 -183.5 -45t-64.5 -115q0 -28 10 -51t33.5 -41t49 -32t71.5 -27.5t85.5 -23.5t104.5 -24q94 -19 162 -40t133.5 -55.5t106.5 -78.5t65.5 -109.5t24.5 -148.5q0 -224 -138 -339.5t-407 -115.5z" />
    <glyph glyph-name="T" unicode="T" horiz-adv-x="1318" 
d="M512 0v1180h-463v272h1221v-272h-463v-1180h-295z" />
    <glyph glyph-name="U" unicode="U" horiz-adv-x="1499" 
d="M750 -29q-309 0 -468 152t-159 450v879h293v-809q0 -209 80.5 -302t253.5 -93q174 0 254.5 93t80.5 302v809h291v-879q0 -602 -626 -602z" />
    <glyph glyph-name="V" unicode="V" horiz-adv-x="1464" 
d="M1133 1452h323l-643 -1460h-168l-637 1460h328l297 -725l98 -272l103 270z" />
    <glyph glyph-name="W" unicode="W" horiz-adv-x="2181" 
d="M1855 1452h318l-537 -1460h-147l-399 938l-394 -938h-147l-541 1460h322l315 -911l373 915h151l369 -919z" />
    <glyph glyph-name="X" unicode="X" horiz-adv-x="1435" 
d="M1415 0h-344l-356 530l-350 -530h-347l496 739l-481 713h344l342 -518l344 518h340l-479 -713z" />
    <glyph glyph-name="Y" unicode="Y" horiz-adv-x="1363" 
d="M1366 1452l-537 -948v-504h-294v504l-537 948h338l348 -657l350 657h332z" />
    <glyph glyph-name="Z" unicode="Z" horiz-adv-x="1366" 
d="M508 268h778v-268h-1218v141l766 1043h-717v268h1161v-147z" />
    <glyph glyph-name="bracketleft" unicode="[" horiz-adv-x="808" 
d="M137 -250v1866h613v-219h-377v-1428h377v-219h-613z" />
    <glyph glyph-name="backslash" unicode="\" horiz-adv-x="1038" 
d="M1108 -264h-258l-911 1906h258z" />
    <glyph glyph-name="bracketright" unicode="]" horiz-adv-x="808" 
d="M672 -250h-613v219h377v1428h-377v219h613v-1866z" />
    <glyph glyph-name="asciicircum" unicode="^" horiz-adv-x="942" 
d="M893 936h-270l-152 283l-156 -283h-264l350 526h140z" />
    <glyph glyph-name="underscore" unicode="_" horiz-adv-x="1218" 
d="M-6 -231v170h1231v-170h-1231z" />
    <glyph glyph-name="grave" unicode="`" horiz-adv-x="987" 
d="M844 1270h-201l-371 317l318 25z" />
    <glyph glyph-name="a" unicode="a" horiz-adv-x="1351" 
d="M614 -25q-246 0 -393 159t-147 427q0 266 145.5 425t382.5 159q95 0 187 -30t157 -93v96h279v-1118h-275v109q-111 -134 -336 -134zM676 229q85 0 159 37t115 111v371q-42 67 -119 105t-161 38q-137 0 -221 -87.5t-84 -242.5q0 -154 84.5 -243t226.5 -89z" />
    <glyph glyph-name="b" unicode="b" horiz-adv-x="1355" 
d="M741 -25q-221 0 -335 134v-109h-273v1552h277v-530q65 63 157 93t187 30q237 0 382.5 -159t145.5 -425q0 -268 -147.5 -427t-393.5 -159zM680 229q143 0 226 88.5t83 243.5t-83.5 242.5t-219.5 87.5q-84 0 -161 -38t-119 -105v-371q42 -74 115.5 -111t158.5 -37z" />
    <glyph glyph-name="c" unicode="c" horiz-adv-x="1222" 
d="M676 -23q-283 0 -442.5 158t-159.5 426q0 259 162 419.5t438 160.5q158 0 285 -59.5t202 -163.5l-196 -177q-42 63 -116.5 102.5t-160.5 39.5q-148 0 -237 -87.5t-89 -232.5q0 -150 88 -238.5t236 -88.5q93 0 169 40t120 101l192 -176q-77 -104 -204 -164t-287 -60z" />
    <glyph glyph-name="d" unicode="d" horiz-adv-x="1351" 
d="M614 -25q-246 0 -393 159t-147 427q0 266 145.5 425t382.5 159q95 0 187 -30t157 -93v530h279v-1552h-275v109q-111 -134 -336 -134zM676 229q85 0 159 37t115 111v371q-42 67 -119 105t-161 38q-137 0 -221 -87.5t-84 -242.5q0 -154 84.5 -243t226.5 -89z" />
    <glyph glyph-name="e" unicode="e" horiz-adv-x="1280" 
d="M1231 559q0 -61 -2 -84h-869q23 -125 108 -192.5t222 -67.5q99 0 183.5 36.5t140.5 106.5l178 -151q-166 -230 -522 -230q-279 0 -437.5 158.5t-158.5 427.5q0 264 161.5 425t419.5 161q280 0 428 -161.5t148 -428.5zM655 913q-112 0 -190 -58t-103 -175h592
q-13 101 -87.5 167t-211.5 66z" />
    <glyph glyph-name="f" unicode="f" horiz-adv-x="778" 
d="M186 0v866h-155v252h155v90q0 184 94 278.5t263 94.5q138 0 231 -41v-219q-79 25 -149 25q-84 0 -122 -40.5t-38 -136.5v-51h299v-252h-295v-866h-283z" />
    <glyph glyph-name="g" unicode="g" horiz-adv-x="1343" 
d="M643 -393q-279 0 -459 74v260q212 -95 414 -95q174 0 263 59.5t89 198.5v72q-111 -131 -336 -131q-244 0 -392 153t-148 398q0 243 146.5 396t381.5 153q95 0 187 -30t157 -93v96h279v-921q0 -140 -30.5 -245.5t-97.5 -184.5t-180.5 -119.5t-273.5 -40.5zM676 297
q85 0 159 36.5t115 110.5v304q-42 68 -118.5 106.5t-161.5 38.5q-134 0 -219.5 -82t-85.5 -213q0 -133 85 -217t226 -84z" />
    <glyph glyph-name="h" unicode="h" horiz-adv-x="1300" 
d="M129 0v1552h281v-536q69 58 160 92.5t190 34.5q216 0 321 -110t105 -365v-668h-281v598q0 160 -60 225.5t-175 65.5q-145 0 -258 -117v-772h-283z" />
    <glyph glyph-name="i" unicode="i" horiz-adv-x="557" 
d="M281 1255q-72 0 -123.5 51.5t-51.5 123.5t51.5 123t123.5 51q71 0 121.5 -51t50.5 -123t-50.5 -123.5t-121.5 -51.5zM135 0v1118h287v-1118h-287z" />
    <glyph glyph-name="j" unicode="j" horiz-adv-x="571" 
d="M299 1255q-72 0 -123 51.5t-51 123.5t51 123t123 51q71 0 121.5 -51t50.5 -123t-50.5 -123.5t-121.5 -51.5zM100 -389q-112 0 -168 18v234q47 -13 82 -13q38 0 63.5 10.5t40 27t22.5 48t10 63t2 83.5v1036h284v-1186q0 -165 -92 -243t-244 -78z" />
    <glyph glyph-name="k" unicode="k" horiz-adv-x="1273" 
d="M928 0l-295 483l-219 -217v-266h-281v1552h281v-950l475 516h348l-399 -438l411 -680h-321z" />
    <glyph glyph-name="l" unicode="l" horiz-adv-x="552" 
d="M135 0v1552h283v-1552h-283z" />
    <glyph glyph-name="m" unicode="m" horiz-adv-x="2019" 
d="M1493 1145q204 0 308 -112.5t104 -370.5v-662h-281v606q0 155 -58.5 219t-166.5 64q-149 0 -248 -107q6 -56 6 -120v-662h-276v623q0 141 -53.5 203.5t-157.5 62.5q-66 0 -133.5 -30.5t-118.5 -84.5v-774h-283v1118h273v-102q160 129 366 129q223 0 313 -146
q169 146 406 146z" />
    <glyph glyph-name="n" unicode="n" horiz-adv-x="1306" 
d="M135 0v1118h273v-102q70 58 163.5 92.5t194.5 34.5q216 0 321 -110t105 -365v-668h-281v598q0 160 -60 225.5t-175 65.5q-145 0 -258 -117v-772h-283z" />
    <glyph glyph-name="o" unicode="o" horiz-adv-x="1378" 
d="M690 -25q-278 0 -447 159.5t-169 426.5q0 263 169.5 422.5t446.5 159.5q276 0 444.5 -159.5t168.5 -422.5q0 -267 -168 -426.5t-445 -159.5zM690 233q143 0 232.5 90t89.5 238q0 146 -89.5 235t-232.5 89q-145 0 -234 -89t-89 -235q0 -149 89 -238.5t234 -89.5z" />
    <glyph glyph-name="p" unicode="p" horiz-adv-x="1359" 
d="M135 -360v1478h279v-96q65 63 157 93t187 30q236 0 381 -158.5t145 -425.5q0 -268 -146.5 -427t-392.5 -159q-220 0 -331 134v-469h-279zM684 229q142 0 225.5 89t83.5 243q0 155 -83.5 242.5t-219.5 87.5q-84 0 -161 -38t-119 -105v-371q42 -74 115.5 -111t158.5 -37z
" />
    <glyph glyph-name="q" unicode="q" horiz-adv-x="1343" 
d="M946 -360v469q-111 -134 -332 -134q-246 0 -393 159t-147 427q0 266 145.5 425t382.5 159q95 0 187 -30t157 -93v96h279v-1478h-279zM676 229q85 0 159 37t115 111v371q-42 67 -119 105t-161 38q-137 0 -221 -87.5t-84 -242.5q0 -154 84.5 -243t226.5 -89z" />
    <glyph glyph-name="r" unicode="r" horiz-adv-x="880" 
d="M135 0v1118h273v-145q130 170 348 170q53 0 78 -10v-306q-82 21 -136 21q-124 0 -202 -82.5t-78 -237.5v-528h-283z" />
    <glyph glyph-name="s" unicode="s" horiz-adv-x="1083" 
d="M541 -29q-261 0 -473 99l90 223q80 -48 179 -74t195 -26q195 0 195 118q0 50 -51.5 76t-196.5 59q-202 44 -299.5 122.5t-97.5 228.5q0 168 120 256t326 88q212 0 439 -88l-93 -226q-73 39 -170.5 62.5t-177.5 23.5q-164 0 -164 -96q0 -52 48 -78t194 -61
q212 -51 311 -125.5t99 -214.5q0 -188 -119.5 -277.5t-353.5 -89.5z" />
    <glyph glyph-name="t" unicode="t" horiz-adv-x="827" 
d="M528 -27q-183 0 -266.5 90t-83.5 283v520h-160v252h160v434h279v-434h329v-252h-329v-473q0 -96 31 -137t116 -41q96 0 180 37v-248q-105 -31 -256 -31z" />
    <glyph glyph-name="u" unicode="u" horiz-adv-x="1277" 
d="M532 -25q-203 0 -313 112t-110 362v669h282v-598q0 -159 59.5 -225t165.5 -66q156 0 261 129v760h282v-1118h-268v115q-143 -140 -359 -140z" />
    <glyph glyph-name="v" unicode="v" horiz-adv-x="1234" 
d="M915 1118h312l-527 -1124h-163l-529 1124h322l192 -461l99 -258l98 254z" />
    <glyph glyph-name="w" unicode="w" horiz-adv-x="1681" 
d="M1384 1118h289l-391 -1124h-158l-286 676l-281 -676h-158l-391 1124h295l201 -657l264 661h143l269 -665z" />
    <glyph glyph-name="x" unicode="x" horiz-adv-x="1216" 
d="M1200 0h-328l-266 367l-266 -367h-324l410 573l-403 545h331l252 -352l256 352h332l-401 -540z" />
    <glyph glyph-name="y" unicode="y" horiz-adv-x="1224" 
d="M913 1118h301l-458 -1130q-40 -100 -90 -172t-97 -112t-106 -62.5t-105.5 -28.5t-107.5 -6q-108 0 -182 24v244q92 -29 161 -29q88 0 149 35.5t103 116.5l-501 1120h315l317 -780z" />
    <glyph glyph-name="z" unicode="z" horiz-adv-x="1105" 
d="M459 233h608v-233h-1016v143l592 742h-559v233h979v-141z" />
    <glyph glyph-name="braceleft" unicode="{" horiz-adv-x="907" 
d="M872 -250q-292 0 -405 73t-113 265v139q0 67 -0.5 97t-4.5 76t-11.5 63.5t-23 44t-37.5 35t-56 19.5t-77.5 13.5t-104.5 2.5v219q60 0 104 2.5t78 14t56 20t37.5 35.5t23 44.5t11.5 63.5t4.5 76.5t0.5 97.5v131q0 128 48.5 199.5t159 103t310.5 31.5v-189
q-94 0 -152 -15.5t-86.5 -52t-37 -79t-8.5 -113.5v-168q0 -136 -35.5 -209t-134.5 -102q52 -15 86.5 -42t52.5 -68t24.5 -87t6.5 -112v-180q0 -71 9 -114t38 -78.5t86.5 -50.5t150.5 -15v-191z" />
    <glyph glyph-name="bar" unicode="|" horiz-adv-x="653" 
d="M211 -264v1906h231v-1906h-231z" />
    <glyph glyph-name="braceright" unicode="}" horiz-adv-x="907" 
d="M35 -250v191q93 0 150.5 15t86.5 50.5t38 78.5t9 114v180q0 133 35.5 206.5t134.5 102.5q-99 29 -134.5 102t-35.5 209v168q0 71 -8.5 113.5t-37 79t-86.5 52t-152 15.5v189q201 0 312 -31.5t159.5 -103t48.5 -199.5v-131q0 -67 0.5 -97.5t4.5 -76.5t11.5 -63.5t23 -44.5
t37.5 -35.5t56 -20t78 -14t104 -2.5v-219q-61 0 -104.5 -2.5t-77.5 -13.5t-56 -19.5t-37.5 -35t-23 -44t-11.5 -63.5t-4.5 -76t-0.5 -97v-139q0 -130 -50 -202.5t-161 -104t-309 -31.5z" />
    <glyph glyph-name="asciitilde" unicode="~" horiz-adv-x="1302" 
d="M915 481q-47 0 -109 13t-101 25t-111 36q-150 47 -207 47q-107 0 -166 -117l-162 39q62 342 324 342q119 0 346 -73q121 -41 195 -41q49 0 88.5 30.5t64.5 85.5l166 -47q-31 -171 -117 -255.5t-211 -84.5z" />
    <glyph glyph-name="exclamdown" unicode="&#xa1;" horiz-adv-x="528" 
d="M266 1481q71 0 120.5 -51.5t49.5 -124.5q0 -72 -50 -123.5t-120 -51.5q-72 0 -123 51.5t-51 123.5q0 73 51 124.5t123 51.5zM168 1028h197l51 -1028h-297z" />
    <glyph glyph-name="cent" unicode="&#xa2;" horiz-adv-x="1193" 
d="M1153 311q-69 -93 -179 -151t-249 -70v-231h-154v233q-243 25 -377.5 179t-134.5 399q0 239 135 394t377 181v262h154v-260q138 -12 246 -69t174 -148l-168 -162q-91 132 -252 156v-709q166 22 262 156zM313 672q0 -138 68.5 -231t189.5 -119v696q-122 -28 -190 -119
t-68 -227z" />
    <glyph glyph-name="sterling" unicode="&#xa3;" horiz-adv-x="1337" 
d="M594 258h680v-258h-1176v201l213 41q2 59 -28 252q-10 60 -11 67h-176v197h152q-4 74 -4 110q0 161 38 280t108.5 189.5t162.5 104t207 33.5q148 0 262.5 -56t181 -167t66.5 -263v-47h-254v23q0 113 -68 177t-168 64q-254 0 -254 -321q0 -59 6 -127h502v-197h-475
q0 -2 1 -5t1 -5q3 -22 10.5 -74t11.5 -80t7.5 -68t3.5 -71z" />
    <glyph glyph-name="currency" unicode="&#xa4;" horiz-adv-x="1191" 
d="M1034 672q0 -126 -73 -232l153 -153l-129 -131l-160 159q-101 -63 -225 -63q-123 0 -229 67l-164 -165l-129 133l162 162q-70 103 -70 227q0 118 70 225l-160 160l127 133l164 -164q111 70 229 70t227 -66l158 158l129 -129l-156 -156q76 -110 76 -235zM393 670
q0 -87 59.5 -148t149.5 -61q89 0 149 62.5t60 152.5t-61 151.5t-148 61.5q-89 0 -149 -63t-60 -156z" />
    <glyph glyph-name="yen" unicode="&#xa5;" horiz-adv-x="1314" 
d="M1323 1452l-436 -795h291v-155h-375v-131h375v-154h-375v-217h-289v217h-371v154h371v127l-2 4h-369v155h285l-434 795h338l325 -659l330 659h336z" />
    <glyph glyph-name="brokenbar" unicode="&#xa6;" horiz-adv-x="653" 
d="M211 854v788h231v-788h-231zM211 -262v790h231v-790h-231z" />
    <glyph glyph-name="section" unicode="&#xa7;" horiz-adv-x="1095" 
d="M547 -23q-286 0 -506 107l92 199q194 -101 408 -101q207 0 207 94q0 53 -56.5 80t-212.5 60q-225 46 -319 109t-94 186q0 76 40 134t111 93q-133 72 -133 219q0 159 119.5 240.5t326.5 81.5q249 0 478 -88l-95 -205q-83 38 -189 61t-189 23q-177 0 -177 -92
q0 -43 51.5 -66.5t211.5 -58.5q106 -23 178.5 -48.5t128.5 -61t83 -83t27 -110.5q0 -149 -149 -220q73 -37 107 -92t34 -137q0 -324 -483 -324zM647 600q66 7 101.5 36t35.5 71q0 52 -47.5 80t-146.5 49l-146 28q-57 -8 -94 -37t-37 -73q0 -51 46.5 -79t162.5 -52
q100 -21 125 -23z" />
    <glyph glyph-name="dieresis" unicode="&#xa8;" horiz-adv-x="1028" 
d="M287 1257q-71 0 -121.5 50.5t-50.5 122.5t50.5 122t121.5 50q69 0 118.5 -50t49.5 -122t-49.5 -122.5t-118.5 -50.5zM745 1257q-71 0 -121.5 50.5t-50.5 122.5t50.5 122t121.5 50q69 0 118.5 -50t49.5 -122t-49.5 -122.5t-118.5 -50.5z" />
    <glyph glyph-name="copyright" unicode="&#xa9;" horiz-adv-x="1585" 
d="M791 -18q-158 0 -296 56t-236 154.5t-154 238t-56 300.5q0 213 96 383.5t266.5 266.5t383.5 96q211 0 380 -96t264 -266.5t95 -383.5q0 -161 -55.5 -300.5t-153.5 -238t-236 -154.5t-298 -56zM791 123q170 0 305.5 78.5t211.5 217.5t76 312q0 171 -76 309t-210.5 216.5
t-302.5 78.5q-170 0 -307 -79t-214 -218t-77 -311q0 -170 76 -308t212.5 -217t305.5 -79zM803 297q-192 0 -311 118.5t-119 311.5q0 191 119.5 309.5t310.5 118.5q100 0 187 -42.5t147 -115.5l-158 -133q-30 43 -78.5 71t-99.5 28q-97 0 -157 -65t-60 -171t60 -170.5
t157 -64.5q51 0 100 26.5t78 69.5l158 -131q-130 -160 -334 -160z" />
    <glyph glyph-name="ordfeminine" unicode="&#xaa;" horiz-adv-x="948" 
d="M428 643q-174 0 -279.5 114.5t-105.5 301.5q0 185 105 298t272 113q70 0 140 -23.5t116 -72.5v78h174v-790h-172v79q-81 -98 -250 -98zM469 805q65 0 121 26.5t88 81.5v289q-30 50 -89.5 78.5t-125.5 28.5q-104 0 -169 -66t-65 -182q0 -119 64.5 -187.5t175.5 -68.5z" />
    <glyph glyph-name="guillemotleft" unicode="&#xab;" horiz-adv-x="1181" 
d="M416 14l-361 535l361 530l186 -139l-287 -391l287 -391zM922 14l-361 535l361 530l186 -139l-287 -391l287 -391z" />
    <glyph glyph-name="logicalnot" unicode="&#xac;" horiz-adv-x="1323" 
d="M956 131v428h-882v242h1147v-670h-265z" />
    <glyph glyph-name="uni00AD" unicode="&#xad;" horiz-adv-x="802" 
d="M68 547v256h665v-256h-665z" />
    <glyph glyph-name="registered" unicode="&#xae;" horiz-adv-x="1062" 
d="M530 461q-218 0 -360.5 144t-142.5 364q0 221 142.5 364.5t362.5 143.5q218 0 359 -144t141 -364t-142 -364t-360 -144zM530 563q170 0 282 116t112 290t-111.5 289.5t-280.5 115.5q-171 0 -284 -116.5t-113 -290.5q0 -173 112 -288.5t283 -115.5zM319 711v544h218
q110 0 170.5 -51.5t60.5 -146.5q0 -125 -104 -168l110 -178h-149l-86 149h-93v-149h-127zM446 967h80q53 0 81 23.5t28 62.5q0 96 -103 96h-86v-182z" />
    <glyph glyph-name="macron" unicode="&#xaf;" horiz-adv-x="1028" 
d="M147 1319v199h734v-199h-734z" />
    <glyph glyph-name="degree" unicode="&#xb0;" horiz-adv-x="854" 
d="M426 735q-164 0 -270.5 105.5t-106.5 265.5q0 163 106.5 268t270.5 105q165 0 272 -106t107 -269q0 -160 -107 -264.5t-272 -104.5zM426 922q80 0 132 52t52 132t-52 132t-132 52q-79 0 -131.5 -53t-52.5 -133q0 -79 52 -130.5t132 -51.5z" />
    <glyph glyph-name="plusminus" unicode="&#xb1;" horiz-adv-x="1243" 
d="M502 360v400h-402v241h402v402h239v-402h402v-241h-402v-400h-239zM98 0v238h1043v-238h-1043z" />
    <glyph glyph-name="uni00B2" unicode="&#xb2;" horiz-adv-x="763" 
d="M242 739h475v-161h-672v63q3 100 58.5 169t199.5 163q122 75 168.5 119t46.5 104q0 52 -39.5 79.5t-99.5 27.5q-74 0 -119 -39.5t-45 -106.5v-27h-172v37q0 138 90 217.5t248 79.5q146 0 239 -66t93 -186q0 -61 -17 -108t-58.5 -88.5t-83 -70.5t-118.5 -75
q-134 -78 -167 -106q-16 -12 -27 -25z" />
    <glyph glyph-name="uni00B3" unicode="&#xb3;" horiz-adv-x="770" 
d="M449 1128q132 -4 206 -84t74 -192q0 -138 -93.5 -213.5t-252.5 -75.5q-160 0 -254 73t-94 200v14h174v-6q0 -56 46 -88.5t122 -32.5q77 0 121.5 37.5t44.5 99.5q0 66 -46.5 102.5t-123.5 36.5q-55 0 -117 -24l-66 84l242 231h-352v162h616v-92z" />
    <glyph glyph-name="acute" unicode="&#xb4;" horiz-adv-x="1028" 
d="M244 1272l254 342l317 -27l-373 -315h-198z" />
    <glyph glyph-name="uni00B5" unicode="&#xb5;" horiz-adv-x="1312" 
d="M899 1118h281v-1118h-269v115q-120 -140 -297 -140q-126 0 -202 76v-411h-281v1478h281v-598q0 -159 59.5 -225t165.5 -66q153 0 262 129v760z" />
    <glyph glyph-name="paragraph" unicode="&#xb6;" horiz-adv-x="1232" 
d="M610 0v614h-30q-238 0 -374 113.5t-136 314.5q0 191 134.5 300.5t368.5 109.5h557v-1452h-196v1249h-127v-1249h-197zM543 815h69v430h-49q-119 0 -187.5 -56t-68.5 -157q0 -102 63.5 -159.5t172.5 -57.5z" />
    <glyph glyph-name="periodcentered" unicode="&#xb7;" horiz-adv-x="505" 
d="M256 498q-72 0 -123 51t-51 123t51 123t123 51q70 0 120 -51t50 -123t-50 -123t-120 -51z" />
    <glyph glyph-name="cedilla" unicode="&#xb8;" horiz-adv-x="882" 
d="M686 -80q125 -26 125 -123q0 -91 -74.5 -137.5t-208.5 -46.5q-88 0 -147 12v115q44 -8 100 -8q119 0 119 75q0 52 -108 62v47l81 92l154 6z" />
    <glyph glyph-name="uni00B9" unicode="&#xb9;" horiz-adv-x="530" 
d="M244 578v682l-178 -62l-54 145l295 109h115v-874h-178z" />
    <glyph glyph-name="ordmasculine" unicode="&#xba;" horiz-adv-x="956" 
d="M477 643q-193 0 -313.5 114.5t-120.5 301.5q0 182 120.5 295.5t313.5 113.5q192 0 313 -112.5t121 -296.5q0 -187 -120.5 -301.5t-313.5 -114.5zM477 807q108 0 178 69.5t70 182.5q0 108 -70 177t-178 69q-107 0 -177.5 -69t-70.5 -177q0 -112 69.5 -182t178.5 -70z" />
    <glyph glyph-name="guillemotright" unicode="&#xbb;" horiz-adv-x="1181" 
d="M260 14l-186 144l286 391l-286 391l186 139l361 -530zM768 14l-186 144l286 391l-286 391l186 139l360 -530z" />
    <glyph glyph-name="onequarter" unicode="&#xbc;" horiz-adv-x="1601" 
d="M244 578v682l-178 -62l-54 145l295 109h115v-874h-178zM1163 1452h215l-999 -1452h-215zM1446 303h135v-153h-135v-150h-178v150h-465v94l514 635h129v-576zM1014 291h270v340z" />
    <glyph glyph-name="onehalf" unicode="&#xbd;" horiz-adv-x="1755" 
d="M244 578v682l-178 -62l-54 145l295 109h115v-874h-178zM1163 1452h215l-999 -1452h-215zM1233 162h475v-162h-672v63q3 100 58.5 169t199.5 163q122 75 168.5 119t46.5 104q0 52 -39.5 79.5t-99.5 27.5q-74 0 -119 -39t-45 -106v-27h-172v37q0 138 90 217.5t248 79.5
q146 0 239 -66t93 -186q0 -61 -17 -108t-58.5 -88.5t-83 -70.5t-118.5 -75q-8 -5 -23 -13q-124 -73 -158 -105q-7 -6 -13 -13z" />
    <glyph glyph-name="threequarters" unicode="&#xbe;" horiz-adv-x="1810" 
d="M729 852q0 -138 -93.5 -213.5t-252.5 -75.5q-160 0 -254 73t-94 200v14h174v-6q0 -56 46 -88.5t122 -32.5q77 0 121.5 37.5t44.5 99.5q0 66 -46.5 102.5t-123.5 36.5q-55 0 -117 -24l-66 84l242 231h-352v162h616v-92l-247 -232q132 -4 206 -84t74 -192zM1372 1452h215
l-999 -1452h-215zM1655 303h135v-153h-135v-150h-178v150h-465v94l514 635h129v-576zM1223 291h270v340z" />
    <glyph glyph-name="questiondown" unicode="&#xbf;" horiz-adv-x="1191" 
d="M668 1481q72 0 123 -51.5t51 -124.5q0 -72 -51 -123.5t-123 -51.5q-70 0 -120 51.5t-50 123.5q0 73 49.5 124.5t120.5 51.5zM61 430q0 191 135 324.5t367 148.5l33 125h152l30 -299l-86 -8q-164 -15 -254 -89t-90 -186q0 -76 41 -130.5t101 -78.5t131 -24q134 0 214 74
t80 213v24h265v-39q0 -243 -158 -378.5t-414 -135.5q-114 0 -212 28t-173.5 83t-118.5 144t-43 204z" />
    <glyph glyph-name="Agrave" unicode="&#xc0;" horiz-adv-x="1538" 
d="M885 1565h-199l-371 317l316 25zM1212 0l-127 276h-634l-125 -276h-316l664 1458h188l666 -1458h-316zM768 1075l-111 -297l-108 -258h440l-108 258z" />
    <glyph glyph-name="Aacute" unicode="&#xc1;" horiz-adv-x="1538" 
d="M651 1565l254 342l318 -25l-373 -317h-199zM1212 0l-127 276h-634l-125 -276h-316l664 1458h188l666 -1458h-316zM768 1075l-111 -297l-108 -258h440l-108 258z" />
    <glyph glyph-name="Acircumflex" unicode="&#xc2;" horiz-adv-x="1538" 
d="M383 1565l295 336h186l295 -336h-211l-178 143l-178 -143h-209zM1212 0l-127 276h-634l-125 -276h-316l664 1458h188l666 -1458h-316zM768 1075l-111 -297l-108 -258h440l-108 258z" />
    <glyph glyph-name="Atilde" unicode="&#xc3;" horiz-adv-x="1538" 
d="M467 1552l-129 29q20 140 83 216.5t159 76.5q63 0 133.5 -31t129.5 -61.5t95 -30.5q40 0 75 30t58 85l129 -31q-20 -139 -82 -215t-157 -76q-58 0 -129 31t-132 61.5t-94 30.5q-86 0 -139 -115zM1212 0l-127 276h-634l-125 -276h-316l664 1458h188l666 -1458h-316z
M768 1075l-111 -297l-108 -258h440l-108 258z" />
    <glyph glyph-name="Adieresis" unicode="&#xc4;" horiz-adv-x="1538" 
d="M541 1554q-71 0 -121.5 50t-50.5 122t50.5 122t121.5 50t120.5 -50t49.5 -122t-49.5 -122t-120.5 -50zM999 1554q-71 0 -120.5 50t-49.5 122t49.5 122t120.5 50t120.5 -50t49.5 -122t-49.5 -122t-120.5 -50zM1212 0l-127 276h-634l-125 -276h-316l664 1458h188l666 -1458
h-316zM768 1075l-111 -297l-108 -258h440l-108 258z" />
    <glyph glyph-name="Aring" unicode="&#xc5;" horiz-adv-x="1538" 
d="M881 1419l647 -1419h-316l-127 276h-634l-125 -276h-316l645 1419q-59 28 -94 84.5t-35 128.5q0 102 69.5 169t172.5 67t172.5 -67t69.5 -169q0 -72 -35 -128.5t-94 -84.5zM768 1753q-50 0 -82.5 -33.5t-32.5 -87.5q0 -51 32.5 -83.5t82.5 -32.5q51 0 84 33t33 87
q0 51 -33 84t-84 33zM549 520h440l-108 258l-113 297l-111 -297z" />
    <glyph glyph-name="AE" unicode="&#xc6;" horiz-adv-x="2095" 
d="M6 0l731 1452h1254v-262h-772v-350h651v-248h-651v-332h804v-260h-1087v276h-469l-139 -276h-322zM571 520h365v660h-41z" />
    <glyph glyph-name="Ccedilla" unicode="&#xc7;" horiz-adv-x="1527" 
d="M852 246q131 0 234 51.5t167 140.5l226 -190q-203 -250 -559 -275l-23 -53q125 -26 125 -123q0 -91 -74.5 -137.5t-208.5 -46.5q-89 0 -147 12v115q44 -8 100 -8q119 0 119 75q0 52 -109 62v47l54 59q-308 26 -489 228t-181 528q0 347 206 547.5t552 200.5
q205 0 366 -73.5t269 -205.5l-226 -190q-64 90 -167 142t-234 52q-211 0 -338 -127t-127 -346q0 -223 127 -354t338 -131z" />
    <glyph glyph-name="Egrave" unicode="&#xc8;" horiz-adv-x="1298" 
d="M768 1565h-199l-370 317l315 25zM139 0v1452h1055v-262h-774v-350h651v-248h-651v-332h807v-260h-1088z" />
    <glyph glyph-name="Eacute" unicode="&#xc9;" horiz-adv-x="1298" 
d="M535 1565l253 342l318 -25l-373 -317h-198zM139 0v1452h1055v-262h-774v-350h651v-248h-651v-332h807v-260h-1088z" />
    <glyph glyph-name="Ecircumflex" unicode="&#xca;" horiz-adv-x="1298" 
d="M266 1565l295 336h187l294 -336h-211l-178 143l-178 -143h-209zM139 0v1452h1055v-262h-774v-350h651v-248h-651v-332h807v-260h-1088z" />
    <glyph glyph-name="Edieresis" unicode="&#xcb;" horiz-adv-x="1298" 
d="M424 1554q-71 0 -121.5 50t-50.5 122t50.5 122t121.5 50t120.5 -50t49.5 -122t-49.5 -122t-120.5 -50zM883 1554q-71 0 -120.5 50t-49.5 122t49.5 122t120.5 50t120.5 -50t49.5 -122t-49.5 -122t-120.5 -50zM139 0v1452h1055v-262h-774v-350h651v-248h-651v-332h807v-260
h-1088z" />
    <glyph glyph-name="Igrave" unicode="&#xcc;" horiz-adv-x="604" 
d="M422 1565h-199l-370 317l315 25zM154 0v1452h297v-1452h-297z" />
    <glyph glyph-name="Iacute" unicode="&#xcd;" horiz-adv-x="604" 
d="M188 1565l254 342l318 -25l-373 -317h-199zM154 0v1452h297v-1452h-297z" />
    <glyph glyph-name="Icircumflex" unicode="&#xce;" horiz-adv-x="604" 
d="M-80 1565l295 336h186l295 -336h-211l-178 143l-178 -143h-209zM154 0v1452h297v-1452h-297z" />
    <glyph glyph-name="Idieresis" unicode="&#xcf;" horiz-adv-x="604" 
d="M78 1554q-71 0 -121.5 50t-50.5 122t50.5 122t121.5 50t120.5 -50t49.5 -122t-49.5 -122t-120.5 -50zM537 1554q-71 0 -120.5 50t-49.5 122t49.5 122t120.5 50t120.5 -50t49.5 -122t-49.5 -122t-120.5 -50zM154 0v1452h297v-1452h-297z" />
    <glyph glyph-name="Eth" unicode="&#xd0;" horiz-adv-x="1550" 
d="M745 1452q343 0 531 -180t188 -529q0 -348 -183.5 -545.5t-528.5 -197.5h-570v610h-153v228h153v614h563zM758 266q184 0 294.5 121t110.5 356q0 212 -108.5 326.5t-304.5 114.5h-287v-346h344v-228h-344v-344h295z" />
    <glyph glyph-name="Ntilde" unicode="&#xd1;" horiz-adv-x="1579" 
d="M489 1552l-129 29q20 140 83 216.5t159 76.5q63 0 133.5 -31t130 -61.5t95.5 -30.5q40 0 75 30t58 85l129 -31q-20 -139 -82.5 -215t-157.5 -76q-58 0 -129 31t-131.5 61.5t-93.5 30.5q-87 0 -140 -115zM1155 1452h287v-1460h-150l-866 921v-913h-287v1460h146l870 -921
v913z" />
    <glyph glyph-name="Ograve" unicode="&#xd2;" horiz-adv-x="1730" 
d="M985 1565h-199l-370 317l315 25zM864 -29q-225 0 -401.5 93t-276.5 265t-100 396q0 164 56 304t156.5 240t246.5 156t319 56q226 0 404 -93.5t278.5 -266t100.5 -396.5q0 -163 -56.5 -303t-158 -239.5t-248 -155.5t-320.5 -56zM864 244q212 0 345.5 132t133.5 349
q0 214 -131.5 348.5t-347.5 134.5q-209 0 -343 -133t-134 -350q0 -212 131.5 -346.5t345.5 -134.5z" />
    <glyph glyph-name="Oacute" unicode="&#xd3;" horiz-adv-x="1730" 
d="M752 1565l254 342l317 -25l-373 -317h-198zM864 -29q-225 0 -401.5 93t-276.5 265t-100 396q0 164 56 304t156.5 240t246.5 156t319 56q226 0 404 -93.5t278.5 -266t100.5 -396.5q0 -163 -56.5 -303t-158 -239.5t-248 -155.5t-320.5 -56zM864 244q212 0 345.5 132
t133.5 349q0 214 -131.5 348.5t-347.5 134.5q-209 0 -343 -133t-134 -350q0 -212 131.5 -346.5t345.5 -134.5z" />
    <glyph glyph-name="Ocircumflex" unicode="&#xd4;" horiz-adv-x="1730" 
d="M483 1565l295 336h187l295 -336h-211l-179 143l-178 -143h-209zM864 -29q-225 0 -401.5 93t-276.5 265t-100 396q0 164 56 304t156.5 240t246.5 156t319 56q226 0 404 -93.5t278.5 -266t100.5 -396.5q0 -163 -56.5 -303t-158 -239.5t-248 -155.5t-320.5 -56zM864 244
q212 0 345.5 132t133.5 349q0 214 -131.5 348.5t-347.5 134.5q-209 0 -343 -133t-134 -350q0 -212 131.5 -346.5t345.5 -134.5z" />
    <glyph glyph-name="Otilde" unicode="&#xd5;" horiz-adv-x="1730" 
d="M567 1552l-129 29q20 140 83 216.5t159 76.5q63 0 133.5 -31t129.5 -61.5t95 -30.5q40 0 75 30t58 85l129 -31q-20 -139 -82 -215t-157 -76q-58 0 -129 31t-131.5 61.5t-93.5 30.5q-87 0 -140 -115zM864 -29q-225 0 -401.5 93t-276.5 265t-100 396q0 164 56 304
t156.5 240t246.5 156t319 56q226 0 404 -93.5t278.5 -266t100.5 -396.5q0 -163 -56.5 -303t-158 -239.5t-248 -155.5t-320.5 -56zM864 244q212 0 345.5 132t133.5 349q0 214 -131.5 348.5t-347.5 134.5q-209 0 -343 -133t-134 -350q0 -212 131.5 -346.5t345.5 -134.5z" />
    <glyph glyph-name="Odieresis" unicode="&#xd6;" horiz-adv-x="1730" 
d="M641 1554q-71 0 -121.5 50t-50.5 122t50.5 122t121.5 50t120.5 -50t49.5 -122t-49.5 -122t-120.5 -50zM1100 1554q-71 0 -120.5 50t-49.5 122t49.5 122t120.5 50t120.5 -50t49.5 -122t-49.5 -122t-120.5 -50zM864 -29q-225 0 -401.5 93t-276.5 265t-100 396q0 164 56 304
t156.5 240t246.5 156t319 56q226 0 404 -93.5t278.5 -266t100.5 -396.5q0 -163 -56.5 -303t-158 -239.5t-248 -155.5t-320.5 -56zM864 244q212 0 345.5 132t133.5 349q0 214 -131.5 348.5t-347.5 134.5q-209 0 -343 -133t-134 -350q0 -212 131.5 -346.5t345.5 -134.5z" />
    <glyph glyph-name="multiply" unicode="&#xd7;" horiz-adv-x="1191" 
d="M238 147l-170 170l360 359l-360 358l168 172l360 -360l362 360l166 -172l-360 -358l358 -359l-164 -172l-362 359z" />
    <glyph glyph-name="Oslash" unicode="&#xd8;" horiz-adv-x="1730" 
d="M1456 1241q191 -204 191 -516q0 -163 -56.5 -303t-158 -239.5t-248 -155.5t-320.5 -56q-239 0 -424 107l-67 -78h-269l177 203q-195 205 -195 522q0 164 56 304t156.5 240t246.5 156t319 56q244 0 434 -111l70 82h272zM387 725q0 -171 90 -297l631 723q-108 57 -244 57
q-209 0 -343 -133t-134 -350zM864 244q212 0 345.5 132t133.5 349q0 166 -83 291l-627 -719q100 -53 231 -53z" />
    <glyph glyph-name="Ugrave" unicode="&#xd9;" horiz-adv-x="1499" 
d="M868 1565h-198l-371 317l315 25zM750 -29q-309 0 -468 152t-159 450v879h293v-809q0 -209 80.5 -302t253.5 -93q174 0 254.5 93t80.5 302v809h291v-879q0 -602 -626 -602z" />
    <glyph glyph-name="Uacute" unicode="&#xda;" horiz-adv-x="1499" 
d="M635 1565l254 342l317 -25l-372 -317h-199zM750 -29q-309 0 -468 152t-159 450v879h293v-809q0 -209 80.5 -302t253.5 -93q174 0 254.5 93t80.5 302v809h291v-879q0 -602 -626 -602z" />
    <glyph glyph-name="Ucircumflex" unicode="&#xdb;" horiz-adv-x="1499" 
d="M367 1565l295 336h186l295 -336h-211l-178 143l-179 -143h-208zM750 -29q-309 0 -468 152t-159 450v879h293v-809q0 -209 80.5 -302t253.5 -93q174 0 254.5 93t80.5 302v809h291v-879q0 -602 -626 -602z" />
    <glyph glyph-name="Udieresis" unicode="&#xdc;" horiz-adv-x="1499" 
d="M524 1554q-71 0 -121.5 50t-50.5 122t50.5 122t121.5 50t120.5 -50t49.5 -122t-49.5 -122t-120.5 -50zM983 1554q-71 0 -120.5 50t-49.5 122t49.5 122t120.5 50t120.5 -50t49.5 -122t-49.5 -122t-120.5 -50zM750 -29q-309 0 -468 152t-159 450v879h293v-809
q0 -209 80.5 -302t253.5 -93q174 0 254.5 93t80.5 302v809h291v-879q0 -602 -626 -602z" />
    <glyph glyph-name="Yacute" unicode="&#xdd;" horiz-adv-x="1363" 
d="M565 1565l254 342l318 -25l-373 -317h-199zM1366 1452l-537 -948v-504h-294v504l-537 948h338l348 -657l350 657h332z" />
    <glyph glyph-name="Thorn" unicode="&#xde;" horiz-adv-x="1343" 
d="M717 1257q289 0 438.5 -132.5t149.5 -387.5q0 -536 -627 -536h-250v-201h-289v1452h289v-195h289zM676 455q330 0 330 274q0 135 -75 203.5t-233 68.5h-270v-546h248z" />
    <glyph glyph-name="germandbls" unicode="&#xdf;" horiz-adv-x="1306" 
d="M956 872q127 -30 206 -145.5t79 -253.5q0 -247 -138.5 -371.5t-391.5 -124.5q-65 0 -176 15v254q80 -13 141 -13q130 0 202 61t72 187q0 117 -77.5 176.5t-219.5 59.5h-71v229h57q91 0 145 59.5t54 143.5q0 91 -59 142.5t-150 51.5q-117 0 -181.5 -69t-64.5 -195v-1439
h-283v1417q0 136 41.5 239t115 164t166 91t202.5 30q226 0 356.5 -108.5t130.5 -315.5q0 -89 -42.5 -165t-113.5 -120z" />
    <glyph glyph-name="agrave" unicode="&#xe0;" horiz-adv-x="1351" 
d="M819 1270h-201l-370 317l317 25zM614 -25q-246 0 -393 159t-147 427q0 266 145.5 425t382.5 159q95 0 187 -30t157 -93v96h279v-1118h-275v109q-111 -134 -336 -134zM676 229q85 0 159 37t115 111v371q-42 67 -119 105t-161 38q-137 0 -221 -87.5t-84 -242.5
q0 -154 84.5 -243t226.5 -89z" />
    <glyph glyph-name="aacute" unicode="&#xe1;" horiz-adv-x="1351" 
d="M555 1272l254 342l317 -27l-370 -315h-201zM614 -25q-246 0 -393 159t-147 427q0 266 145.5 425t382.5 159q95 0 187 -30t157 -93v96h279v-1118h-275v109q-111 -134 -336 -134zM676 229q85 0 159 37t115 111v371q-42 67 -119 105t-161 38q-137 0 -221 -87.5t-84 -242.5
q0 -154 84.5 -243t226.5 -89z" />
    <glyph glyph-name="acircumflex" unicode="&#xe2;" horiz-adv-x="1351" 
d="M297 1270l295 336h186l295 -336h-211l-178 141l-178 -141h-209zM614 -25q-246 0 -393 159t-147 427q0 266 145.5 425t382.5 159q95 0 187 -30t157 -93v96h279v-1118h-275v109q-111 -134 -336 -134zM676 229q85 0 159 37t115 111v371q-42 67 -119 105t-161 38
q-137 0 -221 -87.5t-84 -242.5q0 -154 84.5 -243t226.5 -89z" />
    <glyph glyph-name="atilde" unicode="&#xe3;" horiz-adv-x="1351" 
d="M385 1266l-129 30q20 140 82.5 215.5t159.5 75.5q63 0 133.5 -30.5t129.5 -60.5t95 -30q40 0 75 30t58 85l129 -31q-20 -140 -82 -215t-157 -75q-58 0 -129 30t-132 60t-94 30q-88 0 -139 -114zM614 -25q-246 0 -393 159t-147 427q0 266 145.5 425t382.5 159
q95 0 187 -30t157 -93v96h279v-1118h-275v109q-111 -134 -336 -134zM676 229q85 0 159 37t115 111v371q-42 67 -119 105t-161 38q-137 0 -221 -87.5t-84 -242.5q0 -154 84.5 -243t226.5 -89z" />
    <glyph glyph-name="adieresis" unicode="&#xe4;" horiz-adv-x="1351" 
d="M457 1257q-72 0 -122 50.5t-50 122.5t50 122t122 50q69 0 118.5 -50t49.5 -122t-49.5 -122.5t-118.5 -50.5zM915 1257q-71 0 -121.5 50.5t-50.5 122.5t50.5 122t121.5 50q69 0 118.5 -50t49.5 -122t-49.5 -122.5t-118.5 -50.5zM614 -25q-246 0 -393 159t-147 427
q0 266 145.5 425t382.5 159q95 0 187 -30t157 -93v96h279v-1118h-275v109q-111 -134 -336 -134zM676 229q85 0 159 37t115 111v371q-42 67 -119 105t-161 38q-137 0 -221 -87.5t-84 -242.5q0 -154 84.5 -243t226.5 -89z" />
    <glyph glyph-name="aring" unicode="&#xe5;" horiz-adv-x="1351" 
d="M686 1255q-104 0 -173 67t-69 171q0 102 69.5 169t172.5 67t172.5 -67t69.5 -169q0 -104 -69 -171t-173 -67zM686 1376q51 0 84 33.5t33 85.5q0 51 -33 84t-84 33q-50 0 -82.5 -33.5t-32.5 -85.5q0 -51 32.5 -84t82.5 -33zM614 -25q-246 0 -393 159t-147 427
q0 266 145.5 425t382.5 159q95 0 187 -30t157 -93v96h279v-1118h-275v109q-111 -134 -336 -134zM676 229q85 0 159 37t115 111v371q-42 67 -119 105t-161 38q-137 0 -221 -87.5t-84 -242.5q0 -154 84.5 -243t226.5 -89z" />
    <glyph glyph-name="ae" unicode="&#xe6;" horiz-adv-x="2138" 
d="M2089 559l-2 -84h-870q23 -127 109 -194.5t226 -67.5q102 0 186.5 37.5t139.5 107.5l180 -153q-78 -108 -205.5 -166.5t-293.5 -58.5q-224 0 -357 112v-92h-276v109q-59 -72 -146.5 -103t-179.5 -31q-240 0 -383 159.5t-143 428.5q0 267 142 426.5t374 159.5
q91 0 180.5 -30t151.5 -93v96h280v-86q128 113 326 113q267 0 414 -162.5t147 -427.5zM1513 913q-112 0 -190.5 -58.5t-103.5 -174.5h593q-13 101 -87.5 167t-211.5 66zM926 379v373q-40 67 -116.5 106t-158.5 39q-133 0 -214 -88t-81 -244q0 -157 81 -247.5t220 -90.5
q85 0 156.5 37t112.5 115z" />
    <glyph glyph-name="ccedilla" unicode="&#xe7;" horiz-adv-x="1222" 
d="M1167 201q-69 -93 -178.5 -151t-247.5 -70l-26 -60q125 -26 125 -123q0 -91 -74.5 -137.5t-208.5 -46.5q-89 0 -147 12v115q44 -8 100 -8q119 0 119 75q0 52 -109 62v47l60 68q-240 26 -373 179t-133 398q0 259 162 419.5t438 160.5q158 0 285 -59.5t202 -163.5
l-196 -177q-42 63 -116.5 102.5t-160.5 39.5q-148 0 -237 -87.5t-89 -232.5q0 -150 88 -238.5t236 -88.5q93 0 169 40t120 101z" />
    <glyph glyph-name="egrave" unicode="&#xe8;" horiz-adv-x="1280" 
d="M770 1274h-201l-370 317l317 25zM1231 559q0 -61 -2 -84h-869q23 -125 108 -192.5t222 -67.5q99 0 183.5 36.5t140.5 106.5l178 -151q-166 -230 -522 -230q-279 0 -437.5 158.5t-158.5 427.5q0 264 161.5 425t419.5 161q280 0 428 -161.5t148 -428.5zM655 913
q-112 0 -190 -58t-103 -175h592q-13 101 -87.5 167t-211.5 66z" />
    <glyph glyph-name="eacute" unicode="&#xe9;" horiz-adv-x="1280" 
d="M506 1276l254 342l317 -27l-370 -315h-201zM1231 559q0 -61 -2 -84h-869q23 -125 108 -192.5t222 -67.5q99 0 183.5 36.5t140.5 106.5l178 -151q-166 -230 -522 -230q-279 0 -437.5 158.5t-158.5 427.5q0 264 161.5 425t419.5 161q280 0 428 -161.5t148 -428.5zM655 913
q-112 0 -190 -58t-103 -175h592q-13 101 -87.5 167t-211.5 66z" />
    <glyph glyph-name="ecircumflex" unicode="&#xea;" horiz-adv-x="1280" 
d="M250 1274l295 336h186l295 -336h-211l-178 141l-178 -141h-209zM1231 559q0 -61 -2 -84h-869q23 -125 108 -192.5t222 -67.5q99 0 183.5 36.5t140.5 106.5l178 -151q-166 -230 -522 -230q-279 0 -437.5 158.5t-158.5 427.5q0 264 161.5 425t419.5 161q280 0 428 -161.5
t148 -428.5zM655 913q-112 0 -190 -58t-103 -175h592q-13 101 -87.5 167t-211.5 66z" />
    <glyph glyph-name="edieresis" unicode="&#xeb;" horiz-adv-x="1280" 
d="M408 1262q-72 0 -122 50t-50 122t50 122t122 50q69 0 118 -50t49 -122t-49 -122t-118 -50zM866 1262q-71 0 -121.5 50t-50.5 122t50.5 122t121.5 50q69 0 118.5 -50t49.5 -122t-49.5 -122t-118.5 -50zM1231 559q0 -61 -2 -84h-869q23 -125 108 -192.5t222 -67.5
q99 0 183.5 36.5t140.5 106.5l178 -151q-166 -230 -522 -230q-279 0 -437.5 158.5t-158.5 427.5q0 264 161.5 425t419.5 161q280 0 428 -161.5t148 -428.5zM655 913q-112 0 -190 -58t-103 -175h592q-13 101 -87.5 167t-211.5 66z" />
    <glyph glyph-name="igrave" unicode="&#xec;" horiz-adv-x="557" 
d="M416 1270h-201l-371 317l318 25zM135 0v1118h287v-1118h-287z" />
    <glyph glyph-name="iacute" unicode="&#xed;" horiz-adv-x="557" 
d="M152 1272l254 342l317 -27l-371 -315h-200zM135 0v1118h287v-1118h-287z" />
    <glyph glyph-name="icircumflex" unicode="&#xee;" horiz-adv-x="557" 
d="M-104 1270l294 336h187l295 -336h-211l-178 141l-179 -141h-208zM135 0v1118h287v-1118h-287z" />
    <glyph glyph-name="idieresis" unicode="&#xef;" horiz-adv-x="557" 
d="M53 1257q-72 0 -122 50.5t-50 122.5t50 122t122 50q69 0 118.5 -50t49.5 -122t-49.5 -122.5t-118.5 -50.5zM512 1257q-71 0 -121.5 50.5t-50.5 122.5t50.5 122t121.5 50q69 0 118.5 -50t49.5 -122t-49.5 -122.5t-118.5 -50.5zM135 0v1118h287v-1118h-287z" />
    <glyph glyph-name="eth" unicode="&#xf0;" horiz-adv-x="1380" 
d="M1075 1309q66 -69 113 -152t71.5 -166t35 -156.5t10.5 -144.5q0 -346 -163 -530.5t-458 -184.5q-274 0 -442 156t-168 412q0 233 144 376.5t392 143.5q131 0 235.5 -45.5t172.5 -122.5q-41 203 -221 322l-293 -125v153l117 49q-108 33 -261 39v248q295 -11 506 -119
l342 137v-235zM682 233q150 0 237.5 102.5t90.5 270.5q-52 120 -144 176t-198 56q-135 0 -218 -84t-83 -211q0 -135 88.5 -222.5t226.5 -87.5z" />
    <glyph glyph-name="ntilde" unicode="&#xf1;" horiz-adv-x="1306" 
d="M360 1266l-129 30q20 140 82.5 215.5t159.5 75.5q63 0 133.5 -30.5t129.5 -60.5t95 -30q40 0 75.5 30t58.5 85l129 -31q-20 -140 -82.5 -215t-157.5 -75q-58 0 -129 30t-131.5 60t-93.5 30q-89 0 -140 -114zM135 0v1118h273v-102q70 58 163.5 92.5t194.5 34.5
q216 0 321 -110t105 -365v-668h-281v598q0 160 -60 225.5t-175 65.5q-145 0 -258 -117v-772h-283z" />
    <glyph glyph-name="ograve" unicode="&#xf2;" horiz-adv-x="1378" 
d="M827 1270h-200l-371 317l317 25zM690 -25q-278 0 -447 159.5t-169 426.5q0 263 169.5 422.5t446.5 159.5q276 0 444.5 -159.5t168.5 -422.5q0 -267 -168 -426.5t-445 -159.5zM690 233q143 0 232.5 90t89.5 238q0 146 -89.5 235t-232.5 89q-145 0 -234 -89t-89 -235
q0 -149 89 -238.5t234 -89.5z" />
    <glyph glyph-name="oacute" unicode="&#xf3;" horiz-adv-x="1378" 
d="M563 1272l254 342l318 -27l-371 -315h-201zM690 -25q-278 0 -447 159.5t-169 426.5q0 263 169.5 422.5t446.5 159.5q276 0 444.5 -159.5t168.5 -422.5q0 -267 -168 -426.5t-445 -159.5zM690 233q143 0 232.5 90t89.5 238q0 146 -89.5 235t-232.5 89q-145 0 -234 -89
t-89 -235q0 -149 89 -238.5t234 -89.5z" />
    <glyph glyph-name="ocircumflex" unicode="&#xf4;" horiz-adv-x="1378" 
d="M307 1270l295 336h186l295 -336h-211l-178 141l-178 -141h-209zM690 -25q-278 0 -447 159.5t-169 426.5q0 263 169.5 422.5t446.5 159.5q276 0 444.5 -159.5t168.5 -422.5q0 -267 -168 -426.5t-445 -159.5zM690 233q143 0 232.5 90t89.5 238q0 146 -89.5 235t-232.5 89
q-145 0 -234 -89t-89 -235q0 -149 89 -238.5t234 -89.5z" />
    <glyph glyph-name="otilde" unicode="&#xf5;" horiz-adv-x="1378" 
d="M393 1266l-129 30q20 140 82.5 215.5t159.5 75.5q63 0 133.5 -30.5t129.5 -60.5t95 -30q40 0 75 30t58 85l129 -31q-20 -140 -82 -215t-157 -75q-58 0 -129 30t-132 60t-94 30q-88 0 -139 -114zM690 -25q-278 0 -447 159.5t-169 426.5q0 263 169.5 422.5t446.5 159.5
q276 0 444.5 -159.5t168.5 -422.5q0 -267 -168 -426.5t-445 -159.5zM690 233q143 0 232.5 90t89.5 238q0 146 -89.5 235t-232.5 89q-145 0 -234 -89t-89 -235q0 -149 89 -238.5t234 -89.5z" />
    <glyph glyph-name="odieresis" unicode="&#xf6;" horiz-adv-x="1378" 
d="M465 1257q-72 0 -122 50.5t-50 122.5t50 122t122 50q69 0 118.5 -50t49.5 -122t-49.5 -122.5t-118.5 -50.5zM924 1257q-71 0 -121.5 50.5t-50.5 122.5t50.5 122t121.5 50q69 0 118.5 -50t49.5 -122t-49.5 -122.5t-118.5 -50.5zM690 -25q-278 0 -447 159.5t-169 426.5
q0 263 169.5 422.5t446.5 159.5q276 0 444.5 -159.5t168.5 -422.5q0 -267 -168 -426.5t-445 -159.5zM690 233q143 0 232.5 90t89.5 238q0 146 -89.5 235t-232.5 89q-145 0 -234 -89t-89 -235q0 -149 89 -238.5t234 -89.5z" />
    <glyph glyph-name="divide" unicode="&#xf7;" horiz-adv-x="1044" 
d="M520 922q-68 0 -117 48t-49 117t49 117.5t117 48.5t116 -48.5t48 -117.5t-48 -117t-116 -48zM74 555v242h897v-242h-897zM520 113q-68 0 -117 48.5t-49 117.5t49 117t117 48t116 -48t48 -117t-48 -117.5t-116 -48.5z" />
    <glyph glyph-name="oslash" unicode="&#xf8;" horiz-adv-x="1378" 
d="M1303 1116l-142 -160q142 -158 142 -395q0 -267 -168.5 -426.5t-446.5 -159.5q-183 0 -328 74l-45 -51h-243l143 164q-141 157 -141 399q0 264 168.5 423t445.5 159q187 0 330 -76l41 49h244zM346 561q0 -109 49 -196l451 509q-65 33 -158 33q-153 0 -247.5 -95
t-94.5 -251zM1030 561q0 112 -49 191l-451 -510q78 -33 158 -33q153 0 247.5 96.5t94.5 255.5z" />
    <glyph glyph-name="ugrave" unicode="&#xf9;" horiz-adv-x="1277" 
d="M774 1270h-201l-370 317l317 25zM532 -25q-203 0 -313 112t-110 362v669h282v-598q0 -159 59.5 -225t165.5 -66q156 0 261 129v760h282v-1118h-268v115q-143 -140 -359 -140z" />
    <glyph glyph-name="uacute" unicode="&#xfa;" horiz-adv-x="1277" 
d="M510 1272l254 342l317 -27l-370 -315h-201zM532 -25q-203 0 -313 112t-110 362v669h282v-598q0 -159 59.5 -225t165.5 -66q156 0 261 129v760h282v-1118h-268v115q-143 -140 -359 -140z" />
    <glyph glyph-name="ucircumflex" unicode="&#xfb;" horiz-adv-x="1277" 
d="M254 1270l295 336h186l295 -336h-211l-178 141l-178 -141h-209zM532 -25q-203 0 -313 112t-110 362v669h282v-598q0 -159 59.5 -225t165.5 -66q156 0 261 129v760h282v-1118h-268v115q-143 -140 -359 -140z" />
    <glyph glyph-name="udieresis" unicode="&#xfc;" horiz-adv-x="1277" 
d="M412 1257q-72 0 -122 50.5t-50 122.5t50 122t122 50q69 0 118.5 -50t49.5 -122t-49.5 -122.5t-118.5 -50.5zM870 1257q-71 0 -121.5 50.5t-50.5 122.5t50.5 122t121.5 50q69 0 118.5 -50t49.5 -122t-49.5 -122.5t-118.5 -50.5zM532 -25q-203 0 -313 112t-110 362v669h282
v-598q0 -159 59.5 -225t165.5 -66q156 0 261 129v760h282v-1118h-268v115q-143 -140 -359 -140z" />
    <glyph glyph-name="yacute" unicode="&#xfd;" horiz-adv-x="1224" 
d="M479 1272l254 342l318 -27l-371 -315h-201zM913 1118h301l-458 -1130q-40 -100 -90 -172t-97 -112t-106 -62.5t-105.5 -28.5t-107.5 -6q-108 0 -182 24v244q92 -29 161 -29q88 0 149 35.5t103 116.5l-501 1120h315l317 -780z" />
    <glyph glyph-name="thorn" unicode="&#xfe;" horiz-adv-x="1353" 
d="M129 -360v1912h279v-530q65 63 157 93t187 30q237 0 382.5 -159t145.5 -425q0 -268 -147.5 -427t-393.5 -159q-220 0 -331 134v-469h-279zM678 229q142 0 225.5 89t83.5 243q0 155 -83.5 242.5t-219.5 87.5q-84 0 -161.5 -38t-119.5 -105v-371q42 -74 116 -111t159 -37z
" />
    <glyph glyph-name="ydieresis" unicode="&#xff;" horiz-adv-x="1224" 
d="M381 1257q-72 0 -122 50.5t-50 122.5t50 122t122 50q69 0 118.5 -50t49.5 -122t-49.5 -122.5t-118.5 -50.5zM840 1257q-71 0 -121.5 50.5t-50.5 122.5t50.5 122t121.5 50q69 0 118.5 -50t49.5 -122t-49.5 -122.5t-118.5 -50.5zM913 1118h301l-458 -1130
q-40 -100 -90 -172t-97 -112t-106 -62.5t-105.5 -28.5t-107.5 -6q-108 0 -182 24v244q92 -29 161 -29q88 0 149 35.5t103 116.5l-501 1120h315l317 -780z" />
    <glyph glyph-name="Amacron" unicode="&#x100;" horiz-adv-x="1538" 
d="M401 1573v199h732v-199h-732zM1212 0l-127 276h-634l-125 -276h-316l664 1458h188l666 -1458h-316zM768 1075l-111 -297l-108 -258h440l-108 258z" />
    <glyph glyph-name="amacron" unicode="&#x101;" horiz-adv-x="1351" 
d="M317 1319v199h732v-199h-732zM614 -25q-246 0 -393 159t-147 427q0 266 145.5 425t382.5 159q95 0 187 -30t157 -93v96h279v-1118h-275v109q-111 -134 -336 -134zM676 229q85 0 159 37t115 111v371q-42 67 -119 105t-161 38q-137 0 -221 -87.5t-84 -242.5
q0 -154 84.5 -243t226.5 -89z" />
    <glyph glyph-name="Abreve" unicode="&#x102;" horiz-adv-x="1538" 
d="M768 1565q-164 0 -263.5 85t-103.5 244h181q33 -131 186 -131q155 0 184 131h185q-6 -161 -105.5 -245t-263.5 -84zM1212 0l-127 276h-634l-125 -276h-316l664 1458h188l666 -1458h-316zM768 1075l-111 -297l-108 -258h440l-108 258z" />
    <glyph glyph-name="abreve" unicode="&#x103;" horiz-adv-x="1351" 
d="M686 1272q-164 0 -263.5 84t-105.5 243h181q38 -131 188 -131q151 0 184 131h183q-6 -161 -104.5 -244t-262.5 -83zM614 -25q-246 0 -393 159t-147 427q0 266 145.5 425t382.5 159q95 0 187 -30t157 -93v96h279v-1118h-275v109q-111 -134 -336 -134zM676 229q85 0 159 37
t115 111v371q-42 67 -119 105t-161 38q-137 0 -221 -87.5t-84 -242.5q0 -154 84.5 -243t226.5 -89z" />
    <glyph glyph-name="Aogonek" unicode="&#x104;" horiz-adv-x="1538" 
d="M1532 -215l2 -145q-66 -17 -133 -17q-107 0 -167 44.5t-60 119.5q0 57 39 114t110 99h-111l-127 276h-634l-125 -276h-316l664 1458h188l666 -1458h2q-66 -34 -100.5 -73t-34.5 -74q0 -70 98 -70q23 0 39 2zM549 520h440l-108 258l-113 297l-111 -297z" />
    <glyph glyph-name="aogonek" unicode="&#x105;" horiz-adv-x="1351" 
d="M1227 -215l2 -145q-66 -17 -133 -17q-107 0 -167.5 44.5t-60.5 119.5q0 56 39.5 113.5t110.5 99.5h-68v109q-111 -134 -336 -134q-246 0 -393 159t-147 427q0 266 145.5 425t382.5 159q95 0 187 -30t157 -93v96h279v-1118q-66 -34 -100.5 -73t-34.5 -74q0 -70 98 -70
q23 0 39 2zM950 377v371q-42 67 -119 105t-161 38q-137 0 -221 -87.5t-84 -242.5q0 -154 84.5 -243t226.5 -89q85 0 159 37t115 111z" />
    <glyph glyph-name="Cacute" unicode="&#x106;" horiz-adv-x="1527" 
d="M692 1565l254 342l318 -25l-373 -317h-199zM844 -29q-227 0 -398.5 91.5t-265.5 264t-94 404.5q0 347 206 547.5t552 200.5q205 0 366 -73.5t269 -205.5l-226 -190q-64 90 -167 142t-234 52q-211 0 -338 -127t-127 -346q0 -223 127 -354t338 -131q131 0 234 51.5
t167 140.5l226 -190q-226 -277 -635 -277z" />
    <glyph glyph-name="cacute" unicode="&#x107;" horiz-adv-x="1222" 
d="M530 1272l254 342l318 -27l-371 -315h-201zM676 -23q-283 0 -442.5 158t-159.5 426q0 259 162 419.5t438 160.5q158 0 285 -59.5t202 -163.5l-196 -177q-42 63 -116.5 102.5t-160.5 39.5q-148 0 -237 -87.5t-89 -232.5q0 -150 88 -238.5t236 -88.5q93 0 169 40t120 101
l192 -176q-77 -104 -204 -164t-287 -60z" />
    <glyph glyph-name="Ccircumflex" unicode="&#x108;" horiz-adv-x="1527" 
d="M424 1565l295 336h186l295 -336h-211l-178 143l-178 -143h-209zM844 -29q-227 0 -398.5 91.5t-265.5 264t-94 404.5q0 347 206 547.5t552 200.5q205 0 366 -73.5t269 -205.5l-226 -190q-64 90 -167 142t-234 52q-211 0 -338 -127t-127 -346q0 -223 127 -354t338 -131
q131 0 234 51.5t167 140.5l226 -190q-226 -277 -635 -277z" />
    <glyph glyph-name="ccircumflex" unicode="&#x109;" horiz-adv-x="1222" 
d="M274 1270l295 336h187l295 -336h-211l-178 141l-179 -141h-209zM676 -23q-283 0 -442.5 158t-159.5 426q0 259 162 419.5t438 160.5q158 0 285 -59.5t202 -163.5l-196 -177q-42 63 -116.5 102.5t-160.5 39.5q-148 0 -237 -87.5t-89 -232.5q0 -150 88 -238.5t236 -88.5
q93 0 169 40t120 101l192 -176q-77 -104 -204 -164t-287 -60z" />
    <glyph glyph-name="Cdotaccent" unicode="&#x10a;" horiz-adv-x="1527" 
d="M809 1565q-72 0 -123 51t-51 123t51 123t123 51q71 0 121.5 -51t50.5 -123t-50.5 -123t-121.5 -51zM844 -29q-227 0 -398.5 91.5t-265.5 264t-94 404.5q0 347 206 547.5t552 200.5q205 0 366 -73.5t269 -205.5l-226 -190q-64 90 -167 142t-234 52q-211 0 -338 -127
t-127 -346q0 -223 127 -354t338 -131q131 0 234 51.5t167 140.5l226 -190q-226 -277 -635 -277z" />
    <glyph glyph-name="cdotaccent" unicode="&#x10b;" horiz-adv-x="1222" 
d="M659 1255q-72 0 -123 51.5t-51 123.5t51 123t123 51q71 0 121.5 -51t50.5 -123t-50.5 -123.5t-121.5 -51.5zM676 -23q-283 0 -442.5 158t-159.5 426q0 259 162 419.5t438 160.5q158 0 285 -59.5t202 -163.5l-196 -177q-42 63 -116.5 102.5t-160.5 39.5q-148 0 -237 -87.5
t-89 -232.5q0 -150 88 -238.5t236 -88.5q93 0 169 40t120 101l192 -176q-77 -104 -204 -164t-287 -60z" />
    <glyph glyph-name="Ccaron" unicode="&#x10c;" horiz-adv-x="1527" 
d="M426 1901h209l178 -142l178 142h211l-295 -336h-186zM844 -29q-227 0 -398.5 91.5t-265.5 264t-94 404.5q0 347 206 547.5t552 200.5q205 0 366 -73.5t269 -205.5l-226 -190q-64 90 -167 142t-234 52q-211 0 -338 -127t-127 -346q0 -223 127 -354t338 -131
q131 0 234 51.5t167 140.5l226 -190q-226 -277 -635 -277z" />
    <glyph glyph-name="ccaron" unicode="&#x10d;" horiz-adv-x="1222" 
d="M274 1606h209l179 -142l178 142h211l-295 -334h-187zM676 -23q-283 0 -442.5 158t-159.5 426q0 259 162 419.5t438 160.5q158 0 285 -59.5t202 -163.5l-196 -177q-42 63 -116.5 102.5t-160.5 39.5q-148 0 -237 -87.5t-89 -232.5q0 -150 88 -238.5t236 -88.5q93 0 169 40
t120 101l192 -176q-77 -104 -204 -164t-287 -60z" />
    <glyph glyph-name="Dcaron" unicode="&#x10e;" horiz-adv-x="1507" 
d="M309 1901h209l178 -142l178 142h211l-294 -336h-187zM139 0v1452h566q341 0 529.5 -180t188.5 -529q0 -348 -183.5 -545.5t-528.5 -197.5h-572zM422 266h293q186 0 295.5 121t109.5 356q0 212 -108.5 326.5t-304.5 114.5h-285v-918z" />
    <glyph glyph-name="dcaron" unicode="&#x10f;" horiz-adv-x="1433" 
d="M1497 1671q74 0 119 -49t45 -147q0 -94 -32.5 -169.5t-103.5 -124t-171 -48.5v102q46 0 81 34t50 99q-53 5 -95 45t-42 109q0 65 41 107t108 42zM946 1022v530h279v-1552h-275v109q-111 -134 -336 -134q-246 0 -393 159t-147 427q0 266 145.5 425t382.5 159q95 0 187 -30
t157 -93zM950 377v371q-42 67 -119 105t-161 38q-137 0 -221 -87.5t-84 -242.5q0 -154 84.5 -243t226.5 -89q85 0 159 37t115 111z" />
    <glyph glyph-name="Dcroat" unicode="&#x110;" horiz-adv-x="1550" 
d="M745 1452q343 0 531 -180t188 -529q0 -348 -183.5 -545.5t-528.5 -197.5h-570v610h-153v228h153v614h563zM758 266q184 0 294.5 121t110.5 356q0 212 -108.5 326.5t-304.5 114.5h-287v-346h344v-228h-344v-344h295z" />
    <glyph glyph-name="dcroat" unicode="&#x111;" horiz-adv-x="1351" 
d="M1382 1444v-213h-157v-1231h-275v109q-60 -72 -153.5 -103t-190.5 -31q-244 0 -388 152t-144 403q0 250 142.5 401.5t377.5 151.5q98 0 193 -28.5t159 -91.5v268h-368v213h368v108h279v-108h157zM950 377v311q-42 66 -121 104.5t-163 38.5q-136 0 -218.5 -81t-82.5 -218
q0 -138 82.5 -220.5t224.5 -82.5q86 0 162 37t116 111z" />
    <glyph glyph-name="Emacron" unicode="&#x112;" horiz-adv-x="1298" 
d="M285 1573v199h731v-199h-731zM139 0v1452h1055v-262h-774v-350h651v-248h-651v-332h807v-260h-1088z" />
    <glyph glyph-name="emacron" unicode="&#x113;" horiz-adv-x="1280" 
d="M268 1323v199h731v-199h-731zM1231 559q0 -61 -2 -84h-869q23 -125 108 -192.5t222 -67.5q99 0 183.5 36.5t140.5 106.5l178 -151q-166 -230 -522 -230q-279 0 -437.5 158.5t-158.5 427.5q0 264 161.5 425t419.5 161q280 0 428 -161.5t148 -428.5zM655 913
q-112 0 -190 -58t-103 -175h592q-13 101 -87.5 167t-211.5 66z" />
    <glyph glyph-name="Ebreve" unicode="&#x114;" horiz-adv-x="1298" 
d="M651 1565q-164 0 -263 85t-103 244h180q33 -131 186 -131q156 0 185 131h184q-6 -161 -105.5 -245t-263.5 -84zM139 0v1452h1055v-262h-774v-350h651v-248h-651v-332h807v-260h-1088z" />
    <glyph glyph-name="ebreve" unicode="&#x115;" horiz-adv-x="1280" 
d="M637 1276q-164 0 -263.5 84.5t-105.5 243.5h181q38 -131 188 -131q151 0 184 131h183q-6 -161 -104.5 -244.5t-262.5 -83.5zM1231 559q0 -61 -2 -84h-869q23 -125 108 -192.5t222 -67.5q99 0 183.5 36.5t140.5 106.5l178 -151q-166 -230 -522 -230q-279 0 -437.5 158.5
t-158.5 427.5q0 264 161.5 425t419.5 161q280 0 428 -161.5t148 -428.5zM655 913q-112 0 -190 -58t-103 -175h592q-13 101 -87.5 167t-211.5 66z" />
    <glyph glyph-name="Edotaccent" unicode="&#x116;" horiz-adv-x="1298" 
d="M651 1565q-72 0 -123 51t-51 123t51 123t123 51q71 0 121.5 -51t50.5 -123t-50.5 -123t-121.5 -51zM139 0v1452h1055v-262h-774v-350h651v-248h-651v-332h807v-260h-1088z" />
    <glyph glyph-name="edotaccent" unicode="&#x117;" horiz-adv-x="1280" 
d="M635 1260q-72 0 -123 51t-51 123t51 123t123 51q71 0 121.5 -51t50.5 -123t-50.5 -123t-121.5 -51zM1231 559q0 -61 -2 -84h-869q23 -125 108 -192.5t222 -67.5q99 0 183.5 36.5t140.5 106.5l178 -151q-166 -230 -522 -230q-279 0 -437.5 158.5t-158.5 427.5
q0 264 161.5 425t419.5 161q280 0 428 -161.5t148 -428.5zM655 913q-112 0 -190 -58t-103 -175h592q-13 101 -87.5 167t-211.5 66z" />
    <glyph glyph-name="Eogonek" unicode="&#x118;" horiz-adv-x="1298" 
d="M1231 -215l2 -145q-66 -17 -133 -17q-107 0 -167.5 44.5t-60.5 119.5q0 56 39.5 113.5t110.5 99.5h-883v1452h1055v-262h-774v-350h651v-248h-651v-332h807v-260h2q-66 -34 -100.5 -73t-34.5 -74q0 -70 98 -70q23 0 39 2z" />
    <glyph glyph-name="eogonek" unicode="&#x119;" horiz-adv-x="1280" 
d="M1231 559q0 -61 -2 -84h-869q23 -125 108 -192.5t222 -67.5q99 0 183.5 36.5t140.5 106.5l178 -151q-141 -197 -422 -225q-104 -64 -104 -129q0 -70 98 -70q23 0 39 2l2 -145q-66 -17 -133 -17q-107 0 -167.5 44.5t-60.5 119.5q0 52 32 104t91 93q-233 29 -363 182.5
t-130 396.5q0 264 161.5 425t419.5 161q280 0 428 -161.5t148 -428.5zM362 680h592q-13 101 -87.5 167t-211.5 66q-112 0 -190 -58t-103 -175z" />
    <glyph glyph-name="Ecaron" unicode="&#x11a;" horiz-adv-x="1298" 
d="M268 1901h209l178 -142l179 142h210l-294 -336h-187zM139 0v1452h1055v-262h-774v-350h651v-248h-651v-332h807v-260h-1088z" />
    <glyph glyph-name="ecaron" unicode="&#x11b;" horiz-adv-x="1280" 
d="M250 1610h209l178 -142l178 142h211l-295 -334h-186zM1231 559q0 -61 -2 -84h-869q23 -125 108 -192.5t222 -67.5q99 0 183.5 36.5t140.5 106.5l178 -151q-166 -230 -522 -230q-279 0 -437.5 158.5t-158.5 427.5q0 264 161.5 425t419.5 161q280 0 428 -161.5t148 -428.5z
M655 913q-112 0 -190 -58t-103 -175h592q-13 101 -87.5 167t-211.5 66z" />
    <glyph glyph-name="Gcircumflex" unicode="&#x11c;" horiz-adv-x="1597" 
d="M475 1565l295 336h186l295 -336h-211l-178 143l-178 -143h-209zM809 797h719v-611q-108 -105 -269 -160t-356 -55q-377 0 -597 203t-220 551q0 230 98 401.5t276 263t412 91.5q376 0 601 -209l-183 -205q-75 66 -183.5 103.5t-232.5 37.5q-221 0 -354 -130.5t-133 -352.5
q0 -229 141 -358t385 -129q217 0 342 94v211h-446v254z" />
    <glyph glyph-name="gcircumflex" unicode="&#x11d;" horiz-adv-x="1343" 
d="M297 1270l295 336h186l295 -336h-211l-178 141l-178 -141h-209zM643 -393q-279 0 -459 74v260q212 -95 414 -95q174 0 263 59.5t89 198.5v72q-111 -131 -336 -131q-244 0 -392 153t-148 398q0 243 146.5 396t381.5 153q95 0 187 -30t157 -93v96h279v-921
q0 -140 -30.5 -245.5t-97.5 -184.5t-180.5 -119.5t-273.5 -40.5zM676 297q85 0 159 36.5t115 110.5v304q-42 68 -118.5 106.5t-161.5 38.5q-134 0 -219.5 -82t-85.5 -213q0 -133 85 -217t226 -84z" />
    <glyph glyph-name="Gbreve" unicode="&#x11e;" horiz-adv-x="1597" 
d="M860 1565q-164 0 -263 85t-103 244h180q33 -131 186 -131q155 0 184 131h185q-6 -161 -105.5 -245t-263.5 -84zM809 797h719v-611q-108 -105 -269 -160t-356 -55q-377 0 -597 203t-220 551q0 230 98 401.5t276 263t412 91.5q376 0 601 -209l-183 -205
q-75 66 -183.5 103.5t-232.5 37.5q-221 0 -354 -130.5t-133 -352.5q0 -229 141 -358t385 -129q217 0 342 94v211h-446v254z" />
    <glyph glyph-name="gbreve" unicode="&#x11f;" horiz-adv-x="1343" 
d="M684 1272q-164 0 -263.5 84t-105.5 243h181q38 -131 188 -131q151 0 184 131h183q-6 -161 -104.5 -244t-262.5 -83zM643 -393q-279 0 -459 74v260q212 -95 414 -95q174 0 263 59.5t89 198.5v72q-111 -131 -336 -131q-244 0 -392 153t-148 398q0 243 146.5 396t381.5 153
q95 0 187 -30t157 -93v96h279v-921q0 -140 -30.5 -245.5t-97.5 -184.5t-180.5 -119.5t-273.5 -40.5zM676 297q85 0 159 36.5t115 110.5v304q-42 68 -118.5 106.5t-161.5 38.5q-134 0 -219.5 -82t-85.5 -213q0 -133 85 -217t226 -84z" />
    <glyph glyph-name="Gdotaccent" unicode="&#x120;" horiz-adv-x="1597" 
d="M860 1565q-72 0 -123 51t-51 123t51 123t123 51q71 0 121.5 -51t50.5 -123t-50.5 -123t-121.5 -51zM809 797h719v-611q-108 -105 -269 -160t-356 -55q-377 0 -597 203t-220 551q0 230 98 401.5t276 263t412 91.5q376 0 601 -209l-183 -205q-75 66 -183.5 103.5
t-232.5 37.5q-221 0 -354 -130.5t-133 -352.5q0 -229 141 -358t385 -129q217 0 342 94v211h-446v254z" />
    <glyph glyph-name="gdotaccent" unicode="&#x121;" horiz-adv-x="1343" 
d="M682 1255q-72 0 -123 51.5t-51 123.5t51 123t123 51q71 0 121.5 -51t50.5 -123t-50.5 -123.5t-121.5 -51.5zM643 -393q-279 0 -459 74v260q212 -95 414 -95q174 0 263 59.5t89 198.5v72q-111 -131 -336 -131q-244 0 -392 153t-148 398q0 243 146.5 396t381.5 153
q95 0 187 -30t157 -93v96h279v-921q0 -140 -30.5 -245.5t-97.5 -184.5t-180.5 -119.5t-273.5 -40.5zM676 297q85 0 159 36.5t115 110.5v304q-42 68 -118.5 106.5t-161.5 38.5q-134 0 -219.5 -82t-85.5 -213q0 -133 85 -217t226 -84z" />
    <glyph glyph-name="uni0122" unicode="&#x122;" horiz-adv-x="1597" 
d="M809 797h719v-611q-108 -105 -269 -160t-356 -55q-377 0 -597 203t-220 551q0 230 98 401.5t276 263t412 91.5q376 0 601 -209l-183 -205q-75 66 -183.5 103.5t-232.5 37.5q-221 0 -354 -130.5t-133 -352.5q0 -229 141 -358t385 -129q217 0 342 94v211h-446v254zM870 -88
q73 0 117.5 -44t44.5 -118q0 -33 -7 -66.5t-28 -72.5t-53 -68.5t-87 -49t-126 -19.5h-39v102q8 -2 27 -2q96 0 125 88q-56 9 -88.5 42t-32.5 79q0 58 39.5 93.5t107.5 35.5z" />
    <glyph glyph-name="uni0123" unicode="&#x123;" horiz-adv-x="1343" 
d="M674 1266q-73 0 -117.5 49t-44.5 131q0 37 7 74t28 80t53 75.5t87 54t126 21.5h39v-113h-27q-47 0 -79 -24.5t-44 -69.5q57 -10 88 -46t31 -89q0 -63 -39.5 -103t-107.5 -40zM946 1118h279v-921q0 -140 -30.5 -245.5t-97.5 -184.5t-180.5 -119.5t-273.5 -40.5
q-279 0 -459 74v260q212 -95 414 -95q174 0 263 59.5t89 198.5v72q-111 -131 -336 -131q-244 0 -392 153t-148 398q0 243 146.5 396t381.5 153q95 0 187 -30t157 -93v96zM950 444v304q-42 68 -118.5 106.5t-161.5 38.5q-134 0 -219.5 -82t-85.5 -213q0 -133 85 -217t226 -84
q85 0 159 36.5t115 110.5z" />
    <glyph glyph-name="Hcircumflex" unicode="&#x124;" horiz-adv-x="1519" 
d="M377 1565l295 336h186l295 -336h-211l-178 143l-178 -143h-209zM139 0v1452h289v-649h666v649h286v-1452h-286v535h-666v-535h-289z" />
    <glyph glyph-name="hcircumflex" unicode="&#x125;" horiz-adv-x="1300" 
d="M287 1565l295 336h186l295 -336h-211l-178 143l-178 -143h-209zM129 0v1552h281v-536q69 58 160 92.5t190 34.5q216 0 321 -110t105 -365v-668h-281v598q0 160 -60 225.5t-175 65.5q-145 0 -258 -117v-772h-283z" />
    <glyph glyph-name="Hbar" unicode="&#x126;" horiz-adv-x="1519" 
d="M1487 1290v-225h-107v-1065h-286v535h-666v-535h-289v1065h-102v225h102v162h289v-162h666v162h286v-162h107zM1094 803v262h-666v-262h666z" />
    <glyph glyph-name="hbar" unicode="&#x127;" horiz-adv-x="1300" 
d="M760 1083q222 0 324 -112t102 -361v-610h-281v539q0 160 -60.5 225t-174.5 65q-146 0 -258 -116v-713h-283v1231h-147v213h147v108h281v-108h370v-213h-370v-275q69 58 160 92.5t190 34.5z" />
    <glyph glyph-name="Itilde" unicode="&#x128;" horiz-adv-x="604" 
d="M4 1552l-129 29q20 140 83 216.5t159 76.5q63 0 133.5 -31t129.5 -61.5t95 -30.5q40 0 75 30t58 85l129 -31q-20 -139 -82 -215t-157 -76q-58 0 -129 31t-132 61.5t-94 30.5q-86 0 -139 -115zM154 0v1452h297v-1452h-297z" />
    <glyph glyph-name="itilde" unicode="&#x129;" horiz-adv-x="557" 
d="M-18 1266l-129 30q20 140 82.5 215.5t158.5 75.5q63 0 133.5 -30.5t130 -60.5t95.5 -30q40 0 75 30t58 85l129 -31q-20 -140 -82.5 -215t-157.5 -75q-58 0 -129 30t-131.5 60t-93.5 30q-88 0 -139 -114zM135 0v1118h287v-1118h-287z" />
    <glyph glyph-name="Imacron" unicode="&#x12a;" horiz-adv-x="604" 
d="M-61 1573v199h731v-199h-731zM154 0v1452h297v-1452h-297z" />
    <glyph glyph-name="imacron" unicode="&#x12b;" horiz-adv-x="557" 
d="M-86 1319v199h731v-199h-731zM135 0v1118h287v-1118h-287z" />
    <glyph glyph-name="Ibreve" unicode="&#x12c;" horiz-adv-x="604" 
d="M305 1565q-164 0 -263 85t-103 244h180q33 -131 186 -131q155 0 184 131h185q-6 -161 -105.5 -245t-263.5 -84zM154 0v1452h297v-1452h-297z" />
    <glyph glyph-name="ibreve" unicode="&#x12d;" horiz-adv-x="557" 
d="M283 1272q-164 0 -263.5 84t-105.5 243h180q38 -131 189 -131t184 131h182q-6 -161 -104 -244t-262 -83zM135 0v1118h287v-1118h-287z" />
    <glyph glyph-name="Iogonek" unicode="&#x12e;" horiz-adv-x="604" 
d="M453 -215l2 -145q-66 -17 -133 -17q-107 0 -167.5 44.5t-60.5 119.5q0 56 39.5 113.5t110.5 99.5h-90v1452h297v-1452q-66 -34 -101 -73t-35 -74q0 -70 99 -70q23 0 39 2z" />
    <glyph glyph-name="iogonek" unicode="&#x12f;" horiz-adv-x="557" 
d="M281 1255q-72 0 -123.5 51.5t-51.5 123.5t51.5 123t123.5 51q71 0 121.5 -51t50.5 -123t-50.5 -123.5t-121.5 -51.5zM385 -217q23 0 39 2l2 -145q-66 -17 -133 -17q-107 0 -167 44.5t-60 119.5q0 57 39 114t110 99h-80v1118h287v-1118q-66 -34 -100.5 -73t-34.5 -74
q0 -70 98 -70z" />
    <glyph glyph-name="Idotaccent" unicode="&#x130;" horiz-adv-x="604" 
d="M305 1565q-72 0 -123 51t-51 123t51 123t123 51q71 0 121.5 -51t50.5 -123t-50.5 -123t-121.5 -51zM154 0v1452h297v-1452h-297z" />
    <glyph glyph-name="dotlessi" unicode="&#x131;" horiz-adv-x="557" 
d="M135 0v1118h287v-1118h-287z" />
    <glyph glyph-name="IJ" unicode="&#x132;" horiz-adv-x="1869" 
d="M154 0v1452h297v-1452h-297zM1194 -29q-254 0 -406 147t-159 410h286q4 -77 28 -133.5t64 -88.5t86.5 -47t102.5 -15q126 0 193 78.5t67 257.5v872h293v-872q0 -318 -136.5 -463.5t-418.5 -145.5z" />
    <glyph glyph-name="ij" unicode="&#x133;" horiz-adv-x="1128" 
d="M281 1255q-72 0 -123.5 51.5t-51.5 123.5t51.5 123t123.5 51q71 0 121.5 -51t50.5 -123t-50.5 -123.5t-121.5 -51.5zM856 1255q-72 0 -123 51.5t-51 123.5t51 123t123 51q70 0 120 -51t50 -123t-50 -123.5t-120 -51.5zM135 0v1118h287v-1118h-287zM657 -389
q-112 0 -168 18v234q47 -13 82 -13q38 0 63.5 10.5t40 27t22.5 48t10 63t2 83.5v1036h284v-1186q0 -165 -92 -243t-244 -78z" />
    <glyph glyph-name="Jcircumflex" unicode="&#x134;" horiz-adv-x="1265" 
d="M543 1565l295 336h186l295 -336h-211l-178 143l-178 -143h-209zM590 -29q-254 0 -406 147t-159 410h286q4 -77 28 -133.5t64 -88.5t86.5 -47t102.5 -15q126 0 193 78.5t67 257.5v872h293v-872q0 -318 -136.5 -463.5t-418.5 -145.5z" />
    <glyph glyph-name="jcircumflex" unicode="&#x135;" horiz-adv-x="571" 
d="M-88 1270l295 336h186l295 -336h-211l-178 141l-178 -141h-209zM100 -389q-112 0 -168 18v234q47 -13 82 -13q38 0 63.5 10.5t40 27t22.5 48t10 63t2 83.5v1036h284v-1186q0 -165 -92 -243t-244 -78z" />
    <glyph glyph-name="uni0136" unicode="&#x136;" horiz-adv-x="1447" 
d="M844 801l596 -801h-359l-442 590l-217 -244v-346h-283v1452h283v-731l596 731h360zM739 -88q73 0 117.5 -44t44.5 -118q0 -33 -7 -66.5t-28 -72.5t-53 -68.5t-87 -49t-126 -19.5h-39v102q8 -2 27 -2q96 0 125 88q-56 9 -88.5 42t-32.5 79q0 58 39.5 93.5t107.5 35.5z" />
    <glyph glyph-name="uni0137" unicode="&#x137;" horiz-adv-x="1273" 
d="M838 680l411 -680h-321l-295 483l-219 -217v-266h-281v1552h281v-950l475 516h348zM657 -88q73 0 117.5 -44t44.5 -118q0 -33 -7 -66.5t-28 -72.5t-53 -68.5t-87 -49t-126 -19.5h-39v102q8 -2 27 -2q96 0 125 88q-56 9 -88.5 42t-32.5 79q0 58 39.5 93.5t107.5 35.5z" />
    <glyph glyph-name="kgreenlandic" unicode="&#x138;" horiz-adv-x="1277" 
d="M932 0l-295 483l-219 -215v-268h-283v1118h283v-514l475 514h348l-399 -438l411 -680h-321z" />
    <glyph glyph-name="Lacute" unicode="&#x139;" horiz-adv-x="1228" 
d="M156 1565l254 342l317 -25l-373 -317h-198zM139 0v1452h293v-1180h760v-272h-1053z" />
    <glyph glyph-name="lacute" unicode="&#x13a;" horiz-adv-x="552" 
d="M162 1663l254 342l317 -25l-373 -317h-198zM135 0v1552h283v-1552h-283z" />
    <glyph glyph-name="uni013B" unicode="&#x13b;" horiz-adv-x="1228" 
d="M432 272h760v-272h-1053v1452h293v-1180zM672 -88q73 0 117.5 -44t44.5 -118q0 -33 -7 -66.5t-28 -72.5t-53 -68.5t-87.5 -49t-126.5 -19.5h-38v102q8 -2 26 -2q96 0 125 88q-56 9 -88.5 42t-32.5 79q0 58 40 93.5t108 35.5z" />
    <glyph glyph-name="uni013C" unicode="&#x13c;" horiz-adv-x="552" 
d="M418 1552v-1552h-283v1552h283zM268 -88q73 0 117.5 -44t44.5 -118q0 -33 -7 -66.5t-28 -72.5t-53 -68.5t-87 -49t-126 -19.5h-39v102q8 -2 27 -2q96 0 125 88q-56 9 -88.5 42t-32.5 79q0 58 39.5 93.5t107.5 35.5z" />
    <glyph glyph-name="Lcaron" unicode="&#x13d;" horiz-adv-x="1228" 
d="M840 1237q-53 5 -95.5 45t-42.5 109q0 65 41.5 107t108.5 42q74 0 119 -49t45 -148q0 -94 -32.5 -169.5t-103.5 -124t-171 -48.5v103q46 0 81 34t50 99zM432 272h760v-272h-1053v1452h293v-1180z" />
    <glyph glyph-name="lcaron" unicode="&#x13e;" horiz-adv-x="634" 
d="M696 1671q74 0 119 -49t45 -147q0 -94 -32.5 -169.5t-103.5 -124t-171 -48.5v102q46 0 81 34t50 99q-53 5 -95 45t-42 109q0 65 41 107t108 42zM135 0v1552h283v-1552h-283z" />
    <glyph glyph-name="Ldot" unicode="&#x13f;" horiz-adv-x="1228" 
d="M139 0v1452h293v-1180h760v-272h-1053zM895 594q-72 0 -123 51t-51 123t51 123t123 51q70 0 120 -51t50 -123t-50 -123t-120 -51z" />
    <glyph glyph-name="ldot" unicode="&#x140;" horiz-adv-x="835" 
d="M135 0v1552h283v-1552h-283zM700 500q-72 0 -123 51.5t-51 124.5q0 72 51 123t123 51q70 0 120 -51t50 -123q0 -73 -49.5 -124.5t-120.5 -51.5z" />
    <glyph glyph-name="Lslash" unicode="&#x141;" horiz-adv-x="1280" 
d="M485 272h760v-272h-1052v571l-164 -49v232l164 49v649h292v-563l420 123v-232l-420 -123v-385z" />
    <glyph glyph-name="lslash" unicode="&#x142;" horiz-adv-x="743" 
d="M739 969v-230l-221 -80v-659h-285v557l-210 -76v230l210 75v766h285v-663z" />
    <glyph glyph-name="Nacute" unicode="&#x143;" horiz-adv-x="1579" 
d="M674 1565l254 342l317 -25l-373 -317h-198zM1155 1452h287v-1460h-150l-866 921v-913h-287v1460h146l870 -921v913z" />
    <glyph glyph-name="nacute" unicode="&#x144;" horiz-adv-x="1306" 
d="M530 1272l254 342l318 -27l-371 -315h-201zM135 0v1118h273v-102q70 58 163.5 92.5t194.5 34.5q216 0 321 -110t105 -365v-668h-281v598q0 160 -60 225.5t-175 65.5q-145 0 -258 -117v-772h-283z" />
    <glyph glyph-name="uni0145" unicode="&#x145;" horiz-adv-x="1579" 
d="M1155 1452h287v-1460h-150l-866 921v-913h-287v1460h146l870 -921v913zM815 -88q73 0 117.5 -44t44.5 -118q0 -33 -7 -66.5t-28 -72.5t-53 -68.5t-87 -49t-126 -19.5h-39v102q8 -2 27 -2q95 0 124 88q-56 9 -88 42t-32 79q0 58 39.5 93.5t107.5 35.5z" />
    <glyph glyph-name="uni0146" unicode="&#x146;" horiz-adv-x="1306" 
d="M766 1143q216 0 321 -110t105 -365v-668h-281v598q0 160 -60 225.5t-175 65.5q-145 0 -258 -117v-772h-283v1118h273v-102q70 58 163.5 92.5t194.5 34.5zM649 -88q73 0 117.5 -44t44.5 -118q0 -33 -7 -66.5t-28 -72.5t-53 -68.5t-87 -49t-126 -19.5h-39v102q8 -2 27 -2
q96 0 125 88q-56 9 -88.5 42t-32.5 79q0 58 39.5 93.5t107.5 35.5z" />
    <glyph glyph-name="Ncaron" unicode="&#x147;" horiz-adv-x="1579" 
d="M408 1901h208l179 -142l178 142h211l-295 -336h-187zM1155 1452h287v-1460h-150l-866 921v-913h-287v1460h146l870 -921v913z" />
    <glyph glyph-name="ncaron" unicode="&#x148;" horiz-adv-x="1306" 
d="M272 1606h209l178 -142l179 142h211l-295 -334h-187zM135 0v1118h273v-102q70 58 163.5 92.5t194.5 34.5q216 0 321 -110t105 -365v-668h-281v598q0 160 -60 225.5t-175 65.5q-145 0 -258 -117v-772h-283z" />
    <glyph glyph-name="napostrophe" unicode="&#x149;" horiz-adv-x="1306" 
d="M494 1552q0 -37 -7.5 -75.5t-28.5 -82t-53.5 -76.5t-88 -55t-126.5 -22h-38v115h26q45 0 78 25.5t45 70.5q-55 10 -86 48t-31 91q0 64 40 106t108 42q73 0 117.5 -50.5t44.5 -136.5zM766 1143q216 0 321 -110t105 -365v-668h-281v598q0 160 -60 225.5t-175 65.5
q-145 0 -258 -117v-772h-283v1118h273v-102q70 58 163.5 92.5t194.5 34.5z" />
    <glyph glyph-name="Eng" unicode="&#x14a;" horiz-adv-x="1579" 
d="M1155 1452h287v-1268q0 -155 -28.5 -259.5t-97 -176.5t-182 -104.5t-284.5 -32.5v252q117 0 181.5 27.5t91.5 85.5t28 163l-725 774v-913h-287v1460h146l870 -925v917z" />
    <glyph glyph-name="eng" unicode="&#x14b;" horiz-adv-x="1306" 
d="M860 -389q-112 0 -168 18v234q47 -13 80 -13q38 0 64 10.5t41 26.5t22.5 48t9.5 63.5t2 83.5v516q0 160 -60 225.5t-175 65.5q-145 0 -258 -117v-772h-283v1118h273v-102q70 58 163.5 92.5t194.5 34.5q216 0 321 -110t105 -365v-736q0 -166 -90.5 -243.5t-241.5 -77.5z
" />
    <glyph glyph-name="Omacron" unicode="&#x14c;" horiz-adv-x="1730" 
d="M502 1573v199h731v-199h-731zM864 -29q-225 0 -401.5 93t-276.5 265t-100 396q0 164 56 304t156.5 240t246.5 156t319 56q226 0 404 -93.5t278.5 -266t100.5 -396.5q0 -163 -56.5 -303t-158 -239.5t-248 -155.5t-320.5 -56zM864 244q212 0 345.5 132t133.5 349
q0 214 -131.5 348.5t-347.5 134.5q-209 0 -343 -133t-134 -350q0 -212 131.5 -346.5t345.5 -134.5z" />
    <glyph glyph-name="omacron" unicode="&#x14d;" horiz-adv-x="1378" 
d="M326 1319v199h731v-199h-731zM690 -25q-278 0 -447 159.5t-169 426.5q0 263 169.5 422.5t446.5 159.5q276 0 444.5 -159.5t168.5 -422.5q0 -267 -168 -426.5t-445 -159.5zM690 233q143 0 232.5 90t89.5 238q0 146 -89.5 235t-232.5 89q-145 0 -234 -89t-89 -235
q0 -149 89 -238.5t234 -89.5z" />
    <glyph glyph-name="Obreve" unicode="&#x14e;" horiz-adv-x="1730" 
d="M868 1565q-164 0 -263 85t-103 244h180q33 -131 186 -131q156 0 185 131h184q-6 -161 -105.5 -245t-263.5 -84zM864 -29q-225 0 -401.5 93t-276.5 265t-100 396q0 164 56 304t156.5 240t246.5 156t319 56q226 0 404 -93.5t278.5 -266t100.5 -396.5q0 -163 -56.5 -303
t-158 -239.5t-248 -155.5t-320.5 -56zM864 244q212 0 345.5 132t133.5 349q0 214 -131.5 348.5t-347.5 134.5q-209 0 -343 -133t-134 -350q0 -212 131.5 -346.5t345.5 -134.5z" />
    <glyph glyph-name="obreve" unicode="&#x14f;" horiz-adv-x="1378" 
d="M694 1272q-164 0 -263 84t-105 243h180q38 -131 188 -131q152 0 185 131h182q-6 -161 -104.5 -244t-262.5 -83zM690 -25q-278 0 -447 159.5t-169 426.5q0 263 169.5 422.5t446.5 159.5q276 0 444.5 -159.5t168.5 -422.5q0 -267 -168 -426.5t-445 -159.5zM690 233
q143 0 232.5 90t89.5 238q0 146 -89.5 235t-232.5 89q-145 0 -234 -89t-89 -235q0 -149 89 -238.5t234 -89.5z" />
    <glyph glyph-name="Ohungarumlaut" unicode="&#x150;" horiz-adv-x="1730" 
d="M580 1565l180 358l239 -86l-247 -272h-172zM932 1565l182 358l260 -90l-278 -268h-164zM864 -29q-225 0 -401.5 93t-276.5 265t-100 396q0 164 56 304t156.5 240t246.5 156t319 56q226 0 404 -93.5t278.5 -266t100.5 -396.5q0 -163 -56.5 -303t-158 -239.5t-248 -155.5
t-320.5 -56zM864 244q212 0 345.5 132t133.5 349q0 214 -131.5 348.5t-347.5 134.5q-209 0 -343 -133t-134 -350q0 -212 131.5 -346.5t345.5 -134.5z" />
    <glyph glyph-name="ohungarumlaut" unicode="&#x151;" horiz-adv-x="1378" 
d="M403 1270l181 356l239 -86l-248 -270h-172zM756 1270l182 356l260 -90l-278 -266h-164zM690 -25q-278 0 -447 159.5t-169 426.5q0 263 169.5 422.5t446.5 159.5q276 0 444.5 -159.5t168.5 -422.5q0 -267 -168 -426.5t-445 -159.5zM690 233q143 0 232.5 90t89.5 238
q0 146 -89.5 235t-232.5 89q-145 0 -234 -89t-89 -235q0 -149 89 -238.5t234 -89.5z" />
    <glyph glyph-name="OE" unicode="&#x152;" horiz-adv-x="2119" 
d="M846 0q-365 0 -562.5 195t-197.5 530q0 165 51 298.5t148 229t244.5 147.5t334.5 52h1151v-262h-772v-350h651v-248h-651v-332h807v-260h-1204zM872 262h89v928h-111q-222 0 -341.5 -125t-119.5 -340q0 -217 122 -340t361 -123z" />
    <glyph glyph-name="oe" unicode="&#x153;" horiz-adv-x="2201" 
d="M2152 559q0 -78 -2 -84h-872q23 -125 110.5 -192.5t227.5 -67.5q214 0 326 145l180 -155q-77 -109 -209.5 -169.5t-310.5 -60.5q-319 0 -467 203q-73 -98 -189.5 -150.5t-267.5 -52.5q-170 0 -307 71t-217 205.5t-80 309.5q0 176 80 311t216 206t304 71q153 0 270.5 -55
t192.5 -156q74 101 189.5 156t256.5 55q182 0 312 -76t193.5 -207.5t63.5 -306.5zM1579 913q-114 0 -194 -58.5t-105 -176.5h596q-13 101 -87 168t-210 67zM682 231q140 0 231 90.5t91 239.5q0 148 -91 238t-231 90q-143 0 -233.5 -89.5t-90.5 -238.5t90.5 -239.5
t233.5 -90.5z" />
    <glyph glyph-name="Racute" unicode="&#x154;" horiz-adv-x="1398" 
d="M565 1565l254 342l318 -25l-373 -317h-199zM1368 0h-352l-289 414h-39h-260v-414h-289v1452h590q285 0 435.5 -133.5t150.5 -384.5q0 -348 -289 -465zM682 662q164 0 247 69t83 189q0 274 -307 274h-277v-532h254z" />
    <glyph glyph-name="racute" unicode="&#x155;" horiz-adv-x="880" 
d="M233 1272l254 342l318 -27l-371 -315h-201zM135 0v1118h273v-145q130 170 348 170q53 0 78 -10v-306q-82 21 -136 21q-124 0 -202 -82.5t-78 -237.5v-528h-283z" />
    <glyph glyph-name="uni0156" unicode="&#x156;" horiz-adv-x="1398" 
d="M1026 469l342 -469h-352l-289 414h-39h-260v-414h-289v1452h590q285 0 435.5 -133.5t150.5 -384.5q0 -348 -289 -465zM682 662q164 0 247 69t83 189q0 274 -307 274h-277v-532h254zM717 -88q73 0 117.5 -44t44.5 -118q0 -33 -7 -66.5t-28 -72.5t-53 -68.5t-87 -49
t-126 -19.5h-39v102q8 -2 26 -2q96 0 125 88q-56 9 -88.5 42t-32.5 79q0 58 40 93.5t108 35.5z" />
    <glyph glyph-name="uni0157" unicode="&#x157;" horiz-adv-x="880" 
d="M756 1143q53 0 78 -10v-306q-82 21 -136 21q-124 0 -202 -82.5t-78 -237.5v-528h-283v1118h273v-145q130 170 348 170zM270 -88q73 0 117.5 -44t44.5 -118q0 -33 -7 -66.5t-28 -72.5t-53 -68.5t-87 -49t-126 -19.5h-39v102q8 -2 27 -2q96 0 125 88q-56 9 -88.5 42
t-32.5 79q0 58 39.5 93.5t107.5 35.5z" />
    <glyph glyph-name="Rcaron" unicode="&#x158;" horiz-adv-x="1398" 
d="M299 1901h209l178 -142l178 142h211l-295 -336h-186zM1368 0h-352l-289 414h-39h-260v-414h-289v1452h590q285 0 435.5 -133.5t150.5 -384.5q0 -348 -289 -465zM682 662q164 0 247 69t83 189q0 274 -307 274h-277v-532h254z" />
    <glyph glyph-name="rcaron" unicode="&#x159;" horiz-adv-x="880" 
d="M111 1606h208l179 -142l180 142h209l-295 -334h-186zM135 0v1118h273v-145q130 170 348 170q53 0 78 -10v-306q-82 21 -136 21q-124 0 -202 -82.5t-78 -237.5v-528h-283z" />
    <glyph glyph-name="Sacute" unicode="&#x15a;" horiz-adv-x="1284" 
d="M512 1565l254 342l317 -25l-372 -317h-199zM686 -29q-185 0 -324 31.5t-296 103.5l110 250q264 -127 496 -127q123 0 189.5 44.5t66.5 129.5q0 80 -71 119.5t-236 71.5q-103 20 -178.5 42.5t-146 58t-114.5 81t-70 112t-26 150.5q0 203 140 322t405 119q316 0 547 -113
l-121 -244q-213 95 -424 95q-119 0 -183.5 -45t-64.5 -115q0 -28 10 -51t33.5 -41t49 -32t71.5 -27.5t85.5 -23.5t104.5 -24q94 -19 162 -40t133.5 -55.5t106.5 -78.5t65.5 -109.5t24.5 -148.5q0 -224 -138 -339.5t-407 -115.5z" />
    <glyph glyph-name="sacute" unicode="&#x15b;" horiz-adv-x="1083" 
d="M393 1270l254 342l318 -27l-371 -315h-201zM541 -29q-261 0 -473 99l90 223q80 -48 179 -74t195 -26q195 0 195 118q0 50 -51.5 76t-196.5 59q-202 44 -299.5 122.5t-97.5 228.5q0 168 120 256t326 88q212 0 439 -88l-93 -226q-73 39 -170.5 62.5t-177.5 23.5
q-164 0 -164 -96q0 -52 48 -78t194 -61q212 -51 311 -125.5t99 -214.5q0 -188 -119.5 -277.5t-353.5 -89.5z" />
    <glyph glyph-name="Scircumflex" unicode="&#x15c;" horiz-adv-x="1284" 
d="M244 1565l295 336h186l295 -336h-211l-178 143l-178 -143h-209zM686 -29q-185 0 -324 31.5t-296 103.5l110 250q264 -127 496 -127q123 0 189.5 44.5t66.5 129.5q0 80 -71 119.5t-236 71.5q-103 20 -178.5 42.5t-146 58t-114.5 81t-70 112t-26 150.5q0 203 140 322
t405 119q316 0 547 -113l-121 -244q-213 95 -424 95q-119 0 -183.5 -45t-64.5 -115q0 -28 10 -51t33.5 -41t49 -32t71.5 -27.5t85.5 -23.5t104.5 -24q94 -19 162 -40t133.5 -55.5t106.5 -78.5t65.5 -109.5t24.5 -148.5q0 -224 -138 -339.5t-407 -115.5z" />
    <glyph glyph-name="scircumflex" unicode="&#x15d;" horiz-adv-x="1083" 
d="M135 1268l295 336h186l295 -336h-211l-178 141l-178 -141h-209zM541 -29q-261 0 -473 99l90 223q80 -48 179 -74t195 -26q195 0 195 118q0 50 -51.5 76t-196.5 59q-202 44 -299.5 122.5t-97.5 228.5q0 168 120 256t326 88q212 0 439 -88l-93 -226q-73 39 -170.5 62.5
t-177.5 23.5q-164 0 -164 -96q0 -52 48 -78t194 -61q212 -51 311 -125.5t99 -214.5q0 -188 -119.5 -277.5t-353.5 -89.5z" />
    <glyph glyph-name="Scedilla" unicode="&#x15e;" horiz-adv-x="1284" 
d="M1231 426q0 -212 -123 -326.5t-363 -126.5l-22 -53q125 -26 125 -123q0 -91 -74.5 -137.5t-208.5 -46.5q-89 0 -147 12v115q44 -8 100 -8q119 0 119 75q0 52 -109 62v47l52 57q-144 9 -261.5 40.5t-252.5 92.5l110 250q264 -127 496 -127q123 0 189.5 44.5t66.5 129.5
q0 80 -71 119.5t-236 71.5q-103 20 -178.5 42.5t-146 58t-114.5 81t-70 112t-26 150.5q0 203 140 322t405 119q316 0 547 -113l-121 -244q-213 95 -424 95q-119 0 -183.5 -45t-64.5 -115q0 -28 10 -51t33.5 -41t49 -32t71.5 -27.5t85.5 -23.5t104.5 -24q94 -19 162 -40
t133.5 -55.5t106.5 -78.5t65.5 -109.5t24.5 -148.5z" />
    <glyph glyph-name="scedilla" unicode="&#x15f;" horiz-adv-x="1083" 
d="M1014 338q0 -335 -387 -363l-25 -57q125 -26 125 -123q0 -91 -74.5 -137.5t-208.5 -46.5q-88 0 -147 12v115q44 -8 100 -8q119 0 119 75q0 52 -108 62v47l53 59q-207 11 -393 97l90 223q80 -48 179 -74t195 -26q195 0 195 118q0 50 -51.5 76t-196.5 59
q-202 44 -299.5 122.5t-97.5 228.5q0 168 120 256t326 88q212 0 439 -88l-93 -226q-73 39 -170.5 62.5t-177.5 23.5q-164 0 -164 -96q0 -52 48 -78t194 -61q212 -51 311 -125.5t99 -214.5z" />
    <glyph glyph-name="Scaron" unicode="&#x160;" horiz-adv-x="1284" 
d="M246 1901h209l178 -142l178 142h211l-295 -336h-186zM686 -29q-185 0 -324 31.5t-296 103.5l110 250q264 -127 496 -127q123 0 189.5 44.5t66.5 129.5q0 80 -71 119.5t-236 71.5q-103 20 -178.5 42.5t-146 58t-114.5 81t-70 112t-26 150.5q0 203 140 322t405 119
q316 0 547 -113l-121 -244q-213 95 -424 95q-119 0 -183.5 -45t-64.5 -115q0 -28 10 -51t33.5 -41t49 -32t71.5 -27.5t85.5 -23.5t104.5 -24q94 -19 162 -40t133.5 -55.5t106.5 -78.5t65.5 -109.5t24.5 -148.5q0 -224 -138 -339.5t-407 -115.5z" />
    <glyph glyph-name="scaron" unicode="&#x161;" horiz-adv-x="1083" 
d="M135 1604h209l178 -142l178 142h211l-295 -334h-186zM541 -29q-261 0 -473 99l90 223q80 -48 179 -74t195 -26q195 0 195 118q0 50 -51.5 76t-196.5 59q-202 44 -299.5 122.5t-97.5 228.5q0 168 120 256t326 88q212 0 439 -88l-93 -226q-73 39 -170.5 62.5t-177.5 23.5
q-164 0 -164 -96q0 -52 48 -78t194 -61q212 -51 311 -125.5t99 -214.5q0 -188 -119.5 -277.5t-353.5 -89.5z" />
    <glyph glyph-name="uni0162" unicode="&#x162;" horiz-adv-x="1318" 
d="M807 0h-51l-35 -80q125 -26 125 -123q0 -91 -74.5 -137.5t-208.5 -46.5q-89 0 -147 12v115q44 -8 100 -8q119 0 119 75q0 52 -109 62v47l74 84h-88v1180h-463v272h1221v-272h-463v-1180z" />
    <glyph glyph-name="uni0163" unicode="&#x163;" horiz-adv-x="827" 
d="M786 866h-329v-473q0 -96 31 -137t116 -41q96 0 180 37v-248q-93 -27 -192 -29l-23 -55q125 -26 125 -123q0 -91 -74 -137.5t-208 -46.5q-89 0 -148 12v115q44 -8 101 -8q118 0 118 75q0 52 -108 62v47l57 64q-131 23 -192.5 112t-61.5 254v520h-160v252h160v434h279
v-434h329v-252z" />
    <glyph glyph-name="Tcaron" unicode="&#x164;" horiz-adv-x="1318" 
d="M274 1901h209l179 -142l178 142h211l-295 -336h-187zM512 0v1180h-463v272h1221v-272h-463v-1180h-295z" />
    <glyph glyph-name="tcaron" unicode="&#x165;" horiz-adv-x="909" 
d="M754 1743q74 0 119 -49t45 -148q0 -94 -33 -169.5t-104 -124t-171 -48.5v103q46 0 81 34t50 99q-53 5 -95 44.5t-42 108.5q0 65 41.5 107.5t108.5 42.5zM457 1552v-434h329v-252h-329v-473q0 -96 31 -137t116 -41q96 0 180 37v-248q-105 -31 -256 -31q-183 0 -266.5 90
t-83.5 283v520h-160v252h160v434h279z" />
    <glyph glyph-name="Tbar" unicode="&#x166;" horiz-adv-x="1318" 
d="M1270 1180h-463v-385h240v-230h-240v-565h-295v565h-246v230h246v385h-463v272h1221v-272z" />
    <glyph glyph-name="tbar" unicode="&#x167;" horiz-adv-x="827" 
d="M786 866h-329v-157h270v-217h-270v-99q0 -96 31 -137t116 -41q96 0 180 37v-248q-105 -31 -256 -31q-183 0 -266.5 90t-83.5 283v146h-125v217h125v157h-160v252h160v434h279v-434h329v-252z" />
    <glyph glyph-name="Utilde" unicode="&#x168;" horiz-adv-x="1499" 
d="M451 1552l-129 29q20 140 82.5 216.5t158.5 76.5q63 0 133.5 -31t130 -61.5t95.5 -30.5q40 0 75 30t58 85l129 -31q-20 -139 -82.5 -215t-157.5 -76q-58 0 -129 31t-131.5 61.5t-93.5 30.5q-86 0 -139 -115zM750 -29q-309 0 -468 152t-159 450v879h293v-809
q0 -209 80.5 -302t253.5 -93q174 0 254.5 93t80.5 302v809h291v-879q0 -602 -626 -602z" />
    <glyph glyph-name="utilde" unicode="&#x169;" horiz-adv-x="1277" 
d="M340 1266l-129 30q20 140 82.5 215.5t159.5 75.5q63 0 133.5 -30.5t129.5 -60.5t95 -30q40 0 75 30t58 85l129 -31q-20 -140 -82 -215t-157 -75q-58 0 -129 30t-132 60t-94 30q-88 0 -139 -114zM532 -25q-203 0 -313 112t-110 362v669h282v-598q0 -159 59.5 -225
t165.5 -66q156 0 261 129v760h282v-1118h-268v115q-143 -140 -359 -140z" />
    <glyph glyph-name="Umacron" unicode="&#x16a;" horiz-adv-x="1499" 
d="M385 1573v199h731v-199h-731zM750 -29q-309 0 -468 152t-159 450v879h293v-809q0 -209 80.5 -302t253.5 -93q174 0 254.5 93t80.5 302v809h291v-879q0 -602 -626 -602z" />
    <glyph glyph-name="umacron" unicode="&#x16b;" horiz-adv-x="1277" 
d="M272 1319v199h732v-199h-732zM532 -25q-203 0 -313 112t-110 362v669h282v-598q0 -159 59.5 -225t165.5 -66q156 0 261 129v760h282v-1118h-268v115q-143 -140 -359 -140z" />
    <glyph glyph-name="Ubreve" unicode="&#x16c;" horiz-adv-x="1499" 
d="M752 1565q-164 0 -263.5 85t-103.5 244h180q33 -131 187 -131q155 0 184 131h184q-6 -161 -105 -245t-263 -84zM750 -29q-309 0 -468 152t-159 450v879h293v-809q0 -209 80.5 -302t253.5 -93q174 0 254.5 93t80.5 302v809h291v-879q0 -602 -626 -602z" />
    <glyph glyph-name="ubreve" unicode="&#x16d;" horiz-adv-x="1277" 
d="M641 1272q-164 0 -263.5 84t-105.5 243h181q38 -131 188 -131q151 0 184 131h183q-6 -161 -104.5 -244t-262.5 -83zM532 -25q-203 0 -313 112t-110 362v669h282v-598q0 -159 59.5 -225t165.5 -66q156 0 261 129v760h282v-1118h-268v115q-143 -140 -359 -140z" />
    <glyph glyph-name="Uring" unicode="&#x16e;" horiz-adv-x="1499" 
d="M752 1395q-104 0 -173 67t-69 170q0 102 69.5 169t172.5 67t172 -67t69 -169q0 -104 -68.5 -170.5t-172.5 -66.5zM752 1516q51 0 83.5 33t32.5 87q0 51 -32.5 84t-83.5 33q-50 0 -82.5 -33.5t-32.5 -87.5q0 -51 32.5 -83.5t82.5 -32.5zM750 -29q-309 0 -468 152t-159 450
v879h293v-809q0 -209 80.5 -302t253.5 -93q174 0 254.5 93t80.5 302v809h291v-879q0 -602 -626 -602z" />
    <glyph glyph-name="uring" unicode="&#x16f;" horiz-adv-x="1277" 
d="M641 1255q-104 0 -173 67t-69 171q0 102 69.5 169t172.5 67t172.5 -67t69.5 -169q0 -104 -69 -171t-173 -67zM641 1376q51 0 84 33.5t33 85.5q0 51 -33 84t-84 33q-50 0 -82.5 -33.5t-32.5 -85.5q0 -51 32.5 -84t82.5 -33zM532 -25q-203 0 -313 112t-110 362v669h282
v-598q0 -159 59.5 -225t165.5 -66q156 0 261 129v760h282v-1118h-268v115q-143 -140 -359 -140z" />
    <glyph glyph-name="Uhungarumlaut" unicode="&#x170;" horiz-adv-x="1499" 
d="M463 1565l180 358l240 -86l-248 -272h-172zM815 1565l182 358l260 -90l-278 -268h-164zM750 -29q-309 0 -468 152t-159 450v879h293v-809q0 -209 80.5 -302t253.5 -93q174 0 254.5 93t80.5 302v809h291v-879q0 -602 -626 -602z" />
    <glyph glyph-name="uhungarumlaut" unicode="&#x171;" horiz-adv-x="1277" 
d="M350 1270l180 356l240 -86l-248 -270h-172zM702 1270l183 356l260 -90l-279 -266h-164zM532 -25q-203 0 -313 112t-110 362v669h282v-598q0 -159 59.5 -225t165.5 -66q156 0 261 129v760h282v-1118h-268v115q-143 -140 -359 -140z" />
    <glyph glyph-name="Uogonek" unicode="&#x172;" horiz-adv-x="1499" 
d="M1085 1452h291v-879q0 -492 -422 -581q-58 -33 -88 -69.5t-30 -69.5q0 -70 98 -70q23 0 39 2l2 -145q-66 -17 -133 -17q-107 0 -167.5 44.5t-60.5 119.5q0 48 27.5 96.5t79.5 87.5q-295 8 -446.5 159t-151.5 443v879h293v-809q0 -209 80.5 -302t253.5 -93q174 0 254.5 93
t80.5 302v809z" />
    <glyph glyph-name="uogonek" unicode="&#x173;" horiz-adv-x="1277" 
d="M1161 -215l2 -145q-66 -17 -133 -17q-107 0 -167 44.5t-60 119.5q0 57 39 114t110 99h-61v115q-143 -140 -359 -140q-203 0 -313 112t-110 362v669h282v-598q0 -159 59.5 -225t165.5 -66q156 0 261 129v760h282v-1118q-66 -34 -100.5 -73t-34.5 -74q0 -70 98 -70
q23 0 39 2z" />
    <glyph glyph-name="Wcircumflex" unicode="&#x174;" horiz-adv-x="2181" 
d="M707 1565l294 336h187l295 -336h-211l-178 143l-179 -143h-208zM1855 1452h318l-537 -1460h-147l-399 938l-394 -938h-147l-541 1460h322l315 -911l373 915h151l369 -919z" />
    <glyph glyph-name="wcircumflex" unicode="&#x175;" horiz-adv-x="1681" 
d="M457 1270l295 336h186l295 -336h-211l-178 141l-178 -141h-209zM1384 1118h289l-391 -1124h-158l-286 676l-281 -676h-158l-391 1124h295l201 -657l264 661h143l269 -665z" />
    <glyph glyph-name="Ycircumflex" unicode="&#x176;" horiz-adv-x="1363" 
d="M297 1565l295 336h186l295 -336h-211l-178 143l-178 -143h-209zM1366 1452l-537 -948v-504h-294v504l-537 948h338l348 -657l350 657h332z" />
    <glyph glyph-name="ycircumflex" unicode="&#x177;" horiz-adv-x="1224" 
d="M223 1270l295 336h187l294 -336h-211l-178 141l-178 -141h-209zM913 1118h301l-458 -1130q-40 -100 -90 -172t-97 -112t-106 -62.5t-105.5 -28.5t-107.5 -6q-108 0 -182 24v244q92 -29 161 -29q88 0 149 35.5t103 116.5l-501 1120h315l317 -780z" />
    <glyph glyph-name="Ydieresis" unicode="&#x178;" horiz-adv-x="1363" 
d="M455 1554q-71 0 -121.5 50t-50.5 122t50.5 122t121.5 50t120.5 -50t49.5 -122t-49.5 -122t-120.5 -50zM913 1554q-71 0 -120.5 50t-49.5 122t49.5 122t120.5 50t120.5 -50t49.5 -122t-49.5 -122t-120.5 -50zM1366 1452l-537 -948v-504h-294v504l-537 948h338l348 -657
l350 657h332z" />
    <glyph glyph-name="Zacute" unicode="&#x179;" horiz-adv-x="1366" 
d="M594 1565l254 342l317 -25l-372 -317h-199zM508 268h778v-268h-1218v141l766 1043h-717v268h1161v-147z" />
    <glyph glyph-name="zacute" unicode="&#x17a;" horiz-adv-x="1105" 
d="M424 1272l254 342l317 -27l-370 -315h-201zM459 233h608v-233h-1016v143l592 742h-559v233h979v-141z" />
    <glyph glyph-name="Zdotaccent" unicode="&#x17b;" horiz-adv-x="1366" 
d="M711 1565q-72 0 -123 51t-51 123t51 123t123 51q71 0 121.5 -51t50.5 -123t-50.5 -123t-121.5 -51zM508 268h778v-268h-1218v141l766 1043h-717v268h1161v-147z" />
    <glyph glyph-name="zdotaccent" unicode="&#x17c;" horiz-adv-x="1105" 
d="M553 1255q-72 0 -123 51.5t-51 123.5t51 123t123 51q71 0 121.5 -51t50.5 -123t-50.5 -123.5t-121.5 -51.5zM459 233h608v-233h-1016v143l592 742h-559v233h979v-141z" />
    <glyph glyph-name="Zcaron" unicode="&#x17d;" horiz-adv-x="1366" 
d="M328 1901h209l178 -142l178 142h211l-295 -336h-186zM508 268h778v-268h-1218v141l766 1043h-717v268h1161v-147z" />
    <glyph glyph-name="zcaron" unicode="&#x17e;" horiz-adv-x="1105" 
d="M166 1606h209l178 -142l178 142h211l-295 -334h-186zM459 233h608v-233h-1016v143l592 742h-559v233h979v-141z" />
    <glyph glyph-name="uni018F" unicode="&#x18f;" horiz-adv-x="1656" 
d="M799 1479q223 0 399 -92.5t275.5 -264.5t99.5 -397q0 -218 -94.5 -389.5t-266 -268t-389.5 -96.5q-214 0 -380 84.5t-261.5 249.5t-95.5 389q0 61 4 111h1180q-25 186 -150.5 293.5t-320.5 107.5q-133 0 -234 -58.5t-186 -168.5l-229 172q248 328 649 328zM821 233
q161 0 277 87t157 245h-864q30 -157 141 -244.5t289 -87.5z" />
    <glyph glyph-name="florin" unicode="&#x192;" horiz-adv-x="980" 
d="M778 1243q-80 0 -122 -45.5t-48 -142.5l-10 -125h293v-199h-307l-45 -612q-24 -332 -355 -332q-105 0 -157 18v232q44 -12 88 -12q87 0 116 52t37 179l35 475h-145v199h159l13 166q13 185 114 284t269 99q130 0 223 -41v-219q-76 24 -158 24z" />
    <glyph glyph-name="Gcaron" unicode="&#x1e6;" horiz-adv-x="1597" 
d="M477 1901h209l178 -142l178 142h211l-295 -336h-186zM809 797h719v-611q-108 -105 -269 -160t-356 -55q-377 0 -597 203t-220 551q0 230 98 401.5t276 263t412 91.5q376 0 601 -209l-183 -205q-75 66 -183.5 103.5t-232.5 37.5q-221 0 -354 -130.5t-133 -352.5
q0 -229 141 -358t385 -129q217 0 342 94v211h-446v254z" />
    <glyph glyph-name="gcaron" unicode="&#x1e7;" horiz-adv-x="1343" 
d="M297 1606h209l178 -142l178 142h211l-295 -334h-186zM643 -393q-279 0 -459 74v260q212 -95 414 -95q174 0 263 59.5t89 198.5v72q-111 -131 -336 -131q-244 0 -392 153t-148 398q0 243 146.5 396t381.5 153q95 0 187 -30t157 -93v96h279v-921q0 -140 -30.5 -245.5
t-97.5 -184.5t-180.5 -119.5t-273.5 -40.5zM676 297q85 0 159 36.5t115 110.5v304q-42 68 -118.5 106.5t-161.5 38.5q-134 0 -219.5 -82t-85.5 -213q0 -133 85 -217t226 -84z" />
    <glyph glyph-name="uni01EA" unicode="&#x1ea;" horiz-adv-x="1730" 
d="M987 -20q-98 -64 -98 -127q0 -70 98 -70q23 0 39 2l2 -145q-66 -17 -133 -17q-107 0 -167 44.5t-60 119.5q0 48 28.5 97.5t81.5 90.5q-309 27 -500.5 230.5t-191.5 519.5q0 164 56 304t156.5 240t246.5 156t319 56q226 0 404 -93.5t278.5 -266t100.5 -396.5
q0 -301 -180 -504.5t-480 -240.5zM387 725q0 -212 131.5 -346.5t345.5 -134.5q212 0 345.5 132t133.5 349q0 214 -131.5 348.5t-347.5 134.5q-209 0 -343 -133t-134 -350z" />
    <glyph glyph-name="uni01EB" unicode="&#x1eb;" horiz-adv-x="1378" 
d="M854 -8q-59 -33 -90 -69.5t-31 -69.5q0 -70 98 -70q23 0 39 2l2 -145q-66 -17 -133 -17q-107 0 -167 44.5t-60 119.5q0 50 30 99.5t85 90.5q-252 19 -402.5 175.5t-150.5 408.5q0 263 169.5 422.5t446.5 159.5q276 0 444.5 -159.5t168.5 -422.5q0 -225 -120.5 -375.5
t-328.5 -193.5zM367 561q0 -149 89 -238.5t234 -89.5q143 0 232.5 90t89.5 238q0 146 -89.5 235t-232.5 89q-145 0 -234 -89t-89 -235z" />
    <glyph glyph-name="Aringacute" unicode="&#x1fa;" horiz-adv-x="1538" 
d="M881 1419l647 -1419h-316l-127 276h-634l-125 -276h-316l645 1419q-59 28 -94 84.5t-35 128.5q0 82 46.5 143t121.5 83l189 253l317 -24l-299 -254q51 -31 80 -83.5t29 -117.5q0 -72 -35 -128.5t-94 -84.5zM768 1753q-50 0 -82.5 -33.5t-32.5 -87.5q0 -51 32.5 -83.5
t82.5 -32.5q51 0 84 33t33 87q0 51 -33 84t-84 33zM549 520h440l-108 258l-113 297l-111 -297z" />
    <glyph glyph-name="aringacute" unicode="&#x1fb;" horiz-adv-x="1351" 
d="M686 1255q-104 0 -173 67t-69 171q0 86 51 148t132 81l204 275l318 -27l-328 -278q50 -31 78.5 -83t28.5 -116q0 -104 -69 -171t-173 -67zM686 1612q-50 0 -82.5 -33.5t-32.5 -85.5q0 -51 32.5 -84t82.5 -33q51 0 84 33.5t33 85.5q0 51 -33 84t-84 33zM946 1118h279
v-1118h-275v109q-111 -134 -336 -134q-246 0 -393 159t-147 427q0 266 145.5 425t382.5 159q95 0 187 -30t157 -93v96zM950 377v371q-42 67 -119 105t-161 38q-137 0 -221 -87.5t-84 -242.5q0 -154 84.5 -243t226.5 -89q85 0 159 37t115 111z" />
    <glyph glyph-name="AEacute" unicode="&#x1fc;" horiz-adv-x="2095" 
d="M961 1565l253 342l318 -25l-373 -317h-198zM6 0l731 1452h1254v-262h-772v-350h651v-248h-651v-332h804v-260h-1087v276h-469l-139 -276h-322zM571 520h365v660h-41z" />
    <glyph glyph-name="aeacute" unicode="&#x1fd;" horiz-adv-x="2138" 
d="M936 1276l254 342l317 -27l-370 -315h-201zM2089 559l-2 -84h-870q23 -127 109 -194.5t226 -67.5q102 0 186.5 37.5t139.5 107.5l180 -153q-78 -108 -205.5 -166.5t-293.5 -58.5q-224 0 -357 112v-92h-276v109q-59 -72 -146.5 -103t-179.5 -31q-240 0 -383 159.5
t-143 428.5q0 267 142 426.5t374 159.5q91 0 180.5 -30t151.5 -93v96h280v-86q128 113 326 113q267 0 414 -162.5t147 -427.5zM1513 913q-112 0 -190.5 -58.5t-103.5 -174.5h593q-13 101 -87.5 167t-211.5 66zM926 379v373q-40 67 -116.5 106t-158.5 39q-133 0 -214 -88
t-81 -244q0 -157 81 -247.5t220 -90.5q85 0 156.5 37t112.5 115z" />
    <glyph glyph-name="Oslashacute" unicode="&#x1fe;" horiz-adv-x="1730" 
d="M752 1565l254 342l317 -25l-373 -317h-198zM1456 1241q191 -204 191 -516q0 -163 -56.5 -303t-158 -239.5t-248 -155.5t-320.5 -56q-239 0 -424 107l-67 -78h-269l177 203q-195 205 -195 522q0 164 56 304t156.5 240t246.5 156t319 56q244 0 434 -111l70 82h272zM387 725
q0 -171 90 -297l631 723q-108 57 -244 57q-209 0 -343 -133t-134 -350zM864 244q212 0 345.5 132t133.5 349q0 166 -83 291l-627 -719q100 -53 231 -53z" />
    <glyph glyph-name="oslashacute" unicode="&#x1ff;" horiz-adv-x="1378" 
d="M563 1272l254 342l318 -27l-371 -315h-201zM1303 1116l-142 -160q142 -158 142 -395q0 -267 -168.5 -426.5t-446.5 -159.5q-183 0 -328 74l-45 -51h-243l143 164q-141 157 -141 399q0 264 168.5 423t445.5 159q187 0 330 -76l41 49h244zM346 561q0 -109 49 -196l451 509
q-65 33 -158 33q-153 0 -247.5 -95t-94.5 -251zM1030 561q0 112 -49 191l-451 -510q78 -33 158 -33q153 0 247.5 96.5t94.5 255.5z" />
    <glyph glyph-name="uni0218" unicode="&#x218;" horiz-adv-x="1284" 
d="M739 858q94 -19 162 -40t133.5 -55.5t106.5 -78.5t65.5 -109.5t24.5 -148.5q0 -224 -138 -339.5t-407 -115.5q-185 0 -324 31.5t-296 103.5l110 250q264 -127 496 -127q123 0 189.5 44.5t66.5 129.5q0 80 -71 119.5t-236 71.5q-103 20 -178.5 42.5t-146 58t-114.5 81
t-70 112t-26 150.5q0 203 140 322t405 119q316 0 547 -113l-121 -244q-213 95 -424 95q-119 0 -183.5 -45t-64.5 -115q0 -28 10 -51t33.5 -41t49 -32t71.5 -27.5t85.5 -23.5t104.5 -24zM649 -88q73 0 117.5 -44t44.5 -118q0 -33 -7 -66.5t-28 -72.5t-53 -68.5t-87 -49
t-126 -19.5h-39v102q8 -2 27 -2q96 0 125 88q-56 9 -88.5 42t-32.5 79q0 58 39.5 93.5t107.5 35.5z" />
    <glyph glyph-name="uni0219" unicode="&#x219;" horiz-adv-x="1083" 
d="M604 678q212 -51 311 -125.5t99 -214.5q0 -188 -119.5 -277.5t-353.5 -89.5q-261 0 -473 99l90 223q80 -48 179 -74t195 -26q195 0 195 118q0 50 -51.5 76t-196.5 59q-202 44 -299.5 122.5t-97.5 228.5q0 168 120 256t326 88q212 0 439 -88l-93 -226q-73 39 -170.5 62.5
t-177.5 23.5q-164 0 -164 -96q0 -52 48 -78t194 -61zM528 -90q73 0 117.5 -44t44.5 -118q0 -33 -7 -66.5t-28 -72.5t-53 -68.5t-87 -49t-126 -19.5h-39v102q8 -2 27 -2q96 0 125 88q-56 9 -88.5 42t-32.5 79q0 58 39.5 93.5t107.5 35.5z" />
    <glyph glyph-name="uni021A" unicode="&#x21a;" horiz-adv-x="1318" 
d="M49 1452h1221v-272h-463v-1180h-295v1180h-463v272zM647 -88q73 0 117.5 -44t44.5 -118q0 -33 -7 -66.5t-28 -72.5t-53 -68.5t-87 -49t-126 -19.5h-39v102q8 -2 27 -2q96 0 125 88q-56 9 -88.5 42t-32.5 79q0 58 39.5 93.5t107.5 35.5z" />
    <glyph glyph-name="uni021B" unicode="&#x21b;" horiz-adv-x="827" 
d="M786 866h-329v-473q0 -96 31 -137t116 -41q96 0 180 37v-248q-105 -31 -256 -31q-183 0 -266.5 90t-83.5 283v520h-160v252h160v434h279v-434h329v-252zM494 -88q73 0 117 -44t44 -118q0 -33 -7 -66.5t-28 -72.5t-53 -68.5t-87 -49t-126 -19.5h-39v102q8 -2 27 -2
q96 0 125 88q-56 9 -88.5 42t-32.5 79q0 58 40 93.5t108 35.5z" />
    <glyph glyph-name="uni0232" unicode="&#x232;" horiz-adv-x="1363" 
d="M315 1573v199h732v-199h-732zM1366 1452l-537 -948v-504h-294v504l-537 948h338l348 -657l350 657h332z" />
    <glyph glyph-name="uni0233" unicode="&#x233;" horiz-adv-x="1224" 
d="M242 1319v199h731v-199h-731zM913 1118h301l-458 -1130q-40 -100 -90 -172t-97 -112t-106 -62.5t-105.5 -28.5t-107.5 -6q-108 0 -182 24v244q92 -29 161 -29q88 0 149 35.5t103 116.5l-501 1120h315l317 -780z" />
    <glyph glyph-name="uni0237" unicode="&#x237;" horiz-adv-x="571" 
d="M100 -389q-112 0 -168 18v234q47 -13 82 -13q38 0 63.5 10.5t40 27t22.5 48t10 63t2 83.5v1036h284v-1186q0 -165 -92 -243t-244 -78z" />
    <glyph glyph-name="uni0259" unicode="&#x259;" horiz-adv-x="1280" 
d="M49 559q0 61 2 84h869q-23 125 -108 192.5t-222 67.5q-99 0 -183.5 -36.5t-140.5 -106.5l-178 151q166 230 522 230q279 0 437.5 -158.5t158.5 -427.5q0 -264 -161.5 -425t-419.5 -161q-280 0 -428 161.5t-148 428.5zM625 205q112 0 190 58t103 175h-592
q13 -101 87.5 -167t211.5 -66z" />
    <glyph glyph-name="circumflex" unicode="&#x2c6;" horiz-adv-x="1028" 
d="M127 1270l295 336h184l297 -336h-211l-180 141l-176 -141h-209z" />
    <glyph glyph-name="caron" unicode="&#x2c7;" horiz-adv-x="1028" 
d="M131 1606h209l178 -142l180 142h209l-295 -334h-186z" />
    <glyph glyph-name="breve" unicode="&#x2d8;" horiz-adv-x="1028" 
d="M514 1272q-163 0 -262 84t-105 243h181q38 -131 186 -131q153 0 186 131h183q-6 -161 -105 -244t-264 -83z" />
    <glyph glyph-name="dotaccent" unicode="&#x2d9;" horiz-adv-x="780" 
d="M389 1255q-71 0 -122.5 51.5t-51.5 123.5t51.5 123t122.5 51t121.5 -51t50.5 -123t-50.5 -123.5t-121.5 -51.5z" />
    <glyph glyph-name="ring" unicode="&#x2da;" horiz-adv-x="1028" 
d="M516 1255q-104 0 -173 67t-69 171q0 102 69.5 169t172.5 67t172.5 -67t69.5 -169q0 -104 -69 -171t-173 -67zM516 1376q51 0 84 33.5t33 85.5q0 51 -33 84t-84 33t-84 -33.5t-33 -85.5q0 -51 33 -84t84 -33z" />
    <glyph glyph-name="ogonek" unicode="&#x2db;" horiz-adv-x="1028" 
d="M467 -377q-107 0 -167 44.5t-60 119.5q0 68 55.5 135t153.5 107l147 -29q-66 -34 -100.5 -73t-34.5 -74q0 -70 98 -70q25 0 39 2l4 -145q-66 -17 -135 -17z" />
    <glyph glyph-name="tilde" unicode="&#x2dc;" horiz-adv-x="1028" 
d="M211 1266l-129 30q20 140 82.5 215.5t159.5 75.5q63 0 133.5 -30.5t129.5 -60.5t95 -30q82 0 133 115l129 -31q-22 -140 -83 -215t-156 -75q-58 0 -129 30t-132 60t-94 30q-88 0 -139 -114z" />
    <glyph glyph-name="hungarumlaut" unicode="&#x2dd;" horiz-adv-x="1028" 
d="M125 1270l180 356l240 -86l-248 -270h-172zM477 1270l182 356l261 -90l-281 -266h-162z" />
    <glyph glyph-name="gravecomb" unicode="&#x300;" 
d="M-459 1270h-200l-371 317l317 25z" />
    <glyph glyph-name="acutecomb" unicode="&#x301;" 
d="M-735 1272l254 342l317 -27l-371 -315h-200z" />
    <glyph glyph-name="uni0302" unicode="&#x302;" 
d="M-989 1270l295 336h186l295 -336h-211l-178 141l-178 -141h-209z" />
    <glyph glyph-name="tildecomb" unicode="&#x303;" 
d="M-905 1266l-129 30q20 140 82.5 215.5t158.5 75.5q63 0 133.5 -30.5t130 -60.5t95.5 -30q40 0 75 30t58 85l129 -31q-20 -140 -82.5 -215t-157.5 -75q-58 0 -129 30t-131.5 60t-93.5 30q-88 0 -139 -114z" />
    <glyph glyph-name="uni0304" unicode="&#x304;" 
d="M-973 1319v199h731v-199h-731z" />
    <glyph glyph-name="uni0306" unicode="&#x306;" 
d="M-604 1272q-164 0 -263.5 84t-105.5 243h180q38 -131 189 -131t184 131h182q-6 -161 -104 -244t-262 -83z" />
    <glyph glyph-name="uni0307" unicode="&#x307;" 
d="M-606 1255q-72 0 -123 51.5t-51 123.5t51 123t123 51q71 0 121.5 -51t50.5 -123t-50.5 -123.5t-121.5 -51.5z" />
    <glyph glyph-name="uni0308" unicode="&#x308;" 
d="M-834 1257q-72 0 -122 50.5t-50 122.5t50 122t122 50q69 0 118.5 -50t49.5 -122t-49.5 -122.5t-118.5 -50.5zM-375 1257q-71 0 -121.5 50.5t-50.5 122.5t50.5 122t121.5 50q69 0 118.5 -50t49.5 -122t-49.5 -122.5t-118.5 -50.5z" />
    <glyph glyph-name="uni030A" unicode="&#x30a;" 
d="M-604 1255q-104 0 -173 67t-69 171q0 102 69.5 169t172.5 67t172.5 -67t69.5 -169q0 -104 -69 -171t-173 -67zM-604 1376q51 0 84 33.5t33 85.5q0 51 -33 84t-84 33q-50 0 -82.5 -33.5t-32.5 -85.5q0 -51 32.5 -84t82.5 -33z" />
    <glyph glyph-name="uni030B" unicode="&#x30b;" 
d="M-895 1270l180 356l240 -86l-248 -270h-172zM-543 1270l183 356l260 -90l-279 -266h-164z" />
    <glyph glyph-name="uni030C" unicode="&#x30c;" 
d="M-989 1606h209l178 -142l178 142h211l-295 -334h-186z" />
    <glyph glyph-name="uni0312" unicode="&#x312;" 
d="M-467 1690h39v-103q-8 2 -27 2q-47 0 -79 -23t-44 -63q56 -9 87.5 -42.5t31.5 -80.5q0 -57 -39.5 -93t-107.5 -36q-72 0 -117 44.5t-45 117.5q0 34 7 67.5t28 72.5t53 68.5t87 49t126 19.5z" />
    <glyph glyph-name="uni0326" unicode="&#x326;" 
d="M-637 -88q73 0 117.5 -44t44.5 -118q0 -33 -7 -66.5t-28 -72.5t-53 -68.5t-87 -49t-126 -19.5h-39v102q8 -2 27 -2q95 0 124 88q-56 9 -88 42t-32 79q0 58 39.5 93.5t107.5 35.5z" />
    <glyph glyph-name="uni0327" unicode="&#x327;" 
d="M-549 -80q125 -26 125 -123q0 -91 -74.5 -137.5t-208.5 -46.5q-89 0 -147 12v115q44 -8 100 -8q119 0 119 75q0 52 -108 62v47l81 92l154 6z" />
    <glyph glyph-name="uni0328" unicode="&#x328;" 
d="M-702 -377q-107 0 -167.5 44.5t-60.5 119.5q0 68 55 135t152 107l150 -29q-66 -34 -101 -73t-35 -74q0 -70 99 -70q23 0 39 2l2 -145q-66 -17 -133 -17z" />
    <glyph glyph-name="uni037E" unicode="&#x37e;" horiz-adv-x="495" 
d="M246 797q-72 0 -123 51.5t-51 124.5q0 72 51 123t123 51q70 0 120 -51t50 -123q0 -73 -49.5 -124.5t-120.5 -51.5zM242 317q71 0 121.5 -53.5t50.5 -177.5q0 -207 -98.5 -303t-266.5 -96v127q166 0 166 170q-61 8 -101 52t-40 111q0 81 47.5 125.5t120.5 44.5z" />
    <glyph glyph-name="tonos" unicode="&#x384;" horiz-adv-x="849" 
d="M338 1272l184 342l318 -25l-314 -317h-188z" />
    <glyph glyph-name="dieresistonos" unicode="&#x385;" horiz-adv-x="1173" 
d="M455 1276l41 401l268 -43l-186 -358h-123zM229 1257q-71 0 -121.5 50.5t-50.5 122.5t50.5 122t121.5 50q69 0 118.5 -50t49.5 -122t-49.5 -122.5t-118.5 -50.5zM926 1257q-72 0 -122 50.5t-50 122.5t50 122t122 50q69 0 118.5 -50t49.5 -122t-49.5 -122.5t-118.5 -50.5z
" />
    <glyph glyph-name="Alphatonos" unicode="&#x386;" horiz-adv-x="1538" 
d="M-12 1077l174 404l297 -25l-275 -379h-196zM1212 0l-127 276h-634l-125 -276h-316l664 1458h188l666 -1458h-316zM768 1075l-111 -297l-108 -258h440l-108 258z" />
    <glyph glyph-name="anoteleia" unicode="&#x387;" horiz-adv-x="503" 
d="M254 797q-72 0 -123 51.5t-51 124.5q0 72 51 123t123 51q70 0 120 -51t50 -123q0 -73 -49.5 -124.5t-120.5 -51.5z" />
    <glyph glyph-name="Epsilontonos" unicode="&#x388;" horiz-adv-x="1298" 
d="M-444 1077l174 404l297 -25l-275 -379h-196zM139 0v1452h1055v-262h-774v-350h651v-248h-651v-332h807v-260h-1088z" />
    <glyph glyph-name="Etatonos" unicode="&#x389;" horiz-adv-x="1519" 
d="M-446 1077l174 404l297 -25l-275 -379h-196zM139 0v1452h289v-649h666v649h286v-1452h-286v535h-666v-535h-289z" />
    <glyph glyph-name="Iotatonos" unicode="&#x38a;" horiz-adv-x="604" 
d="M-436 1077l174 404l297 -25l-275 -379h-196zM154 0v1452h297v-1452h-297z" />
    <glyph glyph-name="Omicrontonos" unicode="&#x38c;" horiz-adv-x="1730" 
d="M-244 1077l174 404l297 -25l-274 -379h-197zM864 -29q-225 0 -401.5 93t-276.5 265t-100 396q0 164 56 304t156.5 240t246.5 156t319 56q226 0 404 -93.5t278.5 -266t100.5 -396.5q0 -163 -56.5 -303t-158 -239.5t-248 -155.5t-320.5 -56zM864 244q212 0 345.5 132
t133.5 349q0 214 -131.5 348.5t-347.5 134.5q-209 0 -343 -133t-134 -350q0 -212 131.5 -346.5t345.5 -134.5z" />
    <glyph glyph-name="Upsilontonos" unicode="&#x38e;" horiz-adv-x="1363" 
d="M-532 1077l174 404l297 -25l-275 -379h-196zM1366 1452l-537 -948v-504h-294v504l-537 948h338l348 -657l350 657h332z" />
    <glyph glyph-name="Omegatonos" unicode="&#x38f;" horiz-adv-x="1697" 
d="M-86 1481l297 -25l-274 -379h-197zM1614 793q0 -167 -78.5 -305t-192.5 -220h256v-268h-669v197q381 245 381 557q0 142 -63 245t-166 153t-232 50q-132 0 -235 -50t-164.5 -153t-61.5 -245q0 -314 379 -557v-197h-666v268h254q-114 82 -193 220t-79 305q0 133 38.5 245
t108 192.5t165.5 137t210.5 84t243.5 27.5q128 0 242 -27.5t210 -84t165.5 -137t108 -192.5t38.5 -245z" />
    <glyph glyph-name="iotadieresistonos" unicode="&#x390;" horiz-adv-x="557" 
d="M182 1276l41 401l269 -43l-187 -358h-123zM-43 1257q-71 0 -121.5 50.5t-50.5 122.5t50.5 122t121.5 50q69 0 118.5 -50t49.5 -122t-49.5 -122.5t-118.5 -50.5zM653 1257q-72 0 -122 50.5t-50 122.5t50 122t122 50q69 0 118.5 -50t49.5 -122t-49.5 -122.5t-118.5 -50.5z
M135 0v1118h287v-1118h-287z" />
    <glyph glyph-name="Alpha" unicode="&#x391;" horiz-adv-x="1538" 
d="M1212 0l-127 276h-634l-125 -276h-316l664 1458h188l666 -1458h-316zM768 1075l-111 -297l-108 -258h440l-108 258z" />
    <glyph glyph-name="Beta" unicode="&#x392;" horiz-adv-x="1427" 
d="M1069 778q142 -30 225.5 -121.5t83.5 -230.5q0 -210 -132 -318t-412 -108h-695v1452h652q232 0 354.5 -92t122.5 -264q0 -122 -52.5 -202.5t-146.5 -115.5zM428 1202v-354h334q115 0 170 45.5t55 138.5q0 83 -55.5 126.5t-155.5 43.5h-348zM836 252q243 0 243 184
q0 87 -67.5 133.5t-204.5 46.5h-379v-364h408z" />
    <glyph glyph-name="Gamma" unicode="&#x393;" horiz-adv-x="1214" 
d="M139 0v1452h1043v-272h-750v-1180h-293z" />
    <glyph glyph-name="uni0394" unicode="&#x394;" horiz-adv-x="1476" 
d="M829 1458l617 -1317v-141h-1415v141l612 1317h186zM733 1059l-344 -797h688z" />
    <glyph glyph-name="Epsilon" unicode="&#x395;" horiz-adv-x="1298" 
d="M139 0v1452h1055v-262h-774v-350h651v-248h-651v-332h807v-260h-1088z" />
    <glyph glyph-name="Zeta" unicode="&#x396;" horiz-adv-x="1366" 
d="M508 268h778v-268h-1218v141l766 1043h-717v268h1161v-147z" />
    <glyph glyph-name="Eta" unicode="&#x397;" horiz-adv-x="1519" 
d="M139 0v1452h289v-649h666v649h286v-1452h-286v535h-666v-535h-289z" />
    <glyph glyph-name="Theta" unicode="&#x398;" horiz-adv-x="1730" 
d="M864 -29q-225 0 -401.5 93t-276.5 265t-100 396q0 164 56 304t156.5 240t246.5 156t319 56q226 0 404 -93.5t278.5 -266t100.5 -396.5q0 -163 -56.5 -303t-158 -239.5t-248 -155.5t-320.5 -56zM864 240q212 0 345.5 133.5t133.5 353.5q0 217 -131.5 353.5t-347.5 136.5
q-209 0 -343 -135t-134 -355q0 -215 131.5 -351t345.5 -136zM557 590v239h621v-239h-621z" />
    <glyph glyph-name="Iota" unicode="&#x399;" horiz-adv-x="604" 
d="M154 0v1452h297v-1452h-297z" />
    <glyph glyph-name="Kappa" unicode="&#x39a;" horiz-adv-x="1447" 
d="M1081 0l-442 590l-217 -244v-346h-283v1452h283v-731l596 731h360l-534 -651l596 -801h-359z" />
    <glyph glyph-name="Lambda" unicode="&#x39b;" horiz-adv-x="1509" 
d="M1497 0h-326l-423 1001l-418 -1001h-320l652 1458h186z" />
    <glyph glyph-name="Mu" unicode="&#x39c;" horiz-adv-x="1794" 
d="M1503 1458h154v-1458h-285v819l-420 -569h-108l-422 565v-815h-283v1458h152l608 -825z" />
    <glyph glyph-name="Nu" unicode="&#x39d;" horiz-adv-x="1579" 
d="M1155 1452h287v-1460h-150l-866 921v-913h-287v1460h146l870 -921v913z" />
    <glyph glyph-name="Xi" unicode="&#x39e;" horiz-adv-x="1349" 
d="M84 1176v276h1182v-276h-1182zM207 586v262h936v-262h-936zM70 0v276h1210v-276h-1210z" />
    <glyph glyph-name="Omicron" unicode="&#x39f;" horiz-adv-x="1730" 
d="M864 -29q-225 0 -401.5 93t-276.5 265t-100 396q0 164 56 304t156.5 240t246.5 156t319 56q226 0 404 -93.5t278.5 -266t100.5 -396.5q0 -163 -56.5 -303t-158 -239.5t-248 -155.5t-320.5 -56zM864 244q212 0 345.5 132t133.5 349q0 214 -131.5 348.5t-347.5 134.5
q-209 0 -343 -133t-134 -350q0 -212 131.5 -346.5t345.5 -134.5z" />
    <glyph glyph-name="Pi" unicode="&#x3a0;" horiz-adv-x="1517" 
d="M139 0v1452h1239v-1452h-286v1184h-664v-1184h-289z" />
    <glyph glyph-name="Rho" unicode="&#x3a1;" horiz-adv-x="1343" 
d="M717 1452q289 0 438.5 -133t149.5 -389q0 -537 -619 -537h-258v-393h-289v1452h578zM676 647q167 0 248.5 71.5t81.5 203.5q0 137 -75 204.5t-233 67.5h-270v-547h248z" />
    <glyph glyph-name="Sigma" unicode="&#x3a3;" horiz-adv-x="1337" 
d="M494 268h774v-268h-1211v145l465 572l-444 590v145h1175v-268h-743l334 -426v-80z" />
    <glyph glyph-name="Tau" unicode="&#x3a4;" horiz-adv-x="1318" 
d="M512 0v1180h-463v272h1221v-272h-463v-1180h-295z" />
    <glyph glyph-name="Upsilon" unicode="&#x3a5;" horiz-adv-x="1363" 
d="M1366 1452l-537 -948v-504h-294v504l-537 948h338l348 -657l350 657h332z" />
    <glyph glyph-name="Phi" unicode="&#x3a6;" horiz-adv-x="1810" 
d="M1065 1366q304 0 491 -171t187 -458q0 -184 -82 -326t-239 -222t-367 -80h-11v-144h-278v144h-10q-314 0 -501 167.5t-187 460.5q0 285 180 457t497 172h21v133h278v-133h21zM743 352h23v772h-21q-173 0 -276.5 -104.5t-103.5 -282.5q0 -169 104 -277t274 -108zM1069 352
q169 0 274 108t105 277q0 177 -105 282t-278 105h-21v-772h25z" />
    <glyph glyph-name="Chi" unicode="&#x3a7;" horiz-adv-x="1435" 
d="M1415 0h-344l-356 530l-350 -530h-347l496 739l-481 713h344l342 -518l344 518h340l-479 -713z" />
    <glyph glyph-name="Psi" unicode="&#x3a8;" horiz-adv-x="1736" 
d="M1372 1452h289v-530q0 -285 -165.5 -444t-459.5 -159h-24v-319h-287v319h-25q-295 0 -460.5 159t-165.5 444v530h288v-528q0 -168 92 -261.5t257 -93.5h14v883h287v-883h12q166 0 257 93t91 262v528z" />
    <glyph glyph-name="uni03A9" unicode="&#x3a9;" horiz-adv-x="1697" 
d="M1614 793q0 -167 -78.5 -305t-192.5 -220h256v-268h-669v197q381 245 381 557q0 142 -63 245t-166 153t-232 50q-132 0 -235 -50t-164.5 -153t-61.5 -245q0 -314 379 -557v-197h-666v268h254q-114 82 -193 220t-79 305q0 133 38.5 245t108 192.5t165.5 137t210.5 84
t243.5 27.5q128 0 242 -27.5t210 -84t165.5 -137t108 -192.5t38.5 -245z" />
    <glyph glyph-name="Iotadieresis" unicode="&#x3aa;" horiz-adv-x="604" 
d="M78 1554q-71 0 -121.5 50t-50.5 122t50.5 122t121.5 50t120.5 -50t49.5 -122t-49.5 -122t-120.5 -50zM537 1554q-71 0 -120.5 50t-49.5 122t49.5 122t120.5 50t120.5 -50t49.5 -122t-49.5 -122t-120.5 -50zM154 0v1452h297v-1452h-297z" />
    <glyph glyph-name="Upsilondieresis" unicode="&#x3ab;" horiz-adv-x="1363" 
d="M455 1554q-71 0 -121.5 50t-50.5 122t50.5 122t121.5 50t120.5 -50t49.5 -122t-49.5 -122t-120.5 -50zM913 1554q-71 0 -120.5 50t-49.5 122t49.5 122t120.5 50t120.5 -50t49.5 -122t-49.5 -122t-120.5 -50zM1366 1452l-537 -948v-504h-294v504l-537 948h338l348 -657
l350 657h332z" />
    <glyph glyph-name="alphatonos" unicode="&#x3ac;" horiz-adv-x="1351" 
d="M563 1272l185 342l317 -25l-313 -317h-189zM614 -25q-246 0 -393 159t-147 427q0 266 145.5 425t382.5 159q95 0 187 -30t157 -93v96h279v-1118h-275v109q-111 -134 -336 -134zM676 229q85 0 159 37t115 111v371q-42 67 -119 105t-161 38q-137 0 -221 -87.5t-84 -242.5
q0 -154 84.5 -243t226.5 -89z" />
    <glyph glyph-name="epsilontonos" unicode="&#x3ad;" horiz-adv-x="1144" 
d="M471 1272l184 342l318 -25l-314 -317h-188zM1032 340l109 -231q-226 -134 -543 -134q-261 0 -393.5 76.5t-132.5 241.5q0 215 231 280q-92 36 -142 103.5t-50 161.5q0 86 39.5 148t108.5 96t150.5 49.5t178.5 15.5q290 0 508 -115l-99 -223q-171 86 -381 86
q-225 0 -225 -115q0 -46 48 -79t149 -33h231v-207h-248q-114 0 -166.5 -34t-52.5 -85q0 -117 275 -117q118 0 210.5 27t194.5 88z" />
    <glyph glyph-name="etatonos" unicode="&#x3ae;" horiz-adv-x="1306" 
d="M539 1272l184 342l317 -25l-313 -317h-188zM911 -360v958q0 160 -60 225.5t-175 65.5q-145 0 -258 -117v-772h-283v1118h273v-102q70 58 163.5 92.5t194.5 34.5q216 0 321 -110t105 -365v-1028h-281z" />
    <glyph glyph-name="iotatonos" unicode="&#x3af;" horiz-adv-x="557" 
d="M160 1272l184 342l318 -25l-314 -317h-188zM135 0v1118h287v-1118h-287z" />
    <glyph glyph-name="upsilondieresistonos" unicode="&#x3b0;" horiz-adv-x="1275" 
d="M535 1276l40 401l269 -43l-187 -358h-122zM309 1257q-71 0 -121.5 50.5t-50.5 122.5t50.5 122t121.5 50q69 0 118.5 -50t49.5 -122t-49.5 -122.5t-118.5 -50.5zM1006 1257q-72 0 -122 50.5t-50 122.5t50 122t122 50q69 0 118.5 -50t49.5 -122t-49.5 -122.5t-118.5 -50.5z
M639 -27q-269 0 -403 123t-134 375v647h283v-620q0 -140 63.5 -204.5t190.5 -64.5t189.5 64.5t62.5 204.5v620h283v-647q0 -252 -134 -375t-401 -123z" />
    <glyph glyph-name="alpha" unicode="&#x3b1;" horiz-adv-x="1351" 
d="M614 -25q-246 0 -393 159t-147 427q0 266 145.5 425t382.5 159q95 0 187 -30t157 -93v96h279v-1118h-275v109q-111 -134 -336 -134zM676 229q85 0 159 37t115 111v371q-42 67 -119 105t-161 38q-137 0 -221 -87.5t-84 -242.5q0 -154 84.5 -243t226.5 -89z" />
    <glyph glyph-name="beta" unicode="&#x3b2;" horiz-adv-x="1363" 
d="M1034 854q133 -39 204 -146.5t71 -256.5q0 -117 -41 -209.5t-112.5 -150t-164 -87t-200.5 -29.5q-112 0 -218.5 35.5t-164.5 104.5v-475h-279v1388q0 282 145.5 417.5t403.5 135.5q232 0 382 -112.5t150 -297.5q0 -103 -45.5 -186.5t-130.5 -130.5zM682 1341
q-148 0 -211 -84t-63 -241v-76h260q51 0 94.5 9t84.5 30t65 61.5t24 96.5q0 97 -73.5 150.5t-180.5 53.5zM748 229q125 0 196.5 62t71.5 182q0 112 -75.5 175t-229.5 63h-303v-320q48 -77 142.5 -119.5t197.5 -42.5z" />
    <glyph glyph-name="gamma" unicode="&#x3b3;" horiz-adv-x="1257" 
d="M940 1118h309l-479 -1126v-352h-283v358l-479 1120h311l209 -524l105 -275l104 277z" />
    <glyph glyph-name="delta" unicode="&#x3b4;" horiz-adv-x="1372" 
d="M1071 1028q229 -208 229 -489q0 -253 -168 -409.5t-440 -156.5q-179 0 -318.5 69t-219.5 200.5t-80 306.5q0 241 149.5 384.5t401.5 143.5h16q-189 154 -428 326v149h999v-237h-548q95 -56 221 -144.5t186 -142.5zM692 233q141 0 229.5 86.5t88.5 221.5q0 170 -148 297
q-90 22 -164 22q-147 0 -239 -78.5t-92 -224.5q0 -145 91.5 -234.5t233.5 -89.5z" />
    <glyph glyph-name="epsilon" unicode="&#x3b5;" horiz-adv-x="1144" 
d="M1032 340l109 -231q-226 -134 -543 -134q-261 0 -393.5 76.5t-132.5 241.5q0 215 231 280q-92 36 -142 103.5t-50 161.5q0 86 39.5 148t108.5 96t150.5 49.5t178.5 15.5q290 0 508 -115l-99 -223q-171 86 -381 86q-225 0 -225 -115q0 -46 48 -79t149 -33h231v-207h-248
q-114 0 -166.5 -34t-52.5 -85q0 -117 275 -117q118 0 210.5 27t194.5 88z" />
    <glyph glyph-name="zeta" unicode="&#x3b6;" horiz-adv-x="1132" 
d="M1118 1409q-144 -96 -246 -170.5t-206.5 -164.5t-168 -167.5t-103.5 -165t-40 -172.5q0 -123 69.5 -177.5t258.5 -80.5q237 -37 335.5 -111t98.5 -220q0 -167 -117 -264t-346 -97h-28v211q221 0 221 104q0 51 -56.5 76.5t-211.5 42.5q-255 29 -382.5 133.5t-127.5 313.5
q0 105 30.5 204t79.5 178.5t125.5 160t152.5 143t177 133.5h-488v233h973v-143z" />
    <glyph glyph-name="eta" unicode="&#x3b7;" horiz-adv-x="1306" 
d="M911 -360v958q0 160 -60 225.5t-175 65.5q-145 0 -258 -117v-772h-283v1118h273v-102q70 58 163.5 92.5t194.5 34.5q216 0 321 -110t105 -365v-1028h-281z" />
    <glyph glyph-name="theta" unicode="&#x3b8;" horiz-adv-x="1331" 
d="M666 1581q291 0 446.5 -213.5t155.5 -601.5q0 -384 -152 -586.5t-450 -202.5q-300 0 -451.5 202t-151.5 587q0 389 155.5 602t447.5 213zM666 1329q-153 0 -234 -121t-86 -327h639q-6 207 -86 327.5t-233 120.5zM666 229q80 0 140 31t97.5 89t57 134.5t22.5 173.5h-637
q8 -200 85.5 -314t234.5 -114z" />
    <glyph glyph-name="iota" unicode="&#x3b9;" horiz-adv-x="557" 
d="M135 0v1118h287v-1118h-287z" />
    <glyph glyph-name="kappa" unicode="&#x3ba;" horiz-adv-x="1277" 
d="M932 0l-295 483l-219 -215v-268h-283v1118h283v-514l475 514h348l-399 -438l411 -680h-321z" />
    <glyph glyph-name="lambda" unicode="&#x3bb;" horiz-adv-x="1286" 
d="M1280 0h-315l-283 791l-338 -791h-313l530 1116l-6 14q-40 109 -94 158t-150 49q-64 0 -139 -20v244q77 18 174 18q98 0 165 -15t122.5 -55t96.5 -105.5t81 -170.5z" />
    <glyph glyph-name="uni03BC" unicode="&#x3bc;" horiz-adv-x="1312" 
d="M899 1118h281v-1118h-269v115q-120 -140 -297 -140q-126 0 -202 76v-411h-281v1478h281v-598q0 -159 59.5 -225t165.5 -66q153 0 262 129v760z" />
    <glyph glyph-name="nu" unicode="&#x3bd;" horiz-adv-x="1234" 
d="M915 1118h312l-527 -1124h-163l-529 1124h322l192 -461l99 -258l98 254z" />
    <glyph glyph-name="xi" unicode="&#x3be;" horiz-adv-x="1128" 
d="M688 305q165 -13 261 -54t134.5 -105.5t38.5 -165.5q0 -167 -117 -264t-346 -97h-28v211q221 0 221 104q0 36 -23 57t-84.5 35t-175.5 21q-267 18 -389.5 105t-122.5 272q0 146 90 247t244 142q-221 63 -221 246q0 87 51 156t133 104h-262v233h991v-231h-211
q-215 0 -315 -47t-100 -154q0 -29 8 -52.5t21 -41.5t37.5 -31.5t48 -23t62 -15.5t71 -9.5t84 -5.5t91 -2.5t101.5 -0.5v-229h-174q-168 0 -271 -25t-147.5 -72t-44.5 -120q0 -59 29 -95t104.5 -59t210.5 -33z" />
    <glyph glyph-name="omicron" unicode="&#x3bf;" horiz-adv-x="1378" 
d="M690 -25q-278 0 -447 159.5t-169 426.5q0 263 169.5 422.5t446.5 159.5q276 0 444.5 -159.5t168.5 -422.5q0 -267 -168 -426.5t-445 -159.5zM690 233q143 0 232.5 90t89.5 238q0 146 -89.5 235t-232.5 89q-145 0 -234 -89t-89 -235q0 -149 89 -238.5t234 -89.5z" />
    <glyph glyph-name="pi" unicode="&#x3c0;" horiz-adv-x="1323" 
d="M1192 1118v-1118h-283v864h-495v-864h-283v1118h1061z" />
    <glyph glyph-name="rho" unicode="&#x3c1;" horiz-adv-x="1341" 
d="M102 -360v925q0 275 154.5 426.5t425.5 151.5q274 0 429 -159.5t155 -430.5q0 -269 -146.5 -423.5t-396.5 -154.5q-102 0 -192 34.5t-150 105.5v-475h-279zM668 229q150 0 228.5 85.5t78.5 238.5q0 159 -81.5 246.5t-219.5 87.5q-137 0 -217 -88.5t-80 -247.5v-160
q49 -82 128.5 -122t162.5 -40z" />
    <glyph glyph-name="uni03C2" unicode="&#x3c2;" horiz-adv-x="1169" 
d="M623 -381v211q221 0 221 104q0 47 -53.5 71t-188.5 52q-536 114 -536 531q0 251 151.5 403t423.5 152q166 0 297.5 -59t206.5 -162l-197 -174q-43 64 -121.5 101.5t-173.5 37.5q-136 0 -215.5 -75.5t-79.5 -197.5q0 -56 17.5 -101t45.5 -76t74 -56.5t93 -41.5t112 -32
q88 -23 146 -42.5t113.5 -46.5t86.5 -59t49.5 -76.5t18.5 -102.5q0 -167 -117 -264t-346 -97h-28z" />
    <glyph glyph-name="sigma" unicode="&#x3c3;" horiz-adv-x="1368" 
d="M1329 1118v-254h-201q72 -65 114 -162t42 -202q0 -244 -166.5 -385.5t-431.5 -141.5q-274 0 -443 159t-169 425q0 263 163.5 412t438.5 149h653zM686 231q141 0 228 87t87 229q0 119 -56.5 205.5t-121.5 121.5h-137q-147 0 -235.5 -85t-88.5 -232q0 -146 89 -236t235 -90
z" />
    <glyph glyph-name="tau" unicode="&#x3c4;" horiz-adv-x="1062" 
d="M1022 1118v-254h-350v-864h-281v864h-350v254h981z" />
    <glyph glyph-name="upsilon" unicode="&#x3c5;" horiz-adv-x="1275" 
d="M639 -27q-269 0 -403 123t-134 375v647h283v-620q0 -140 63.5 -204.5t190.5 -64.5t189.5 64.5t62.5 204.5v620h283v-647q0 -252 -134 -375t-401 -123z" />
    <glyph glyph-name="phi" unicode="&#x3c6;" horiz-adv-x="1716" 
d="M1642 555q0 -269 -173 -423t-470 -159v-333h-282v333q-297 5 -470 159t-173 423q0 271 170 427.5t473 160.5v225h282v-225q303 -4 473 -160.5t170 -427.5zM362 561q0 -100 36 -174t119 -119.5t208 -46.5v674q-93 -1 -165 -28.5t-114 -75t-63 -105.5t-21 -125zM991 221
q186 1 274.5 93t88.5 247q0 67 -20.5 125t-62.5 105.5t-114 75t-166 28.5v-674z" />
    <glyph glyph-name="chi" unicode="&#x3c7;" horiz-adv-x="1267" 
d="M1260 -360h-318l-315 538l-308 -538h-311l447 763l-432 715h323l283 -516l291 516h321l-436 -710z" />
    <glyph glyph-name="psi" unicode="&#x3c8;" horiz-adv-x="1650" 
d="M684 -360v344h-31q-270 0 -410.5 133.5t-140.5 392.5v608h279v-600q0 -140 70.5 -210t205.5 -70h33v1130h271v-1130h32q279 0 279 278v602h276v-608q0 -259 -140.5 -392.5t-410.5 -133.5h-30v-344h-283z" />
    <glyph glyph-name="omega" unicode="&#x3c9;" horiz-adv-x="1773" 
d="M1163 1137q87 -2 166.5 -28t147 -76.5t116.5 -122t77 -170t28 -214.5q0 -252 -119.5 -402.5t-335.5 -150.5q-139 0 -228 63t-128 163q-40 -100 -130 -163t-227 -63q-217 0 -336.5 150t-119.5 403q0 145 42.5 261.5t116 191t169 115t206.5 43.5v-256
q-108 -22 -175.5 -111.5t-67.5 -239.5q0 -129 54.5 -214t149.5 -85q65 0 109 44.5t62 109.5t18 145v179h256v-179q0 -80 17.5 -144.5t62 -109.5t110.5 -45q95 0 149 85t54 214q0 149 -68.5 239t-175.5 112v256z" />
    <glyph glyph-name="iotadieresis" unicode="&#x3ca;" horiz-adv-x="557" 
d="M53 1257q-72 0 -122 50.5t-50 122.5t50 122t122 50q69 0 118.5 -50t49.5 -122t-49.5 -122.5t-118.5 -50.5zM512 1257q-71 0 -121.5 50.5t-50.5 122.5t50.5 122t121.5 50q69 0 118.5 -50t49.5 -122t-49.5 -122.5t-118.5 -50.5zM135 0v1118h287v-1118h-287z" />
    <glyph glyph-name="upsilondieresis" unicode="&#x3cb;" horiz-adv-x="1275" 
d="M408 1257q-72 0 -122 50.5t-50 122.5t50 122t122 50q69 0 118 -50t49 -122t-49 -122.5t-118 -50.5zM866 1257q-71 0 -121.5 50.5t-50.5 122.5t50.5 122t121.5 50q69 0 118.5 -50t49.5 -122t-49.5 -122.5t-118.5 -50.5zM639 -27q-269 0 -403 123t-134 375v647h283v-620
q0 -140 63.5 -204.5t190.5 -64.5t189.5 64.5t62.5 204.5v620h283v-647q0 -252 -134 -375t-401 -123z" />
    <glyph glyph-name="omicrontonos" unicode="&#x3cc;" horiz-adv-x="1378" 
d="M571 1272l185 342l317 -25l-313 -317h-189zM690 -25q-278 0 -447 159.5t-169 426.5q0 263 169.5 422.5t446.5 159.5q276 0 444.5 -159.5t168.5 -422.5q0 -267 -168 -426.5t-445 -159.5zM690 233q143 0 232.5 90t89.5 238q0 146 -89.5 235t-232.5 89q-145 0 -234 -89
t-89 -235q0 -149 89 -238.5t234 -89.5z" />
    <glyph glyph-name="upsilontonos" unicode="&#x3cd;" horiz-adv-x="1275" 
d="M514 1272l184 342l318 -25l-314 -317h-188zM639 -27q-269 0 -403 123t-134 375v647h283v-620q0 -140 63.5 -204.5t190.5 -64.5t189.5 64.5t62.5 204.5v620h283v-647q0 -252 -134 -375t-401 -123z" />
    <glyph glyph-name="omegatonos" unicode="&#x3ce;" horiz-adv-x="1773" 
d="M766 1272l184 342l318 -25l-314 -317h-188zM1163 1137q87 -2 166.5 -28t147 -76.5t116.5 -122t77 -170t28 -214.5q0 -252 -119.5 -402.5t-335.5 -150.5q-139 0 -228 63t-128 163q-40 -100 -130 -163t-227 -63q-217 0 -336.5 150t-119.5 403q0 145 42.5 261.5t116 191
t169 115t206.5 43.5v-256q-108 -22 -175.5 -111.5t-67.5 -239.5q0 -129 54.5 -214t149.5 -85q65 0 109 44.5t62 109.5t18 145v179h256v-179q0 -80 17.5 -144.5t62 -109.5t110.5 -45q95 0 149 85t54 214q0 149 -68.5 239t-175.5 112v256z" />
    <glyph glyph-name="uni0400" unicode="&#x400;" horiz-adv-x="1298" 
d="M768 1565h-199l-370 317l315 25zM139 0v1452h1055v-262h-774v-350h651v-248h-651v-332h807v-260h-1088z" />
    <glyph glyph-name="uni0401" unicode="&#x401;" horiz-adv-x="1298" 
d="M424 1591q-72 0 -122 50t-50 122t50 122t122 50q69 0 118.5 -50t49.5 -122t-49.5 -122t-118.5 -50zM883 1591q-71 0 -121.5 50t-50.5 122t50.5 122t121.5 50q69 0 118.5 -50t49.5 -122t-49.5 -122t-118.5 -50zM139 0v1452h1055v-262h-774v-350h651v-248h-651v-332h807
v-260h-1088z" />
    <glyph glyph-name="uni0402" unicode="&#x402;" horiz-adv-x="1683" 
d="M1124 926q256 0 390.5 -120.5t134.5 -340.5q0 -249 -140 -360t-424 -111q-67 0 -96 6v231q25 -2 68 -2q293 0 293 215q0 228 -285 228q-186 0 -340 -47v-625h-289v1180h-407v272h1261v-272h-565v-308q181 54 399 54z" />
    <glyph glyph-name="uni0403" unicode="&#x403;" horiz-adv-x="1214" 
d="M498 1565l254 342l317 -25l-373 -317h-198zM139 0v1452h1043v-272h-750v-1180h-293z" />
    <glyph glyph-name="uni0404" unicode="&#x404;" horiz-adv-x="1550" 
d="M1276 428l223 -192q-108 -131 -260.5 -198t-380.5 -67q-233 0 -407 89.5t-269.5 262t-95.5 408.5q0 348 208 548t556 200q425 0 643 -269l-223 -192q-61 87 -169.5 139.5t-248.5 52.5q-190 0 -315 -98.5t-154 -282.5h731v-237h-723q34 -173 157 -260.5t310 -87.5
q285 0 418 184z" />
    <glyph glyph-name="uni0405" unicode="&#x405;" horiz-adv-x="1284" 
d="M686 -29q-185 0 -324 31.5t-296 103.5l110 250q264 -127 496 -127q123 0 189.5 44.5t66.5 129.5q0 80 -71 119.5t-236 71.5q-103 20 -178.5 42.5t-146 58t-114.5 81t-70 112t-26 150.5q0 203 140 322t405 119q316 0 547 -113l-121 -244q-213 95 -424 95
q-119 0 -183.5 -45t-64.5 -115q0 -28 10 -51t33.5 -41t49 -32t71.5 -27.5t85.5 -23.5t104.5 -24q94 -19 162 -40t133.5 -55.5t106.5 -78.5t65.5 -109.5t24.5 -148.5q0 -224 -138 -339.5t-407 -115.5z" />
    <glyph glyph-name="uni0406" unicode="&#x406;" horiz-adv-x="604" 
d="M154 0v1452h297v-1452h-297z" />
    <glyph glyph-name="uni0407" unicode="&#x407;" horiz-adv-x="604" 
d="M78 1591q-72 0 -122 50t-50 122t50 122t122 50q69 0 118.5 -50t49.5 -122t-49.5 -122t-118.5 -50zM537 1591q-71 0 -121.5 50t-50.5 122t50.5 122t121.5 50q69 0 118.5 -50t49.5 -122t-49.5 -122t-118.5 -50zM154 0v1452h297v-1452h-297z" />
    <glyph glyph-name="uni0408" unicode="&#x408;" horiz-adv-x="1265" 
d="M590 -29q-254 0 -406 147t-159 410h286q4 -77 28 -133.5t64 -88.5t86.5 -47t102.5 -15q126 0 193 78.5t67 257.5v872h293v-872q0 -318 -136.5 -463.5t-418.5 -145.5z" />
    <glyph glyph-name="uni0409" unicode="&#x409;" horiz-adv-x="2349" 
d="M1729 1026q287 0 436 -128.5t149 -375.5q0 -522 -618 -522h-568v1184h-507v-541q0 -153 -22 -267.5t-60.5 -186.5t-97 -116.5t-124 -61.5t-149.5 -17q-88 0 -131 6v256q31 -2 78 -2q118 0 168.5 102.5t50.5 327.5v768h1081v-426h314zM1686 256q329 0 329 258
q0 129 -74.5 193.5t-232.5 64.5h-293v-516h271z" />
    <glyph glyph-name="uni040A" unicode="&#x40a;" horiz-adv-x="2312" 
d="M139 0v1452h289v-621h645v621h289v-453h330q286 0 435.5 -125.5t149.5 -367.5q0 -506 -618 -506h-586v563h-645v-563h-289zM1362 256h287q167 0 248 62.5t81 179.5q0 127 -75.5 186t-231.5 59h-309v-487z" />
    <glyph glyph-name="uni040B" unicode="&#x40b;" horiz-adv-x="1689" 
d="M1049 926q102 0 186 -16.5t157 -55.5t123 -100.5t78.5 -156.5t28.5 -218v-379h-287v362q0 91 -21.5 153t-64 95.5t-96 47.5t-127.5 14q-158 0 -301 -41v-631h-289v1180h-407v272h1261v-272h-565v-299q154 45 324 45z" />
    <glyph glyph-name="uni040C" unicode="&#x40c;" horiz-adv-x="1441" 
d="M604 1565l254 342l318 -25l-373 -317h-199zM1434 0h-379l-627 678v-678h-289v1452h289v-678l571 678h365l-619 -707z" />
    <glyph glyph-name="uni040D" unicode="&#x40d;" horiz-adv-x="1579" 
d="M907 1565h-198l-371 317l315 25zM1290 1460h152v-1460h-289v918l-860 -926h-154v1460h289v-920z" />
    <glyph glyph-name="uni040E" unicode="&#x40e;" horiz-adv-x="1398" 
d="M702 1565q-164 0 -263 85t-103 244h180q33 -131 186 -131q156 0 185 131h184q-6 -161 -105.5 -245t-263.5 -84zM1071 1452h328l-533 -1081q-42 -87 -77.5 -146t-80.5 -110.5t-94.5 -81t-114 -46t-145.5 -16.5q-68 0 -151 13v256q74 -9 100 -9q89 0 148 29t112 111
l-563 1081h334l278 -575l93 -215l92 217z" />
    <glyph glyph-name="uni040F" unicode="&#x40f;" horiz-adv-x="1515" 
d="M1376 1452v-1452h-485v-340h-264v340h-488v1452h289v-1184h662v1184h286z" />
    <glyph glyph-name="uni0410" unicode="&#x410;" horiz-adv-x="1538" 
d="M1212 0l-127 276h-634l-125 -276h-316l664 1458h188l666 -1458h-316zM768 1075l-111 -297l-108 -258h440l-108 258z" />
    <glyph glyph-name="uni0411" unicode="&#x411;" horiz-adv-x="1390" 
d="M801 905q277 0 414 -112t137 -328q0 -237 -144 -351t-440 -114h-629v1452h1086v-258h-797v-289h373zM758 246q157 0 226 54.5t69 158.5q0 106 -64.5 155.5t-206.5 49.5h-354v-418h330z" />
    <glyph glyph-name="uni0412" unicode="&#x412;" horiz-adv-x="1427" 
d="M1069 778q142 -30 225.5 -121.5t83.5 -230.5q0 -210 -132 -318t-412 -108h-695v1452h652q232 0 354.5 -92t122.5 -264q0 -122 -52.5 -202.5t-146.5 -115.5zM428 1202v-354h334q115 0 170 45.5t55 138.5q0 83 -55.5 126.5t-155.5 43.5h-348zM836 252q243 0 243 184
q0 87 -67.5 133.5t-204.5 46.5h-379v-364h408z" />
    <glyph glyph-name="uni0413" unicode="&#x413;" horiz-adv-x="1214" 
d="M139 0v1452h1043v-272h-750v-1180h-293z" />
    <glyph glyph-name="uni0414" unicode="&#x414;" horiz-adv-x="1718" 
d="M1663 268v-608h-264v340h-1088v-340h-264v608h152q120 103 120 490v694h1106v-1184h238zM502 268h635v916h-529v-447q0 -335 -106 -469z" />
    <glyph glyph-name="uni0415" unicode="&#x415;" horiz-adv-x="1298" 
d="M139 0v1452h1055v-262h-774v-350h651v-248h-651v-332h807v-260h-1088z" />
    <glyph glyph-name="uni0416" unicode="&#x416;" horiz-adv-x="2246" 
d="M2238 0h-378l-594 676v-676h-285v680l-606 -680h-367l654 735l-609 717h377l551 -682v682h285v-684l555 684h358l-598 -709z" />
    <glyph glyph-name="uni0417" unicode="&#x417;" horiz-adv-x="1384" 
d="M1014 758q140 -29 229.5 -120.5t89.5 -227.5q0 -216 -162.5 -327.5t-468.5 -111.5q-243 0 -397.5 66t-255.5 194l207 193q116 -201 457 -201q156 0 238.5 52.5t82.5 154.5q0 81 -79 130.5t-242 49.5h-262v224h229q129 0 207 55t78 145q0 95 -82.5 144t-223.5 49
q-246 0 -362 -197l-209 189q101 127 239 193.5t347 66.5q275 0 424 -100t149 -285q0 -127 -64 -213t-169 -123z" />
    <glyph glyph-name="uni0418" unicode="&#x418;" horiz-adv-x="1579" 
d="M1290 1460h152v-1460h-289v918l-860 -926h-154v1460h289v-920z" />
    <glyph glyph-name="uni0419" unicode="&#x419;" horiz-adv-x="1579" 
d="M791 1565q-164 0 -263.5 85t-103.5 244h180q33 -131 187 -131q155 0 184 131h184q-6 -161 -105 -245t-263 -84zM1290 1460h152v-1460h-289v918l-860 -926h-154v1460h289v-920z" />
    <glyph glyph-name="uni041A" unicode="&#x41a;" horiz-adv-x="1441" 
d="M1434 0h-379l-627 678v-678h-289v1452h289v-678l571 678h365l-619 -707z" />
    <glyph glyph-name="uni041B" unicode="&#x41b;" horiz-adv-x="1583" 
d="M168 -6q-88 0 -131 6v256q31 -2 78 -2q118 0 168.5 102.5t50.5 327.5v768h1112v-1452h-289v1184h-536v-541q0 -153 -22 -267.5t-60.5 -186.5t-97 -116.5t-124 -61.5t-149.5 -17z" />
    <glyph glyph-name="uni041C" unicode="&#x41c;" horiz-adv-x="1794" 
d="M1503 1458h154v-1458h-285v819l-420 -569h-108l-422 565v-815h-283v1458h152l608 -825z" />
    <glyph glyph-name="uni041D" unicode="&#x41d;" horiz-adv-x="1519" 
d="M139 0v1452h289v-649h666v649h286v-1452h-286v535h-666v-535h-289z" />
    <glyph glyph-name="uni041E" unicode="&#x41e;" horiz-adv-x="1730" 
d="M864 -29q-225 0 -401.5 93t-276.5 265t-100 396q0 164 56 304t156.5 240t246.5 156t319 56q226 0 404 -93.5t278.5 -266t100.5 -396.5q0 -163 -56.5 -303t-158 -239.5t-248 -155.5t-320.5 -56zM864 244q212 0 345.5 132t133.5 349q0 214 -131.5 348.5t-347.5 134.5
q-209 0 -343 -133t-134 -350q0 -212 131.5 -346.5t345.5 -134.5z" />
    <glyph glyph-name="uni041F" unicode="&#x41f;" horiz-adv-x="1517" 
d="M139 0v1452h1239v-1452h-286v1184h-664v-1184h-289z" />
    <glyph glyph-name="uni0420" unicode="&#x420;" horiz-adv-x="1343" 
d="M717 1452q289 0 438.5 -133t149.5 -389q0 -537 -619 -537h-258v-393h-289v1452h578zM676 647q167 0 248.5 71.5t81.5 203.5q0 137 -75 204.5t-233 67.5h-270v-547h248z" />
    <glyph glyph-name="uni0421" unicode="&#x421;" horiz-adv-x="1527" 
d="M844 -29q-227 0 -398.5 91.5t-265.5 264t-94 404.5q0 347 206 547.5t552 200.5q205 0 366 -73.5t269 -205.5l-226 -190q-64 90 -167 142t-234 52q-211 0 -338 -127t-127 -346q0 -223 127 -354t338 -131q131 0 234 51.5t167 140.5l226 -190q-226 -277 -635 -277z" />
    <glyph glyph-name="uni0422" unicode="&#x422;" horiz-adv-x="1318" 
d="M512 0v1180h-463v272h1221v-272h-463v-1180h-295z" />
    <glyph glyph-name="uni0423" unicode="&#x423;" horiz-adv-x="1398" 
d="M1071 1452h328l-533 -1081q-42 -87 -77.5 -146t-80.5 -110.5t-94.5 -81t-114 -46t-145.5 -16.5q-68 0 -151 13v256q74 -9 100 -9q89 0 148 29t112 111l-563 1081h334l278 -575l93 -215l92 217z" />
    <glyph glyph-name="uni0424" unicode="&#x424;" horiz-adv-x="1810" 
d="M1065 1366q304 0 491 -171t187 -458q0 -184 -82 -326t-239 -222t-367 -80h-11v-144h-278v144h-10q-314 0 -501 167.5t-187 460.5q0 285 180 457t497 172h21v133h278v-133h21zM743 352h23v772h-21q-173 0 -276.5 -104.5t-103.5 -282.5q0 -169 104 -277t274 -108zM1069 352
q169 0 274 108t105 277q0 177 -105 282t-278 105h-21v-772h25z" />
    <glyph glyph-name="uni0425" unicode="&#x425;" horiz-adv-x="1435" 
d="M1415 0h-344l-356 530l-350 -530h-347l496 739l-481 713h344l342 -518l344 518h340l-479 -713z" />
    <glyph glyph-name="uni0426" unicode="&#x426;" horiz-adv-x="1609" 
d="M1595 268v-608h-264v340h-1192v1452h289v-1184h641v1184h289v-1184h237z" />
    <glyph glyph-name="uni0427" unicode="&#x427;" horiz-adv-x="1409" 
d="M983 1452h289v-1452h-289v489q-139 -43 -313 -43q-127 0 -232.5 31t-190 96t-132 178t-47.5 265v436h286v-422q0 -88 26 -152t74.5 -100.5t109 -53.5t136.5 -17q162 0 283 38v707z" />
    <glyph glyph-name="uni0428" unicode="&#x428;" horiz-adv-x="2191" 
d="M139 0v1452h289v-1184h522v1184h289v-1184h524v1184h289v-1452h-1913z" />
    <glyph glyph-name="uni0429" unicode="&#x429;" horiz-adv-x="2304" 
d="M2290 268v-608h-265v340h-1886v1452h289v-1184h522v1184h289v-1184h524v1184h289v-1184h238z" />
    <glyph glyph-name="uni042A" unicode="&#x42a;" horiz-adv-x="1654" 
d="M436 0v1180h-407v272h694v-426h311q289 0 438.5 -128t149.5 -376q0 -522 -618 -522h-568zM725 256h268q330 0 330 258q0 129 -74.5 193.5t-232.5 64.5h-291v-516z" />
    <glyph glyph-name="uni042B" unicode="&#x42b;" horiz-adv-x="1927" 
d="M139 0v1452h289v-426h299q289 0 438.5 -128t149.5 -376q0 -522 -619 -522h-557zM1493 0v1452h295v-1452h-295zM428 256h258q330 0 330 258q0 129 -74.5 193.5t-232.5 64.5h-281v-516z" />
    <glyph glyph-name="uni042C" unicode="&#x42c;" horiz-adv-x="1359" 
d="M139 0v1452h289v-426h311q287 0 436.5 -128.5t149.5 -375.5q0 -522 -618 -522h-568zM428 256h268q330 0 330 258q0 129 -74.5 193.5t-232.5 64.5h-291v-516z" />
    <glyph glyph-name="uni042D" unicode="&#x42d;" horiz-adv-x="1550" 
d="M700 1479q348 0 556 -200t208 -548q0 -236 -95.5 -408.5t-269.5 -262t-407 -89.5q-228 0 -380.5 67t-260.5 198l223 192q133 -184 418 -184q187 0 310 87.5t157 260.5h-723v237h731q-29 184 -154 282.5t-315 98.5q-139 0 -247.5 -52.5t-169.5 -139.5l-224 192
q218 269 643 269z" />
    <glyph glyph-name="uni042E" unicode="&#x42e;" horiz-adv-x="2310" 
d="M1456 1481q225 0 401.5 -93.5t276.5 -266t100 -396.5q0 -164 -56 -303.5t-156.5 -239t-246.5 -155.5t-319 -56q-289 0 -494 154t-262 416h-280v-541h-289v1452h289v-647h266q27 302 236 489t534 187zM1456 244q209 0 342 132t133 349q0 214 -130.5 348.5t-344.5 134.5
q-206 0 -338.5 -133t-132.5 -350q0 -213 129.5 -347t341.5 -134z" />
    <glyph glyph-name="uni042F" unicode="&#x42f;" horiz-adv-x="1406" 
d="M629 1452h641v-1452h-289v414h-272q-42 0 -60 2l-268 -416h-338l319 475q-270 120 -270 459q0 253 135 385.5t402 132.5zM717 662h264v532h-291q-153 0 -223 -67t-70 -199q0 -127 78 -196.5t242 -69.5z" />
    <glyph glyph-name="uni0430" unicode="&#x430;" horiz-adv-x="1351" 
d="M614 -25q-246 0 -393 159t-147 427q0 266 145.5 425t382.5 159q95 0 187 -30t157 -93v96h279v-1118h-275v109q-111 -134 -336 -134zM676 229q85 0 159 37t115 111v371q-42 67 -119 105t-161 38q-137 0 -221 -87.5t-84 -242.5q0 -154 84.5 -243t226.5 -89z" />
    <glyph glyph-name="uni0431" unicode="&#x431;" horiz-adv-x="1392" 
d="M766 1075q261 0 406 -141.5t145 -386.5q0 -258 -167.5 -415t-438.5 -157q-297 0 -461 182t-164 525q0 112 7 202.5t25.5 182t49.5 161t80.5 132.5t117 105.5t160.5 70t209 35.5q305 20 457 51l27 -270q-147 -32 -424 -52q-218 -15 -311.5 -103.5t-118.5 -299.5
q66 83 172 130.5t229 47.5zM713 233q136 0 223.5 89.5t87.5 234.5q0 130 -84.5 211.5t-218.5 81.5q-106 0 -200 -66t-138 -188q9 -170 96 -266.5t234 -96.5z" />
    <glyph glyph-name="uni0432" unicode="&#x432;" horiz-adv-x="1265" 
d="M985 608q109 -27 170.5 -98.5t61.5 -181.5q0 -162 -107 -245t-344 -83h-631v1116h608q394 0 394 -272q0 -85 -39.5 -146.5t-112.5 -89.5zM412 889v-227h290q78 0 120 28t42 96q0 103 -151 103h-301zM764 229q86 0 127 28t41 87q0 58 -42 86.5t-140 28.5h-338v-230h352z
" />
    <glyph glyph-name="uni0433" unicode="&#x433;" horiz-adv-x="1042" 
d="M1004 1118v-254h-586v-864h-283v1118h869z" />
    <glyph glyph-name="uni0434" unicode="&#x434;" horiz-adv-x="1390" 
d="M1167 254h189v-557h-250v303h-842v-303h-250v557h95q66 35 97.5 165t31.5 324v375h929v-864zM401 252h494v616h-387v-188q0 -307 -107 -428z" />
    <glyph glyph-name="uni0435" unicode="&#x435;" horiz-adv-x="1280" 
d="M1231 559q0 -61 -2 -84h-869q23 -125 108 -192.5t222 -67.5q99 0 183.5 36.5t140.5 106.5l178 -151q-166 -230 -522 -230q-279 0 -437.5 158.5t-158.5 427.5q0 264 161.5 425t419.5 161q280 0 428 -161.5t148 -428.5zM655 913q-112 0 -190 -58t-103 -175h592
q-13 101 -87.5 167t-211.5 66z" />
    <glyph glyph-name="uni0436" unicode="&#x436;" horiz-adv-x="1908" 
d="M1894 0h-358l-442 492v-492h-281v496l-459 -496h-340l500 535l-489 583h346l442 -538v538h281v-547l454 547h334l-491 -571z" />
    <glyph glyph-name="uni0437" unicode="&#x437;" horiz-adv-x="1155" 
d="M877 580q233 -64 233 -277q0 -112 -70 -187t-189.5 -108t-287.5 -33q-178 0 -300.5 32t-235.5 102l106 247q105 -70 194.5 -100.5t207.5 -30.5q140 0 217 34t77 95q0 54 -50 80.5t-171 26.5h-260v205h213q101 0 150 33.5t49 78.5q0 58 -69.5 88.5t-168.5 30.5
q-87 0 -166 -23t-188 -71l-102 223q113 61 223 91t264 30q76 0 143.5 -9t131.5 -31.5t109.5 -56.5t73 -88.5t27.5 -123.5q0 -181 -161 -258z" />
    <glyph glyph-name="uni0438" unicode="&#x438;" horiz-adv-x="1343" 
d="M1059 1126h147v-1126h-268v651l-649 -659h-154v1126h271v-651z" />
    <glyph glyph-name="uni0439" unicode="&#x439;" horiz-adv-x="1343" 
d="M674 1272q-164 0 -263.5 84t-105.5 243h180q38 -131 189 -131t184 131h182q-6 -161 -104 -244t-262 -83zM1059 1126h147v-1126h-268v651l-649 -659h-154v1126h271v-651z" />
    <glyph glyph-name="uni043A" unicode="&#x43a;" horiz-adv-x="1263" 
d="M1239 0h-369l-456 494v-494h-279v1118h279v-545l473 545h342l-512 -571z" />
    <glyph glyph-name="uni043B" unicode="&#x43b;" horiz-adv-x="1343" 
d="M152 -6q-82 0 -123 6v246h61q102 0 141 78t39 233v561h936v-1118h-280v864h-383v-370q0 -139 -25.5 -236t-77.5 -155t-122 -83.5t-166 -25.5z" />
    <glyph glyph-name="uni043C" unicode="&#x43c;" horiz-adv-x="1544" 
d="M1264 1124h143v-1124h-262v592l-326 -420h-96l-326 420v-592h-262v1124h144l493 -624z" />
    <glyph glyph-name="uni043D" unicode="&#x43d;" horiz-adv-x="1339" 
d="M922 1118h282v-1118h-282v401h-504v-401h-283v1118h283v-479h504v479z" />
    <glyph glyph-name="uni043E" unicode="&#x43e;" horiz-adv-x="1378" 
d="M690 -25q-278 0 -447 159.5t-169 426.5q0 263 169.5 422.5t446.5 159.5q276 0 444.5 -159.5t168.5 -422.5q0 -267 -168 -426.5t-445 -159.5zM690 233q143 0 232.5 90t89.5 238q0 146 -89.5 235t-232.5 89q-145 0 -234 -89t-89 -235q0 -149 89 -238.5t234 -89.5z" />
    <glyph glyph-name="uni043F" unicode="&#x43f;" horiz-adv-x="1331" 
d="M1196 1118v-1118h-283v864h-495v-864h-283v1118h1061z" />
    <glyph glyph-name="uni0440" unicode="&#x440;" horiz-adv-x="1359" 
d="M135 -360v1478h279v-96q65 63 157 93t187 30q236 0 381 -158.5t145 -425.5q0 -268 -146.5 -427t-392.5 -159q-220 0 -331 134v-469h-279zM684 229q142 0 225.5 89t83.5 243q0 155 -83.5 242.5t-219.5 87.5q-84 0 -161 -38t-119 -105v-371q42 -74 115.5 -111t158.5 -37z
" />
    <glyph glyph-name="uni0441" unicode="&#x441;" horiz-adv-x="1222" 
d="M676 -23q-283 0 -442.5 158t-159.5 426q0 259 162 419.5t438 160.5q158 0 285 -59.5t202 -163.5l-196 -177q-42 63 -116.5 102.5t-160.5 39.5q-148 0 -237 -87.5t-89 -232.5q0 -150 88 -238.5t236 -88.5q93 0 169 40t120 101l192 -176q-77 -104 -204 -164t-287 -60z" />
    <glyph glyph-name="uni0442" unicode="&#x442;" horiz-adv-x="1062" 
d="M1022 1118v-254h-350v-864h-281v864h-350v254h981z" />
    <glyph glyph-name="uni0443" unicode="&#x443;" horiz-adv-x="1224" 
d="M913 1118h301l-458 -1130q-40 -100 -90 -172t-97 -112t-106 -62.5t-105.5 -28.5t-107.5 -6q-108 0 -182 24v244q92 -29 161 -29q88 0 149 35.5t103 116.5l-501 1120h315l317 -780z" />
    <glyph glyph-name="uni0444" unicode="&#x444;" horiz-adv-x="1716" 
d="M1642 555q0 -269 -173 -423t-470 -159v-333h-282v333q-297 5 -470 159t-173 423q0 271 170 427.5t473 160.5v409h282v-409q303 -4 473 -160.5t170 -427.5zM362 561q0 -100 36 -174t119 -119.5t208 -46.5v674q-93 -1 -165 -28.5t-114 -75t-63 -105.5t-21 -125zM991 221
q186 1 274.5 93t88.5 247q0 67 -20.5 125t-62.5 105.5t-114 75t-166 28.5v-674z" />
    <glyph glyph-name="uni0445" unicode="&#x445;" horiz-adv-x="1216" 
d="M1200 0h-328l-266 367l-266 -367h-324l410 573l-403 545h331l252 -352l256 352h332l-401 -540z" />
    <glyph glyph-name="uni0446" unicode="&#x446;" horiz-adv-x="1406" 
d="M1186 254h188v-557h-250v303h-989v1118h283v-864h485v864h283v-864z" />
    <glyph glyph-name="uni0447" unicode="&#x447;" horiz-adv-x="1232" 
d="M815 1118h283v-1118h-283v352q-123 -30 -248 -30q-108 0 -198 24.5t-163 77t-114 143.5t-41 213v338h281v-340q0 -121 74 -174t194 -53q118 0 215 29v538z" />
    <glyph glyph-name="uni0448" unicode="&#x448;" horiz-adv-x="1943" 
d="M135 0v1118h283v-864h413v864h281v-864h414v864h282v-1118h-1673z" />
    <glyph glyph-name="uni0449" unicode="&#x449;" horiz-adv-x="2029" 
d="M1808 254h189v-557h-250v303h-1612v1118h283v-864h413v864h281v-864h414v864h282v-864z" />
    <glyph glyph-name="uni044A" unicode="&#x44a;" horiz-adv-x="1425" 
d="M911 827q237 0 357.5 -103.5t120.5 -303.5q0 -216 -121 -318t-371 -102h-532v864h-324v254h606v-291h264zM885 233q211 0 211 183q0 180 -203 180h-252v-363h244z" />
    <glyph glyph-name="uni044B" unicode="&#x44b;" horiz-adv-x="1732" 
d="M135 0v1118h283v-291h264q237 0 357 -103.5t120 -303.5q0 -216 -120 -318t-369 -102h-535zM1311 0v1118h284v-1118h-284zM412 233h243q211 0 211 183q0 180 -202 180h-252v-363z" />
    <glyph glyph-name="uni044C" unicode="&#x44c;" horiz-adv-x="1198" 
d="M135 0v1118h283v-291h264q237 0 357 -103.5t120 -303.5q0 -216 -120 -318t-369 -102h-535zM412 233h243q211 0 211 183q0 180 -202 180h-252v-363z" />
    <glyph glyph-name="uni044D" unicode="&#x44d;" horiz-adv-x="1247" 
d="M575 1145q278 0 438.5 -160.5t160.5 -421.5q0 -269 -161 -426t-450 -157q-339 0 -506 219l189 172q48 -60 124.5 -99t176.5 -39q132 0 219.5 61t114.5 167h-488v203h488q-22 106 -107.5 165.5t-218.5 59.5q-90 0 -169.5 -38t-131.5 -103l-191 180q80 99 213 158t299 59z
" />
    <glyph glyph-name="uni044E" unicode="&#x44e;" horiz-adv-x="1912" 
d="M1231 1143q274 0 442 -159.5t168 -422.5q0 -267 -167.5 -426.5t-442.5 -159.5q-230 0 -389 114.5t-205 313.5h-225v-403h-283v1118h283v-483h211q25 232 190 370t418 138zM1231 233q142 0 229.5 90t87.5 238q0 146 -88 235t-229 89q-142 0 -231 -89.5t-89 -234.5
q0 -148 89 -238t231 -90z" />
    <glyph glyph-name="uni044F" unicode="&#x44f;" horiz-adv-x="1261" 
d="M586 1118h540v-1118h-282v326h-254l-209 -326h-307l239 367q-217 82 -217 346q0 208 120 306.5t370 98.5zM850 537v348h-250q-213 0 -213 -172q0 -176 203 -176h260z" />
    <glyph glyph-name="uni0450" unicode="&#x450;" horiz-adv-x="1280" 
d="M770 1274h-201l-370 317l317 25zM1231 559q0 -61 -2 -84h-869q23 -125 108 -192.5t222 -67.5q99 0 183.5 36.5t140.5 106.5l178 -151q-166 -230 -522 -230q-279 0 -437.5 158.5t-158.5 427.5q0 264 161.5 425t419.5 161q280 0 428 -161.5t148 -428.5zM655 913
q-112 0 -190 -58t-103 -175h592q-13 101 -87.5 167t-211.5 66z" />
    <glyph glyph-name="uni0451" unicode="&#x451;" horiz-adv-x="1280" 
d="M408 1262q-72 0 -122 50t-50 122t50 122t122 50q69 0 118 -50t49 -122t-49 -122t-118 -50zM866 1262q-71 0 -121.5 50t-50.5 122t50.5 122t121.5 50q69 0 118.5 -50t49.5 -122t-49.5 -122t-118.5 -50zM1231 559q0 -61 -2 -84h-869q23 -125 108 -192.5t222 -67.5
q99 0 183.5 36.5t140.5 106.5l178 -151q-166 -230 -522 -230q-279 0 -437.5 158.5t-158.5 427.5q0 264 161.5 425t419.5 161q280 0 428 -161.5t148 -428.5zM655 913q-112 0 -190 -58t-103 -175h592q-13 101 -87.5 167t-211.5 66z" />
    <glyph glyph-name="uni0452" unicode="&#x452;" horiz-adv-x="1277" 
d="M758 1083q106 0 187 -35.5t141 -112.5t91 -206.5t31 -308.5q0 -240 -62.5 -413t-193.5 -270t-321 -97v254q127 0 205.5 144.5t78.5 364.5q0 227 -60.5 326.5t-184.5 99.5q-146 0 -258 -116v-713h-283v1231h-209v213h209v108h281v-108h401v-213h-401v-275q151 127 348 127
z" />
    <glyph glyph-name="uni0453" unicode="&#x453;" horiz-adv-x="1042" 
d="M373 1208l254 342l317 -26l-371 -316h-200zM1004 1118v-254h-586v-864h-283v1118h869z" />
    <glyph glyph-name="uni0454" unicode="&#x454;" horiz-adv-x="1247" 
d="M1001 371l189 -172q-167 -219 -506 -219q-288 0 -449 157t-161 426q0 261 160 421.5t438 160.5q166 0 299 -59t213 -158l-191 -180q-52 65 -131.5 103t-169.5 38q-133 0 -218 -59.5t-107 -165.5h487v-203h-487q27 -106 114 -167t219 -61q100 0 176.5 39t124.5 99z" />
    <glyph glyph-name="uni0455" unicode="&#x455;" horiz-adv-x="1083" 
d="M541 -29q-261 0 -473 99l90 223q80 -48 179 -74t195 -26q195 0 195 118q0 50 -51.5 76t-196.5 59q-202 44 -299.5 122.5t-97.5 228.5q0 168 120 256t326 88q212 0 439 -88l-93 -226q-73 39 -170.5 62.5t-177.5 23.5q-164 0 -164 -96q0 -52 48 -78t194 -61
q212 -51 311 -125.5t99 -214.5q0 -188 -119.5 -277.5t-353.5 -89.5z" />
    <glyph glyph-name="uni0456" unicode="&#x456;" horiz-adv-x="557" 
d="M281 1255q-72 0 -123.5 51.5t-51.5 123.5t51.5 123t123.5 51q71 0 121.5 -51t50.5 -123t-50.5 -123.5t-121.5 -51.5zM135 0v1118h287v-1118h-287z" />
    <glyph glyph-name="uni0457" unicode="&#x457;" horiz-adv-x="557" 
d="M53 1257q-72 0 -122 50.5t-50 122.5t50 122t122 50q69 0 118.5 -50t49.5 -122t-49.5 -122.5t-118.5 -50.5zM512 1257q-71 0 -121.5 50.5t-50.5 122.5t50.5 122t121.5 50q69 0 118.5 -50t49.5 -122t-49.5 -122.5t-118.5 -50.5zM135 0v1118h287v-1118h-287z" />
    <glyph glyph-name="uni0458" unicode="&#x458;" horiz-adv-x="571" 
d="M299 1255q-72 0 -123 51.5t-51 123.5t51 123t123 51q71 0 121.5 -51t50.5 -123t-50.5 -123.5t-121.5 -51.5zM100 -389q-112 0 -168 18v234q47 -13 82 -13q38 0 63.5 10.5t40 27t22.5 48t10 63t2 83.5v1036h284v-1186q0 -165 -92 -243t-244 -78z" />
    <glyph glyph-name="uni0459" unicode="&#x459;" horiz-adv-x="1951" 
d="M1450 827q235 0 355 -103.5t120 -303.5q0 -216 -120 -318t-369 -102h-529v864h-368v-370q0 -139 -25.5 -236t-76.5 -155t-121 -83.5t-166 -25.5q-82 0 -125 6v246h63q102 0 141 78t39 233v561h922v-291h260zM1421 233q211 0 211 183q0 180 -202 180h-246v-363h237z" />
    <glyph glyph-name="uni045A" unicode="&#x45a;" horiz-adv-x="1957" 
d="M1464 819q471 0 471 -405q0 -212 -118.5 -313t-366.5 -101h-545v432h-493v-432h-283v1118h283v-448h493v448h281v-299h278zM1436 233q206 0 206 177q0 178 -196 178h-264v-355h254z" />
    <glyph glyph-name="uni045B" unicode="&#x45b;" horiz-adv-x="1300" 
d="M760 1083q216 0 321 -109.5t105 -363.5v-610h-281v539q0 160 -60 225t-175 65q-146 0 -258 -116v-713h-283v1231h-209v213h209v108h281v-108h401v-213h-401v-275q69 58 160 92.5t190 34.5z" />
    <glyph glyph-name="uni045C" unicode="&#x45c;" horiz-adv-x="1263" 
d="M512 1272l254 342l317 -27l-370 -315h-201zM1239 0h-369l-456 494v-494h-279v1118h279v-545l473 545h342l-512 -571z" />
    <glyph glyph-name="uni045D" unicode="&#x45d;" horiz-adv-x="1343" 
d="M807 1270h-201l-370 317l317 25zM1059 1126h147v-1126h-268v651l-649 -659h-154v1126h271v-651z" />
    <glyph glyph-name="uni045E" unicode="&#x45e;" horiz-adv-x="1224" 
d="M610 1272q-164 0 -263 84t-105 243h180q38 -131 188 -131q152 0 185 131h182q-6 -161 -104.5 -244t-262.5 -83zM913 1118h301l-458 -1130q-40 -100 -90 -172t-97 -112t-106 -62.5t-105.5 -28.5t-107.5 -6q-108 0 -182 24v244q92 -29 161 -29q88 0 149 35.5t103 116.5
l-501 1120h315l317 -780z" />
    <glyph glyph-name="uni045F" unicode="&#x45f;" horiz-adv-x="1320" 
d="M1186 1118v-1118h-402v-303h-249v303h-400v1118h283v-864h485v864h283z" />
    <glyph glyph-name="uni0462" unicode="&#x462;" horiz-adv-x="1648" 
d="M1092 866q273 0 398.5 -106t125.5 -314q0 -103 -28 -181t-77 -128t-122.5 -81t-156 -43.5t-185.5 -12.5h-644v1049h-374v251h374v152h287v-152h570v-251h-570v-183h402zM1032 242q140 0 212.5 45t72.5 149q0 112 -63.5 154.5t-198.5 42.5h-363v-391h340z" />
    <glyph glyph-name="uni0463" unicode="&#x463;" horiz-adv-x="1406" 
d="M922 729q226 0 336 -93t110 -269q0 -183 -111 -275t-350 -92h-579v864h-324v254h324v434h282v-434h437v-219h-437v-170h312zM883 223q196 0 196 154q0 70 -47 108.5t-137 38.5h-291v-301h279z" />
    <glyph glyph-name="uni0472" unicode="&#x472;" horiz-adv-x="1730" 
d="M864 1481q226 0 404 -93.5t278.5 -266t100.5 -396.5q0 -163 -56.5 -303t-158 -239.5t-248 -155.5t-320.5 -56q-225 0 -401.5 93t-276.5 265t-100 396q0 164 56 304t156.5 240t246.5 156t319 56zM864 1219q-189 0 -319.5 -106t-151.5 -290h944q-19 181 -148 288.5
t-325 107.5zM864 231q184 0 314.5 99t156.5 270h-940q29 -168 157 -268.5t312 -100.5z" />
    <glyph glyph-name="uni0473" unicode="&#x473;" horiz-adv-x="1378" 
d="M688 1149q276 0 445.5 -160.5t169.5 -425.5q0 -267 -169 -427.5t-446 -160.5q-275 0 -444.5 160.5t-169.5 427.5q0 264 169.5 425t444.5 161zM688 897q-117 0 -200 -62.5t-111 -170.5h624q-28 107 -112 170t-201 63zM688 227q116 0 200 63t113 171h-624
q28 -108 111.5 -171t199.5 -63z" />
    <glyph glyph-name="uni0474" unicode="&#x474;" horiz-adv-x="1507" 
d="M1354 1470q84 0 141 -8v-254h-80q-66 0 -112 -37.5t-84 -134.5l-416 -1044h-178l-617 1460h328l280 -725l97 -281l88 279l168 471q53 155 145.5 214.5t239.5 59.5z" />
    <glyph glyph-name="uni0475" unicode="&#x475;" horiz-adv-x="1288" 
d="M1128 1126q58 0 140 -8v-256q-29 2 -78 2q-66 0 -113 -38t-90 -134l-305 -698h-168l-506 1124h318l178 -444l94 -262l88 262l68 170q27 73 59 124.5t64.5 82t75 47.5t82 22.5t93.5 5.5z" />
    <glyph glyph-name="uni0490" unicode="&#x490;" horiz-adv-x="1214" 
d="M915 1804h267v-624h-750v-1180h-293v1452h776v352z" />
    <glyph glyph-name="uni0491" unicode="&#x491;" horiz-adv-x="1042" 
d="M752 1423h252v-559h-586v-864h-283v1118h617v305z" />
    <glyph glyph-name="uni0492" unicode="&#x492;" horiz-adv-x="1253" 
d="M1221 1180h-750v-387h412v-252h-412v-541h-293v541h-143v252h143v659h1043v-272z" />
    <glyph glyph-name="uni0493" unicode="&#x493;" horiz-adv-x="1081" 
d="M1042 864h-585v-282h389v-244h-389v-338h-283v338h-139v244h139v536h868v-254z" />
    <glyph glyph-name="uni049A" unicode="&#x49a;" horiz-adv-x="1482" 
d="M1466 268v-608h-264v340h-147l-627 678v-678h-289v1452h289v-678l571 678h365l-619 -707l441 -477h280z" />
    <glyph glyph-name="uni049B" unicode="&#x49b;" horiz-adv-x="1294" 
d="M997 254h271v-557h-250v303h-148l-456 494v-494h-279v1118h279v-545l473 545h342l-512 -571z" />
    <glyph glyph-name="uni04A2" unicode="&#x4a2;" horiz-adv-x="1632" 
d="M1618 268v-608h-264v340h-260v535h-666v-535h-289v1452h289v-649h666v649h286v-1184h238z" />
    <glyph glyph-name="uni04A3" unicode="&#x4a3;" horiz-adv-x="1425" 
d="M1204 254h189v-557h-250v303h-221v401h-504v-401h-283v1118h283v-479h504v479h282v-864z" />
    <glyph glyph-name="uni04AE" unicode="&#x4ae;" horiz-adv-x="1363" 
d="M1366 1452l-537 -948v-504h-294v504l-537 948h338l348 -657l350 657h332z" />
    <glyph glyph-name="uni04AF" unicode="&#x4af;" horiz-adv-x="1257" 
d="M940 1118h309l-479 -1126v-352h-283v358l-479 1120h311l209 -524l105 -275l104 277z" />
    <glyph glyph-name="uni04B0" unicode="&#x4b0;" horiz-adv-x="1363" 
d="M1366 1452l-465 -821h266v-252h-338v-379h-294v379h-334v252h262l-465 821h338l348 -657l350 657h332z" />
    <glyph glyph-name="uni04B1" unicode="&#x4b1;" horiz-adv-x="1257" 
d="M1249 1118l-372 -874h192v-244h-295l-4 -8v-352h-283v360h-299v244h195l-375 874h311l209 -524l105 -275l104 277l203 522h309z" />
    <glyph glyph-name="uni04BA" unicode="&#x4ba;" horiz-adv-x="1425" 
d="M768 1040q100 0 184.5 -16t161 -55.5t129.5 -101t84 -157t31 -218.5v-492h-289v477q0 89 -24.5 151.5t-71.5 96t-103.5 47.5t-130.5 14q-174 0 -311 -45v-741h-289v1452h289v-459q161 47 340 47z" />
    <glyph glyph-name="uni04BB" unicode="&#x4bb;" horiz-adv-x="1300" 
d="M129 0v1552h281v-536q69 58 160 92.5t190 34.5q216 0 321 -110t105 -365v-668h-281v598q0 160 -60 225.5t-175 65.5q-145 0 -258 -117v-772h-283z" />
    <glyph glyph-name="uni04D8" unicode="&#x4d8;" horiz-adv-x="1656" 
d="M799 1479q223 0 399 -92.5t275.5 -264.5t99.5 -397q0 -218 -94.5 -389.5t-266 -268t-389.5 -96.5q-214 0 -380 84.5t-261.5 249.5t-95.5 389q0 61 4 111h1180q-25 186 -150.5 293.5t-320.5 107.5q-133 0 -234 -58.5t-186 -168.5l-229 172q248 328 649 328zM821 233
q161 0 277 87t157 245h-864q30 -157 141 -244.5t289 -87.5z" />
    <glyph glyph-name="uni04D9" unicode="&#x4d9;" horiz-adv-x="1280" 
d="M49 559q0 61 2 84h869q-23 125 -108 192.5t-222 67.5q-99 0 -183.5 -36.5t-140.5 -106.5l-178 151q166 230 522 230q279 0 437.5 -158.5t158.5 -427.5q0 -264 -161.5 -425t-419.5 -161q-280 0 -428 161.5t-148 428.5zM625 205q112 0 190 58t103 175h-592
q13 -101 87.5 -167t211.5 -66z" />
    <glyph glyph-name="uni04E8" unicode="&#x4e8;" horiz-adv-x="1730" 
d="M864 1481q226 0 404 -93.5t278.5 -266t100.5 -396.5q0 -163 -56.5 -303t-158 -239.5t-248 -155.5t-320.5 -56q-225 0 -401.5 93t-276.5 265t-100 396q0 164 56 304t156.5 240t246.5 156t319 56zM864 1219q-189 0 -319.5 -106t-151.5 -290h944q-19 181 -148 288.5
t-325 107.5zM864 231q184 0 314.5 99t156.5 270h-940q29 -168 157 -268.5t312 -100.5z" />
    <glyph glyph-name="uni04E9" unicode="&#x4e9;" horiz-adv-x="1378" 
d="M688 1149q276 0 445.5 -160.5t169.5 -425.5q0 -267 -169 -427.5t-446 -160.5q-275 0 -444.5 160.5t-169.5 427.5q0 264 169.5 425t444.5 161zM688 897q-117 0 -200 -62.5t-111 -170.5h624q-28 107 -112 170t-201 63zM688 227q116 0 200 63t113 171h-624
q28 -108 111.5 -171t199.5 -63z" />
    <glyph glyph-name="uni1E20" unicode="&#x1e20;" horiz-adv-x="1597" 
d="M494 1573v199h731v-199h-731zM809 797h719v-611q-108 -105 -269 -160t-356 -55q-377 0 -597 203t-220 551q0 230 98 401.5t276 263t412 91.5q376 0 601 -209l-183 -205q-75 66 -183.5 103.5t-232.5 37.5q-221 0 -354 -130.5t-133 -352.5q0 -229 141 -358t385 -129
q217 0 342 94v211h-446v254z" />
    <glyph glyph-name="Wgrave" unicode="&#x1e80;" horiz-adv-x="2181" 
d="M1208 1565h-198l-371 317l315 25zM1855 1452h318l-537 -1460h-147l-399 938l-394 -938h-147l-541 1460h322l315 -911l373 915h151l369 -919z" />
    <glyph glyph-name="wgrave" unicode="&#x1e81;" horiz-adv-x="1681" 
d="M977 1270h-201l-370 317l317 25zM1384 1118h289l-391 -1124h-158l-286 676l-281 -676h-158l-391 1124h295l201 -657l264 661h143l269 -665z" />
    <glyph glyph-name="Wacute" unicode="&#x1e82;" horiz-adv-x="2181" 
d="M975 1565l254 342l317 -25l-372 -317h-199zM1855 1452h318l-537 -1460h-147l-399 938l-394 -938h-147l-541 1460h322l315 -911l373 915h151l369 -919z" />
    <glyph glyph-name="wacute" unicode="&#x1e83;" horiz-adv-x="1681" 
d="M713 1272l254 342l317 -27l-371 -315h-200zM1384 1118h289l-391 -1124h-158l-286 676l-281 -676h-158l-391 1124h295l201 -657l264 661h143l269 -665z" />
    <glyph glyph-name="Wdieresis" unicode="&#x1e84;" horiz-adv-x="2181" 
d="M864 1554q-71 0 -121.5 50t-50.5 122t50.5 122t121.5 50t120.5 -50t49.5 -122t-49.5 -122t-120.5 -50zM1323 1554q-71 0 -120.5 50t-49.5 122t49.5 122t120.5 50t120.5 -50t49.5 -122t-49.5 -122t-120.5 -50zM1855 1452h318l-537 -1460h-147l-399 938l-394 -938h-147
l-541 1460h322l315 -911l373 915h151l369 -919z" />
    <glyph glyph-name="wdieresis" unicode="&#x1e85;" horiz-adv-x="1681" 
d="M614 1257q-72 0 -122 50.5t-50 122.5t50 122t122 50q69 0 118.5 -50t49.5 -122t-49.5 -122.5t-118.5 -50.5zM1073 1257q-71 0 -121.5 50.5t-50.5 122.5t50.5 122t121.5 50q69 0 118.5 -50t49.5 -122t-49.5 -122.5t-118.5 -50.5zM1384 1118h289l-391 -1124h-158l-286 676
l-281 -676h-158l-391 1124h295l201 -657l264 661h143l269 -665z" />
    <glyph glyph-name="uni1E9E" unicode="&#x1e9e;" horiz-adv-x="1529" 
d="M987 864q120 0 216.5 -35.5t156 -95t90.5 -133.5t31 -156q0 -230 -138 -351.5t-419 -121.5q-210 0 -359 47l64 263q126 -56 264 -56q289 0 289 219q0 213 -299 213q-100 0 -193 -41l-98 119l268 336l103 117h-537v-1188h-287v1452h1178v-156l-346 -432h16z" />
    <glyph glyph-name="Ygrave" unicode="&#x1ef2;" horiz-adv-x="1363" 
d="M799 1565h-199l-371 317l316 25zM1366 1452l-537 -948v-504h-294v504l-537 948h338l348 -657l350 657h332z" />
    <glyph glyph-name="ygrave" unicode="&#x1ef3;" horiz-adv-x="1224" 
d="M743 1270h-200l-371 317l317 25zM913 1118h301l-458 -1130q-40 -100 -90 -172t-97 -112t-106 -62.5t-105.5 -28.5t-107.5 -6q-108 0 -182 24v244q92 -29 161 -29q88 0 149 35.5t103 116.5l-501 1120h315l317 -780z" />
    <glyph glyph-name="uni2002" unicode="&#x2002;" horiz-adv-x="1087" 
 />
    <glyph glyph-name="uni2003" unicode="&#x2003;" horiz-adv-x="1849" 
 />
    <glyph glyph-name="uni2009" unicode="&#x2009;" horiz-adv-x="61" 
 />
    <glyph glyph-name="endash" unicode="&#x2013;" horiz-adv-x="1087" 
d="M90 559v234h909v-234h-909z" />
    <glyph glyph-name="emdash" unicode="&#x2014;" horiz-adv-x="1849" 
d="M90 559v234h1671v-234h-1671z" />
    <glyph glyph-name="quoteleft" unicode="&#x2018;" horiz-adv-x="477" 
d="M424 1360q-90 0 -126 -44.5t-36 -135.5q64 -9 101.5 -53.5t37.5 -108.5q0 -76 -42.5 -121t-116.5 -45q-81 0 -125.5 58t-44.5 169q0 402 352 402v-121z" />
    <glyph glyph-name="quoteright" unicode="&#x2019;" horiz-adv-x="462" 
d="M240 1481q80 0 125 -58.5t45 -167.5q0 -403 -351 -403v121q90 0 125 44t35 136q-64 9 -100.5 53.5t-36.5 108.5q0 76 42.5 121t115.5 45z" />
    <glyph glyph-name="quotesinglbase" unicode="&#x201a;" horiz-adv-x="466" 
d="M231 322q80 0 125 -58.5t45 -167.5q0 -403 -352 -403v121q91 1 126.5 45t35.5 135q-63 7 -101 52.5t-38 109.5q0 76 42.5 121t116.5 45z" />
    <glyph glyph-name="quotedblleft" unicode="&#x201c;" horiz-adv-x="897" 
d="M72 1079q0 402 352 402v-121q-90 0 -126 -44.5t-36 -135.5q64 -9 101.5 -53.5t37.5 -108.5q0 -76 -42.5 -121t-116.5 -45q-81 0 -125.5 58t-44.5 169zM844 1360q-90 0 -126 -44.5t-36 -135.5q64 -9 101.5 -53.5t37.5 -108.5q0 -76 -42 -121t-115 -45q-81 0 -125.5 58
t-44.5 169q0 402 350 402v-121z" />
    <glyph glyph-name="quotedblright" unicode="&#x201d;" horiz-adv-x="882" 
d="M240 1481q80 0 125 -58.5t45 -167.5q0 -403 -351 -403v121q90 0 125 44t35 136q-64 9 -100.5 53.5t-36.5 108.5q0 76 42.5 121t115.5 45zM659 1481q81 0 126.5 -58.5t45.5 -167.5q0 -403 -352 -403v121q90 0 126 44.5t36 135.5q-64 9 -101.5 53.5t-37.5 108.5
q0 76 42 121t115 45z" />
    <glyph glyph-name="quotedblbase" unicode="&#x201e;" horiz-adv-x="886" 
d="M231 322q80 0 125 -58.5t45 -167.5q0 -403 -352 -403v121q91 1 126.5 45t35.5 135q-63 7 -101 52.5t-38 109.5q0 76 42.5 121t116.5 45zM651 322q80 0 125 -58.5t45 -167.5q0 -403 -350 -403v121q91 1 126.5 45t35.5 135q-64 9 -101.5 53.5t-37.5 108.5q0 76 42 121
t115 45z" />
    <glyph glyph-name="dagger" unicode="&#x2020;" horiz-adv-x="718" 
d="M266 539l13 284l-3 246h-43l-213 -10v188l213 -10h41l-8 215h189l-11 -215h43l209 12v-190l-209 10h-45v-246l13 -284h-189z" />
    <glyph glyph-name="daggerdbl" unicode="&#x2021;" horiz-adv-x="718" 
d="M266 0l10 213h-43l-213 -12v190l211 -10h45v111l-10 233l10 238v106h-43l-213 -10v188l213 -10h41l-8 215h189l-11 -215h43l209 12v-190l-209 10h-45v-106l9 -238l-11 -233l2 -111h43l211 10v-188l-211 10h-43l11 -213h-187z" />
    <glyph glyph-name="bullet" unicode="&#x2022;" horiz-adv-x="763" 
d="M383 408q-110 0 -189 79t-79 189t79 189t189 79t187 -78.5t77 -189.5t-77 -189.5t-187 -78.5z" />
    <glyph glyph-name="ellipsis" unicode="&#x2026;" horiz-adv-x="1529" 
d="M260 -29q-72 0 -123 51t-51 123t51 123t123 51q71 0 121.5 -51t50.5 -123t-50.5 -123t-121.5 -51zM764 -29q-72 0 -123 51t-51 123t51 123t123 51q70 0 120 -51t50 -123t-50 -123t-120 -51zM1274 -29q-72 0 -123 51t-51 123t51 123t123 51q71 0 121.5 -51t50.5 -123
t-50.5 -123t-121.5 -51z" />
    <glyph glyph-name="perthousand" unicode="&#x2030;" horiz-adv-x="2881" 
d="M401 0l1002 1452h213l-1000 -1452h-215zM444 557q-186 0 -294.5 121.5t-108.5 333.5t108 333t295 121q188 0 296 -121t108 -333t-108 -333.5t-296 -121.5zM444 721q101 0 159.5 76t58.5 213q0 138 -58.5 215.5t-159.5 77.5q-100 0 -158.5 -78t-58.5 -215
q0 -136 58.5 -212.5t158.5 -76.5zM1559 -20q-187 0 -295.5 121.5t-108.5 332.5q0 212 108.5 333.5t295.5 121.5q188 0 295.5 -121.5t107.5 -333.5t-107.5 -333t-295.5 -121zM1559 143q101 0 159 76t58 213q0 138 -58 215.5t-159 77.5q-100 0 -159 -78t-59 -215
q0 -135 58.5 -212t159.5 -77zM2435 -20q-187 0 -295 121t-108 333t108.5 333.5t294.5 121.5q188 0 297 -121.5t109 -333.5t-109 -333t-297 -121zM2435 143q101 0 159 76t58 213q0 138 -58 215.5t-159 77.5q-100 0 -158.5 -78t-58.5 -215q0 -136 58.5 -212.5t158.5 -76.5z
" />
    <glyph glyph-name="guilsinglleft" unicode="&#x2039;" horiz-adv-x="675" 
d="M416 14l-361 535l361 530l186 -139l-287 -391l287 -391z" />
    <glyph glyph-name="guilsinglright" unicode="&#x203a;" horiz-adv-x="675" 
d="M260 14l-186 144l286 391l-286 391l186 139l361 -530z" />
    <glyph glyph-name="fraction" unicode="&#x2044;" horiz-adv-x="430" 
d="M-397 0l999 1452h215l-999 -1452h-215z" />
    <glyph glyph-name="uni2070" unicode="&#x2070;" horiz-adv-x="903" 
d="M451 557q-187 0 -295.5 121.5t-108.5 333.5q0 211 108.5 332.5t295.5 121.5q188 0 296.5 -121t108.5 -333t-108.5 -333.5t-296.5 -121.5zM451 721q101 0 159 76t58 213q0 138 -58 215.5t-159 77.5q-99 0 -158.5 -78t-59.5 -215q0 -135 59.5 -212t158.5 -77z" />
    <glyph glyph-name="uni2074" unicode="&#x2074;" horiz-adv-x="825" 
d="M670 881h135v-154h-135v-149h-178v149h-465v94l514 635h129v-575zM238 868h270v340z" />
    <glyph glyph-name="uni2075" unicode="&#x2075;" horiz-adv-x="780" 
d="M426 1165q140 0 228.5 -82.5t88.5 -224.5q0 -148 -96 -224.5t-252 -76.5q-160 0 -255 75.5t-95 201.5v14h172v-6q0 -55 49 -89t123 -34q77 0 123.5 38.5t46.5 110.5q0 76 -45.5 116t-122.5 40q-46 0 -90 -15.5t-68 -41.5h-155l28 485h586v-164h-430l-12 -160
q70 37 176 37z" />
    <glyph glyph-name="uni2076" unicode="&#x2076;" horiz-adv-x="841" 
d="M487 1149q139 0 224.5 -69t85.5 -210q0 -151 -94 -232t-254 -81q-191 0 -290.5 115t-99.5 325q0 235 99.5 353t283.5 118q146 0 237 -68t91 -165v-16h-182q-5 43 -42.5 68.5t-101.5 25.5q-98 0 -151 -70t-53 -190q40 45 105.5 70.5t141.5 25.5zM446 713q80 0 124 43
t44 110t-49 104.5t-123 37.5q-58 0 -109 -29.5t-83 -83.5q6 -77 59 -129.5t137 -52.5z" />
    <glyph glyph-name="uni2077" unicode="&#x2077;" horiz-adv-x="712" 
d="M27 1452h659v-92l-401 -782h-209l377 708h-426v166z" />
    <glyph glyph-name="uni2078" unicode="&#x2078;" horiz-adv-x="849" 
d="M633 1038q73 -23 116.5 -81.5t43.5 -129.5q0 -134 -98.5 -202t-268.5 -68q-173 0 -272 67.5t-99 200.5q0 72 44 131.5t118 83.5q-55 26 -87 75t-32 116q0 117 90 177t238 60q146 0 236 -60t90 -177q0 -65 -32 -114.5t-87 -78.5zM426 1319q-70 0 -113 -30t-43 -83
q0 -47 43 -78.5t113 -31.5q69 0 110.5 31t41.5 79q0 53 -41.5 83t-110.5 30zM426 715q83 0 132.5 31.5t49.5 93.5q0 59 -49.5 93t-132.5 34q-84 0 -134 -34t-50 -93q0 -62 49.5 -93.5t134.5 -31.5z" />
    <glyph glyph-name="uni2079" unicode="&#x2079;" horiz-adv-x="821" 
d="M391 1468q189 0 287 -114.5t98 -323.5q0 -236 -103 -354.5t-282 -118.5q-154 0 -243 68t-89 168v18h183q5 -46 42 -72t105 -26q98 0 151.5 70.5t53.5 189.5q-40 -45 -105 -70.5t-141 -25.5q-141 0 -226 69.5t-85 210.5q0 149 95.5 230t258.5 81zM393 1018q72 0 123 33.5
t68 78.5q-5 78 -58 130.5t-137 52.5q-82 0 -125 -42t-43 -110t48.5 -105.5t123.5 -37.5z" />
    <glyph glyph-name="uni2080" unicode="&#x2080;" horiz-adv-x="903" 
d="M451 -221q-187 0 -295.5 121.5t-108.5 332.5q0 212 108.5 333.5t295.5 121.5q188 0 296.5 -121.5t108.5 -333.5t-108.5 -333t-296.5 -121zM451 -57q101 0 159 75.5t58 212.5q0 138 -58 215.5t-159 77.5q-99 0 -158.5 -78t-59.5 -215q0 -135 59.5 -211.5t158.5 -76.5z" />
    <glyph glyph-name="uni2081" unicode="&#x2081;" horiz-adv-x="530" 
d="M244 -201v682l-178 -61l-54 145l295 109h115v-875h-178z" />
    <glyph glyph-name="uni2082" unicode="&#x2082;" horiz-adv-x="763" 
d="M242 -39h475v-162h-672v64q3 100 58.5 169t199.5 163q122 75 168.5 119t46.5 104q0 52 -39.5 79t-99.5 27q-74 0 -119 -39t-45 -106v-27h-172v37q0 138 90 217.5t248 79.5q146 0 239 -66t93 -186q0 -61 -17 -108t-58.5 -88.5t-83 -70.5t-118.5 -75q-134 -78 -167 -106
q-16 -12 -27 -25z" />
    <glyph glyph-name="uni2083" unicode="&#x2083;" horiz-adv-x="770" 
d="M449 350q132 -4 206 -84t74 -192q0 -138 -93.5 -213.5t-252.5 -75.5q-161 0 -254.5 72.5t-93.5 199.5v15h174v-6q0 -56 46 -88.5t122 -32.5q77 0 121.5 37.5t44.5 99.5q0 66 -46.5 102.5t-123.5 36.5q-55 0 -117 -24l-66 84l242 231h-352v162h616v-92z" />
    <glyph glyph-name="uni2084" unicode="&#x2084;" horiz-adv-x="825" 
d="M670 102h135v-153h-135v-150h-178v150h-465v94l514 635h129v-576zM238 90h270v340z" />
    <glyph glyph-name="uni2085" unicode="&#x2085;" horiz-adv-x="780" 
d="M426 387q140 0 228.5 -82.5t88.5 -224.5q0 -148 -96 -224.5t-252 -76.5q-160 0 -255 75t-95 201v15h172v-7q0 -55 48.5 -88.5t123.5 -33.5q77 0 123.5 38.5t46.5 110.5q0 76 -45.5 116t-122.5 40q-46 0 -89.5 -16t-68.5 -42h-155l28 486h586v-164h-430l-12 -160
q70 37 176 37z" />
    <glyph glyph-name="uni2086" unicode="&#x2086;" horiz-adv-x="841" 
d="M487 371q139 0 224.5 -69t85.5 -210q0 -151 -94 -232t-254 -81q-191 0 -290.5 115t-99.5 325q0 235 99.5 353t283.5 118q146 0 237 -68t91 -165v-17h-182q-5 43 -42.5 69t-101.5 26q-98 0 -151 -70.5t-53 -190.5q40 45 105.5 71t141.5 26zM446 -66q80 0 124 43.5
t44 110.5q0 66 -49 103.5t-123 37.5q-58 0 -109 -29t-83 -83q6 -77 59 -130t137 -53z" />
    <glyph glyph-name="uni2087" unicode="&#x2087;" horiz-adv-x="712" 
d="M27 674h659v-92l-401 -783h-209l377 709h-426v166z" />
    <glyph glyph-name="uni2088" unicode="&#x2088;" horiz-adv-x="849" 
d="M633 260q73 -23 116.5 -81.5t43.5 -129.5q0 -134 -98.5 -202t-268.5 -68q-173 0 -272 67.5t-99 200.5q0 72 44 131.5t118 83.5q-55 26 -87 75t-32 116q0 117 90 177t238 60q146 0 236 -60t90 -177q0 -65 -32 -114.5t-87 -78.5zM426 541q-70 0 -113 -30t-43 -83
q0 -47 43 -79t113 -32q69 0 110.5 31.5t41.5 79.5q0 53 -41.5 83t-110.5 30zM426 -63q83 0 132.5 31t49.5 93q0 59 -49.5 93t-132.5 34q-84 0 -134 -34t-50 -93q0 -62 49.5 -93t134.5 -31z" />
    <glyph glyph-name="uni2089" unicode="&#x2089;" horiz-adv-x="821" 
d="M391 690q189 0 287 -114.5t98 -323.5q0 -236 -103 -354.5t-282 -118.5q-154 0 -243 67.5t-89 167.5v19h183q5 -46 42 -72.5t105 -26.5q98 0 151.5 71t53.5 190q-40 -45 -105 -71t-141 -26q-141 0 -226 70t-85 211q0 149 95.5 230t258.5 81zM393 240q72 0 123 33.5
t68 78.5q-5 78 -58 130.5t-137 52.5q-82 0 -125 -42t-43 -110t48.5 -105.5t123.5 -37.5z" />
    <glyph glyph-name="lira" unicode="&#x20a4;" horiz-adv-x="1337" 
d="M594 258h680v-258h-1176v201l213 41q2 53 -22 213h-193v155h168q-5 38 -14 129h-154v156h148q3 154 42.5 267.5t109.5 181t160.5 99.5t203.5 32q148 0 262.5 -56t181 -167t66.5 -263v-37h-254v33q0 103 -67.5 162t-166.5 59q-130 0 -192 -77.5t-64 -233.5h490v-156h-481
q6 -65 18 -129h463v-155h-441q19 -133 19 -197z" />
    <glyph glyph-name="Euro" unicode="&#x20ac;" horiz-adv-x="1429" 
d="M868 238q202 0 326 180l211 -170q-191 -277 -541 -277q-259 0 -432 141t-227 392h-148v155h127q-2 20 -2 66t2 66h-127v155h148q54 251 226.5 392t430.5 141q174 0 313.5 -74t229.5 -205l-213 -174q-121 184 -326 184q-133 0 -227 -68t-137 -196h454v-155h-485
q-2 -20 -2 -66t2 -66h485v-155h-454q43 -128 138 -197t228 -69z" />
    <glyph glyph-name="uni20B4" unicode="&#x20b4;" horiz-adv-x="1271" 
d="M973 791q-83 -52 -191 -93q-59 -25 -102 -39h557v-155h-827q-60 -43 -60 -117q0 -60 39 -99.5t95 -54t128 -14.5q144 0 249.5 35t197.5 106l135 -243q-131 -78 -266 -112t-320 -34q-240 0 -381 100t-141 287q0 74 29 146h-80v155h239q56 39 162 84q75 35 115 48h-516v155
h790q82 49 82 127q0 81 -67 119.5t-187 38.5q-212 0 -409 -113l-119 230q216 131 524 131q233 0 375.5 -105t142.5 -282q0 -83 -32 -146h102v-155h-264z" />
    <glyph glyph-name="uni20B8" unicode="&#x20b8;" horiz-adv-x="1267" 
d="M49 1296v156h1170v-156h-1170zM492 0v907h-443v258h1170v-258h-441v-907h-286z" />
    <glyph glyph-name="uni20BD" unicode="&#x20bd;" horiz-adv-x="1318" 
d="M696 498h-170v-131h430v-166h-430v-201h-288v201h-168v166h168v131h-168v196h168v758h485q272 0 414.5 -121.5t142.5 -353.5q0 -479 -584 -479zM526 1194v-500h152q156 0 228.5 63.5t72.5 188.5q0 127 -67.5 187.5t-206.5 60.5h-179z" />
    <glyph glyph-name="uni2117" unicode="&#x2117;" horiz-adv-x="1585" 
d="M791 -18q-158 0 -296 56t-236 154.5t-154 238t-56 300.5q0 213 96 383.5t266.5 266.5t383.5 96q211 0 380 -96t264 -266.5t95 -383.5q0 -161 -55.5 -300.5t-153.5 -238t-236 -154.5t-298 -56zM791 123q170 0 305.5 78.5t211.5 217.5t76 312q0 171 -76 309t-210.5 216.5
t-302.5 78.5q-170 0 -307 -79t-214 -218t-77 -311q0 -170 76 -308t212.5 -217t305.5 -79zM492 317v840h358q162 0 247 -78.5t85 -226.5q0 -303 -353 -303h-143v-232h-194zM686 713h125q80 0 119 37.5t39 99.5q0 66 -38 102.5t-114 36.5h-131v-276z" />
    <glyph glyph-name="trademark" unicode="&#x2122;" horiz-adv-x="1394" 
d="M14 1323v129h557v-129h-202v-514h-148v514h-207zM1253 1452h97v-643h-142v348l-166 -250h-73l-166 250v-348h-141v643h96l248 -387z" />
    <glyph glyph-name="uni2126" unicode="&#x2126;" horiz-adv-x="1697" 
d="M1614 793q0 -167 -78.5 -305t-192.5 -220h256v-268h-669v197q381 245 381 557q0 142 -63 245t-166 153t-232 50q-132 0 -235 -50t-164.5 -153t-61.5 -245q0 -314 379 -557v-197h-666v268h254q-114 82 -193 220t-79 305q0 133 38.5 245t108 192.5t165.5 137t210.5 84
t243.5 27.5q128 0 242 -27.5t210 -84t165.5 -137t108 -192.5t38.5 -245z" />
    <glyph glyph-name="partialdiff" unicode="&#x2202;" horiz-adv-x="1351" 
d="M590 1477q155 0 279.5 -46t216 -138.5t141 -241.5t49.5 -346q0 -354 -162 -544t-469 -190q-168 0 -296 57.5t-201.5 172.5t-73.5 274q0 99 26.5 179.5t72.5 134.5t110 90.5t135.5 52.5t152.5 16q141 0 249.5 -43t172.5 -117q0 206 -119 318.5t-311 112.5
q-77 0 -158 -20.5t-139 -53.5l-114 231q173 101 438 101zM645 217q146 0 233 90t93 223q-15 34 -41.5 66t-67 62.5t-99.5 49.5t-128 19q-119 0 -196 -64.5t-77 -185.5q0 -114 74 -187t209 -73z" />
    <glyph glyph-name="uni2206" unicode="&#x2206;" horiz-adv-x="1476" 
d="M829 1458l617 -1317v-141h-1415v141l612 1317h186zM733 1059l-344 -797h688z" />
    <glyph glyph-name="product" unicode="&#x220f;" horiz-adv-x="1497" 
d="M139 -332v1784h1219v-1784h-287v1516h-643v-1516h-289z" />
    <glyph glyph-name="summation" unicode="&#x2211;" horiz-adv-x="1292" 
d="M438 -63h815v-269h-1210v150l494 755l-474 730v149h1176v-268h-780l370 -580v-86z" />
    <glyph glyph-name="minus" unicode="&#x2212;" horiz-adv-x="1044" 
d="M74 555v242h897v-242h-897z" />
    <glyph glyph-name="radical" unicode="&#x221a;" horiz-adv-x="1384" 
d="M1251 1884h246l-557 -1890h-184l-443 1235h-311v223h553l307 -954z" />
    <glyph glyph-name="infinity" unicode="&#x221e;" horiz-adv-x="1701" 
d="M449 270q-168 0 -273.5 111.5t-105.5 294.5q0 193 105 299t274 106q112 0 207 -57.5t184 -171.5q176 229 391 229q169 0 274 -106t105 -299q0 -183 -105.5 -294.5t-273.5 -111.5q-113 0 -208 58t-183 172q-88 -114 -183 -172t-208 -58zM471 496q80 0 140.5 46.5
t111.5 133.5q-55 90 -113.5 135t-138.5 45q-71 0 -116.5 -45t-45.5 -135q0 -89 45.5 -134.5t116.5 -45.5zM1208 496q71 0 116.5 45.5t45.5 134.5q0 90 -45.5 135t-116.5 45q-80 0 -139.5 -45t-114.5 -135q54 -87 114 -133.5t140 -46.5z" />
    <glyph glyph-name="integral" unicode="&#x222b;" horiz-adv-x="768" 
d="M174 -389q-110 0 -166 18v234q47 -13 80 -13q38 0 63.5 10.5t40.5 26.5t22 48.5t9 63t2 83.5v1251q0 183 94 278t263 95q138 0 231 -41v-217q-89 25 -149 25q-81 0 -120.5 -42.5t-39.5 -138.5v-1347q0 -72 -17 -129t-46 -95t-71.5 -63t-90.5 -36t-105 -11z" />
    <glyph glyph-name="approxequal" unicode="&#x2248;" horiz-adv-x="1271" 
d="M891 723q-36 0 -75.5 8.5t-67 18.5t-72.5 28q-53 21 -78.5 30t-72 19.5t-87.5 10.5q-131 0 -260 -90l-78 208q29 24 68 48t109.5 49.5t134.5 25.5q99 0 241 -59q129 -55 209 -55q124 0 230 102l79 -221q-127 -123 -280 -123zM891 246q-37 0 -78.5 9t-64 17.5t-74.5 28.5
q-146 59 -236 59q-131 0 -260 -90l-78 207q163 123 312 123q97 0 239 -59q46 -19 71 -28.5t64.5 -18.5t75.5 -9q119 0 230 103l79 -219q-123 -123 -280 -123z" />
    <glyph glyph-name="notequal" unicode="&#x2260;" horiz-adv-x="1196" 
d="M1094 809h-314l-176 -264h490v-242h-654l-143 -215h-195l144 215h-146v242h310l176 264h-486v242h650l139 209h194l-139 -209h150v-242z" />
    <glyph glyph-name="lessequal" unicode="&#x2264;" horiz-adv-x="1196" 
d="M1114 1393v-263l-645 -278l645 -281v-262l-1010 461v162zM100 -2v240h1014v-240h-1014z" />
    <glyph glyph-name="greaterequal" unicode="&#x2265;" horiz-adv-x="1196" 
d="M1094 932v-162l-1010 -461v262l643 281l-643 278v263zM82 238h1014v-240h-1014v240z" />
    <glyph glyph-name="lozenge" unicode="&#x25ca;" horiz-adv-x="1011" 
d="M436 -10l-366 733l366 735h139l367 -735l-367 -733h-139zM508 322l180 403l-180 395l-184 -395z" />
    <glyph glyph-name="NULL" 
 />
    <glyph glyph-name="uni00A40301" horiz-adv-x="1265" 
d="M811 1565l254 342l317 -25l-372 -317h-199zM590 -29q-254 0 -406 147t-159 410h286q4 -77 28 -133.5t64 -88.5t86.5 -47t102.5 -15q126 0 193 78.5t67 257.5v872h293v-872q0 -318 -136.5 -463.5t-418.5 -145.5z" />
    <glyph glyph-name="uni1E9E.calt" horiz-adv-x="1529" 
d="M987 864q120 0 216.5 -35.5t156 -95t90.5 -133.5t31 -156q0 -230 -138 -351.5t-419 -121.5q-210 0 -359 47l64 263q126 -56 264 -56q289 0 289 219q0 213 -299 213q-100 0 -193 -41l-98 119l268 336l103 117h-537v-1188h-287v1452h1178v-156l-346 -432h16z" />
    <glyph glyph-name="IJ.dutch" horiz-adv-x="1361" 
d="M123 643v809h293v-809h-293zM688 -29q-259 0 -409 133t-156 392h287q4 -77 27.5 -129.5t64.5 -78t84.5 -35t101.5 -9.5q127 0 193.5 78.5t66.5 257.5v872h295v-872q0 -318 -137 -463.5t-418 -145.5z" />
    <glyph glyph-name="K.ss04" horiz-adv-x="1441" 
d="M1434 0h-379l-627 678v-678h-289v1452h289v-678l571 678h365l-619 -707z" />
    <glyph glyph-name="uni0136.ss04" horiz-adv-x="1441" 
d="M745 745l689 -745h-379l-627 678v-678h-289v1452h289v-678l571 678h365zM719 -88q73 0 117.5 -44t44.5 -118q0 -33 -7 -66.5t-28 -72.5t-53 -68.5t-87 -49t-126 -19.5h-39v102q8 -2 26 -2q96 0 125 88q-56 9 -88.5 42t-32.5 79q0 58 40 93.5t108 35.5z" />
    <glyph glyph-name="i.loclTRK" horiz-adv-x="557" 
d="M281 1255q-72 0 -123.5 51.5t-51.5 123.5t51.5 123t123.5 51q71 0 121.5 -51t50.5 -123t-50.5 -123.5t-121.5 -51.5zM135 0v1118h287v-1118h-287z" />
    <glyph glyph-name="uni006A0301" horiz-adv-x="571" 
d="M170 1272l254 342l317 -27l-370 -315h-201zM100 -389q-112 0 -168 18v234q47 -13 82 -13q38 0 63.5 10.5t40 27t22.5 48t10 63t2 83.5v1036h284v-1186q0 -165 -92 -243t-244 -78z" />
    <glyph glyph-name="k.ss04" horiz-adv-x="1263" 
d="M1239 0h-369l-456 494v-494h-279v1552h279v-979l473 545h342l-512 -571z" />
    <glyph glyph-name="uni0137.ss04" horiz-adv-x="1263" 
d="M717 547l522 -547h-369l-456 494v-494h-279v1552h279v-979l473 545h342zM657 -88q73 0 117.5 -44t44.5 -118q0 -33 -7 -66.5t-28 -72.5t-53 -68.5t-87 -49t-126 -19.5h-39v102q8 -2 27 -2q96 0 125 88q-56 9 -88.5 42t-32.5 79q0 58 39.5 93.5t107.5 35.5z" />
    <glyph glyph-name="kgreenlandic.ss04" horiz-adv-x="1263" 
d="M1239 0h-369l-456 496v-496h-279v1118h279v-545l473 545h342l-512 -571z" />
    <glyph glyph-name="uni0414.loclBGR" horiz-adv-x="1710" 
d="M1473 268h182v-608h-264v340h-1080v-340h-264v608h162l541 1190h182zM516 268h645l-198 471l-125 324l-125 -324z" />
    <glyph glyph-name="uni041B.loclBGR" horiz-adv-x="1509" 
d="M1497 0h-326l-423 1001l-418 -1001h-320l652 1458h186z" />
    <glyph glyph-name="uni0457.calt1" horiz-adv-x="557" 
d="M63 1257q-71 0 -121.5 50.5t-50.5 122.5t50.5 122t121.5 50q69 0 118.5 -50t49.5 -122t-49.5 -122.5t-118.5 -50.5zM135 0v1118h287v-1118h-287z" />
    <glyph glyph-name="uni0457.calt2" horiz-adv-x="557" 
d="M2 1257q-71 0 -121.5 50.5t-50.5 122.5t50.5 122t121.5 50q69 0 118.5 -50t49.5 -122t-49.5 -122.5t-118.5 -50.5zM502 1257q-71 0 -121.5 50.5t-50.5 122.5t50.5 122t121.5 50t120.5 -50t49.5 -122t-49.5 -122.5t-120.5 -50.5zM135 0v1118h287v-1118h-287z" />
    <glyph glyph-name="uni0432.loclBGR" horiz-adv-x="1314" 
d="M993 848q119 -45 183.5 -151t64.5 -246q0 -96 -30 -175.5t-82 -135t-122.5 -93.5t-152 -56t-170.5 -18q-290 0 -444 154t-154 442v381q0 163 42 286t118.5 197.5t177.5 111t225 36.5q227 0 374.5 -111.5t147.5 -293.5q0 -109 -46 -196t-132 -132zM653 1341
q-282 0 -282 -401h241q44 0 76.5 2.5t74.5 14t69 32t46 59t19 91.5q0 95 -71 148.5t-173 53.5zM682 227q117 0 191.5 61t74.5 179q0 112 -73 177t-220 65h-284v-123q0 -168 80.5 -263.5t230.5 -95.5z" />
    <glyph glyph-name="uni0433.loclBGR" horiz-adv-x="1097" 
d="M528 -29q-469 0 -469 324q0 60 19 108t50.5 83t87 66.5t111.5 54.5t142 52q136 46 189 79t53 83q0 90 -164 90q-154 0 -334 -104l-113 219q206 117 465 117q207 0 325 -80t118 -250q0 -59 -19 -105.5t-49 -79.5t-85.5 -63.5t-109.5 -51.5t-141 -50q-134 -44 -185.5 -77.5
t-51.5 -86.5q0 -46 49.5 -72t142.5 -26q88 0 182 34.5t162 94.5l131 -217q-101 -79 -221.5 -110.5t-284.5 -31.5z" />
    <glyph glyph-name="uni0434.loclBGR" horiz-adv-x="1343" 
d="M643 -393q-279 0 -459 74v260q212 -95 414 -95q174 0 263 59.5t89 198.5v72q-111 -131 -336 -131q-244 0 -392 153t-148 398q0 243 146.5 396t381.5 153q95 0 187 -30t157 -93v96h279v-921q0 -140 -30.5 -245.5t-97.5 -184.5t-180.5 -119.5t-273.5 -40.5zM676 297
q85 0 159 36.5t115 110.5v304q-42 68 -118.5 106.5t-161.5 38.5q-134 0 -219.5 -82t-85.5 -213q0 -133 85 -217t226 -84z" />
    <glyph glyph-name="uni0436.loclBGR" horiz-adv-x="1908" 
d="M1894 0h-358l-442 492v-492h-281v496l-459 -496h-340l500 535l-489 583h346l442 -538v972h281v-981l454 547h334l-491 -571z" />
    <glyph glyph-name="uni0437.loclBGR" horiz-adv-x="1132" 
d="M842 430q124 -42 188 -139t64 -230q0 -155 -74.5 -258t-203.5 -149.5t-308 -46.5q-277 0 -465 92v281q210 -115 442 -115q155 0 236.5 56.5t81.5 158.5q0 215 -354 215h-187v229h170q54 0 95 3.5t86.5 14.5t75 30.5t48.5 53.5t19 81q0 190 -248 190q-177 0 -344 -102
l-109 225q217 127 469 127q238 0 376 -104.5t138 -294.5q0 -106 -50.5 -189.5t-145.5 -128.5z" />
    <glyph glyph-name="uni0438.loclBGR" horiz-adv-x="1300" 
d="M537 -25q-422 0 -422 474v669h280v-598q0 -158 60 -224.5t166 -66.5q153 0 262 129v760h280v-1118h-268v115q-140 -140 -358 -140z" />
    <glyph glyph-name="uni0439.loclBGR" horiz-adv-x="1300" 
d="M647 1272q-164 0 -263 84t-105 243h180q38 -131 188 -131q151 0 184 131h183q-6 -161 -104.5 -244t-262.5 -83zM537 -25q-422 0 -422 474v669h280v-598q0 -158 60 -224.5t166 -66.5q153 0 262 129v760h280v-1118h-268v115q-140 -140 -358 -140z" />
    <glyph glyph-name="uni045D.loclBGR" horiz-adv-x="1300" 
d="M778 1270h-200l-371 317l317 25zM537 -25q-422 0 -422 474v669h280v-598q0 -158 60 -224.5t166 -66.5q153 0 262 129v760h280v-1118h-268v115q-140 -140 -358 -140z" />
    <glyph glyph-name="uni043A.loclBGR" horiz-adv-x="1263" 
d="M1239 0h-369l-456 496v-496h-279v1552h279v-979l473 545h342l-512 -571z" />
    <glyph glyph-name="uni043B.loclBGR" horiz-adv-x="1277" 
d="M721 1126l534 -1126h-317l-201 455l-104 264l-105 -264l-198 -455h-310l537 1126h164z" />
    <glyph glyph-name="uni043F.loclBGR" horiz-adv-x="1306" 
d="M135 0v1118h273v-102q70 58 163.5 92.5t194.5 34.5q216 0 321 -110t105 -365v-668h-281v598q0 160 -60 225.5t-175 65.5q-145 0 -258 -117v-772h-283z" />
    <glyph glyph-name="uni0442.loclBGR" horiz-adv-x="2019" 
d="M1493 1145q204 0 308 -112.5t104 -370.5v-662h-281v606q0 155 -58.5 219t-166.5 64q-149 0 -248 -107q6 -56 6 -120v-662h-276v623q0 141 -53.5 203.5t-157.5 62.5q-66 0 -133.5 -30.5t-118.5 -84.5v-774h-283v1118h273v-102q160 129 366 129q223 0 313 -146
q169 146 406 146z" />
    <glyph glyph-name="uni0446.loclBGR" horiz-adv-x="1386" 
d="M1292 254h60v-557h-250v303q-61 0 -114 37t-79 100q-142 -162 -377 -162q-203 0 -313 112t-110 362v669h282v-598q0 -159 59.5 -225t165.5 -66q156 0 261 129v760h282v-721q0 -84 27 -113.5t106 -29.5z" />
    <glyph glyph-name="uni0448.loclBGR" horiz-adv-x="2011" 
d="M1593 1118h281v-1118h-266v117q-61 -64 -154.5 -103t-202.5 -39q-236 0 -331 166q-63 -69 -173.5 -117.5t-232.5 -48.5q-200 0 -299.5 114.5t-99.5 359.5v669h280v-598q0 -159 54.5 -225t152.5 -66q82 0 148 36.5t110 94.5q-4 58 -4 89v669h279v-598q0 -159 54 -225
t154 -66q81 0 147 37t103 94v758z" />
    <glyph glyph-name="uni0449.loclBGR" horiz-adv-x="2101" 
d="M2009 254h59v-557h-249v303q-60 0 -113.5 37t-79.5 100q-148 -162 -375 -162q-236 0 -331 166q-63 -69 -173.5 -117.5t-232.5 -48.5q-200 0 -299.5 114.5t-99.5 359.5v669h280v-598q0 -159 54.5 -225t152.5 -66q82 0 148 36.5t110 94.5q-4 58 -4 89v669h279v-598
q0 -159 54 -225t154 -66q81 0 147 37t103 94v758h281v-721q0 -84 28 -113.5t107 -29.5z" />
    <glyph glyph-name="uni044C.loclBGR" horiz-adv-x="1210" 
d="M713 926q198 0 323 -129t125 -344q0 -222 -142.5 -351t-379.5 -129q-251 0 -387.5 133t-136.5 383v629h280v-309q132 117 318 117zM639 225q106 0 168.5 62t62.5 166q0 106 -59 167.5t-164 61.5q-156 0 -252 -117v-49q0 -291 244 -291z" />
    <glyph glyph-name="uni044A.loclBGR" horiz-adv-x="1439" 
d="M942 926q198 0 323.5 -129t125.5 -344q0 -222 -143 -351t-380 -129q-251 0 -387.5 133t-136.5 383v375h-303v254h584v-309q132 117 317 117zM868 225q106 0 169 62t63 166q0 106 -59 167.5t-164 61.5q-156 0 -252 -117v-49q0 -291 243 -291z" />
    <glyph glyph-name="uni044E.loclBGR" horiz-adv-x="1912" 
d="M1231 1143q276 0 444 -159.5t168 -422.5q0 -267 -168 -426.5t-444 -159.5q-230 0 -389 114.5t-205 313.5h-225v-403h-283v1552h283v-917h211q25 232 190 370t418 138zM1231 233q142 0 229.5 90t87.5 238q0 146 -88 235t-229 89q-142 0 -231 -89.5t-89 -234.5
q0 -148 89 -238t231 -90z" />
    <glyph glyph-name="uni0431.loclSRB" horiz-adv-x="1376" 
d="M842 1061q458 -151 458 -541q0 -249 -167.5 -398t-440.5 -149q-178 0 -318.5 68.5t-220 194t-79.5 286.5q0 188 87.5 308t250.5 163q-193 100 -193 279q0 138 93 209t270 71h153q251 0 455 43l16 -245q-167 -33 -411 -33h-150q-135 0 -135 -74q0 -41 69.5 -80.5
t262.5 -101.5zM696 233q143 0 228.5 83t85.5 210q0 111 -80.5 187.5t-241.5 136.5q-140 -3 -230.5 -81.5t-90.5 -221.5q0 -139 92 -226.5t237 -87.5z" />
    <glyph glyph-name="Kappa.ss04" horiz-adv-x="1441" 
d="M1434 0h-379l-627 678v-678h-289v1452h289v-678l571 678h365l-619 -707z" />
    <glyph glyph-name="kappa.ss04" horiz-adv-x="1263" 
d="M1239 0h-369l-456 494v-494h-279v1118h279v-545l473 545h342l-512 -571z" />
    <glyph glyph-name="zero.dnom" horiz-adv-x="903" 
d="M451 -20q-187 0 -295.5 121.5t-108.5 332.5q0 212 108.5 333.5t295.5 121.5q188 0 296.5 -121.5t108.5 -333.5t-108.5 -333t-296.5 -121zM451 143q101 0 159 76t58 213q0 138 -58 215.5t-159 77.5q-99 0 -158.5 -78t-59.5 -215q0 -135 59.5 -212t158.5 -77z" />
    <glyph glyph-name="one.dnom" horiz-adv-x="530" 
d="M244 0v682l-178 -61l-54 145l295 108h115v-874h-178z" />
    <glyph glyph-name="two.dnom" horiz-adv-x="763" 
d="M242 162h475v-162h-672v63q3 100 58.5 169t199.5 163q122 75 168.5 119t46.5 104q0 52 -39.5 79.5t-99.5 27.5q-74 0 -119 -39t-45 -106v-27h-172v37q0 138 90 217.5t248 79.5q146 0 239 -66t93 -186q0 -61 -17 -108t-58.5 -88.5t-83 -70.5t-118.5 -75
q-134 -78 -167 -106q-16 -12 -27 -25z" />
    <glyph glyph-name="three.dnom" horiz-adv-x="770" 
d="M449 551q132 -4 206 -84.5t74 -192.5q0 -138 -93.5 -213t-252.5 -75q-161 0 -254.5 72.5t-93.5 199.5v14h174v-6q0 -56 46 -88.5t122 -32.5q77 0 121.5 38t44.5 100q0 66 -46.5 102.5t-123.5 36.5q-53 0 -117 -25l-66 84l242 232h-352v161h616v-92z" />
    <glyph glyph-name="four.dnom" horiz-adv-x="825" 
d="M670 303h135v-153h-135v-150h-178v150h-465v94l514 635h129v-576zM238 291h270v340z" />
    <glyph glyph-name="five.dnom" horiz-adv-x="780" 
d="M426 588q140 0 228.5 -82.5t88.5 -224.5q0 -148 -96 -224.5t-252 -76.5q-160 0 -255 75t-95 201v14h172v-6q0 -55 49 -89t123 -34q77 0 123.5 39t46.5 111q0 76 -45.5 115.5t-122.5 39.5q-46 0 -90 -15.5t-68 -41.5h-155l28 485h586v-163h-430l-12 -160q70 37 176 37z
" />
    <glyph glyph-name="six.dnom" horiz-adv-x="841" 
d="M487 571q139 0 224.5 -68.5t85.5 -209.5q0 -151 -94 -232t-254 -81q-191 0 -290.5 115t-99.5 325q0 235 99.5 353t283.5 118q146 0 237 -68.5t91 -165.5v-16h-182q-5 43 -42.5 68.5t-101.5 25.5q-98 0 -151 -70t-53 -190q40 45 105.5 70.5t141.5 25.5zM446 135
q80 0 124 43.5t44 110.5q0 66 -49 103.5t-123 37.5q-58 0 -109 -29.5t-83 -83.5q6 -77 59 -129.5t137 -52.5z" />
    <glyph glyph-name="seven.dnom" horiz-adv-x="712" 
d="M27 874h659v-92l-401 -782h-209l377 709h-426v165z" />
    <glyph glyph-name="eight.dnom" horiz-adv-x="849" 
d="M633 461q73 -23 116.5 -81.5t43.5 -129.5q0 -134 -98.5 -202t-268.5 -68q-173 0 -272 67.5t-99 200.5q0 72 44 131.5t118 83.5q-55 26 -87 74.5t-32 115.5q0 117 90 177.5t238 60.5q146 0 236 -60.5t90 -177.5q0 -129 -119 -192zM426 741q-71 0 -113.5 -29.5t-42.5 -82.5
q0 -47 43 -79t113 -32q69 0 110.5 31.5t41.5 79.5q0 53 -41.5 82.5t-110.5 29.5zM426 137q83 0 132.5 31.5t49.5 93.5q0 59 -49.5 93t-132.5 34q-84 0 -134 -34t-50 -93q0 -62 49.5 -93.5t134.5 -31.5z" />
    <glyph glyph-name="nine.dnom" horiz-adv-x="821" 
d="M391 891q189 0 287 -114.5t98 -323.5q0 -236 -103 -354.5t-282 -118.5q-154 0 -243 67.5t-89 167.5v18h183q5 -46 42 -72t105 -26q98 0 151.5 70.5t53.5 189.5q-40 -45 -105 -70.5t-141 -25.5q-141 0 -226 70t-85 211q0 149 95.5 230t258.5 81zM393 440q72 0 123 34
t68 79q-5 77 -58 129.5t-137 52.5q-82 0 -125 -42t-43 -109q0 -68 48.5 -106t123.5 -38z" />
    <glyph glyph-name="zero.numr" horiz-adv-x="903" 
d="M451 557q-187 0 -295.5 121.5t-108.5 333.5q0 211 108.5 332.5t295.5 121.5q188 0 296.5 -121t108.5 -333t-108.5 -333.5t-296.5 -121.5zM451 721q101 0 159 76t58 213q0 138 -58 215.5t-159 77.5q-99 0 -158.5 -78t-59.5 -215q0 -135 59.5 -212t158.5 -77z" />
    <glyph glyph-name="one.numr" horiz-adv-x="530" 
d="M244 578v682l-178 -62l-54 145l295 109h115v-874h-178z" />
    <glyph glyph-name="two.numr" horiz-adv-x="763" 
d="M242 739h475v-161h-672v63q3 100 58.5 169t199.5 163q122 75 168.5 119t46.5 104q0 52 -39.5 79.5t-99.5 27.5q-74 0 -119 -39.5t-45 -106.5v-27h-172v37q0 138 90 217.5t248 79.5q146 0 239 -66t93 -186q0 -61 -17 -108t-58.5 -88.5t-83 -70.5t-118.5 -75
q-134 -78 -167 -106q-16 -12 -27 -25z" />
    <glyph glyph-name="three.numr" horiz-adv-x="770" 
d="M449 1128q132 -4 206 -84t74 -192q0 -138 -93.5 -213.5t-252.5 -75.5q-160 0 -254 73t-94 200v14h174v-6q0 -56 46 -88.5t122 -32.5q77 0 121.5 37.5t44.5 99.5q0 66 -46.5 102.5t-123.5 36.5q-55 0 -117 -24l-66 84l242 231h-352v162h616v-92z" />
    <glyph glyph-name="four.numr" horiz-adv-x="825" 
d="M670 881h135v-154h-135v-149h-178v149h-465v94l514 635h129v-575zM238 868h270v340z" />
    <glyph glyph-name="five.numr" horiz-adv-x="780" 
d="M426 1165q140 0 228.5 -82.5t88.5 -224.5q0 -148 -96 -224.5t-252 -76.5q-160 0 -255 75.5t-95 201.5v14h172v-6q0 -55 49 -89t123 -34q77 0 123.5 38.5t46.5 110.5q0 76 -45.5 116t-122.5 40q-46 0 -90 -15.5t-68 -41.5h-155l28 485h586v-164h-430l-12 -160
q70 37 176 37z" />
    <glyph glyph-name="six.numr" horiz-adv-x="841" 
d="M487 1149q139 0 224.5 -69t85.5 -210q0 -151 -94 -232t-254 -81q-191 0 -290.5 115t-99.5 325q0 235 99.5 353t283.5 118q146 0 237 -68t91 -165v-16h-182q-5 43 -42.5 68.5t-101.5 25.5q-98 0 -151 -70t-53 -190q40 45 105.5 70.5t141.5 25.5zM446 713q80 0 124 43
t44 110t-49 104.5t-123 37.5q-58 0 -109 -29.5t-83 -83.5q6 -77 59 -129.5t137 -52.5z" />
    <glyph glyph-name="seven.numr" horiz-adv-x="712" 
d="M27 1452h659v-92l-401 -782h-209l377 708h-426v166z" />
    <glyph glyph-name="eight.numr" horiz-adv-x="849" 
d="M633 1038q73 -23 116.5 -81.5t43.5 -129.5q0 -134 -98.5 -202t-268.5 -68q-173 0 -272 67.5t-99 200.5q0 72 44 131.5t118 83.5q-55 26 -87 75t-32 116q0 117 90 177t238 60q146 0 236 -60t90 -177q0 -65 -32 -114.5t-87 -78.5zM426 1319q-70 0 -113 -30t-43 -83
q0 -47 43 -78.5t113 -31.5q69 0 110.5 31t41.5 79q0 53 -41.5 83t-110.5 30zM426 715q83 0 132.5 31.5t49.5 93.5q0 59 -49.5 93t-132.5 34q-84 0 -134 -34t-50 -93q0 -62 49.5 -93.5t134.5 -31.5z" />
    <glyph glyph-name="nine.numr" horiz-adv-x="821" 
d="M391 1468q189 0 287 -114.5t98 -323.5q0 -236 -103 -354.5t-282 -118.5q-154 0 -243 68t-89 168v18h183q5 -46 42 -72t105 -26q98 0 151.5 70.5t53.5 189.5q-40 -45 -105 -70.5t-141 -25.5q-141 0 -226 69.5t-85 210.5q0 149 95.5 230t258.5 81zM393 1018q72 0 123 33.5
t68 78.5q-5 78 -58 130.5t-137 52.5q-82 0 -125 -42t-43 -110t48.5 -105.5t123.5 -37.5z" />
    <glyph glyph-name="periodcentered.loclCAT.case" horiz-adv-x="505" 
d="M174 596q-72 0 -123 50.5t-51 123.5q0 72 51 123t123 51q71 0 121.5 -51t50.5 -123q0 -73 -50.5 -123.5t-121.5 -50.5z" />
    <glyph glyph-name="periodcentered.loclCAT" horiz-adv-x="315" 
d="M166 512q-72 0 -123 51.5t-51 124.5q0 72 51 123t123 51q70 0 120 -51t50 -123q0 -73 -49.5 -124.5t-120.5 -51.5z" />
    <glyph glyph-name="uni0308.case" 
d="M-834 1554q-71 0 -121.5 50t-50.5 122t50.5 122t121.5 50t120.5 -50t49.5 -122t-49.5 -122t-120.5 -50zM-375 1554q-71 0 -120.5 50t-49.5 122t49.5 122t120.5 50t120.5 -50t49.5 -122t-49.5 -122t-120.5 -50z" />
    <glyph glyph-name="uni0307.case" 
d="M-606 1565q-72 0 -123 51t-51 123t51 123t123 51q71 0 121.5 -51t50.5 -123t-50.5 -123t-121.5 -51z" />
    <glyph glyph-name="gravecomb.case" 
d="M-489 1565h-199l-371 317l316 25z" />
    <glyph glyph-name="acutecomb.case" 
d="M-723 1565l254 342l317 -25l-372 -317h-199z" />
    <glyph glyph-name="uni030B.case" 
d="M-895 1565l180 358l240 -86l-248 -272h-172zM-543 1565l183 358l260 -90l-279 -268h-164z" />
    <glyph glyph-name="uni0302.case" 
d="M-989 1565l295 336h186l295 -336h-211l-178 143l-178 -143h-209z" />
    <glyph glyph-name="uni030C.case" 
d="M-989 1901h209l178 -142l178 142h211l-295 -336h-186z" />
    <glyph glyph-name="uni0306.case" 
d="M-606 1565q-164 0 -263.5 85t-103.5 244h180q33 -131 187 -131q155 0 184 131h184q-6 -161 -105 -245t-263 -84z" />
    <glyph glyph-name="uni030A.case" 
d="M-606 1395q-104 0 -173 67t-69 170q0 102 69.5 169t172.5 67t172 -67t69 -169q0 -104 -68.5 -170.5t-172.5 -66.5zM-606 1516q51 0 84 33t33 87q0 51 -33 84t-84 33q-50 0 -82.5 -33.5t-32.5 -87.5q0 -51 32.5 -83.5t82.5 -32.5z" />
    <glyph glyph-name="tildecomb.case" 
d="M-905 1552l-129 29q20 140 82.5 216.5t158.5 76.5q63 0 133.5 -31t130 -61.5t95.5 -30.5q40 0 75 30t58 85l129 -31q-20 -139 -82.5 -215t-157.5 -76q-58 0 -129 31t-131.5 61.5t-93.5 30.5q-86 0 -139 -115z" />
    <glyph glyph-name="uni0304.case" 
d="M-973 1573v199h731v-199h-731z" />
    <glyph glyph-name="dieresis.short" horiz-adv-x="1234" 
d="M412 1257q-71 0 -120.5 50.5t-49.5 122.5t49.5 122t120.5 50t120.5 -50t49.5 -122t-49.5 -122.5t-120.5 -50.5zM850 1257q-71 0 -121.5 50.5t-50.5 122.5t50.5 122t121.5 50q69 0 118.5 -50t49.5 -122t-49.5 -122.5t-118.5 -50.5z" />
    <glyph glyph-name="tonos.case" horiz-adv-x="849" 
d="M250 1077l174 404l297 -25l-275 -379h-196z" />
    <glyph glyph-name="brevecombcy" 
d="M-604 1272q-164 0 -263.5 84t-105.5 243h180q38 -131 189 -131t184 131h182q-6 -161 -104 -244t-262 -83z" />
    <glyph glyph-name="brevecombcy.case" 
d="M-606 1565q-164 0 -263.5 85t-103.5 244h180q33 -131 187 -131q155 0 184 131h184q-6 -161 -105 -245t-263 -84z" />
    <glyph glyph-name="KB" horiz-adv-x="1892" 
d="M969 -2q-192 0 -327.5 74t-192.5 194l43 19q77 -103 176.5 -148t232.5 -45q108 0 179 51t71 156q0 89 -89 176.5t-241 145.5q-32 -120 -39 -152q81 -14 146 -35l-10 -74h-508l-2 70q96 67 200 102l150 783l-133 39l-4 61q96 60 239 60l144 -72l-130 -397l-135 -388l21 -4
q37 138 85 236.5t106.5 155.5t122 82.5t138.5 25.5q113 0 181.5 -50t68.5 -151q0 -122 -100 -200t-299 -78q-76 0 -141 8v-18q56 -7 98 -13.5t100 -19.5t100.5 -28t87.5 -39t74 -53t47.5 -70t18.5 -89q0 -136 -127 -225.5t-352 -89.5zM840 676q78 3 141 20.5t101.5 43.5
t64.5 59.5t36.5 65.5t10.5 65q0 43 -23 72.5t-61 29.5q-23 0 -53.5 -18.5t-67 -57.5t-76.5 -111.5t-73 -168.5z" />
    </font>
</defs>
</svg>
