<?xml version="1.0" standalone="no"?>
<!DOCTYPE svg PUBLIC "-//W3C//DTD SVG 1.1//EN" "http://www.w3.org/Graphics/SVG/1.1/DTD/svg11.dtd" >
<svg xmlns="http://www.w3.org/2000/svg" xmlns:xlink="http://www.w3.org/1999/xlink" version="1.1">
<metadata>
Created by FontForge 20170731 at Thu Mar 24 21:06:56 2022
 By Aleksey,,,
Copyright (c) 2014 by Kostas Bartsokas. All rights reserved.
</metadata>
<defs>
<font id="ZonaPro-ExtraBold" horiz-adv-x="0" >
  <font-face 
    font-family="Zona Pro ExtraBold"
    font-weight="800"
    font-stretch="normal"
    units-per-em="2048"
    panose-1="2 1 10 3 4 0 2 2 0 4"
    ascent="1638"
    descent="-410"
    x-height="1122"
    cap-height="1456"
    bbox="-1102 -549 2867 2132"
    underline-thickness="126"
    underline-position="-362"
    unicode-range="U+000D-25CA"
  />
<missing-glyph horiz-adv-x="1024" 
 />
    <glyph glyph-name=".notdef" horiz-adv-x="1024" 
 />
    <glyph glyph-name=".null" 
 />
    <glyph glyph-name="nonmarkingreturn" horiz-adv-x="682" 
 />
    <glyph glyph-name="CR" unicode="&#xd;" horiz-adv-x="571" 
 />
    <glyph glyph-name="space" unicode=" " horiz-adv-x="387" 
 />
    <glyph glyph-name="exclam" unicode="!" horiz-adv-x="573" 
d="M164 459l-60 997h369l-59 -997h-250zM287 -31q-83 0 -142 59t-59 144q0 83 59 143t142 60t141.5 -59.5t58.5 -143.5q0 -85 -58.5 -144t-141.5 -59z" />
    <glyph glyph-name="quotedbl" unicode="&#x22;" horiz-adv-x="993" 
d="M53 907l45 549h394l-244 -549h-195zM508 907l45 549h393l-244 -549h-194z" />
    <glyph glyph-name="numbersign" unicode="#" horiz-adv-x="1439" 
d="M1376 866h-256l-45 -282h236v-267h-283l-51 -317h-258l51 317h-250l-51 -317h-260l51 317h-209v267h254l47 282h-235v267h280l52 323h260l-52 -323h248l51 323h261l-52 -323h211v-267zM567 584h250l45 282h-252z" />
    <glyph glyph-name="dollar" unicode="$" horiz-adv-x="1280" 
d="M1227 440q0 -212 -119.5 -332t-362.5 -137v-159h-165v159q-147 7 -268 40.5t-249 97.5l134 294q205 -111 383 -127v299q-123 28 -211.5 65.5t-153.5 91.5t-97 128t-32 170q0 194 127.5 317t366.5 136v129h165v-131q235 -14 431 -109l-146 -289q-162 75 -285 93v-299
l29 -7q453 -105 453 -430zM410 1059q0 -48 41.5 -79.5t128.5 -57.5v260q-170 -10 -170 -123zM745 276q154 23 154 130q0 43 -38 74t-116 55v-259z" />
    <glyph glyph-name="percent" unicode="%" horiz-adv-x="2017" 
d="M393 0l1004 1456h239l-1001 -1456h-242zM444 557q-190 0 -299.5 122t-109.5 335q0 214 109.5 336.5t299.5 122.5q192 0 301 -122t109 -337q0 -214 -109 -335.5t-301 -121.5zM444 741q93 0 145 71.5t52 199.5q0 131 -52 202.5t-145 71.5q-91 0 -143.5 -72t-52.5 -202
q0 -128 52.5 -199.5t143.5 -71.5zM1571 -20q-191 0 -300.5 121.5t-109.5 334.5q0 215 109.5 337t300.5 122t300 -122t109 -337q0 -213 -109 -334.5t-300 -121.5zM1571 164q93 0 144.5 70.5t51.5 199.5q0 131 -51.5 203t-144.5 72q-91 0 -144 -72.5t-53 -202.5
q0 -128 52.5 -199t144.5 -71z" />
    <glyph glyph-name="ampersand" unicode="&#x26;" horiz-adv-x="1372" 
d="M1399 133l-203 -196l-184 182q-151 -148 -424 -148q-250 0 -391.5 113.5t-141.5 314.5q0 133 69 236t206 160q-80 90 -112 156.5t-32 154.5q0 78 26 142t69 105.5t101.5 70t121.5 41t131 12.5q195 0 318.5 -102.5t123.5 -280.5q0 -55 -13.5 -106.5t-44 -102.5t-86 -94.5
t-132.5 -73.5l200 -197q48 76 48 182h272q0 -101 -29.5 -201.5t-89.5 -174.5zM641 1225q-66 0 -103.5 -38.5t-37.5 -101.5q0 -54 28.5 -96t94.5 -102q75 28 117 83.5t42 116.5q0 57 -37 97.5t-104 40.5zM614 254q122 0 197 61l-293 289q-60 -26 -93.5 -73t-33.5 -107
q0 -78 56.5 -124t166.5 -46z" />
    <glyph glyph-name="quotesingle" unicode="'" horiz-adv-x="538" 
d="M53 907l45 549h394l-244 -549h-195z" />
    <glyph glyph-name="parenleft" unicode="(" horiz-adv-x="806" 
d="M655 -281q-286 160 -443 406t-157 559q0 316 158 562.5t442 406.5l121 -203q-184 -137 -284.5 -331t-100.5 -435q0 -236 100 -430.5t285 -329.5z" />
    <glyph glyph-name="parenright" unicode=")" horiz-adv-x="806" 
d="M150 -281l-119 205q184 136 284.5 330t100.5 430q0 241 -100.5 435t-284.5 331l119 203q285 -160 443.5 -406.5t158.5 -562.5q0 -313 -157.5 -559t-444.5 -406z" />
    <glyph glyph-name="asterisk" unicode="*" horiz-adv-x="876" 
d="M336 729l14 256l-217 -137l-104 178l229 117l-229 117l104 180l217 -137l-14 253h207l-17 -253l217 135l105 -178l-230 -115l230 -119l-105 -180l-211 139l11 -256h-207z" />
    <glyph glyph-name="plus" unicode="+" horiz-adv-x="1171" 
d="M438 145v377h-381v297h381v379h295v-379h379v-297h-379v-377h-295z" />
    <glyph glyph-name="comma" unicode="," horiz-adv-x="518" 
d="M266 369q33 0 64.5 -11t63.5 -37t51.5 -79t19.5 -127q0 -420 -412 -420v149q82 0 127.5 34.5t48.5 101.5q-71 9 -117 59.5t-46 130.5q0 96 58 147.5t142 51.5z" />
    <glyph glyph-name="hyphen" unicode="-" horiz-adv-x="784" 
d="M55 512v317h674v-317h-674z" />
    <glyph glyph-name="period" unicode="." horiz-adv-x="571" 
d="M287 -31q-84 0 -143.5 59.5t-59.5 143.5q0 83 60 143t143 60t141.5 -59.5t58.5 -143.5q0 -85 -58.5 -144t-141.5 -59z" />
    <glyph glyph-name="slash" unicode="/" horiz-adv-x="1083" 
d="M-76 -264l914 1911h313l-915 -1911h-312z" />
    <glyph glyph-name="zero" unicode="0" horiz-adv-x="1509" 
d="M756 -31q-316 0 -498 201.5t-182 556.5t182 557.5t498 202.5q315 0 495.5 -202t180.5 -558t-180 -557t-496 -201zM756 301q144 0 226.5 112t82.5 314t-82.5 315t-226.5 113q-146 0 -230 -113t-84 -315t84 -314t230 -112z" />
    <glyph glyph-name="one" unicode="1" horiz-adv-x="911" 
d="M403 0v1085l-274 -100l-104 279l510 192h227v-1456h-359z" />
    <glyph glyph-name="two" unicode="2" horiz-adv-x="1261" 
d="M479 324h717v-324h-1137v102q3 161 92.5 285t313.5 272q77 50 122 81.5t93.5 71t72.5 70.5t40 68t16 76q0 68 -55.5 106.5t-143.5 38.5q-113 0 -171 -58.5t-58 -158.5v-36h-330v63q0 240 145.5 372t421.5 132q166 0 293 -47t202 -144t75 -233q0 -80 -20 -148
t-53.5 -121.5t-92.5 -107t-121.5 -97t-155.5 -98.5q-214 -125 -266 -165z" />
    <glyph glyph-name="three" unicode="3" horiz-adv-x="1267" 
d="M764 909q107 -6 194 -45.5t142 -102t84.5 -141t29.5 -165.5q0 -122 -42.5 -215.5t-121 -152.5t-184 -88.5t-235.5 -29.5q-275 0 -432.5 124t-157.5 341v25h334v-8q0 -80 64.5 -127.5t176.5 -47.5q114 0 177 53t63 146q0 94 -68 143.5t-180 49.5q-95 0 -192 -43l-119 159
l377 363h-559v309h1042v-174z" />
    <glyph glyph-name="four" unicode="4" horiz-adv-x="1366" 
d="M1137 539h209v-299h-209v-240h-357v240h-747v176l837 1042h267v-919zM461 520h358v447z" />
    <glyph glyph-name="five" unicode="5" horiz-adv-x="1288" 
d="M698 977q154 0 276 -60.5t193.5 -177t71.5 -270.5q0 -168 -75 -281t-205 -165t-310 -52q-274 0 -433 124.5t-159 340.5v25h332v-6q0 -81 70 -128.5t182 -47.5q117 0 178.5 54.5t61.5 155.5q0 108 -66.5 162t-187.5 54q-65 0 -126 -22.5t-93 -59.5h-295l49 833h987v-309
h-688l-17 -217q110 47 254 47z" />
    <glyph glyph-name="six" unicode="6" horiz-adv-x="1382" 
d="M799 946q111 0 200.5 -26t158.5 -79t107 -142.5t38 -209.5q0 -251 -159 -385.5t-429 -134.5q-318 0 -480.5 193t-162.5 536q0 390 163.5 589.5t473.5 199.5q243 0 392.5 -115.5t149.5 -279.5v-25h-348q-8 58 -55 92.5t-133 34.5q-140 0 -216.5 -103t-76.5 -274
q63 61 160 95t217 34zM713 264q110 0 170.5 62.5t60.5 154.5q0 97 -67.5 152t-171.5 55q-98 0 -166 -48t-93 -105q5 -113 77.5 -192t189.5 -79z" />
    <glyph glyph-name="seven" unicode="7" horiz-adv-x="1181" 
d="M45 1456h1100v-174l-647 -1282h-404l592 1130h-641v326z" />
    <glyph glyph-name="eight" unicode="8" horiz-adv-x="1355" 
d="M1040 774q120 -38 190 -137.5t70 -214.5q0 -151 -78 -254t-215 -151t-329 -48q-293 0 -459 113.5t-166 339.5q0 115 70 214t190 136q-186 99 -186 320q0 129 72 219.5t194 133t285 42.5t284.5 -42.5t193 -132.5t71.5 -220q0 -113 -50 -193t-137 -125zM678 1204
q-103 0 -162 -43t-59 -121q0 -69 59.5 -114t161.5 -45t160.5 45t58.5 114q0 79 -58.5 121.5t-160.5 42.5zM678 264q120 0 188 45.5t68 134.5q0 87 -68.5 137t-187.5 50q-120 0 -189 -49.5t-69 -137.5q0 -89 69 -134.5t189 -45.5z" />
    <glyph glyph-name="nine" unicode="9" horiz-adv-x="1349" 
d="M643 1487q318 0 480.5 -194t162.5 -537q0 -386 -168.5 -586.5t-470.5 -200.5q-131 0 -237.5 31.5t-174.5 86t-104.5 125t-36.5 150.5v37h348q20 -137 201 -137q134 0 208.5 100.5t76.5 268.5q-134 -121 -367 -121q-112 0 -201.5 25.5t-159 78.5t-107.5 143t-38 210
q0 250 159 385t429 135zM653 768q99 0 165.5 48t92.5 106q-5 113 -76.5 191.5t-189.5 78.5q-110 0 -170.5 -62.5t-60.5 -154.5q0 -96 68.5 -151.5t170.5 -55.5z" />
    <glyph glyph-name="colon" unicode=":" horiz-adv-x="548" 
d="M276 750q-85 0 -143.5 58.5t-58.5 143.5q0 84 59 143.5t143 59.5q83 0 142 -60t59 -143q0 -84 -58.5 -143t-142.5 -59zM276 -31q-85 0 -143.5 59t-58.5 144q0 84 59 143.5t143 59.5q83 0 142 -60t59 -143q0 -85 -59 -144t-142 -59z" />
    <glyph glyph-name="semicolon" unicode=";" horiz-adv-x="536" 
d="M264 750q-84 0 -143.5 59t-59.5 143q0 83 60 143t143 60t142 -60t59 -143q0 -84 -58.5 -143t-142.5 -59zM266 369q33 0 64.5 -11t63.5 -37t51.5 -79t19.5 -127q0 -420 -412 -420v149q82 0 127.5 34.5t48.5 101.5q-71 9 -117 59.5t-46 130.5q0 96 58 147.5t142 51.5z" />
    <glyph glyph-name="less" unicode="&#x3c;" horiz-adv-x="1138" 
d="M1061 1255v-333l-567 -250l567 -248v-334l-1020 473v217z" />
    <glyph glyph-name="equal" unicode="=" horiz-adv-x="1179" 
d="M82 784v297h1016v-297h-1016zM82 264v297h1016v-297h-1016z" />
    <glyph glyph-name="greater" unicode="&#x3e;" horiz-adv-x="1138" 
d="M76 1255l1022 -475v-217l-1022 -473v334l567 248l-567 250v333z" />
    <glyph glyph-name="question" unicode="?" horiz-adv-x="1198" 
d="M1149 1028q0 -190 -136 -326t-370 -151l-33 -92h-182l-39 309l100 8q145 13 222 71.5t77 153.5q0 88 -65 140.5t-156 52.5q-112 0 -174.5 -63t-62.5 -189v-14h-324v33q0 170 76 290.5t205 178t299 57.5q120 0 220.5 -27.5t178 -82.5t121 -144t43.5 -205zM522 -31
q-83 0 -141.5 59t-58.5 144q0 84 58.5 143.5t141.5 59.5t142 -60t59 -143q0 -85 -59 -144t-142 -59z" />
    <glyph glyph-name="at" unicode="@" horiz-adv-x="1878" 
d="M1438 1057l-86 -584q-31 -207 118 -207q101 0 162.5 92t61.5 252q0 216 -96 386t-267.5 264t-390.5 94q-164 0 -305 -58t-240 -159.5t-155 -244t-56 -306.5q0 -220 93.5 -393t265.5 -270t393 -97q301 0 498 180l100 -104q-219 -219 -604 -219q-266 0 -471.5 115.5
t-316.5 320.5t-111 467q0 261 117 469t324.5 324t467.5 116t466.5 -111.5t322.5 -313t116 -456.5q0 -229 -124.5 -368.5t-323.5 -139.5q-102 0 -174 40.5t-107 111.5q-92 -141 -291 -141q-189 0 -305.5 117t-116.5 339q0 234 125.5 381.5t321.5 147.5q110 0 189 -48
t104 -124l18 127h277zM872 406q85 0 142 61.5t57 157.5q0 86 -47 138t-123 52q-84 0 -135 -63t-51 -160q0 -83 43.5 -134.5t113.5 -51.5z" />
    <glyph glyph-name="A" unicode="A" horiz-adv-x="1591" 
d="M1192 0l-107 238h-581l-107 -238h-393l670 1458h241l670 -1458h-393zM696 723l-82 -197h363l-82 197l-100 285z" />
    <glyph glyph-name="B" unicode="B" horiz-adv-x="1437" 
d="M1100 791q134 -29 217.5 -123t83.5 -234q0 -434 -570 -434h-708v1456h682q235 0 360 -89.5t125 -258.5q0 -121 -50 -201t-140 -116zM481 1157v-293h291q176 0 176 148q0 70 -44 107.5t-124 37.5h-299zM834 303q95 0 145.5 38.5t50.5 107.5q0 68 -54.5 106.5t-154.5 38.5
h-340v-291h353z" />
    <glyph glyph-name="C" unicode="C" horiz-adv-x="1523" 
d="M854 -31q-353 0 -563.5 205t-210.5 557q0 232 95.5 403t270 261t408.5 90q203 0 369 -74.5t274 -206.5l-280 -233q-55 80 -146.5 128t-204.5 48q-189 0 -299 -111t-110 -305q0 -196 110.5 -310t298.5 -114q115 0 205.5 47t145.5 127l280 -235q-230 -277 -643 -277z" />
    <glyph glyph-name="D" unicode="D" horiz-adv-x="1523" 
d="M123 0v1456h594q344 0 535.5 -181.5t191.5 -529.5q0 -351 -186 -548t-537 -197h-598zM471 326h260q150 0 243 104t93 315q0 183 -94.5 283t-249.5 100h-252v-802z" />
    <glyph glyph-name="E" unicode="E" horiz-adv-x="1310" 
d="M123 0v1456h1100v-317h-752v-275h633v-297h-633v-250h778v-317h-1126z" />
    <glyph glyph-name="F" unicode="F" horiz-adv-x="1259" 
d="M123 0v1456h1096v-330h-738v-331h625v-324h-625v-471h-358z" />
    <glyph glyph-name="G" unicode="G" horiz-adv-x="1622" 
d="M815 829h744v-643q-105 -101 -271 -159t-377 -58q-380 0 -605.5 205t-225.5 553q0 230 101 403t283 265t419 92q390 0 620 -211l-227 -252q-68 59 -170 93t-217 34q-197 0 -314.5 -115t-117.5 -309q0 -205 126.5 -318.5t346.5 -113.5q187 0 297 72v157h-412v305z" />
    <glyph glyph-name="H" unicode="H" horiz-adv-x="1536" 
d="M123 0v1456h358v-620h574v620h358v-1456h-358v508h-574v-508h-358z" />
    <glyph glyph-name="I" unicode="I" horiz-adv-x="651" 
d="M143 0v1456h367v-1456h-367z" />
    <glyph glyph-name="J" unicode="J" horiz-adv-x="1286" 
d="M598 -31q-266 0 -422 155t-162 419h355q7 -126 72.5 -182t158.5 -56q102 0 156.5 62t54.5 213v876h365v-874q0 -321 -142.5 -467t-435.5 -146z" />
    <glyph glyph-name="K" unicode="K" horiz-adv-x="1470" 
d="M1034 0l-387 551l-174 -201v-350h-350v1456h350v-657l504 657h438l-510 -649l568 -807h-439z" />
    <glyph glyph-name="L" unicode="L" horiz-adv-x="1236" 
d="M123 0v1456h366v-1120h709v-336h-1075z" />
    <glyph glyph-name="M" unicode="M" horiz-adv-x="1792" 
d="M1483 1458h186v-1458h-350v698l-361 -456h-124l-361 452v-694h-350v1458h186l588 -749z" />
    <glyph glyph-name="N" unicode="N" horiz-adv-x="1587" 
d="M1110 1456h356v-1460h-184l-803 807v-803h-356v1458h182l805 -805v803z" />
    <glyph glyph-name="O" unicode="O" horiz-adv-x="1738" 
d="M868 -31q-229 0 -408.5 95t-279.5 267.5t-100 395.5q0 166 57.5 307t159.5 240.5t249.5 156t321.5 56.5q231 0 411 -95t280 -268t100 -397q0 -220 -98 -392.5t-278.5 -269t-414.5 -96.5zM868 305q186 0 300 116t114 306t-113 307t-301 117q-184 0 -297.5 -116.5
t-113.5 -307.5q0 -189 112.5 -305.5t298.5 -116.5z" />
    <glyph glyph-name="P" unicode="P" horiz-adv-x="1355" 
d="M707 1456q302 0 461 -138.5t159 -402.5q0 -285 -162 -421t-477 -136h-207v-358h-358v1456h584zM678 664q276 0 276 239q0 123 -62 182.5t-204 59.5h-207v-481h197z" />
    <glyph glyph-name="Q" unicode="Q" horiz-adv-x="1738" 
d="M1659 727q0 -313 -195 -524l152 -172l-234 -193l-168 197q-157 -66 -346 -66q-229 0 -408.5 95t-279.5 267.5t-100 395.5q0 166 57.5 307t159.5 240.5t249.5 156t321.5 56.5q231 0 411 -95t280 -268t100 -397zM868 305q50 0 105 10l-137 160l223 187l158 -179
q65 100 65 244q0 190 -113 307t-301 117q-184 0 -297.5 -116.5t-113.5 -307.5q0 -189 112.5 -305.5t298.5 -116.5z" />
    <glyph glyph-name="R" unicode="R" horiz-adv-x="1417" 
d="M1403 0h-436l-262 383h-11h-213v-383h-358v1456h602q302 0 461.5 -138t159.5 -398q0 -339 -275 -467zM481 1145v-463h209q141 0 210 60.5t69 156.5q0 124 -63.5 185t-205.5 61h-219z" />
    <glyph glyph-name="S" unicode="S" horiz-adv-x="1290" 
d="M682 -31q-188 0 -333.5 33t-295.5 104l133 302q112 -56 239.5 -90.5t240.5 -34.5q208 0 208 129q0 62 -57 94.5t-194 58.5q-105 20 -183 43.5t-150 60t-117.5 84t-72 116t-26.5 155.5q0 216 144.5 338.5t424.5 122.5q322 0 557 -113l-147 -295q-223 88 -408 88
q-95 0 -145.5 -28.5t-50.5 -83.5q0 -23 8.5 -41t29.5 -33t44 -26.5t65 -23.5t79 -20.5t99 -21.5q115 -23 195.5 -53t148.5 -80.5t101.5 -128.5t33.5 -185q0 -471 -571 -471z" />
    <glyph glyph-name="T" unicode="T" horiz-adv-x="1331" 
d="M483 0v1120h-444v336h1251v-336h-440v-1120h-367z" />
    <glyph glyph-name="U" unicode="U" horiz-adv-x="1513" 
d="M756 -31q-311 0 -478 154t-167 450v883h366v-794q0 -187 69.5 -270t209.5 -83q142 0 212 83t70 270v794h365v-883q0 -299 -164 -451.5t-483 -152.5z" />
    <glyph glyph-name="V" unicode="V" horiz-adv-x="1488" 
d="M1081 1456h404l-639 -1460h-209l-633 1460h410l250 -643l81 -246l84 244z" />
    <glyph glyph-name="W" unicode="W" horiz-adv-x="2199" 
d="M1800 1456h395l-542 -1460h-180l-375 835l-369 -835h-178l-547 1460h402l266 -794l336 794h186l336 -801z" />
    <glyph glyph-name="X" unicode="X" horiz-adv-x="1478" 
d="M1462 0h-424l-303 481l-295 -481h-424l471 743l-452 713h422l284 -467l287 467h414l-449 -713z" />
    <glyph glyph-name="Y" unicode="Y" horiz-adv-x="1421" 
d="M1427 1456l-532 -946v-510h-367v508l-532 948h420l297 -594l301 594h413z" />
    <glyph glyph-name="Z" unicode="Z" horiz-adv-x="1378" 
d="M608 328h690v-328h-1235v166l680 962h-639v328h1192v-174z" />
    <glyph glyph-name="bracketleft" unicode="[" horiz-adv-x="849" 
d="M127 -254v1882h674v-268h-385v-1348h385v-266h-674z" />
    <glyph glyph-name="backslash" unicode="\" horiz-adv-x="1083" 
d="M1159 -264h-313l-914 1911h312z" />
    <glyph glyph-name="bracketright" unicode="]" horiz-adv-x="849" 
d="M723 -254h-674v266h385v1348h-385v268h674v-1882z" />
    <glyph glyph-name="asciicircum" unicode="^" horiz-adv-x="974" 
d="M932 934h-324l-121 256l-122 -256h-320l354 539h174z" />
    <glyph glyph-name="underscore" unicode="_" horiz-adv-x="1228" 
d="M-6 -266v205h1241v-205h-1241z" />
    <glyph glyph-name="grave" unicode="`" horiz-adv-x="1017" 
d="M897 1272h-235l-396 325l387 31z" />
    <glyph glyph-name="a" unicode="a" horiz-adv-x="1355" 
d="M596 -27q-244 0 -388.5 160t-144.5 428q0 269 143 430.5t376 161.5q89 0 172 -27t141 -84v80h348v-1122h-340v94q-101 -121 -307 -121zM686 283q153 0 217 125v315q-30 56 -91.5 87.5t-133.5 31.5q-112 0 -181 -73t-69 -206q0 -131 68.5 -205.5t189.5 -74.5z" />
    <glyph glyph-name="b" unicode="b" horiz-adv-x="1359" 
d="M766 -27q-208 0 -309 121v-94h-340v1556h348v-514q58 57 141 84t172 27q233 0 374.5 -161.5t141.5 -430.5q0 -268 -143 -428t-385 -160zM674 283q121 0 189.5 74.5t68.5 205.5q0 133 -68.5 206t-181.5 73q-71 0 -133 -31.5t-92 -87.5v-315q32 -63 89.5 -94t127.5 -31z
" />
    <glyph glyph-name="c" unicode="c" horiz-adv-x="1216" 
d="M674 -23q-288 0 -449.5 157.5t-161.5 426.5q0 170 70 301.5t208 208t325 76.5q170 0 299.5 -62.5t203.5 -171.5l-243 -213q-36 60 -99 95.5t-139 35.5q-119 0 -192.5 -72.5t-73.5 -191.5q0 -126 73 -200t195 -74q83 0 147 36.5t99 92.5l242 -213q-78 -108 -207.5 -170
t-296.5 -62z" />
    <glyph glyph-name="d" unicode="d" horiz-adv-x="1355" 
d="M596 -27q-244 0 -388.5 160t-144.5 428q0 269 143 430.5t376 161.5q89 0 172 -27t141 -84v514h348v-1556h-340v94q-101 -121 -307 -121zM686 283q153 0 217 125v315q-30 56 -91.5 87.5t-133.5 31.5q-112 0 -181 -73t-69 -206q0 -131 68.5 -205.5t189.5 -74.5z" />
    <glyph glyph-name="e" unicode="e" horiz-adv-x="1273" 
d="M1229 561q0 -71 -2 -100h-809q45 -203 274 -203q88 0 164.5 34t128.5 99l217 -182q-166 -234 -540 -234q-283 0 -441 158.5t-158 429.5q0 175 75.5 310t209 207.5t303.5 72.5q141 0 252 -43.5t182 -123t107.5 -187t36.5 -238.5zM651 872q-87 0 -151 -47.5t-84 -150.5h471
q-5 79 -64.5 138.5t-171.5 59.5z" />
    <glyph glyph-name="f" unicode="f" horiz-adv-x="790" 
d="M166 0v817h-139v305h139v95q0 184 100 278t273 94q151 0 247 -49v-260q-84 23 -133 23q-68 0 -103.5 -34t-35.5 -110v-37h266v-305h-262v-817h-352z" />
    <glyph glyph-name="g" unicode="g" horiz-adv-x="1347" 
d="M645 -395q-298 0 -459 63v307q205 -81 394 -81q161 0 242 48.5t81 161.5v68q-100 -123 -307 -123q-241 0 -387 154.5t-146 396.5q0 243 144 398t375 155q89 0 172 -27t141 -84v80h348v-874q0 -117 -17 -210.5t-59 -176.5t-109.5 -138t-171.5 -86.5t-241 -31.5zM686 356
q153 0 217 125v244q-30 57 -91.5 89t-133.5 32q-111 0 -180.5 -68t-69.5 -176q0 -106 70 -176t188 -70z" />
    <glyph glyph-name="h" unicode="h" horiz-adv-x="1310" 
d="M113 0v1556h352v-522q59 50 146.5 83.5t179.5 33.5q222 0 319.5 -110t97.5 -361v-680h-354v578q0 144 -43.5 203t-146.5 59q-119 0 -197 -92v-748h-354z" />
    <glyph glyph-name="i" unicode="i" horiz-adv-x="598" 
d="M301 1253q-85 0 -144 59t-59 144q0 84 59.5 143.5t143.5 59.5q83 0 142 -60t59 -143q0 -85 -59 -144t-142 -59zM123 0v1122h354v-1122h-354z" />
    <glyph glyph-name="j" unicode="j" horiz-adv-x="614" 
d="M315 1253q-85 0 -143.5 59t-58.5 144q0 84 59 143.5t143 59.5q83 0 142 -60t59 -143q0 -85 -59 -144t-142 -59zM141 -393q-114 0 -192 20v283q43 -12 76 -12q31 0 52 10.5t32.5 26.5t17 49t7 62t1.5 83v993h359v-1175q0 -172 -97.5 -256t-255.5 -84z" />
    <glyph glyph-name="k" unicode="k" horiz-adv-x="1292" 
d="M881 0l-258 438l-154 -153v-285h-352v1556h352v-866l377 432h426l-395 -444l399 -678h-395z" />
    <glyph glyph-name="l" unicode="l" horiz-adv-x="589" 
d="M117 0v1556h354v-1556h-354z" />
    <glyph glyph-name="m" unicode="m" horiz-adv-x="2025" 
d="M1520 1153q212 0 307.5 -112.5t95.5 -364.5v-676h-354v606q0 122 -42.5 178t-133.5 56q-123 0 -199 -88q2 -25 2 -76v-676h-348v610q0 119 -42 174.5t-132 55.5q-115 0 -199 -90v-750h-352v1122h338v-88q150 119 354 119q220 0 309 -137q166 137 396 137z" />
    <glyph glyph-name="n" unicode="n" horiz-adv-x="1316" 
d="M123 0v1122h338v-88q63 51 152.5 84t185.5 33q222 0 318.5 -110t96.5 -361v-680h-354v578q0 144 -43 203t-145 59q-119 0 -197 -92v-748h-352z" />
    <glyph glyph-name="o" unicode="o" horiz-adv-x="1372" 
d="M686 -27q-284 0 -453.5 159t-169.5 429q0 269 170 429.5t453 160.5q282 0 451.5 -160.5t169.5 -429.5q0 -270 -169 -429t-452 -159zM686 291q116 0 186 73t70 197q0 123 -70.5 198t-185.5 75q-117 0 -187.5 -75t-70.5 -198q0 -124 70.5 -197t187.5 -73z" />
    <glyph glyph-name="p" unicode="p" horiz-adv-x="1366" 
d="M123 -362v1484h346v-80q117 111 315 111q231 0 373.5 -161.5t142.5 -430.5q0 -268 -144 -428t-386 -160q-203 0 -301 121v-456h-346zM680 283q120 0 188 74.5t68 205.5q0 133 -68.5 206t-181.5 73q-71 0 -132 -31.5t-91 -87.5v-315q64 -125 217 -125z" />
    <glyph glyph-name="q" unicode="q" horiz-adv-x="1351" 
d="M895 -362v456q-96 -121 -299 -121q-244 0 -388.5 160t-144.5 428q0 269 143 430.5t376 161.5q89 0 172 -27t141 -84v80h348v-1484h-348zM686 283q153 0 217 125v315q-30 56 -91.5 87.5t-133.5 31.5q-112 0 -181 -73t-69 -206q0 -131 68.5 -205.5t189.5 -74.5z" />
    <glyph glyph-name="r" unicode="r" horiz-adv-x="892" 
d="M123 0v1122h338v-131q137 160 340 160q21 0 49 -4v-379q-75 14 -119 14q-117 0 -186.5 -65t-69.5 -201v-516h-352z" />
    <glyph glyph-name="s" unicode="s" horiz-adv-x="1083" 
d="M530 -31q-265 0 -479 92l105 265q71 -47 170 -72t188 -25q158 0 158 84q0 37 -42 57.5t-179 51.5q-93 21 -160 48t-121.5 68.5t-81.5 102t-27 141.5q0 182 123.5 274.5t341.5 92.5q136 0 240 -23.5t219 -66.5l-115 -271q-71 38 -171 64.5t-175 26.5q-118 0 -118 -70
q0 -36 40 -56.5t177 -54.5q204 -51 303.5 -128.5t99.5 -217.5q0 -383 -496 -383z" />
    <glyph glyph-name="t" unicode="t" horiz-adv-x="839" 
d="M530 -29q-186 0 -277 88t-91 283v475h-146v305h146v434h350v-434h291v-305h-291v-409q0 -78 27 -111t96 -33q90 0 166 35v-297q-102 -31 -271 -31z" />
    <glyph glyph-name="u" unicode="u" horiz-adv-x="1292" 
d="M510 -27q-416 0 -416 471v678h355v-575q0 -141 43 -201.5t133 -60.5q123 0 206 102v735h355v-1122h-334v100q-127 -127 -342 -127z" />
    <glyph glyph-name="v" unicode="v" horiz-adv-x="1269" 
d="M874 1122h394l-529 -1124h-207l-528 1124h404l157 -405l74 -219l74 215z" />
    <glyph glyph-name="w" unicode="w" horiz-adv-x="1687" 
d="M1323 1122h360l-383 -1124h-194l-264 590l-258 -590h-195l-385 1124h365l155 -561l234 563h172l233 -569z" />
    <glyph glyph-name="x" unicode="x" horiz-adv-x="1253" 
d="M1245 0h-399l-221 319l-222 -319h-395l395 575l-389 547h408l205 -305l207 305h405l-385 -540z" />
    <glyph glyph-name="y" unicode="y" horiz-adv-x="1263" 
d="M881 1122h379l-449 -1118q-41 -104 -92.5 -178.5t-101 -116.5t-111 -66t-112.5 -31t-118 -7q-113 0 -192 26v293q80 -28 156 -28q164 0 235 124l-500 1102h398l260 -671z" />
    <glyph glyph-name="z" unicode="z" horiz-adv-x="1107" 
d="M551 287h539v-287h-1045v170l518 670h-485v282h1005v-166z" />
    <glyph glyph-name="braceleft" unicode="{" horiz-adv-x="944" 
d="M911 -254q-313 0 -436 76.5t-123 279.5v121q0 84 -1 120t-10.5 84.5t-27.5 64.5t-54.5 35.5t-88.5 23.5t-133 4v266q81 0 133 4t88.5 23.5t54.5 35.5t27.5 64.5t10.5 84.5t1 120v119q0 137 53 213t172.5 109.5t333.5 33.5v-227q-62 0 -106.5 -7t-74.5 -24t-48 -37
t-27.5 -54t-12.5 -67t-3 -84v-151q0 -119 -36.5 -188t-133.5 -101q100 -30 135 -101t35 -188v-155q0 -62 4.5 -100.5t20 -75t45.5 -55.5t79.5 -30.5t122.5 -11.5v-225z" />
    <glyph glyph-name="bar" unicode="|" horiz-adv-x="706" 
d="M215 -264v1911h279v-1911h-279z" />
    <glyph glyph-name="braceright" unicode="}" horiz-adv-x="944" 
d="M33 -254v225q73 0 122.5 11.5t79.5 30.5t45.5 55.5t20 75t4.5 100.5v155q0 117 35 188t135 101q-97 32 -133.5 101t-36.5 188v151q0 51 -3 84t-12.5 67t-27.5 54t-48 37t-74.5 24t-106.5 7v227q315 0 437 -77t122 -279v-119q0 -84 1 -120t10.5 -84.5t27.5 -64.5
t54.5 -35.5t88.5 -23.5t133 -4v-266q-81 0 -133 -4t-88.5 -23.5t-54.5 -35.5t-27.5 -64.5t-10.5 -84.5t-1 -120v-121q0 -203 -123 -279.5t-436 -76.5z" />
    <glyph glyph-name="asciitilde" unicode="~" horiz-adv-x="1308" 
d="M895 449q-47 0 -104 11.5t-91 21.5t-98 32q-141 45 -199 45q-93 0 -155 -104l-195 49q63 391 346 391q116 0 324 -70q132 -41 182 -41q91 0 152 109l198 -53q-32 -197 -124.5 -294t-235.5 -97z" />
    <glyph glyph-name="exclamdown" unicode="&#xa1;" horiz-adv-x="573" 
d="M287 1487q83 0 141.5 -59t58.5 -144q0 -84 -58.5 -143.5t-141.5 -59.5t-142 60t-59 143q0 85 59 144t142 59zM164 995h250l59 -995h-369z" />
    <glyph glyph-name="cent" unicode="&#xa2;" horiz-adv-x="1202" 
d="M1165 311q-68 -95 -174.5 -154.5t-245.5 -74.5v-223h-165v223q-251 23 -389 177.5t-138 402.5q0 159 60.5 284.5t180.5 204t286 92.5v248h165v-248q273 -29 414 -227l-203 -189q-75 123 -211 150v-631q144 28 226 152zM356 666q0 -122 59.5 -205t164.5 -109v623
q-104 -27 -164 -108t-60 -201z" />
    <glyph glyph-name="sterling" unicode="&#xa3;" horiz-adv-x="1351" 
d="M647 317h645v-317h-1200v256l205 43q0 60 -25 231q0 3 -1 8.5t-1 8.5h-180v233h154q-2 27 -2 84q0 166 39.5 288t111.5 193t163.5 104.5t205.5 33.5q108 0 202 -32.5t164.5 -93.5t111 -155.5t40.5 -212.5v-45h-309v12q0 89 -53.5 143t-133.5 54q-194 0 -194 -254
q0 -58 6 -119h455v-233h-426q22 -147 22 -230z" />
    <glyph glyph-name="currency" unicode="&#xa4;" horiz-adv-x="1198" 
d="M1051 668q0 -125 -70 -228l145 -147l-147 -152l-154 154q-105 -59 -223 -59q-122 0 -225 61l-158 -158l-149 152l153 155q-65 105 -65 226q0 118 65 223l-153 154l149 153l156 -155q108 65 227 65q121 0 225 -63l152 153l149 -153l-147 -148q70 -111 70 -233zM420 668
q0 -76 53 -130.5t131 -54.5q79 0 131.5 55t52.5 134t-54 132.5t-130 53.5q-78 0 -131 -54.5t-53 -135.5z" />
    <glyph glyph-name="yen" unicode="&#xa5;" horiz-adv-x="1353" 
d="M1366 1456l-426 -790h283v-168h-367v-115h367v-166h-367v-217h-356v217h-359v166h359v113l-2 2h-357v168h269l-422 790h420l270 -596l272 596h416z" />
    <glyph glyph-name="brokenbar" unicode="&#xa6;" horiz-adv-x="706" 
d="M215 856v791h279v-791h-279zM215 -262v790h279v-790h-279z" />
    <glyph glyph-name="section" unicode="&#xa7;" horiz-adv-x="1122" 
d="M551 -23q-299 0 -516 103l106 229q81 -40 190 -65t212 -25q170 0 170 66q0 40 -49 61t-205 55q-222 46 -313 109.5t-91 189.5q0 73 38 131t104 93q-125 73 -125 221q0 170 124.5 256t340.5 86q257 0 510 -90l-117 -244q-83 36 -193.5 61t-189.5 25q-66 0 -99.5 -15
t-33.5 -50q0 -22 19 -37t68.5 -30t155.5 -38q213 -47 314.5 -115.5t101.5 -189.5q0 -146 -143 -219q133 -72 133 -228q0 -340 -512 -340zM645 618q59 6 91 31t32 62q0 41 -39.5 65t-134.5 43q-126 26 -143 29q-40 -8 -67.5 -34.5t-27.5 -59.5q0 -42 37.5 -68t132.5 -47
q90 -18 119 -21z" />
    <glyph glyph-name="dieresis" unicode="&#xa8;" horiz-adv-x="1032" 
d="M268 1255q-83 0 -140.5 58t-57.5 141q0 82 57.5 139.5t140.5 57.5q82 0 138.5 -57.5t56.5 -139.5q0 -83 -56.5 -141t-138.5 -58zM768 1255q-83 0 -141 58t-58 141q0 82 58 139.5t141 57.5q80 0 137.5 -58t57.5 -139q0 -83 -57.5 -141t-137.5 -58z" />
    <glyph glyph-name="copyright" unicode="&#xa9;" horiz-adv-x="1564" 
d="M782 -18q-160 0 -298.5 56t-236.5 154.5t-154 238t-56 300.5t56.5 300.5t155 238t237.5 155t300 56.5q212 0 381.5 -96t265 -267.5t95.5 -386.5q0 -161 -56 -300.5t-154 -238t-236.5 -154.5t-299.5 -56zM782 135q166 0 299.5 77t209 213.5t75.5 305.5t-75 305.5
t-207.5 213.5t-297.5 77q-168 0 -302.5 -78t-209.5 -214.5t-75 -305.5q0 -168 74.5 -304t208 -213t300.5 -77zM797 299q-196 0 -315.5 117t-119.5 313q0 193 120 310.5t315 117.5q199 0 336 -158l-181 -151q-27 40 -69.5 65t-87.5 25q-88 0 -140.5 -57t-52.5 -152
q0 -97 52.5 -154t140.5 -57q47 0 89 23.5t68 64.5l181 -149q-132 -158 -336 -158z" />
    <glyph glyph-name="ordfeminine" unicode="&#xaa;" horiz-adv-x="960" 
d="M428 643q-173 0 -278 115t-105 303q0 185 104.5 299.5t268.5 114.5q68 0 136 -22t112 -69v72h198v-794h-196v73q-75 -92 -240 -92zM477 823q135 0 191 103v270q-25 45 -81 71.5t-116 26.5q-97 0 -156 -61.5t-59 -171.5q0 -112 59.5 -175t161.5 -63z" />
    <glyph glyph-name="guillemotleft" unicode="&#xab;" horiz-adv-x="1230" 
d="M412 14l-363 535l363 534l227 -170l-274 -364l274 -363zM942 14l-362 535l362 534l229 -170l-274 -364l274 -363z" />
    <glyph glyph-name="logicalnot" unicode="&#xac;" horiz-adv-x="1314" 
d="M883 111v417h-826v299h1160v-716h-334z" />
    <glyph glyph-name="uni00AD" unicode="&#xad;" horiz-adv-x="784" 
d="M55 512v317h674v-317h-674z" />
    <glyph glyph-name="registered" unicode="&#xae;" horiz-adv-x="1091" 
d="M545 444q-222 0 -368 148t-146 373q0 224 146.5 370t369.5 146q222 0 366 -146.5t144 -369.5q0 -226 -144.5 -373.5t-367.5 -147.5zM545 551q171 0 285 118.5t114 295.5q0 175 -113.5 292t-283.5 117q-174 0 -288 -117.5t-114 -293.5t113 -294t287 -118zM330 696v555h221
q115 0 177.5 -52.5t62.5 -151.5q0 -123 -105 -170l109 -181h-160l-84 150h-84v-150h-137zM467 961h72q52 0 79 22.5t27 58.5q0 93 -98 93h-80v-174z" />
    <glyph glyph-name="macron" unicode="&#xaf;" horiz-adv-x="1032" 
d="M137 1298v236h756v-236h-756z" />
    <glyph glyph-name="degree" unicode="&#xb0;" horiz-adv-x="856" 
d="M428 719q-170 0 -279.5 108.5t-109.5 274.5t109.5 273.5t279.5 107.5q171 0 280 -107.5t109 -275.5q0 -166 -109 -273.5t-280 -107.5zM428 934q71 0 116.5 47.5t45.5 120.5q0 72 -45.5 118t-116.5 46q-72 0 -119 -47.5t-47 -118.5q0 -73 47 -119.5t119 -46.5z" />
    <glyph glyph-name="plusminus" unicode="&#xb1;" horiz-adv-x="1216" 
d="M461 381v379h-381v297h381v379h295v-379h379v-297h-379v-379h-295zM80 0v293h1053v-293h-1053z" />
    <glyph glyph-name="uni00B2" unicode="&#xb2;" horiz-adv-x="770" 
d="M283 764h442v-186h-678v65q0 100 53.5 172t192.5 166q51 33 72.5 48t55 40.5t46.5 42t24 39.5t11 47q0 42 -34.5 65t-86.5 23q-65 0 -104 -34t-39 -95v-24h-197v38q0 140 91 219.5t253 79.5q148 0 243 -67t95 -189q0 -50 -13.5 -92t-33 -72t-60 -64t-74 -56.5
t-96.5 -61.5q-18 -11 -50 -30t-47 -28t-34 -22t-32 -24z" />
    <glyph glyph-name="uni00B3" unicode="&#xb3;" horiz-adv-x="776" 
d="M473 1135q124 -9 194 -90t70 -191q0 -138 -93.5 -214.5t-256.5 -76.5q-165 0 -260.5 73.5t-95.5 203.5v14h196v-4q0 -51 41.5 -79t112.5 -28q70 0 107.5 33.5t37.5 87.5q0 61 -43 93t-112 32q-55 0 -109 -22l-74 94l222 213h-332v182h629v-104z" />
    <glyph glyph-name="acute" unicode="&#xb4;" horiz-adv-x="1032" 
d="M227 1272l244 356l385 -31l-393 -325h-236z" />
    <glyph glyph-name="uni00B5" unicode="&#xb5;" horiz-adv-x="1323" 
d="M852 1122h354v-1122h-332v100q-92 -127 -247 -127q-96 0 -158 56v-391h-352v1484h352v-575q0 -141 43.5 -201.5t132.5 -60.5q124 0 207 102v735z" />
    <glyph glyph-name="paragraph" unicode="&#xb6;" horiz-adv-x="1075" 
d="M510 1456h467v-1456h-418v578h-43q-235 0 -370.5 116.5t-135.5 317.5q0 194 136 319t364 125zM547 811v328h-45q-96 0 -152.5 -43t-56.5 -119q0 -78 47 -122t129 -44h78z" />
    <glyph glyph-name="periodcentered" unicode="&#xb7;" horiz-adv-x="561" 
d="M283 463q-85 0 -144 59t-59 144q0 84 59 143t144 59q82 0 140 -59.5t58 -142.5q0 -85 -58 -144t-140 -59z" />
    <glyph glyph-name="cedilla" unicode="&#xb8;" horiz-adv-x="884" 
d="M713 -74q64 -13 98.5 -43t34.5 -86q0 -95 -81.5 -140.5t-227.5 -45.5q-90 0 -156 14v123q52 -8 104 -8q56 0 82.5 17.5t26.5 58.5q0 45 -100 57v53l75 82l179 6z" />
    <glyph glyph-name="uni00B9" unicode="&#xb9;" horiz-adv-x="542" 
d="M238 578v659l-168 -55l-62 164l307 110h129v-878h-206z" />
    <glyph glyph-name="ordmasculine" unicode="&#xba;" horiz-adv-x="968" 
d="M483 643q-196 0 -317 115t-121 303q0 183 121 297.5t317 114.5q195 0 317 -113t122 -299q0 -188 -121.5 -303t-317.5 -115zM483 827q100 0 163 64t63 170q0 101 -63.5 164t-162.5 63t-163 -63t-64 -164q0 -104 63.5 -169t163.5 -65z" />
    <glyph glyph-name="guillemotright" unicode="&#xbb;" horiz-adv-x="1230" 
d="M287 14l-228 172l275 363l-275 364l228 170l364 -534zM819 14l-229 172l274 363l-274 364l229 170l363 -534z" />
    <glyph glyph-name="onequarter" unicode="&#xbc;" horiz-adv-x="1636" 
d="M238 578v659l-168 -55l-62 164l307 110h129v-878h-206zM1174 1456h239l-1001 -1456h-242zM1485 317h137v-174h-137v-143h-205v143h-457v105l514 635h148v-566zM1061 303h242v307z" />
    <glyph glyph-name="onehalf" unicode="&#xbd;" horiz-adv-x="1777" 
d="M238 578v659l-168 -55l-62 164l307 110h129v-878h-206zM1174 1456h239l-1001 -1456h-242zM1290 186h443v-186h-678v66q0 100 53 171.5t192 165.5q62 40 89.5 59.5t61 48.5t46 54.5t12.5 55.5q0 42 -34 65t-86 23q-66 0 -105 -34t-39 -95v-25h-196v39q0 140 91 219.5
t253 79.5q148 0 243 -67t95 -189q0 -50 -13.5 -92t-33 -72t-60 -64t-74 -56.5t-96.5 -61.5q-17 -10 -50 -30t-47.5 -29t-34 -22t-32.5 -24z" />
    <glyph glyph-name="threequarters" unicode="&#xbe;" horiz-adv-x="1832" 
d="M737 854q0 -138 -93.5 -214.5t-256.5 -76.5q-165 0 -260.5 73.5t-95.5 203.5v14h196v-4q0 -51 41.5 -79t112.5 -28q70 0 107.5 33.5t37.5 87.5q0 61 -43 93t-112 32q-55 0 -109 -22l-74 94l222 213h-332v182h629v-104l-234 -217q124 -9 194 -90t70 -191zM1370 1456h240
l-1002 -1456h-241zM1681 317h138v-174h-138v-143h-204v143h-457v105l514 635h147v-566zM1257 303h242v307z" />
    <glyph glyph-name="questiondown" unicode="&#xbf;" horiz-adv-x="1198" 
d="M676 1487q85 0 144 -59t59 -144q0 -84 -59.5 -143.5t-143.5 -59.5q-83 0 -142 60t-59 143q0 85 59 144t142 59zM51 428q0 92 34 174.5t97 147.5t160 105.5t215 47.5l31 92h184l37 -307l-100 -10q-143 -12 -221 -70t-78 -153q0 -89 65.5 -141t157.5 -52q111 0 174 63.5
t63 188.5v14h322v-32q0 -171 -75.5 -291.5t-204 -178t-298.5 -57.5q-120 0 -221 27.5t-178 82.5t-120.5 144t-43.5 205z" />
    <glyph glyph-name="Agrave" unicode="&#xc0;" horiz-adv-x="1591" 
d="M938 1565h-236l-395 325l387 31zM1192 0l-107 238h-581l-107 -238h-393l670 1458h241l670 -1458h-393zM696 723l-82 -197h363l-82 197l-100 285z" />
    <glyph glyph-name="Aacute" unicode="&#xc1;" horiz-adv-x="1591" 
d="M651 1565l244 356l387 -31l-395 -325h-236zM1192 0l-107 238h-581l-107 -238h-393l670 1458h241l670 -1458h-393zM696 723l-82 -197h363l-82 197l-100 285z" />
    <glyph glyph-name="Acircumflex" unicode="&#xc2;" horiz-adv-x="1591" 
d="M385 1565l299 360h221l301 -360h-241l-170 131l-168 -131h-242zM1192 0l-107 238h-581l-107 -238h-393l670 1458h241l670 -1458h-393zM696 723l-82 -197h363l-82 197l-100 285z" />
    <glyph glyph-name="Atilde" unicode="&#xc3;" horiz-adv-x="1591" 
d="M506 1550l-156 33q15 152 82.5 238t171.5 86q48 0 103.5 -18t96 -39.5t83.5 -39.5t69 -18q36 0 69 27.5t58 78.5l154 -32q-17 -154 -83.5 -239t-170.5 -85q-58 0 -129 28t-131 56.5t-90 28.5q-37 0 -70.5 -27.5t-56.5 -77.5zM1192 0l-107 238h-581l-107 -238h-393
l670 1458h241l670 -1458h-393zM696 723l-82 -197h363l-82 197l-100 285z" />
    <glyph glyph-name="Adieresis" unicode="&#xc4;" horiz-adv-x="1591" 
d="M547 1554q-82 0 -139.5 58t-57.5 141q0 82 57.5 140.5t139.5 58.5q81 0 138.5 -58.5t57.5 -140.5q0 -83 -57 -141t-139 -58zM1047 1554q-83 0 -141 58t-58 141q0 82 58 140.5t141 58.5q80 0 137 -58.5t57 -140.5q0 -83 -57 -141t-137 -58zM1192 0l-107 238h-581
l-107 -238h-393l670 1458h241l670 -1458h-393zM696 723l-82 -197h363l-82 197l-100 285z" />
    <glyph glyph-name="Aring" unicode="&#xc5;" horiz-adv-x="1591" 
d="M932 1421l653 -1421h-393l-107 238h-581l-107 -238h-393l653 1423q-54 31 -85 86.5t-31 124.5q0 107 73.5 177.5t180.5 70.5q110 0 183 -70t73 -178q0 -69 -32 -124.5t-87 -88.5zM795 1753q-48 0 -80.5 -33.5t-32.5 -85.5q0 -49 32.5 -80.5t80.5 -31.5q50 0 82 32t32 84
q0 50 -32.5 82.5t-81.5 32.5zM614 526h363l-82 197l-100 285l-99 -285z" />
    <glyph glyph-name="AE" unicode="&#xc6;" horiz-adv-x="2136" 
d="M-2 0l717 1456h1333v-317h-752v-275h635v-297h-635v-250h779v-317h-1127v238h-438l-113 -238h-399zM629 526h319v594h-41z" />
    <glyph glyph-name="Ccedilla" unicode="&#xc7;" horiz-adv-x="1523" 
d="M866 307q115 0 205.5 47t145.5 127l280 -235q-206 -250 -561 -275l-18 -45q64 -13 98.5 -43t34.5 -86q0 -95 -82 -140.5t-228 -45.5q-89 0 -155 14v123q52 -8 104 -8q56 0 82.5 17.5t26.5 58.5q0 45 -101 57v53l45 49q-307 32 -485 233t-178 523q0 232 95.5 403t270 261
t408.5 90q203 0 369 -74.5t274 -206.5l-280 -233q-55 80 -146.5 128t-204.5 48q-189 0 -299 -111t-110 -305q0 -196 110.5 -310t298.5 -114z" />
    <glyph glyph-name="Egrave" unicode="&#xc8;" horiz-adv-x="1310" 
d="M813 1565h-235l-396 325l387 31zM123 0v1456h1100v-317h-752v-275h633v-297h-633v-250h778v-317h-1126z" />
    <glyph glyph-name="Eacute" unicode="&#xc9;" horiz-adv-x="1310" 
d="M526 1565l244 356l387 -31l-395 -325h-236zM123 0v1456h1100v-317h-752v-275h633v-297h-633v-250h778v-317h-1126z" />
    <glyph glyph-name="Ecircumflex" unicode="&#xca;" horiz-adv-x="1310" 
d="M262 1565l299 360h221l301 -360h-241l-170 131l-168 -131h-242zM123 0v1456h1100v-317h-752v-275h633v-297h-633v-250h778v-317h-1126z" />
    <glyph glyph-name="Edieresis" unicode="&#xcb;" horiz-adv-x="1310" 
d="M422 1554q-82 0 -139.5 58t-57.5 141q0 82 57.5 140.5t139.5 58.5q81 0 138.5 -58.5t57.5 -140.5q0 -83 -57 -141t-139 -58zM922 1554q-83 0 -141 58t-58 141q0 82 58 140.5t141 58.5q80 0 137 -58.5t57 -140.5q0 -83 -57 -141t-137 -58zM123 0v1456h1100v-317h-752v-275
h633v-297h-633v-250h778v-317h-1126z" />
    <glyph glyph-name="Igrave" unicode="&#xcc;" horiz-adv-x="651" 
d="M471 1565h-235l-396 325l387 31zM143 0v1456h367v-1456h-367z" />
    <glyph glyph-name="Iacute" unicode="&#xcd;" horiz-adv-x="651" 
d="M184 1565l244 356l387 -31l-395 -325h-236zM143 0v1456h367v-1456h-367z" />
    <glyph glyph-name="Icircumflex" unicode="&#xce;" horiz-adv-x="651" 
d="M-80 1565l299 360h221l301 -360h-241l-170 131l-168 -131h-242zM143 0v1456h367v-1456h-367z" />
    <glyph glyph-name="Idieresis" unicode="&#xcf;" horiz-adv-x="651" 
d="M80 1554q-82 0 -139.5 58t-57.5 141q0 82 57.5 140.5t139.5 58.5q81 0 138.5 -58.5t57.5 -140.5q0 -83 -57 -141t-139 -58zM580 1554q-83 0 -141 58t-58 141q0 82 58 140.5t141 58.5q80 0 137 -58.5t57 -140.5q0 -83 -57 -141t-137 -58zM143 0v1456h367v-1456h-367z" />
    <glyph glyph-name="Eth" unicode="&#xd0;" horiz-adv-x="1562" 
d="M756 1456q344 0 535.5 -181.5t191.5 -529.5q0 -351 -186 -548t-537 -197h-598v592h-135v264h135v600h594zM770 326q150 0 243 104t93 315q0 183 -95 283t-251 100h-250v-272h317v-264h-317v-266h260z" />
    <glyph glyph-name="Ntilde" unicode="&#xd1;" horiz-adv-x="1587" 
d="M506 1550l-156 33q15 152 82.5 238t171.5 86q48 0 103.5 -18t96 -39.5t83.5 -39.5t69 -18q36 0 69 27.5t58 78.5l154 -32q-17 -154 -83.5 -239t-170.5 -85q-58 0 -129 28t-131 56.5t-90 28.5q-37 0 -70.5 -27.5t-56.5 -77.5zM1110 1456h356v-1460h-184l-803 807v-803
h-356v1458h182l805 -805v803z" />
    <glyph glyph-name="Ograve" unicode="&#xd2;" horiz-adv-x="1738" 
d="M1018 1565h-236l-395 325l387 31zM868 -31q-229 0 -408.5 95t-279.5 267.5t-100 395.5q0 166 57.5 307t159.5 240.5t249.5 156t321.5 56.5q231 0 411 -95t280 -268t100 -397q0 -220 -98 -392.5t-278.5 -269t-414.5 -96.5zM868 305q186 0 300 116t114 306t-113 307
t-301 117q-184 0 -297.5 -116.5t-113.5 -307.5q0 -189 112.5 -305.5t298.5 -116.5z" />
    <glyph glyph-name="Oacute" unicode="&#xd3;" horiz-adv-x="1738" 
d="M731 1565l244 356l387 -31l-395 -325h-236zM868 -31q-229 0 -408.5 95t-279.5 267.5t-100 395.5q0 166 57.5 307t159.5 240.5t249.5 156t321.5 56.5q231 0 411 -95t280 -268t100 -397q0 -220 -98 -392.5t-278.5 -269t-414.5 -96.5zM868 305q186 0 300 116t114 306
t-113 307t-301 117q-184 0 -297.5 -116.5t-113.5 -307.5q0 -189 112.5 -305.5t298.5 -116.5z" />
    <glyph glyph-name="Ocircumflex" unicode="&#xd4;" horiz-adv-x="1738" 
d="M465 1565l299 360h221l301 -360h-242l-170 131l-167 -131h-242zM868 -31q-229 0 -408.5 95t-279.5 267.5t-100 395.5q0 166 57.5 307t159.5 240.5t249.5 156t321.5 56.5q231 0 411 -95t280 -268t100 -397q0 -220 -98 -392.5t-278.5 -269t-414.5 -96.5zM868 305
q186 0 300 116t114 306t-113 307t-301 117q-184 0 -297.5 -116.5t-113.5 -307.5q0 -189 112.5 -305.5t298.5 -116.5z" />
    <glyph glyph-name="Otilde" unicode="&#xd5;" horiz-adv-x="1738" 
d="M586 1550l-156 33q15 152 82.5 238t171.5 86q48 0 103.5 -18t96 -39.5t83.5 -39.5t69 -18q36 0 69 27.5t58 78.5l154 -32q-17 -154 -83.5 -239t-170.5 -85q-58 0 -129 28t-131 56.5t-90 28.5q-37 0 -70.5 -27.5t-56.5 -77.5zM868 -31q-229 0 -408.5 95t-279.5 267.5
t-100 395.5q0 166 57.5 307t159.5 240.5t249.5 156t321.5 56.5q231 0 411 -95t280 -268t100 -397q0 -220 -98 -392.5t-278.5 -269t-414.5 -96.5zM868 305q186 0 300 116t114 306t-113 307t-301 117q-184 0 -297.5 -116.5t-113.5 -307.5q0 -189 112.5 -305.5t298.5 -116.5z
" />
    <glyph glyph-name="Odieresis" unicode="&#xd6;" horiz-adv-x="1738" 
d="M627 1554q-82 0 -139.5 58t-57.5 141q0 82 57.5 140.5t139.5 58.5q81 0 138.5 -58.5t57.5 -140.5q0 -83 -57 -141t-139 -58zM1126 1554q-83 0 -140.5 58t-57.5 141q0 82 57.5 140.5t140.5 58.5q80 0 137.5 -58.5t57.5 -140.5q0 -83 -57.5 -141t-137.5 -58zM868 -31
q-229 0 -408.5 95t-279.5 267.5t-100 395.5q0 166 57.5 307t159.5 240.5t249.5 156t321.5 56.5q231 0 411 -95t280 -268t100 -397q0 -220 -98 -392.5t-278.5 -269t-414.5 -96.5zM868 305q186 0 300 116t114 306t-113 307t-301 117q-184 0 -297.5 -116.5t-113.5 -307.5
q0 -189 112.5 -305.5t298.5 -116.5z" />
    <glyph glyph-name="multiply" unicode="&#xd7;" horiz-adv-x="1212" 
d="M266 121l-211 211l344 340l-344 342l211 209l342 -340l344 340l205 -209l-342 -342l342 -340l-205 -211l-344 340z" />
    <glyph glyph-name="Oslash" unicode="&#xd8;" horiz-adv-x="1738" 
d="M1661 1456l-186 -217q184 -199 184 -512q0 -220 -98 -392.5t-278.5 -269t-414.5 -96.5q-222 0 -411 97l-56 -66h-311l180 209q-190 206 -190 518q0 166 57.5 307t159.5 240.5t249.5 156t321.5 56.5q231 0 422 -101l60 70h311zM457 727q0 -135 59 -235l539 622
q-81 37 -187 37q-184 0 -297.5 -116.5t-113.5 -307.5zM1282 727q0 132 -53 227l-537 -616q76 -33 176 -33q186 0 300 116t114 306z" />
    <glyph glyph-name="Ugrave" unicode="&#xd9;" horiz-adv-x="1513" 
d="M901 1565h-235l-396 325l387 31zM756 -31q-311 0 -478 154t-167 450v883h366v-794q0 -187 69.5 -270t209.5 -83q142 0 212 83t70 270v794h365v-883q0 -299 -164 -451.5t-483 -152.5z" />
    <glyph glyph-name="Uacute" unicode="&#xda;" horiz-adv-x="1513" 
d="M614 1565l244 356l387 -31l-395 -325h-236zM756 -31q-311 0 -478 154t-167 450v883h366v-794q0 -187 69.5 -270t209.5 -83q142 0 212 83t70 270v794h365v-883q0 -299 -164 -451.5t-483 -152.5z" />
    <glyph glyph-name="Ucircumflex" unicode="&#xdb;" horiz-adv-x="1513" 
d="M350 1565l299 360h221l301 -360h-241l-170 131l-168 -131h-242zM756 -31q-311 0 -478 154t-167 450v883h366v-794q0 -187 69.5 -270t209.5 -83q142 0 212 83t70 270v794h365v-883q0 -299 -164 -451.5t-483 -152.5z" />
    <glyph glyph-name="Udieresis" unicode="&#xdc;" horiz-adv-x="1513" 
d="M510 1554q-82 0 -139.5 58t-57.5 141q0 82 57.5 140.5t139.5 58.5t139.5 -58.5t57.5 -140.5q0 -83 -57.5 -141t-139.5 -58zM1010 1554q-83 0 -141 58t-58 141q0 82 58 140.5t141 58.5q80 0 137 -58.5t57 -140.5q0 -83 -57 -141t-137 -58zM756 -31q-311 0 -478 154
t-167 450v883h366v-794q0 -187 69.5 -270t209.5 -83q142 0 212 83t70 270v794h365v-883q0 -299 -164 -451.5t-483 -152.5z" />
    <glyph glyph-name="Yacute" unicode="&#xdd;" horiz-adv-x="1421" 
d="M569 1565l244 356l387 -31l-395 -325h-236zM1427 1456l-532 -946v-510h-367v508l-532 948h420l297 -594l301 594h413z" />
    <glyph glyph-name="Thorn" unicode="&#xde;" horiz-adv-x="1355" 
d="M707 1278q302 0 461 -138t159 -401q0 -283 -167.5 -420t-483.5 -137h-195v-182h-358v1456h358v-178h226zM678 487q143 0 209.5 63.5t66.5 176.5q0 122 -62.5 182t-203.5 60h-207v-482h197z" />
    <glyph glyph-name="germandbls" unicode="&#xdf;" horiz-adv-x="1314" 
d="M999 870q116 -33 188.5 -146t72.5 -247q0 -249 -139 -375.5t-400 -126.5q-43 0 -158 9v311q41 -6 105 -6q109 0 169 50.5t60 149.5q0 193 -240 193h-65v281h51q77 0 115.5 52.5t38.5 119.5q0 75 -47.5 120t-120.5 45q-96 0 -144.5 -58t-48.5 -157v-1447h-354v1415
q0 114 28.5 205.5t78 152.5t119 101.5t148 58.5t167.5 18q238 0 375 -113t137 -327q0 -85 -36 -158.5t-100 -120.5z" />
    <glyph glyph-name="agrave" unicode="&#xe0;" horiz-adv-x="1355" 
d="M840 1272h-236l-393 325l385 31zM596 -27q-244 0 -388.5 160t-144.5 428q0 269 143 430.5t376 161.5q89 0 172 -27t141 -84v80h348v-1122h-340v94q-101 -121 -307 -121zM686 283q153 0 217 125v315q-30 56 -91.5 87.5t-133.5 31.5q-112 0 -181 -73t-69 -206
q0 -131 68.5 -205.5t189.5 -74.5z" />
    <glyph glyph-name="aacute" unicode="&#xe1;" horiz-adv-x="1355" 
d="M535 1272l243 356l387 -31l-395 -325h-235zM596 -27q-244 0 -388.5 160t-144.5 428q0 269 143 430.5t376 161.5q89 0 172 -27t141 -84v80h348v-1122h-340v94q-101 -121 -307 -121zM686 283q153 0 217 125v315q-30 56 -91.5 87.5t-133.5 31.5q-112 0 -181 -73t-69 -206
q0 -131 68.5 -205.5t189.5 -74.5z" />
    <glyph glyph-name="acircumflex" unicode="&#xe2;" horiz-adv-x="1355" 
d="M274 1272l299 358h222l301 -358h-242l-170 129l-168 -129h-242zM596 -27q-244 0 -388.5 160t-144.5 428q0 269 143 430.5t376 161.5q89 0 172 -27t141 -84v80h348v-1122h-340v94q-101 -121 -307 -121zM686 283q153 0 217 125v315q-30 56 -91.5 87.5t-133.5 31.5
q-112 0 -181 -73t-69 -206q0 -131 68.5 -205.5t189.5 -74.5z" />
    <glyph glyph-name="atilde" unicode="&#xe3;" horiz-adv-x="1355" 
d="M399 1251l-155 33q15 152 82.5 238t171.5 86q61 0 132 -29t129.5 -57.5t90.5 -28.5q35 0 68.5 28t58.5 78l153 -32q-17 -153 -83 -238.5t-170 -85.5q-58 0 -129.5 28.5t-131.5 56.5t-90 28q-37 0 -70.5 -27.5t-56.5 -77.5zM596 -27q-244 0 -388.5 160t-144.5 428
q0 269 143 430.5t376 161.5q89 0 172 -27t141 -84v80h348v-1122h-340v94q-101 -121 -307 -121zM686 283q153 0 217 125v315q-30 56 -91.5 87.5t-133.5 31.5q-112 0 -181 -73t-69 -206q0 -131 68.5 -205.5t189.5 -74.5z" />
    <glyph glyph-name="adieresis" unicode="&#xe4;" horiz-adv-x="1355" 
d="M436 1255q-82 0 -140 58t-58 141q0 82 58 139.5t140 57.5t139.5 -57.5t57.5 -139.5q0 -83 -57.5 -141t-139.5 -58zM936 1255q-83 0 -141 58t-58 141q0 82 58 139.5t141 57.5q80 0 137 -57.5t57 -139.5q0 -83 -57 -141t-137 -58zM596 -27q-244 0 -388.5 160t-144.5 428
q0 269 143 430.5t376 161.5q89 0 172 -27t141 -84v80h348v-1122h-340v94q-101 -121 -307 -121zM686 283q153 0 217 125v315q-30 56 -91.5 87.5t-133.5 31.5q-112 0 -181 -73t-69 -206q0 -131 68.5 -205.5t189.5 -74.5z" />
    <glyph glyph-name="aring" unicode="&#xe5;" horiz-adv-x="1355" 
d="M686 1257q-107 0 -180.5 71t-73.5 179q0 106 73.5 177t180.5 71q109 0 182.5 -70.5t73.5 -177.5q0 -108 -73.5 -179t-182.5 -71zM686 1393q50 0 82.5 32.5t32.5 83.5q0 49 -32.5 82t-82.5 33q-48 0 -80.5 -33t-32.5 -84q0 -49 32.5 -81.5t80.5 -32.5zM596 -27
q-244 0 -388.5 160t-144.5 428q0 269 143 430.5t376 161.5q89 0 172 -27t141 -84v80h348v-1122h-340v94q-101 -121 -307 -121zM686 283q153 0 217 125v315q-30 56 -91.5 87.5t-133.5 31.5q-112 0 -181 -73t-69 -206q0 -131 68.5 -205.5t189.5 -74.5z" />
    <glyph glyph-name="ae" unicode="&#xe6;" horiz-adv-x="2101" 
d="M2054 561q0 -80 -2 -100h-813q48 -203 281 -203q89 0 167 35t128 100l217 -182q-76 -108 -207.5 -171t-288.5 -63q-190 0 -317 89v-66h-338v94q-98 -121 -299 -121q-236 0 -377.5 160.5t-141.5 427.5q0 270 139.5 432t366.5 162q85 0 166.5 -27.5t138.5 -83.5v80h345v-61
q118 90 282 90q173 0 299.5 -76t190 -209t63.5 -307zM1479 872q-89 0 -154 -47.5t-88 -150.5h477q-3 37 -17.5 70.5t-41.5 63t-72.5 47t-103.5 17.5zM881 408v317q-27 55 -87 87t-130 32q-109 0 -174.5 -73t-65.5 -208q0 -131 66 -206.5t182 -75.5q69 0 124 31.5t85 95.5z
" />
    <glyph glyph-name="ccedilla" unicode="&#xe7;" horiz-adv-x="1216" 
d="M1178 209q-70 -96 -179 -155.5t-251 -71.5l-21 -56q64 -13 98.5 -43t34.5 -86q0 -95 -81.5 -140.5t-227.5 -45.5q-90 0 -156 14v123q52 -8 105 -8q56 0 82 17t26 59q0 45 -100 57v53l53 58q-238 31 -368 183.5t-130 393.5q0 170 70 301.5t208 208t325 76.5
q170 0 299.5 -62.5t203.5 -171.5l-243 -213q-36 60 -99 95.5t-139 35.5q-119 0 -192.5 -72.5t-73.5 -191.5q0 -126 73 -200t195 -74q83 0 147 36.5t99 92.5z" />
    <glyph glyph-name="egrave" unicode="&#xe8;" horiz-adv-x="1273" 
d="M795 1274h-236l-393 325l385 31zM1229 561q0 -71 -2 -100h-809q45 -203 274 -203q88 0 164.5 34t128.5 99l217 -182q-166 -234 -540 -234q-283 0 -441 158.5t-158 429.5q0 175 75.5 310t209 207.5t303.5 72.5q141 0 252 -43.5t182 -123t107.5 -187t36.5 -238.5zM651 872
q-87 0 -151 -47.5t-84 -150.5h471q-5 79 -64.5 138.5t-171.5 59.5z" />
    <glyph glyph-name="eacute" unicode="&#xe9;" horiz-adv-x="1273" 
d="M489 1274l244 356l387 -31l-395 -325h-236zM1229 561q0 -71 -2 -100h-809q45 -203 274 -203q88 0 164.5 34t128.5 99l217 -182q-166 -234 -540 -234q-283 0 -441 158.5t-158 429.5q0 175 75.5 310t209 207.5t303.5 72.5q141 0 252 -43.5t182 -123t107.5 -187t36.5 -238.5
zM651 872q-87 0 -151 -47.5t-84 -150.5h471q-5 79 -64.5 138.5t-171.5 59.5z" />
    <glyph glyph-name="ecircumflex" unicode="&#xea;" horiz-adv-x="1273" 
d="M227 1274l299 358h222l301 -358h-242l-170 129l-168 -129h-242zM1229 561q0 -71 -2 -100h-809q45 -203 274 -203q88 0 164.5 34t128.5 99l217 -182q-166 -234 -540 -234q-283 0 -441 158.5t-158 429.5q0 175 75.5 310t209 207.5t303.5 72.5q141 0 252 -43.5t182 -123
t107.5 -187t36.5 -238.5zM651 872q-87 0 -151 -47.5t-84 -150.5h471q-5 79 -64.5 138.5t-171.5 59.5z" />
    <glyph glyph-name="edieresis" unicode="&#xeb;" horiz-adv-x="1273" 
d="M391 1257q-82 0 -140 58t-58 141q0 82 58 139.5t140 57.5t139.5 -57.5t57.5 -139.5q0 -83 -57.5 -141t-139.5 -58zM891 1257q-83 0 -141 58t-58 141q0 82 58 139.5t141 57.5q80 0 137 -57.5t57 -139.5q0 -83 -57 -141t-137 -58zM1229 561q0 -71 -2 -100h-809
q45 -203 274 -203q88 0 164.5 34t128.5 99l217 -182q-166 -234 -540 -234q-283 0 -441 158.5t-158 429.5q0 175 75.5 310t209 207.5t303.5 72.5q141 0 252 -43.5t182 -123t107.5 -187t36.5 -238.5zM651 872q-87 0 -151 -47.5t-84 -150.5h471q-5 79 -64.5 138.5t-171.5 59.5z
" />
    <glyph glyph-name="igrave" unicode="&#xec;" horiz-adv-x="598" 
d="M459 1272h-236l-393 325l385 31zM123 0v1122h354v-1122h-354z" />
    <glyph glyph-name="iacute" unicode="&#xed;" horiz-adv-x="598" 
d="M152 1272l243 356l387 -31l-395 -325h-235zM123 0v1122h354v-1122h-354z" />
    <glyph glyph-name="icircumflex" unicode="&#xee;" horiz-adv-x="598" 
d="M-109 1272l299 358h222l301 -358h-242l-170 129l-168 -129h-242zM123 0v1122h354v-1122h-354z" />
    <glyph glyph-name="idieresis" unicode="&#xef;" horiz-adv-x="598" 
d="M53 1255q-82 0 -140 58t-58 141q0 82 58 139.5t140 57.5t139.5 -57.5t57.5 -139.5q0 -83 -57.5 -141t-139.5 -58zM553 1255q-83 0 -141 58t-58 141q0 82 58 139.5t141 57.5q80 0 137.5 -58t57.5 -139q0 -83 -57.5 -141t-137.5 -58zM123 0v1122h354v-1122h-354z" />
    <glyph glyph-name="eth" unicode="&#xf0;" horiz-adv-x="1374" 
d="M1087 1290q83 -91 135.5 -207.5t69.5 -209.5t17 -183q0 -351 -163.5 -534t-463.5 -183q-280 0 -449.5 154.5t-169.5 411.5q0 254 136 397t385 143q229 0 368 -129q-14 49 -41 92.5t-77 87.5t-116 76.5t-164.5 54.5t-217.5 25v303q294 -11 500 -112l374 137v-277zM678 291
q121 0 191.5 85.5t70.5 225.5q-76 211 -268 211q-113 0 -178.5 -70.5t-65.5 -185.5q0 -121 69.5 -193.5t180.5 -72.5z" />
    <glyph glyph-name="ntilde" unicode="&#xf1;" horiz-adv-x="1316" 
d="M381 1251l-156 33q15 152 82.5 238t171.5 86q61 0 132 -29t129.5 -57.5t90.5 -28.5q35 0 68.5 28t58.5 78l154 -32q-17 -153 -83.5 -238.5t-170.5 -85.5q-58 0 -129 28.5t-131 56.5t-90 28q-37 0 -70.5 -27.5t-56.5 -77.5zM123 0v1122h338v-88q63 51 152.5 84t185.5 33
q222 0 318.5 -110t96.5 -361v-680h-354v578q0 144 -43 203t-145 59q-119 0 -197 -92v-748h-352z" />
    <glyph glyph-name="ograve" unicode="&#xf2;" horiz-adv-x="1372" 
d="M844 1272h-236l-393 325l385 31zM686 -27q-284 0 -453.5 159t-169.5 429q0 269 170 429.5t453 160.5q282 0 451.5 -160.5t169.5 -429.5q0 -270 -169 -429t-452 -159zM686 291q116 0 186 73t70 197q0 123 -70.5 198t-185.5 75q-117 0 -187.5 -75t-70.5 -198
q0 -124 70.5 -197t187.5 -73z" />
    <glyph glyph-name="oacute" unicode="&#xf3;" horiz-adv-x="1372" 
d="M539 1272l243 356l387 -31l-395 -325h-235zM686 -27q-284 0 -453.5 159t-169.5 429q0 269 170 429.5t453 160.5q282 0 451.5 -160.5t169.5 -429.5q0 -270 -169 -429t-452 -159zM686 291q116 0 186 73t70 197q0 123 -70.5 198t-185.5 75q-117 0 -187.5 -75t-70.5 -198
q0 -124 70.5 -197t187.5 -73z" />
    <glyph glyph-name="ocircumflex" unicode="&#xf4;" horiz-adv-x="1372" 
d="M279 1272l299 358h221l301 -358h-242l-170 129l-168 -129h-241zM686 -27q-284 0 -453.5 159t-169.5 429q0 269 170 429.5t453 160.5q282 0 451.5 -160.5t169.5 -429.5q0 -270 -169 -429t-452 -159zM686 291q116 0 186 73t70 197q0 123 -70.5 198t-185.5 75
q-117 0 -187.5 -75t-70.5 -198q0 -124 70.5 -197t187.5 -73z" />
    <glyph glyph-name="otilde" unicode="&#xf5;" horiz-adv-x="1372" 
d="M403 1251l-155 33q15 152 82.5 238t171.5 86q61 0 132 -29t129.5 -57.5t90.5 -28.5q35 0 68.5 28t58.5 78l154 -32q-17 -153 -83.5 -238.5t-170.5 -85.5q-58 0 -129.5 28.5t-131.5 56.5t-90 28q-37 0 -70.5 -27.5t-56.5 -77.5zM686 -27q-284 0 -453.5 159t-169.5 429
q0 269 170 429.5t453 160.5q282 0 451.5 -160.5t169.5 -429.5q0 -270 -169 -429t-452 -159zM686 291q116 0 186 73t70 197q0 123 -70.5 198t-185.5 75q-117 0 -187.5 -75t-70.5 -198q0 -124 70.5 -197t187.5 -73z" />
    <glyph glyph-name="odieresis" unicode="&#xf6;" horiz-adv-x="1372" 
d="M440 1255q-82 0 -140 58t-58 141q0 82 58 139.5t140 57.5t139.5 -57.5t57.5 -139.5q0 -83 -57.5 -141t-139.5 -58zM940 1255q-83 0 -141 58t-58 141q0 82 58 139.5t141 57.5q80 0 137.5 -58t57.5 -139q0 -83 -57.5 -141t-137.5 -58zM686 -27q-284 0 -453.5 159
t-169.5 429q0 269 170 429.5t453 160.5q282 0 451.5 -160.5t169.5 -429.5q0 -270 -169 -429t-452 -159zM686 291q116 0 186 73t70 197q0 123 -70.5 198t-185.5 75q-117 0 -187.5 -75t-70.5 -198q0 -124 70.5 -197t187.5 -73z" />
    <glyph glyph-name="divide" unicode="&#xf7;" horiz-adv-x="1034" 
d="M512 903q-76 0 -131 55t-55 132q0 78 54.5 133t131.5 55q76 0 130 -55t54 -133q0 -77 -54 -132t-130 -55zM57 524v297h918v-297h-918zM512 82q-76 0 -131 55t-55 131q0 78 54.5 133.5t131.5 55.5q76 0 130 -55.5t54 -133.5q0 -77 -54 -131.5t-130 -54.5z" />
    <glyph glyph-name="oslash" unicode="&#xf8;" horiz-adv-x="1372" 
d="M1321 1122l-150 -168q134 -156 134 -393q0 -270 -169 -429t-452 -159q-181 0 -324 70l-36 -43h-277l150 168q-136 155 -136 393q0 269 170.5 429.5t452.5 160.5q186 0 324 -72l39 43h274zM397 561q0 -75 25 -139l379 426q-50 20 -117 20q-131 0 -209 -83t-78 -224z
M973 561q0 73 -27 139l-379 -426q55 -22 117 -22q130 0 209.5 84.5t79.5 224.5z" />
    <glyph glyph-name="ugrave" unicode="&#xf9;" horiz-adv-x="1292" 
d="M803 1272h-236l-393 325l385 31zM510 -27q-416 0 -416 471v678h355v-575q0 -141 43 -201.5t133 -60.5q123 0 206 102v735h355v-1122h-334v100q-127 -127 -342 -127z" />
    <glyph glyph-name="uacute" unicode="&#xfa;" horiz-adv-x="1292" 
d="M498 1272l243 356l387 -31l-395 -325h-235zM510 -27q-416 0 -416 471v678h355v-575q0 -141 43 -201.5t133 -60.5q123 0 206 102v735h355v-1122h-334v100q-127 -127 -342 -127z" />
    <glyph glyph-name="ucircumflex" unicode="&#xfb;" horiz-adv-x="1292" 
d="M238 1272l299 358h221l301 -358h-242l-170 129l-168 -129h-241zM510 -27q-416 0 -416 471v678h355v-575q0 -141 43 -201.5t133 -60.5q123 0 206 102v735h355v-1122h-334v100q-127 -127 -342 -127z" />
    <glyph glyph-name="udieresis" unicode="&#xfc;" horiz-adv-x="1292" 
d="M399 1255q-82 0 -140 58t-58 141q0 82 58 139.5t140 57.5t139.5 -57.5t57.5 -139.5q0 -83 -57.5 -141t-139.5 -58zM899 1255q-83 0 -141 58t-58 141q0 82 58 139.5t141 57.5q80 0 137.5 -58t57.5 -139q0 -83 -57.5 -141t-137.5 -58zM510 -27q-416 0 -416 471v678h355
v-575q0 -141 43 -201.5t133 -60.5q123 0 206 102v735h355v-1122h-334v100q-127 -127 -342 -127z" />
    <glyph glyph-name="yacute" unicode="&#xfd;" horiz-adv-x="1263" 
d="M479 1272l244 356l387 -31l-395 -325h-236zM881 1122h379l-449 -1118q-41 -104 -92.5 -178.5t-101 -116.5t-111 -66t-112.5 -31t-118 -7q-113 0 -192 26v293q80 -28 156 -28q164 0 235 124l-500 1102h398l260 -671z" />
    <glyph glyph-name="thorn" unicode="&#xfe;" horiz-adv-x="1357" 
d="M113 -362v1918h350v-514q58 57 141 84t172 27q233 0 374.5 -161.5t141.5 -430.5q0 -268 -143 -428t-385 -160q-203 0 -301 121v-456h-350zM672 283q120 0 189 75t69 205q0 133 -68.5 206t-181.5 73q-71 0 -133 -31.5t-92 -87.5v-315q64 -125 217 -125z" />
    <glyph glyph-name="ydieresis" unicode="&#xff;" horiz-adv-x="1263" 
d="M381 1255q-82 0 -140.5 58t-58.5 141q0 82 58.5 139.5t140.5 57.5t139.5 -57.5t57.5 -139.5q0 -83 -57.5 -141t-139.5 -58zM881 1255q-83 0 -141 58t-58 141q0 82 58 139.5t141 57.5q80 0 137 -57.5t57 -139.5q0 -83 -57 -141t-137 -58zM881 1122h379l-449 -1118
q-41 -104 -92.5 -178.5t-101 -116.5t-111 -66t-112.5 -31t-118 -7q-113 0 -192 26v293q80 -28 156 -28q164 0 235 124l-500 1102h398l260 -671z" />
    <glyph glyph-name="Amacron" unicode="&#x100;" horiz-adv-x="1591" 
d="M416 1565v237h758v-237h-758zM1192 0l-107 238h-581l-107 -238h-393l670 1458h241l670 -1458h-393zM696 723l-82 -197h363l-82 197l-100 285z" />
    <glyph glyph-name="amacron" unicode="&#x101;" horiz-adv-x="1355" 
d="M305 1298v236h758v-236h-758zM596 -27q-244 0 -388.5 160t-144.5 428q0 269 143 430.5t376 161.5q89 0 172 -27t141 -84v80h348v-1122h-340v94q-101 -121 -307 -121zM686 283q153 0 217 125v315q-30 56 -91.5 87.5t-133.5 31.5q-112 0 -181 -73t-69 -206
q0 -131 68.5 -205.5t189.5 -74.5z" />
    <glyph glyph-name="Abreve" unicode="&#x102;" horiz-adv-x="1591" 
d="M795 1565q-113 0 -200 39t-140 120.5t-54 196.5h213q42 -119 181 -119q141 0 180 119h215q-3 -175 -112 -265.5t-283 -90.5zM1192 0l-107 238h-581l-107 -238h-393l670 1458h241l670 -1458h-393zM696 723l-82 -197h363l-82 197l-100 285z" />
    <glyph glyph-name="abreve" unicode="&#x103;" horiz-adv-x="1355" 
d="M686 1272q-174 0 -283 91.5t-112 262.5h213q43 -117 182 -117q138 0 178 117h215q-3 -173 -111 -263.5t-282 -90.5zM596 -27q-244 0 -388.5 160t-144.5 428q0 269 143 430.5t376 161.5q89 0 172 -27t141 -84v80h348v-1122h-340v94q-101 -121 -307 -121zM686 283
q153 0 217 125v315q-30 56 -91.5 87.5t-133.5 31.5q-112 0 -181 -73t-69 -206q0 -131 68.5 -205.5t189.5 -74.5z" />
    <glyph glyph-name="Aogonek" unicode="&#x104;" horiz-adv-x="1591" 
d="M1587 -199l2 -163q-87 -17 -147 -17q-115 0 -177.5 48.5t-62.5 125.5q0 54 34 109t101 96h-145l-107 238h-581l-107 -238h-393l670 1458h241l670 -1458q-61 -29 -89 -66t-28 -67q0 -68 99 -68q12 0 20 2zM614 526h363l-82 197l-100 285l-99 -285z" />
    <glyph glyph-name="aogonek" unicode="&#x105;" horiz-adv-x="1355" 
d="M1245 -199l2 -163q-87 -17 -147 -17q-115 0 -177.5 48.5t-62.5 125.5q0 54 34 109t101 96h-92v94q-101 -121 -307 -121q-244 0 -388.5 160t-144.5 428q0 269 143 430.5t376 161.5q89 0 172 -27t141 -84v80h348v-1122q-61 -29 -89 -66t-28 -67q0 -68 99 -68q12 0 20 2z
M903 408v315q-30 56 -91.5 87.5t-133.5 31.5q-112 0 -181 -73t-69 -206q0 -131 68.5 -205.5t189.5 -74.5q153 0 217 125z" />
    <glyph glyph-name="Cacute" unicode="&#x106;" horiz-adv-x="1523" 
d="M670 1565l243 356l387 -31l-395 -325h-235zM854 -31q-353 0 -563.5 205t-210.5 557q0 232 95.5 403t270 261t408.5 90q203 0 369 -74.5t274 -206.5l-280 -233q-55 80 -146.5 128t-204.5 48q-189 0 -299 -111t-110 -305q0 -196 110.5 -310t298.5 -114q115 0 205.5 47
t145.5 127l280 -235q-230 -277 -643 -277z" />
    <glyph glyph-name="cacute" unicode="&#x107;" horiz-adv-x="1216" 
d="M508 1272l244 356l387 -31l-396 -325h-235zM674 -23q-288 0 -449.5 157.5t-161.5 426.5q0 170 70 301.5t208 208t325 76.5q170 0 299.5 -62.5t203.5 -171.5l-243 -213q-36 60 -99 95.5t-139 35.5q-119 0 -192.5 -72.5t-73.5 -191.5q0 -126 73 -200t195 -74q83 0 147 36.5
t99 92.5l242 -213q-78 -108 -207.5 -170t-296.5 -62z" />
    <glyph glyph-name="Ccircumflex" unicode="&#x108;" horiz-adv-x="1523" 
d="M403 1565l299 360h222l301 -360h-242l-170 131l-168 -131h-242zM854 -31q-353 0 -563.5 205t-210.5 557q0 232 95.5 403t270 261t408.5 90q203 0 369 -74.5t274 -206.5l-280 -233q-55 80 -146.5 128t-204.5 48q-189 0 -299 -111t-110 -305q0 -196 110.5 -310t298.5 -114
q115 0 205.5 47t145.5 127l280 -235q-230 -277 -643 -277z" />
    <glyph glyph-name="ccircumflex" unicode="&#x109;" horiz-adv-x="1216" 
d="M248 1272l299 358h221l301 -358h-242l-170 129l-168 -129h-241zM674 -23q-288 0 -449.5 157.5t-161.5 426.5q0 170 70 301.5t208 208t325 76.5q170 0 299.5 -62.5t203.5 -171.5l-243 -213q-36 60 -99 95.5t-139 35.5q-119 0 -192.5 -72.5t-73.5 -191.5q0 -126 73 -200
t195 -74q83 0 147 36.5t99 92.5l242 -213q-78 -108 -207.5 -170t-296.5 -62z" />
    <glyph glyph-name="Cdotaccent" unicode="&#x10a;" horiz-adv-x="1523" 
d="M813 1565q-85 0 -144 58.5t-59 143.5q0 84 59.5 143.5t143.5 59.5q83 0 142 -60t59 -143q0 -85 -59 -143.5t-142 -58.5zM854 -31q-353 0 -563.5 205t-210.5 557q0 232 95.5 403t270 261t408.5 90q203 0 369 -74.5t274 -206.5l-280 -233q-55 80 -146.5 128t-204.5 48
q-189 0 -299 -111t-110 -305q0 -196 110.5 -310t298.5 -114q115 0 205.5 47t145.5 127l280 -235q-230 -277 -643 -277z" />
    <glyph glyph-name="cdotaccent" unicode="&#x10b;" horiz-adv-x="1216" 
d="M657 1253q-85 0 -143.5 59t-58.5 144q0 84 59 143.5t143 59.5q83 0 142 -60t59 -143q0 -85 -59 -144t-142 -59zM674 -23q-288 0 -449.5 157.5t-161.5 426.5q0 170 70 301.5t208 208t325 76.5q170 0 299.5 -62.5t203.5 -171.5l-243 -213q-36 60 -99 95.5t-139 35.5
q-119 0 -192.5 -72.5t-73.5 -191.5q0 -126 73 -200t195 -74q83 0 147 36.5t99 92.5l242 -213q-78 -108 -207.5 -170t-296.5 -62z" />
    <glyph glyph-name="Ccaron" unicode="&#x10c;" horiz-adv-x="1523" 
d="M408 1925h241l168 -131l170 131h242l-301 -360h-221zM854 -31q-353 0 -563.5 205t-210.5 557q0 232 95.5 403t270 261t408.5 90q203 0 369 -74.5t274 -206.5l-280 -233q-55 80 -146.5 128t-204.5 48q-189 0 -299 -111t-110 -305q0 -196 110.5 -310t298.5 -114
q115 0 205.5 47t145.5 127l280 -235q-230 -277 -643 -277z" />
    <glyph glyph-name="ccaron" unicode="&#x10d;" horiz-adv-x="1216" 
d="M252 1630h242l168 -129l169 129h242l-301 -358h-221zM674 -23q-288 0 -449.5 157.5t-161.5 426.5q0 170 70 301.5t208 208t325 76.5q170 0 299.5 -62.5t203.5 -171.5l-243 -213q-36 60 -99 95.5t-139 35.5q-119 0 -192.5 -72.5t-73.5 -191.5q0 -126 73 -200t195 -74
q83 0 147 36.5t99 92.5l242 -213q-78 -108 -207.5 -170t-296.5 -62z" />
    <glyph glyph-name="Dcaron" unicode="&#x10e;" horiz-adv-x="1523" 
d="M289 1925h241l168 -131l170 131h242l-301 -360h-221zM123 0v1456h594q344 0 535.5 -181.5t191.5 -529.5q0 -351 -186 -548t-537 -197h-598zM471 326h260q150 0 243 104t93 315q0 183 -94.5 283t-249.5 100h-252v-802z" />
    <glyph glyph-name="dcaron" unicode="&#x10f;" horiz-adv-x="1437" 
d="M1526 1692q81 0 132.5 -55t51.5 -162q0 -162 -88.5 -263.5t-261.5 -101.5v117q108 0 141 119q-59 11 -104 54.5t-45 123.5q0 72 48.5 120t125.5 48zM895 1042v514h348v-1556h-340v94q-101 -121 -307 -121q-244 0 -388.5 160t-144.5 428q0 269 143 430.5t376 161.5
q89 0 172 -27t141 -84zM903 408v315q-30 56 -91.5 87.5t-133.5 31.5q-112 0 -181 -73t-69 -206q0 -131 68.5 -205.5t189.5 -74.5q153 0 217 125z" />
    <glyph glyph-name="Dcroat" unicode="&#x110;" horiz-adv-x="1562" 
d="M756 1456q344 0 535.5 -181.5t191.5 -529.5q0 -351 -186 -548t-537 -197h-598v592h-135v264h135v600h594zM770 326q150 0 243 104t93 315q0 183 -95 283t-251 100h-250v-272h317v-264h-317v-266h260z" />
    <glyph glyph-name="dcroat" unicode="&#x111;" horiz-adv-x="1355" 
d="M1389 1444v-246h-146v-1198h-340v94q-54 -65 -141.5 -93t-175.5 -28q-242 0 -382.5 151.5t-140.5 401.5q0 251 138.5 403t369.5 152q91 0 179 -26t145 -82v225h-336v246h336v112h348v-112h146zM903 408v245q-30 55 -94 88t-135 33q-114 0 -180 -65t-66 -181
q0 -111 66.5 -178t187.5 -67q71 0 130 31t91 94z" />
    <glyph glyph-name="Emacron" unicode="&#x112;" horiz-adv-x="1310" 
d="M291 1565v237h758v-237h-758zM123 0v1456h1100v-317h-752v-275h633v-297h-633v-250h778v-317h-1126z" />
    <glyph glyph-name="emacron" unicode="&#x113;" horiz-adv-x="1273" 
d="M260 1300v236h758v-236h-758zM1229 561q0 -71 -2 -100h-809q45 -203 274 -203q88 0 164.5 34t128.5 99l217 -182q-166 -234 -540 -234q-283 0 -441 158.5t-158 429.5q0 175 75.5 310t209 207.5t303.5 72.5q141 0 252 -43.5t182 -123t107.5 -187t36.5 -238.5zM651 872
q-87 0 -151 -47.5t-84 -150.5h471q-5 79 -64.5 138.5t-171.5 59.5z" />
    <glyph glyph-name="Ebreve" unicode="&#x114;" horiz-adv-x="1310" 
d="M670 1565q-113 0 -200 39t-140 120.5t-54 196.5h213q43 -119 181 -119q141 0 180 119h215q-3 -175 -112 -265.5t-283 -90.5zM123 0v1456h1100v-317h-752v-275h633v-297h-633v-250h778v-317h-1126z" />
    <glyph glyph-name="ebreve" unicode="&#x115;" horiz-adv-x="1273" 
d="M641 1274q-174 0 -283 91.5t-112 262.5h213q43 -117 182 -117q138 0 178 117h215q-3 -173 -111 -263.5t-282 -90.5zM1229 561q0 -71 -2 -100h-809q45 -203 274 -203q88 0 164.5 34t128.5 99l217 -182q-166 -234 -540 -234q-283 0 -441 158.5t-158 429.5q0 175 75.5 310
t209 207.5t303.5 72.5q141 0 252 -43.5t182 -123t107.5 -187t36.5 -238.5zM651 872q-87 0 -151 -47.5t-84 -150.5h471q-5 79 -64.5 138.5t-171.5 59.5z" />
    <glyph glyph-name="Edotaccent" unicode="&#x116;" horiz-adv-x="1310" 
d="M670 1565q-85 0 -144 58.5t-59 143.5q0 84 59.5 143.5t143.5 59.5q83 0 141.5 -59.5t58.5 -143.5q0 -85 -58.5 -143.5t-141.5 -58.5zM123 0v1456h1100v-317h-752v-275h633v-297h-633v-250h778v-317h-1126z" />
    <glyph glyph-name="edotaccent" unicode="&#x117;" horiz-adv-x="1273" 
d="M639 1255q-85 0 -144 59t-59 144q0 84 59.5 143.5t143.5 59.5q83 0 142 -60t59 -143q0 -85 -59 -144t-142 -59zM1229 561q0 -71 -2 -100h-809q45 -203 274 -203q88 0 164.5 34t128.5 99l217 -182q-166 -234 -540 -234q-283 0 -441 158.5t-158 429.5q0 175 75.5 310
t209 207.5t303.5 72.5q141 0 252 -43.5t182 -123t107.5 -187t36.5 -238.5zM651 872q-87 0 -151 -47.5t-84 -150.5h471q-5 79 -64.5 138.5t-171.5 59.5z" />
    <glyph glyph-name="Eogonek" unicode="&#x118;" horiz-adv-x="1310" 
d="M1251 -199l2 -163q-87 -17 -147 -17q-115 0 -177.5 48.5t-62.5 125.5q0 54 34 109t101 96h-878v1456h1100v-317h-752v-275h633v-297h-633v-250h778v-317q-61 -29 -88.5 -66t-27.5 -67q0 -68 98 -68q12 0 20 2z" />
    <glyph glyph-name="eogonek" unicode="&#x119;" horiz-adv-x="1273" 
d="M1229 561q0 -71 -2 -100h-809q45 -203 274 -203q88 0 164.5 34t128.5 99l217 -182q-124 -177 -377 -221q-49 -28 -71.5 -61t-22.5 -60q0 -68 98 -68q13 0 21 2l2 -163q-87 -17 -147 -17q-115 0 -177.5 48.5t-62.5 125.5q0 47 26.5 96.5t79.5 88.5q-243 26 -375.5 180
t-132.5 403q0 175 75.5 310t209 207.5t303.5 72.5q141 0 252 -43.5t182 -123t107.5 -187t36.5 -238.5zM416 674h471q-5 79 -64.5 138.5t-171.5 59.5q-87 0 -151 -47.5t-84 -150.5z" />
    <glyph glyph-name="Ecaron" unicode="&#x11a;" horiz-adv-x="1310" 
d="M264 1925h242l168 -131l170 131h241l-301 -360h-221zM123 0v1456h1100v-317h-752v-275h633v-297h-633v-250h778v-317h-1126z" />
    <glyph glyph-name="ecaron" unicode="&#x11b;" horiz-adv-x="1273" 
d="M231 1632h242l168 -129l170 129h242l-301 -358h-222zM1229 561q0 -71 -2 -100h-809q45 -203 274 -203q88 0 164.5 34t128.5 99l217 -182q-166 -234 -540 -234q-283 0 -441 158.5t-158 429.5q0 175 75.5 310t209 207.5t303.5 72.5q141 0 252 -43.5t182 -123t107.5 -187
t36.5 -238.5zM651 872q-87 0 -151 -47.5t-84 -150.5h471q-5 79 -64.5 138.5t-171.5 59.5z" />
    <glyph glyph-name="Gcircumflex" unicode="&#x11c;" horiz-adv-x="1622" 
d="M467 1565l299 360h221l301 -360h-241l-170 131l-168 -131h-242zM815 829h744v-643q-105 -101 -271 -159t-377 -58q-380 0 -605.5 205t-225.5 553q0 230 101 403t283 265t419 92q390 0 620 -211l-227 -252q-68 59 -170 93t-217 34q-197 0 -314.5 -115t-117.5 -309
q0 -205 126.5 -318.5t346.5 -113.5q187 0 297 72v157h-412v305z" />
    <glyph glyph-name="gcircumflex" unicode="&#x11d;" horiz-adv-x="1347" 
d="M279 1272l299 358h221l301 -358h-242l-170 129l-168 -129h-241zM645 -395q-298 0 -459 63v307q205 -81 394 -81q161 0 242 48.5t81 161.5v68q-100 -123 -307 -123q-241 0 -387 154.5t-146 396.5q0 243 144 398t375 155q89 0 172 -27t141 -84v80h348v-874
q0 -117 -17 -210.5t-59 -176.5t-109.5 -138t-171.5 -86.5t-241 -31.5zM686 356q153 0 217 125v244q-30 57 -91.5 89t-133.5 32q-111 0 -180.5 -68t-69.5 -176q0 -106 70 -176t188 -70z" />
    <glyph glyph-name="Gbreve" unicode="&#x11e;" horiz-adv-x="1622" 
d="M874 1565q-113 0 -200 39t-139.5 120.5t-53.5 196.5h213q42 -119 180 -119q142 0 181 119h215q-3 -174 -112.5 -265t-283.5 -91zM815 829h744v-643q-105 -101 -271 -159t-377 -58q-380 0 -605.5 205t-225.5 553q0 230 101 403t283 265t419 92q390 0 620 -211l-227 -252
q-68 59 -170 93t-217 34q-197 0 -314.5 -115t-117.5 -309q0 -205 126.5 -318.5t346.5 -113.5q187 0 297 72v157h-412v305z" />
    <glyph glyph-name="gbreve" unicode="&#x11f;" horiz-adv-x="1347" 
d="M690 1272q-174 0 -283 91.5t-112 262.5h213q43 -117 182 -117q138 0 178 117h215q-3 -173 -111 -263.5t-282 -90.5zM645 -395q-298 0 -459 63v307q205 -81 394 -81q161 0 242 48.5t81 161.5v68q-100 -123 -307 -123q-241 0 -387 154.5t-146 396.5q0 243 144 398t375 155
q89 0 172 -27t141 -84v80h348v-874q0 -117 -17 -210.5t-59 -176.5t-109.5 -138t-171.5 -86.5t-241 -31.5zM686 356q153 0 217 125v244q-30 57 -91.5 89t-133.5 32q-111 0 -180.5 -68t-69.5 -176q0 -106 70 -176t188 -70z" />
    <glyph glyph-name="Gdotaccent" unicode="&#x120;" horiz-adv-x="1622" 
d="M874 1565q-85 0 -143.5 58.5t-58.5 143.5q0 84 59 143.5t143 59.5q83 0 142 -60t59 -143q0 -85 -58.5 -143.5t-142.5 -58.5zM815 829h744v-643q-105 -101 -271 -159t-377 -58q-380 0 -605.5 205t-225.5 553q0 230 101 403t283 265t419 92q390 0 620 -211l-227 -252
q-68 59 -170 93t-217 34q-197 0 -314.5 -115t-117.5 -309q0 -205 126.5 -318.5t346.5 -113.5q187 0 297 72v157h-412v305z" />
    <glyph glyph-name="gdotaccent" unicode="&#x121;" horiz-adv-x="1347" 
d="M688 1253q-85 0 -144 59t-59 144q0 84 59.5 143.5t143.5 59.5q83 0 142 -60t59 -143q0 -85 -59 -144t-142 -59zM645 -395q-298 0 -459 63v307q205 -81 394 -81q161 0 242 48.5t81 161.5v68q-100 -123 -307 -123q-241 0 -387 154.5t-146 396.5q0 243 144 398t375 155
q89 0 172 -27t141 -84v80h348v-874q0 -117 -17 -210.5t-59 -176.5t-109.5 -138t-171.5 -86.5t-241 -31.5zM686 356q153 0 217 125v244q-30 57 -91.5 89t-133.5 32q-111 0 -180.5 -68t-69.5 -176q0 -106 70 -176t188 -70z" />
    <glyph glyph-name="uni0122" unicode="&#x122;" horiz-adv-x="1622" 
d="M815 829h744v-643q-105 -101 -271 -159t-377 -58q-380 0 -605.5 205t-225.5 553q0 230 101 403t283 265t419 92q390 0 620 -211l-227 -252q-68 59 -170 93t-217 34q-197 0 -314.5 -115t-117.5 -309q0 -205 126.5 -318.5t346.5 -113.5q187 0 297 72v157h-412v305zM885 -74
q88 0 141 -49.5t53 -132.5q0 -31 -7 -64.5t-29.5 -75t-57.5 -73.5t-98.5 -54t-145.5 -22h-41v117h21q88 0 123 66q-66 12 -100.5 48.5t-34.5 90.5q0 65 47.5 107t128.5 42z" />
    <glyph glyph-name="uni0123" unicode="&#x123;" horiz-adv-x="1347" 
d="M676 1264q-88 0 -141.5 59t-53.5 154q0 35 7 73.5t29.5 86.5t57.5 85t98.5 62.5t145.5 25.5h41v-135h-20q-92 0 -123 -76q65 -15 100 -57.5t35 -103.5q0 -75 -47.5 -124.5t-128.5 -49.5zM895 1122h348v-874q0 -117 -17 -210.5t-59 -176.5t-109.5 -138t-171.5 -86.5
t-241 -31.5q-298 0 -459 63v307q205 -81 394 -81q161 0 242 48.5t81 161.5v68q-100 -123 -307 -123q-241 0 -387 154.5t-146 396.5q0 243 144 398t375 155q89 0 172 -27t141 -84v80zM903 481v244q-30 57 -91.5 89t-133.5 32q-111 0 -180.5 -68t-69.5 -176q0 -106 70 -176
t188 -70q153 0 217 125z" />
    <glyph glyph-name="Hcircumflex" unicode="&#x124;" horiz-adv-x="1536" 
d="M362 1565l300 360h221l301 -360h-242l-170 131l-168 -131h-242zM123 0v1456h358v-620h574v620h358v-1456h-358v508h-574v-508h-358z" />
    <glyph glyph-name="hcircumflex" unicode="&#x125;" horiz-adv-x="1310" 
d="M262 1565l299 360h221l301 -360h-241l-170 131l-168 -131h-242zM113 0v1556h352v-522q59 50 146.5 83.5t179.5 33.5q222 0 319.5 -110t97.5 -361v-680h-354v578q0 144 -43.5 203t-146.5 59q-119 0 -197 -92v-748h-354z" />
    <glyph glyph-name="Hbar" unicode="&#x126;" horiz-adv-x="1536" 
d="M1505 1311v-262h-92v-1049h-358v508h-574v-508h-358v1049h-92v262h92v145h358v-145h574v145h358v-145h92zM1055 836v213h-574v-213h574z" />
    <glyph glyph-name="hbar" unicode="&#x127;" horiz-adv-x="1310" 
d="M791 1081q226 0 321.5 -111t95.5 -360v-610h-354v506q0 145 -43.5 204.5t-146.5 59.5q-116 0 -197 -92v-678h-354v1198h-140v246h140v112h352v-112h336v-246h-336v-233q58 51 145 83.5t181 32.5z" />
    <glyph glyph-name="Itilde" unicode="&#x128;" horiz-adv-x="651" 
d="M41 1550l-156 33q15 152 82.5 238t171.5 86q48 0 104 -18t96.5 -39.5t83.5 -39.5t69 -18q35 0 68 27.5t58 78.5l154 -32q-17 -154 -83.5 -239t-170.5 -85q-58 0 -129 28t-131 56.5t-90 28.5q-37 0 -70.5 -27.5t-56.5 -77.5zM143 0v1456h367v-1456h-367z" />
    <glyph glyph-name="itilde" unicode="&#x129;" horiz-adv-x="598" 
d="M16 1251l-155 33q15 152 82.5 238t171.5 86q61 0 132 -29t129.5 -57.5t90.5 -28.5q35 0 68.5 28t58.5 78l154 -32q-17 -153 -83.5 -238.5t-170.5 -85.5q-58 0 -129.5 28.5t-131.5 56.5t-90 28q-37 0 -70.5 -27.5t-56.5 -77.5zM123 0v1122h354v-1122h-354z" />
    <glyph glyph-name="Imacron" unicode="&#x12a;" horiz-adv-x="651" 
d="M-51 1565v237h758v-237h-758zM143 0v1456h367v-1456h-367z" />
    <glyph glyph-name="imacron" unicode="&#x12b;" horiz-adv-x="598" 
d="M-78 1298v236h758v-236h-758zM123 0v1122h354v-1122h-354z" />
    <glyph glyph-name="Ibreve" unicode="&#x12c;" horiz-adv-x="651" 
d="M328 1565q-113 0 -200 39t-140 120.5t-54 196.5h213q42 -119 181 -119q141 0 180 119h215q-3 -175 -112 -265.5t-283 -90.5zM143 0v1456h367v-1456h-367z" />
    <glyph glyph-name="ibreve" unicode="&#x12d;" horiz-adv-x="598" 
d="M303 1272q-174 0 -283 91.5t-112 262.5h213q43 -117 182 -117q138 0 178 117h215q-3 -173 -111 -263.5t-282 -90.5zM123 0v1122h354v-1122h-354z" />
    <glyph glyph-name="Iogonek" unicode="&#x12e;" horiz-adv-x="651" 
d="M512 -199l2 -163q-87 -17 -147 -17q-115 0 -177.5 48.5t-62.5 125.5q0 54 34 109t101 96h-119v1456h367v-1456q-61 -29 -89 -66t-28 -67q0 -68 99 -68q12 0 20 2z" />
    <glyph glyph-name="iogonek" unicode="&#x12f;" horiz-adv-x="598" 
d="M301 1253q-85 0 -144 59t-59 144q0 84 59.5 143.5t143.5 59.5q83 0 142 -60t59 -143q0 -85 -59 -144t-142 -59zM459 -201q12 0 20 2l2 -163q-87 -17 -147 -17q-115 0 -177.5 48.5t-62.5 125.5q0 54 34 109t101 96h-106v1122h354v-1122q-61 -29 -89 -66t-28 -67
q0 -68 99 -68z" />
    <glyph glyph-name="Idotaccent" unicode="&#x130;" horiz-adv-x="651" 
d="M328 1565q-85 0 -144 58.5t-59 143.5q0 84 59.5 143.5t143.5 59.5q83 0 141.5 -59.5t58.5 -143.5q0 -85 -58.5 -143.5t-141.5 -58.5zM143 0v1456h367v-1456h-367z" />
    <glyph glyph-name="dotlessi" unicode="&#x131;" horiz-adv-x="598" 
d="M123 0v1122h354v-1122h-354z" />
    <glyph glyph-name="IJ" unicode="&#x132;" horiz-adv-x="1937" 
d="M143 0v1456h367v-1456h-367zM1249 -31q-265 0 -421 155t-162 419h354q7 -126 72.5 -182t158.5 -56q102 0 156.5 62t54.5 213v876h365v-874q0 -321 -142.5 -467t-435.5 -146z" />
    <glyph glyph-name="ij" unicode="&#x133;" horiz-adv-x="1212" 
d="M301 1253q-85 0 -144 59t-59 144q0 84 59.5 143.5t143.5 59.5q83 0 142 -60t59 -143q0 -85 -59 -144t-142 -59zM913 1253q-83 0 -142.5 59.5t-59.5 143.5q0 83 59.5 143t142.5 60t142 -60t59 -143q0 -85 -59 -144t-142 -59zM123 0v1122h354v-1122h-354zM739 -393
q-114 0 -192 20v283q43 -12 76 -12q31 0 52 10.5t32.5 26.5t17 49t7 62t1.5 83v993h359v-1175q0 -172 -97.5 -256t-255.5 -84z" />
    <glyph glyph-name="Jcircumflex" unicode="&#x134;" horiz-adv-x="1286" 
d="M520 1565l299 360h221l301 -360h-241l-170 131l-168 -131h-242zM598 -31q-266 0 -422 155t-162 419h355q7 -126 72.5 -182t158.5 -56q102 0 156.5 62t54.5 213v876h365v-874q0 -321 -142.5 -467t-435.5 -146z" />
    <glyph glyph-name="jcircumflex" unicode="&#x135;" horiz-adv-x="614" 
d="M-94 1272l299 358h221l301 -358h-242l-170 129l-168 -129h-241zM141 -393q-114 0 -192 20v283q43 -12 76 -12q31 0 52 10.5t32.5 26.5t17 49t7 62t1.5 83v993h359v-1175q0 -172 -97.5 -256t-255.5 -84z" />
    <glyph glyph-name="uni0136" unicode="&#x136;" horiz-adv-x="1470" 
d="M905 807l568 -807h-439l-387 551l-174 -201v-350h-350v1456h350v-657l504 657h438zM743 -74q88 0 141.5 -49.5t53.5 -132.5q0 -31 -7 -64.5t-29.5 -75t-57.5 -73.5t-98.5 -54t-145.5 -22h-41v117h21q87 0 122 66q-66 12 -100.5 48.5t-34.5 90.5q0 65 47.5 107t128.5 42z
" />
    <glyph glyph-name="uni0137" unicode="&#x137;" horiz-adv-x="1292" 
d="M877 678l399 -678h-395l-258 438l-154 -153v-285h-352v1556h352v-866l377 432h426zM668 -74q88 0 141 -49.5t53 -132.5q0 -31 -7 -64.5t-29.5 -75t-57.5 -73.5t-98.5 -54t-145.5 -22h-41v117h21q88 0 123 66q-66 12 -100.5 48.5t-34.5 90.5q0 65 47.5 107t128.5 42z" />
    <glyph glyph-name="kgreenlandic" unicode="&#x138;" horiz-adv-x="1298" 
d="M885 0l-258 438l-152 -153v-285h-352v1122h352v-430l377 430h424l-393 -444l397 -678h-395z" />
    <glyph glyph-name="Lacute" unicode="&#x139;" horiz-adv-x="1236" 
d="M150 1565l243 356l387 -31l-395 -325h-235zM123 0v1456h366v-1120h709v-336h-1075z" />
    <glyph glyph-name="lacute" unicode="&#x13a;" horiz-adv-x="589" 
d="M154 1663l243 356l387 -30l-395 -326h-235zM117 0v1556h354v-1556h-354z" />
    <glyph glyph-name="uni013B" unicode="&#x13b;" horiz-adv-x="1236" 
d="M489 336h709v-336h-1075v1456h366v-1120zM662 -74q88 0 141 -49.5t53 -132.5q0 -31 -7 -64.5t-29.5 -75t-57.5 -73.5t-98.5 -54t-145.5 -22h-41v117h21q88 0 123 66q-66 12 -101 48.5t-35 90.5q0 65 48 107t129 42z" />
    <glyph glyph-name="uni013C" unicode="&#x13c;" horiz-adv-x="589" 
d="M471 1556v-1556h-354v1556h354zM287 -74q88 0 141 -49.5t53 -132.5q0 -31 -7 -64.5t-29.5 -75t-57.5 -73.5t-98.5 -54t-145.5 -22h-41v117h21q88 0 123 66q-66 12 -100.5 48.5t-34.5 90.5q0 65 47.5 107t128.5 42z" />
    <glyph glyph-name="Lcaron" unicode="&#x13d;" horiz-adv-x="1236" 
d="M860 1204q-59 11 -104 54.5t-45 123.5q0 73 48.5 120.5t125.5 47.5q82 0 133 -54t51 -161q0 -163 -88 -264.5t-260 -101.5v116q106 0 139 119zM489 336h709v-336h-1075v1456h366v-1120z" />
    <glyph glyph-name="lcaron" unicode="&#x13e;" horiz-adv-x="671" 
d="M762 1692q81 0 132.5 -55t51.5 -162q0 -162 -88.5 -263.5t-261.5 -101.5v117q108 0 141 119q-59 11 -104 54.5t-45 123.5q0 72 48.5 120t125.5 48zM117 0v1556h354v-1556h-354z" />
    <glyph glyph-name="Ldot" unicode="&#x13f;" horiz-adv-x="1236" 
d="M123 0v1456h366v-1120h709v-336h-1075zM913 582q-85 0 -143.5 58.5t-58.5 143.5t58.5 144t143.5 59q83 0 142 -59t59 -144q0 -84 -59 -143t-142 -59z" />
    <glyph glyph-name="ldot" unicode="&#x140;" horiz-adv-x="960" 
d="M117 0v1556h354v-1556h-354zM780 465q-85 0 -143.5 59t-58.5 144t58.5 143.5t143.5 58.5q84 0 142.5 -59t58.5 -143q0 -85 -59 -144t-142 -59z" />
    <glyph glyph-name="Lslash" unicode="&#x141;" horiz-adv-x="1296" 
d="M549 336h708v-336h-1075v557l-155 -45v272l155 45v627h367v-520l389 115v-271l-389 -114v-330z" />
    <glyph glyph-name="lslash" unicode="&#x142;" horiz-adv-x="759" 
d="M760 1008v-271l-199 -71v-666h-354v537l-187 -68v272l187 68v747h354v-620z" />
    <glyph glyph-name="Nacute" unicode="&#x143;" horiz-adv-x="1587" 
d="M651 1565l244 356l387 -31l-395 -325h-236zM1110 1456h356v-1460h-184l-803 807v-803h-356v1458h182l805 -805v803z" />
    <glyph glyph-name="nacute" unicode="&#x144;" horiz-adv-x="1316" 
d="M516 1272l244 356l387 -31l-395 -325h-236zM123 0v1122h338v-88q63 51 152.5 84t185.5 33q222 0 318.5 -110t96.5 -361v-680h-354v578q0 144 -43 203t-145 59q-119 0 -197 -92v-748h-352z" />
    <glyph glyph-name="uni0145" unicode="&#x145;" horiz-adv-x="1587" 
d="M1110 1456h356v-1460h-184l-803 807v-803h-356v1458h182l805 -805v803zM821 -74q88 0 141.5 -49.5t53.5 -132.5q0 -31 -7 -64.5t-29.5 -75t-57.5 -73.5t-98.5 -54t-145.5 -22h-41v117h20q88 0 123 66q-66 12 -100.5 48.5t-34.5 90.5q0 65 47.5 107t128.5 42z" />
    <glyph glyph-name="uni0146" unicode="&#x146;" horiz-adv-x="1316" 
d="M799 1151q222 0 318.5 -110t96.5 -361v-680h-354v578q0 144 -43 203t-145 59q-119 0 -197 -92v-748h-352v1122h338v-88q63 51 152.5 84t185.5 33zM653 -74q88 0 141.5 -49.5t53.5 -132.5q0 -31 -7 -64.5t-29.5 -75t-57.5 -73.5t-98.5 -54t-145.5 -22h-41v117h20
q88 0 123 66q-66 12 -100.5 48.5t-34.5 90.5q0 65 47.5 107t128.5 42z" />
    <glyph glyph-name="Ncaron" unicode="&#x147;" horiz-adv-x="1587" 
d="M389 1925h242l168 -131l170 131h241l-301 -360h-221zM1110 1456h356v-1460h-184l-803 807v-803h-356v1458h182l805 -805v803z" />
    <glyph glyph-name="ncaron" unicode="&#x148;" horiz-adv-x="1316" 
d="M258 1630h242l168 -129l170 129h241l-301 -358h-221zM123 0v1122h338v-88q63 51 152.5 84t185.5 33q222 0 318.5 -110t96.5 -361v-680h-354v578q0 144 -43 203t-145 59q-119 0 -197 -92v-748h-352z" />
    <glyph glyph-name="napostrophe" unicode="&#x149;" horiz-adv-x="1316" 
d="M524 1575q0 -36 -7 -75t-29.5 -87.5t-57.5 -86t-98.5 -63.5t-145.5 -26h-41v137q6 -2 21 -2q86 0 123 78q-66 15 -100.5 58t-34.5 106q0 76 47.5 125t128.5 49q87 0 140.5 -58.5t53.5 -154.5zM799 1151q222 0 318.5 -110t96.5 -361v-680h-354v578q0 144 -43 203t-145 59
q-119 0 -197 -92v-748h-352v1122h338v-88q63 51 152.5 84t185.5 33z" />
    <glyph glyph-name="Eng" unicode="&#x14a;" horiz-adv-x="1587" 
d="M1110 1456h356v-1259q0 -100 -11 -176.5t-38.5 -145.5t-74.5 -116.5t-117 -82.5t-169.5 -52t-228.5 -17v303q109 0 169 25t83 75.5t23 141.5v18l-623 633v-803h-356v1458h182l805 -813v811z" />
    <glyph glyph-name="eng" unicode="&#x14b;" horiz-adv-x="1316" 
d="M868 -393q-114 0 -192 20v283q44 -12 76 -12q31 0 51.5 10.5t31.5 26.5t17 49t7 62t1 83v449q0 144 -43 203t-145 59q-119 0 -197 -92v-748h-352v1122h338v-88q63 51 152.5 84t185.5 33q222 0 318.5 -110t96.5 -361v-733q0 -173 -94.5 -256.5t-251.5 -83.5z" />
    <glyph glyph-name="Omacron" unicode="&#x14c;" horiz-adv-x="1738" 
d="M496 1565v237h757v-237h-757zM868 -31q-229 0 -408.5 95t-279.5 267.5t-100 395.5q0 166 57.5 307t159.5 240.5t249.5 156t321.5 56.5q231 0 411 -95t280 -268t100 -397q0 -220 -98 -392.5t-278.5 -269t-414.5 -96.5zM868 305q186 0 300 116t114 306t-113 307t-301 117
q-184 0 -297.5 -116.5t-113.5 -307.5q0 -189 112.5 -305.5t298.5 -116.5z" />
    <glyph glyph-name="omacron" unicode="&#x14d;" horiz-adv-x="1372" 
d="M309 1298v236h758v-236h-758zM686 -27q-284 0 -453.5 159t-169.5 429q0 269 170 429.5t453 160.5q282 0 451.5 -160.5t169.5 -429.5q0 -270 -169 -429t-452 -159zM686 291q116 0 186 73t70 197q0 123 -70.5 198t-185.5 75q-117 0 -187.5 -75t-70.5 -198q0 -124 70.5 -197
t187.5 -73z" />
    <glyph glyph-name="Obreve" unicode="&#x14e;" horiz-adv-x="1738" 
d="M874 1565q-113 0 -200 39t-139.5 120.5t-53.5 196.5h213q42 -119 180 -119q142 0 181 119h215q-3 -174 -112.5 -265t-283.5 -91zM868 -31q-229 0 -408.5 95t-279.5 267.5t-100 395.5q0 166 57.5 307t159.5 240.5t249.5 156t321.5 56.5q231 0 411 -95t280 -268t100 -397
q0 -220 -98 -392.5t-278.5 -269t-414.5 -96.5zM868 305q186 0 300 116t114 306t-113 307t-301 117q-184 0 -297.5 -116.5t-113.5 -307.5q0 -189 112.5 -305.5t298.5 -116.5z" />
    <glyph glyph-name="obreve" unicode="&#x14f;" horiz-adv-x="1372" 
d="M690 1272q-174 0 -283 91.5t-112 262.5h213q43 -117 182 -117q138 0 178 117h215q-3 -173 -111 -263.5t-282 -90.5zM686 -27q-284 0 -453.5 159t-169.5 429q0 269 170 429.5t453 160.5q282 0 451.5 -160.5t169.5 -429.5q0 -270 -169 -429t-452 -159zM686 291
q116 0 186 73t70 197q0 123 -70.5 198t-185.5 75q-117 0 -187.5 -75t-70.5 -198q0 -124 70.5 -197t187.5 -73z" />
    <glyph glyph-name="Ohungarumlaut" unicode="&#x150;" horiz-adv-x="1738" 
d="M561 1565l180 372l287 -104l-264 -268h-203zM934 1565l180 372l318 -108l-314 -264h-184zM868 -31q-229 0 -408.5 95t-279.5 267.5t-100 395.5q0 166 57.5 307t159.5 240.5t249.5 156t321.5 56.5q231 0 411 -95t280 -268t100 -397q0 -220 -98 -392.5t-278.5 -269
t-414.5 -96.5zM868 305q186 0 300 116t114 306t-113 307t-301 117q-184 0 -297.5 -116.5t-113.5 -307.5q0 -189 112.5 -305.5t298.5 -116.5z" />
    <glyph glyph-name="ohungarumlaut" unicode="&#x151;" horiz-adv-x="1372" 
d="M375 1270l180 372l287 -104l-264 -268h-203zM748 1270l180 372l317 -110l-313 -262h-184zM686 -27q-284 0 -453.5 159t-169.5 429q0 269 170 429.5t453 160.5q282 0 451.5 -160.5t169.5 -429.5q0 -270 -169 -429t-452 -159zM686 291q116 0 186 73t70 197q0 123 -70.5 198
t-185.5 75q-117 0 -187.5 -75t-70.5 -198q0 -124 70.5 -197t187.5 -73z" />
    <glyph glyph-name="OE" unicode="&#x152;" horiz-adv-x="2152" 
d="M844 0q-371 0 -567.5 195t-196.5 532t206 533t593 196h1183v-317h-749v-275h633v-297h-633v-250h776v-317h-1245zM883 326h80v804h-107q-195 0 -297 -107.5t-102 -295.5q0 -190 105 -295.5t321 -105.5z" />
    <glyph glyph-name="oe" unicode="&#x153;" horiz-adv-x="2129" 
d="M2085 561q0 -90 -2 -100h-813q48 -205 280 -205q90 0 166.5 34.5t128.5 100.5l217 -184q-77 -110 -213 -173t-315 -63q-293 0 -440 166q-150 -166 -426 -166q-265 0 -435 160.5t-170 431.5q0 180 79 316t214 206t306 70q285 0 436 -178q76 87 184.5 132.5t235.5 45.5
q269 0 418 -162.5t149 -431.5zM1509 874q-90 0 -154.5 -47.5t-86.5 -152.5h477q-3 35 -18 68t-42 63.5t-72.5 49.5t-103.5 19zM678 289q112 0 184 74.5t72 199.5t-71.5 199t-184.5 74q-114 0 -185 -73.5t-71 -199.5t71 -200t185 -74z" />
    <glyph glyph-name="Racute" unicode="&#x154;" horiz-adv-x="1417" 
d="M553 1565l244 356l387 -31l-396 -325h-235zM1403 0h-436l-262 383h-11h-213v-383h-358v1456h602q302 0 461.5 -138t159.5 -398q0 -339 -275 -467zM481 1145v-463h209q141 0 210 60.5t69 156.5q0 124 -63.5 185t-205.5 61h-219z" />
    <glyph glyph-name="racute" unicode="&#x155;" horiz-adv-x="892" 
d="M219 1272l244 356l387 -31l-395 -325h-236zM123 0v1122h338v-131q137 160 340 160q21 0 49 -4v-379q-75 14 -119 14q-117 0 -186.5 -65t-69.5 -201v-516h-352z" />
    <glyph glyph-name="uni0156" unicode="&#x156;" horiz-adv-x="1417" 
d="M1071 453l332 -453h-436l-262 383h-11h-213v-383h-358v1456h602q302 0 461.5 -138t159.5 -398q0 -339 -275 -467zM690 682q141 0 210 60.5t69 156.5q0 124 -63.5 185t-205.5 61h-219v-463h209zM719 -74q88 0 141 -49.5t53 -132.5q0 -31 -7 -64.5t-29.5 -75t-57.5 -73.5
t-98.5 -54t-145.5 -22h-40v117h20q88 0 123 66q-66 12 -100.5 48.5t-34.5 90.5q0 65 47.5 107t128.5 42z" />
    <glyph glyph-name="uni0157" unicode="&#x157;" horiz-adv-x="892" 
d="M801 1151q21 0 49 -4v-379q-75 14 -119 14q-117 0 -186.5 -65t-69.5 -201v-516h-352v1122h338v-131q137 160 340 160zM291 -74q88 0 141 -49.5t53 -132.5q0 -31 -7 -64.5t-29.5 -75t-57.5 -73.5t-98.5 -54t-145.5 -22h-41v117h21q88 0 123 66q-66 12 -100.5 48.5
t-34.5 90.5q0 65 47.5 107t128.5 42z" />
    <glyph glyph-name="Rcaron" unicode="&#x158;" horiz-adv-x="1417" 
d="M291 1925h241l168 -131l170 131h242l-301 -360h-221zM1403 0h-436l-262 383h-11h-213v-383h-358v1456h602q302 0 461.5 -138t159.5 -398q0 -339 -275 -467zM481 1145v-463h209q141 0 210 60.5t69 156.5q0 124 -63.5 185t-205.5 61h-219z" />
    <glyph glyph-name="rcaron" unicode="&#x159;" horiz-adv-x="892" 
d="M100 1630h242l168 -129l170 129h242l-299 -358h-224zM123 0v1122h338v-131q137 160 340 160q21 0 49 -4v-379q-75 14 -119 14q-117 0 -186.5 -65t-69.5 -201v-516h-352z" />
    <glyph glyph-name="Sacute" unicode="&#x15a;" horiz-adv-x="1290" 
d="M485 1565l244 356l387 -31l-395 -325h-236zM682 -31q-188 0 -333.5 33t-295.5 104l133 302q112 -56 239.5 -90.5t240.5 -34.5q208 0 208 129q0 62 -57 94.5t-194 58.5q-105 20 -183 43.5t-150 60t-117.5 84t-72 116t-26.5 155.5q0 216 144.5 338.5t424.5 122.5
q322 0 557 -113l-147 -295q-223 88 -408 88q-95 0 -145.5 -28.5t-50.5 -83.5q0 -23 8.5 -41t29.5 -33t44 -26.5t65 -23.5t79 -20.5t99 -21.5q115 -23 195.5 -53t148.5 -80.5t101.5 -128.5t33.5 -185q0 -471 -571 -471z" />
    <glyph glyph-name="sacute" unicode="&#x15b;" horiz-adv-x="1083" 
d="M371 1268l243 356l387 -31l-395 -325h-235zM530 -31q-265 0 -479 92l105 265q71 -47 170 -72t188 -25q158 0 158 84q0 37 -42 57.5t-179 51.5q-93 21 -160 48t-121.5 68.5t-81.5 102t-27 141.5q0 182 123.5 274.5t341.5 92.5q136 0 240 -23.5t219 -66.5l-115 -271
q-71 38 -171 64.5t-175 26.5q-118 0 -118 -70q0 -36 40 -56.5t177 -54.5q204 -51 303.5 -128.5t99.5 -217.5q0 -383 -496 -383z" />
    <glyph glyph-name="Scircumflex" unicode="&#x15c;" horiz-adv-x="1290" 
d="M221 1565l299 360h221l301 -360h-241l-170 131l-168 -131h-242zM682 -31q-188 0 -333.5 33t-295.5 104l133 302q112 -56 239.5 -90.5t240.5 -34.5q208 0 208 129q0 62 -57 94.5t-194 58.5q-105 20 -183 43.5t-150 60t-117.5 84t-72 116t-26.5 155.5q0 216 144.5 338.5
t424.5 122.5q322 0 557 -113l-147 -295q-223 88 -408 88q-95 0 -145.5 -28.5t-50.5 -83.5q0 -23 8.5 -41t29.5 -33t44 -26.5t65 -23.5t79 -20.5t99 -21.5q115 -23 195.5 -53t148.5 -80.5t101.5 -128.5t33.5 -185q0 -471 -571 -471z" />
    <glyph glyph-name="scircumflex" unicode="&#x15d;" horiz-adv-x="1083" 
d="M111 1268l299 358h221l301 -358h-242l-170 129l-168 -129h-241zM530 -31q-265 0 -479 92l105 265q71 -47 170 -72t188 -25q158 0 158 84q0 37 -42 57.5t-179 51.5q-93 21 -160 48t-121.5 68.5t-81.5 102t-27 141.5q0 182 123.5 274.5t341.5 92.5q136 0 240 -23.5
t219 -66.5l-115 -271q-71 38 -171 64.5t-175 26.5q-118 0 -118 -70q0 -36 40 -56.5t177 -54.5q204 -51 303.5 -128.5t99.5 -217.5q0 -383 -496 -383z" />
    <glyph glyph-name="Scedilla" unicode="&#x15e;" horiz-adv-x="1290" 
d="M1253 440q0 -435 -491 -469l-19 -45q134 -27 134 -129q0 -95 -82 -140.5t-228 -45.5q-89 0 -155 14v123q52 -8 104 -8q56 0 82.5 17.5t26.5 58.5q0 45 -101 57v53l43 47q-265 13 -514 133l133 302q112 -56 239.5 -90.5t240.5 -34.5q208 0 208 129q0 62 -57 94.5
t-194 58.5q-105 20 -183 43.5t-150 60t-117.5 84t-72 116t-26.5 155.5q0 216 144.5 338.5t424.5 122.5q322 0 557 -113l-147 -295q-223 88 -408 88q-95 0 -145.5 -28.5t-50.5 -83.5q0 -23 8.5 -41t29.5 -33t44 -26.5t65 -23.5t79 -20.5t99 -21.5q115 -23 195.5 -53
t148.5 -80.5t101.5 -128.5t33.5 -185z" />
    <glyph glyph-name="scedilla" unicode="&#x15f;" horiz-adv-x="1083" 
d="M1026 352q0 -337 -385 -377l-20 -53q64 -13 98.5 -43t34.5 -86q0 -95 -82 -140.5t-228 -45.5q-89 0 -155 14v123q52 -8 104 -8q56 0 82.5 17.5t26.5 58.5q0 45 -101 57v53l45 49q-207 11 -395 90l105 265q71 -47 170 -72t188 -25q158 0 158 84q0 37 -42 57.5t-179 51.5
q-93 21 -160 48t-121.5 68.5t-81.5 102t-27 141.5q0 182 123.5 274.5t341.5 92.5q136 0 240 -23.5t219 -66.5l-115 -271q-71 38 -171 64.5t-175 26.5q-118 0 -118 -70q0 -36 40 -56.5t177 -54.5q204 -51 303.5 -128.5t99.5 -217.5z" />
    <glyph glyph-name="Scaron" unicode="&#x160;" horiz-adv-x="1290" 
d="M223 1925h242l168 -131l170 131h241l-301 -360h-221zM682 -31q-188 0 -333.5 33t-295.5 104l133 302q112 -56 239.5 -90.5t240.5 -34.5q208 0 208 129q0 62 -57 94.5t-194 58.5q-105 20 -183 43.5t-150 60t-117.5 84t-72 116t-26.5 155.5q0 216 144.5 338.5t424.5 122.5
q322 0 557 -113l-147 -295q-223 88 -408 88q-95 0 -145.5 -28.5t-50.5 -83.5q0 -23 8.5 -41t29.5 -33t44 -26.5t65 -23.5t79 -20.5t99 -21.5q115 -23 195.5 -53t148.5 -80.5t101.5 -128.5t33.5 -185q0 -471 -571 -471z" />
    <glyph glyph-name="scaron" unicode="&#x161;" horiz-adv-x="1083" 
d="M113 1626h241l168 -129l170 129h242l-301 -358h-221zM530 -31q-265 0 -479 92l105 265q71 -47 170 -72t188 -25q158 0 158 84q0 37 -42 57.5t-179 51.5q-93 21 -160 48t-121.5 68.5t-81.5 102t-27 141.5q0 182 123.5 274.5t341.5 92.5q136 0 240 -23.5t219 -66.5
l-115 -271q-71 38 -171 64.5t-175 26.5q-118 0 -118 -70q0 -36 40 -56.5t177 -54.5q204 -51 303.5 -128.5t99.5 -217.5q0 -383 -496 -383z" />
    <glyph glyph-name="uni0162" unicode="&#x162;" horiz-adv-x="1331" 
d="M850 0h-70l-28 -74q64 -13 98.5 -43t34.5 -86q0 -95 -82 -140.5t-228 -45.5q-89 0 -155 14v123q52 -8 104 -8q56 0 82.5 17.5t26.5 58.5q0 45 -101 57v53l68 74h-117v1120h-444v336h1251v-336h-440v-1120z" />
    <glyph glyph-name="uni0163" unicode="&#x163;" horiz-adv-x="839" 
d="M803 817h-291v-409q0 -78 27 -111t96 -33q90 0 166 35v-297q-90 -27 -197 -29l-18 -47q64 -13 98.5 -43t34.5 -86q0 -95 -81.5 -140.5t-227.5 -45.5q-90 0 -156 14v123q52 -8 104 -8q56 0 82.5 17.5t26.5 58.5q0 45 -100 57v53l51 56q-129 24 -192.5 111t-63.5 249v475
h-146v305h146v434h350v-434h291v-305z" />
    <glyph glyph-name="Tcaron" unicode="&#x164;" horiz-adv-x="1331" 
d="M258 1925h242l168 -131l170 131h241l-301 -360h-221zM483 0v1120h-444v336h1251v-336h-440v-1120h-367z" />
    <glyph glyph-name="tcaron" unicode="&#x165;" horiz-adv-x="921" 
d="M795 1782q81 0 132.5 -55t51.5 -162q0 -162 -88.5 -263.5t-261.5 -101.5v117q108 0 141 119q-59 11 -104 54.5t-45 123.5q0 72 48.5 120t125.5 48zM512 1556v-434h291v-305h-291v-409q0 -78 27 -111t96 -33q90 0 166 35v-297q-102 -31 -271 -31q-186 0 -277 88t-91 283
v475h-146v305h146v434h350z" />
    <glyph glyph-name="Tbar" unicode="&#x166;" horiz-adv-x="1331" 
d="M1290 1120h-440v-317h213v-264h-213v-539h-367v539h-221v264h221v317h-444v336h1251v-336z" />
    <glyph glyph-name="tbar" unicode="&#x167;" horiz-adv-x="839" 
d="M803 817h-291v-123h227v-241h-227v-45q0 -78 27 -111t96 -33q90 0 166 35v-297q-102 -31 -271 -31q-186 0 -277 88t-91 283v111h-109v241h109v123h-146v305h146v434h350v-434h291v-305z" />
    <glyph glyph-name="Utilde" unicode="&#x168;" horiz-adv-x="1513" 
d="M471 1550l-156 33q15 152 82.5 238t171.5 86q48 0 104 -18t96.5 -39.5t83.5 -39.5t69 -18q36 0 69 27.5t58 78.5l153 -32q-17 -154 -83.5 -239t-170.5 -85q-58 0 -129 28t-131 56.5t-90 28.5q-37 0 -70.5 -27.5t-56.5 -77.5zM756 -31q-311 0 -478 154t-167 450v883h366
v-794q0 -187 69.5 -270t209.5 -83q142 0 212 83t70 270v794h365v-883q0 -299 -164 -451.5t-483 -152.5z" />
    <glyph glyph-name="utilde" unicode="&#x169;" horiz-adv-x="1292" 
d="M362 1251l-155 33q15 152 82.5 238t171.5 86q61 0 132 -29t129.5 -57.5t90.5 -28.5q35 0 68.5 28t58.5 78l154 -32q-17 -153 -83.5 -238.5t-170.5 -85.5q-58 0 -129.5 28.5t-131.5 56.5t-90 28q-37 0 -70.5 -27.5t-56.5 -77.5zM510 -27q-416 0 -416 471v678h355v-575
q0 -141 43 -201.5t133 -60.5q123 0 206 102v735h355v-1122h-334v100q-127 -127 -342 -127z" />
    <glyph glyph-name="Umacron" unicode="&#x16a;" horiz-adv-x="1513" 
d="M379 1565v237h758v-237h-758zM756 -31q-311 0 -478 154t-167 450v883h366v-794q0 -187 69.5 -270t209.5 -83q142 0 212 83t70 270v794h365v-883q0 -299 -164 -451.5t-483 -152.5z" />
    <glyph glyph-name="umacron" unicode="&#x16b;" horiz-adv-x="1292" 
d="M268 1298v236h758v-236h-758zM510 -27q-416 0 -416 471v678h355v-575q0 -141 43 -201.5t133 -60.5q123 0 206 102v735h355v-1122h-334v100q-127 -127 -342 -127z" />
    <glyph glyph-name="Ubreve" unicode="&#x16c;" horiz-adv-x="1513" 
d="M758 1565q-113 0 -200 39t-139.5 120.5t-53.5 196.5h213q42 -119 180 -119q141 0 180 119h215q-3 -175 -112 -265.5t-283 -90.5zM756 -31q-311 0 -478 154t-167 450v883h366v-794q0 -187 69.5 -270t209.5 -83q142 0 212 83t70 270v794h365v-883q0 -299 -164 -451.5
t-483 -152.5z" />
    <glyph glyph-name="ubreve" unicode="&#x16d;" horiz-adv-x="1292" 
d="M649 1272q-174 0 -283 91.5t-112 262.5h213q43 -117 182 -117q138 0 178 117h215q-3 -173 -111 -263.5t-282 -90.5zM510 -27q-416 0 -416 471v678h355v-575q0 -141 43 -201.5t133 -60.5q123 0 206 102v735h355v-1122h-334v100q-127 -127 -342 -127z" />
    <glyph glyph-name="Uring" unicode="&#x16e;" horiz-adv-x="1513" 
d="M758 1386q-107 0 -180.5 70.5t-73.5 177.5t73.5 177.5t180.5 70.5q110 0 183 -70t73 -178t-73 -178t-183 -70zM758 1522q50 0 82 32t32 84q0 50 -32.5 82.5t-81.5 32.5q-48 0 -80.5 -33.5t-32.5 -85.5q0 -49 32.5 -80.5t80.5 -31.5zM756 -31q-311 0 -478 154t-167 450
v883h366v-794q0 -187 69.5 -270t209.5 -83q142 0 212 83t70 270v794h365v-883q0 -299 -164 -451.5t-483 -152.5z" />
    <glyph glyph-name="uring" unicode="&#x16f;" horiz-adv-x="1292" 
d="M649 1257q-107 0 -180.5 71t-73.5 179q0 106 73.5 177t180.5 71q109 0 182.5 -70.5t73.5 -177.5q0 -108 -73.5 -179t-182.5 -71zM649 1393q50 0 82.5 32.5t32.5 83.5q0 49 -33 82t-82 33q-48 0 -80 -33t-32 -84q0 -49 32 -81.5t80 -32.5zM510 -27q-416 0 -416 471v678
h355v-575q0 -141 43 -201.5t133 -60.5q123 0 206 102v735h355v-1122h-334v100q-127 -127 -342 -127z" />
    <glyph glyph-name="Uhungarumlaut" unicode="&#x170;" horiz-adv-x="1513" 
d="M444 1565l181 372l286 -104l-264 -268h-203zM817 1565l180 372l318 -108l-314 -264h-184zM756 -31q-311 0 -478 154t-167 450v883h366v-794q0 -187 69.5 -270t209.5 -83q142 0 212 83t70 270v794h365v-883q0 -299 -164 -451.5t-483 -152.5z" />
    <glyph glyph-name="uhungarumlaut" unicode="&#x171;" horiz-adv-x="1292" 
d="M334 1270l180 372l287 -104l-264 -268h-203zM707 1270l180 372l317 -110l-313 -262h-184zM510 -27q-416 0 -416 471v678h355v-575q0 -141 43 -201.5t133 -60.5q123 0 206 102v735h355v-1122h-334v100q-127 -127 -342 -127z" />
    <glyph glyph-name="Uogonek" unicode="&#x172;" horiz-adv-x="1513" 
d="M1038 1456h365v-883q0 -485 -426 -581q-53 -28 -76.5 -62.5t-23.5 -62.5q0 -68 98 -68q12 0 20 2l2 -163q-87 -17 -147 -17q-115 0 -177.5 48.5t-62.5 125.5q0 97 95 176q-287 12 -440.5 164.5t-153.5 437.5v883h366v-794q0 -187 69.5 -270t209.5 -83q142 0 212 83
t70 270v794z" />
    <glyph glyph-name="uogonek" unicode="&#x173;" horiz-adv-x="1292" 
d="M1188 -199l2 -163q-87 -17 -148 -17q-114 0 -176.5 48.5t-62.5 125.5q0 54 34 109t101 96h-86v100q-127 -127 -342 -127q-416 0 -416 471v678h355v-575q0 -141 43 -201.5t133 -60.5q123 0 206 102v735h355v-1122q-61 -29 -89 -66t-28 -67q0 -68 98 -68q13 0 21 2z" />
    <glyph glyph-name="Wcircumflex" unicode="&#x174;" horiz-adv-x="2199" 
d="M692 1565l299 360h221l301 -360h-241l-170 131l-168 -131h-242zM1800 1456h395l-542 -1460h-180l-375 835l-369 -835h-178l-547 1460h402l266 -794l336 794h186l336 -801z" />
    <glyph glyph-name="wcircumflex" unicode="&#x175;" horiz-adv-x="1687" 
d="M434 1272l299 358h221l301 -358h-241l-170 129l-168 -129h-242zM1323 1122h360l-383 -1124h-194l-264 590l-258 -590h-195l-385 1124h365l155 -561l234 563h172l233 -569z" />
    <glyph glyph-name="Ycircumflex" unicode="&#x176;" horiz-adv-x="1421" 
d="M303 1565l299 360h221l301 -360h-241l-170 131l-168 -131h-242zM1427 1456l-532 -946v-510h-367v508l-532 948h420l297 -594l301 594h413z" />
    <glyph glyph-name="ycircumflex" unicode="&#x177;" horiz-adv-x="1263" 
d="M219 1272l299 358h221l301 -358h-241l-170 129l-168 -129h-242zM881 1122h379l-449 -1118q-41 -104 -92.5 -178.5t-101 -116.5t-111 -66t-112.5 -31t-118 -7q-113 0 -192 26v293q80 -28 156 -28q164 0 235 124l-500 1102h398l260 -671z" />
    <glyph glyph-name="Ydieresis" unicode="&#x178;" horiz-adv-x="1421" 
d="M465 1554q-82 0 -139.5 58t-57.5 141q0 82 57.5 140.5t139.5 58.5t139.5 -58.5t57.5 -140.5q0 -83 -57.5 -141t-139.5 -58zM965 1554q-83 0 -141 58t-58 141q0 82 58 140.5t141 58.5q80 0 137 -58.5t57 -140.5q0 -83 -57 -141t-137 -58zM1427 1456l-532 -946v-510h-367
v508l-532 948h420l297 -594l301 594h413z" />
    <glyph glyph-name="Zacute" unicode="&#x179;" horiz-adv-x="1378" 
d="M569 1565l244 356l387 -31l-395 -325h-236zM608 328h690v-328h-1235v166l680 962h-639v328h1192v-174z" />
    <glyph glyph-name="zacute" unicode="&#x17a;" horiz-adv-x="1107" 
d="M410 1272l243 356l387 -31l-395 -325h-235zM551 287h539v-287h-1045v170l518 670h-485v282h1005v-166z" />
    <glyph glyph-name="Zdotaccent" unicode="&#x17b;" horiz-adv-x="1378" 
d="M713 1565q-85 0 -144 58.5t-59 143.5q0 84 59.5 143.5t143.5 59.5q83 0 141.5 -59.5t58.5 -143.5q0 -85 -58.5 -143.5t-141.5 -58.5zM608 328h690v-328h-1235v166l680 962h-639v328h1192v-174z" />
    <glyph glyph-name="zdotaccent" unicode="&#x17c;" horiz-adv-x="1107" 
d="M559 1253q-85 0 -144 59t-59 144q0 84 59.5 143.5t143.5 59.5q83 0 142 -60t59 -143q0 -85 -59 -144t-142 -59zM551 287h539v-287h-1045v170l518 670h-485v282h1005v-166z" />
    <glyph glyph-name="Zcaron" unicode="&#x17d;" horiz-adv-x="1378" 
d="M307 1925h242l168 -131l170 131h241l-301 -360h-221zM608 328h690v-328h-1235v166l680 962h-639v328h1192v-174z" />
    <glyph glyph-name="zcaron" unicode="&#x17e;" horiz-adv-x="1107" 
d="M152 1630h241l168 -129l170 129h242l-301 -358h-221zM551 287h539v-287h-1045v170l518 670h-485v282h1005v-166z" />
    <glyph glyph-name="uni018F" unicode="&#x18f;" horiz-adv-x="1665" 
d="M803 1487q227 0 405.5 -95t278.5 -268.5t100 -396.5q0 -164 -57 -305.5t-156.5 -240.5t-240.5 -155.5t-304 -56.5q-221 0 -390 86.5t-264 251t-95 385.5q0 75 4 133h1122q-26 154 -133.5 240t-269.5 86q-128 0 -219 -54.5t-164 -150.5l-283 211q244 330 666 330zM827 287
q133 0 229.5 70.5t135.5 201.5h-735q25 -131 118.5 -201.5t251.5 -70.5z" />
    <glyph glyph-name="florin" unicode="&#x192;" horiz-adv-x="978" 
d="M799 1200q-141 0 -150 -149l-8 -113h256v-236h-274l-45 -559q-28 -356 -369 -356q-105 0 -180 23v282q43 -12 84 -12q25 0 44 6t32 20.5t21.5 31t14 46t9 56t6.5 69.5l30 393h-125v236h144l14 172q15 184 121 279.5t278 95.5q146 0 238 -47v-260q-80 22 -141 22z" />
    <glyph glyph-name="Gcaron" unicode="&#x1e6;" horiz-adv-x="1622" 
d="M469 1925h242l168 -131l170 131h241l-301 -360h-221zM815 829h744v-643q-105 -101 -271 -159t-377 -58q-380 0 -605.5 205t-225.5 553q0 230 101 403t283 265t419 92q390 0 620 -211l-227 -252q-68 59 -170 93t-217 34q-197 0 -314.5 -115t-117.5 -309
q0 -205 126.5 -318.5t346.5 -113.5q187 0 297 72v157h-412v305z" />
    <glyph glyph-name="gcaron" unicode="&#x1e7;" horiz-adv-x="1347" 
d="M281 1630h241l168 -129l170 129h242l-301 -358h-221zM645 -395q-298 0 -459 63v307q205 -81 394 -81q161 0 242 48.5t81 161.5v68q-100 -123 -307 -123q-241 0 -387 154.5t-146 396.5q0 243 144 398t375 155q89 0 172 -27t141 -84v80h348v-874q0 -117 -17 -210.5
t-59 -176.5t-109.5 -138t-171.5 -86.5t-241 -31.5zM686 356q153 0 217 125v244q-30 57 -91.5 89t-133.5 32q-111 0 -180.5 -68t-69.5 -176q0 -106 70 -176t188 -70z" />
    <glyph glyph-name="uni01EA" unicode="&#x1ea;" horiz-adv-x="1738" 
d="M1001 -23q-77 -51 -77 -110q0 -68 98 -68q12 0 20 2l2 -163q-87 -17 -147 -17q-115 0 -177.5 48.5t-62.5 125.5q0 45 25.5 93t75.5 87q-304 34 -491 239t-187 513q0 166 57.5 307t159.5 240.5t249.5 156t321.5 56.5q231 0 411 -95t280 -268t100 -397
q0 -301 -179.5 -505.5t-478.5 -244.5zM457 727q0 -189 112.5 -305.5t298.5 -116.5t300 116t114 306t-113 307t-301 117q-184 0 -297.5 -116.5t-113.5 -307.5z" />
    <glyph glyph-name="uni01EB" unicode="&#x1eb;" horiz-adv-x="1372" 
d="M852 -10q-50 -28 -73 -61.5t-23 -61.5q0 -68 98 -68q12 0 20 2l3 -163q-87 -17 -148 -17q-115 0 -177.5 48.5t-62.5 125.5q0 104 105 182q-245 26 -388 181.5t-143 402.5q0 269 170 429.5t453 160.5q282 0 451.5 -160.5t169.5 -429.5q0 -227 -121.5 -377.5t-333.5 -193.5
zM428 561q0 -124 70.5 -197t187.5 -73q116 0 186 73t70 197q0 123 -70.5 198t-185.5 75q-117 0 -187.5 -75t-70.5 -198z" />
    <glyph glyph-name="Aringacute" unicode="&#x1fa;" horiz-adv-x="1591" 
d="M932 1421l653 -1421h-393l-107 238h-581l-107 -238h-393l653 1423q-54 31 -85 86.5t-31 124.5q0 82 43.5 143.5t115.5 88.5l183 266l387 -31l-322 -264q103 -74 103 -203q0 -69 -32 -124.5t-87 -88.5zM795 1753q-48 0 -80.5 -33.5t-32.5 -85.5q0 -49 32.5 -80.5
t80.5 -31.5q50 0 82 32t32 84q0 50 -32.5 82.5t-81.5 32.5zM614 526h363l-82 197l-100 285l-99 -285z" />
    <glyph glyph-name="aringacute" unicode="&#x1fb;" horiz-adv-x="1355" 
d="M686 1257q-107 0 -180.5 71t-73.5 179q0 91 55.5 157t141.5 85l172 252l387 -31l-332 -274q86 -70 86 -189q0 -108 -73.5 -179t-182.5 -71zM686 1393q50 0 82.5 32.5t32.5 83.5q0 49 -32.5 82t-82.5 33q-48 0 -80.5 -33t-32.5 -84q0 -49 32.5 -81.5t80.5 -32.5zM895 1122
h348v-1122h-340v94q-101 -121 -307 -121q-244 0 -388.5 160t-144.5 428q0 269 143 430.5t376 161.5q89 0 172 -27t141 -84v80zM903 408v315q-30 56 -91.5 87.5t-133.5 31.5q-112 0 -181 -73t-69 -206q0 -131 68.5 -205.5t189.5 -74.5q153 0 217 125z" />
    <glyph glyph-name="AEacute" unicode="&#x1fc;" horiz-adv-x="2136" 
d="M981 1565l244 356l387 -31l-395 -325h-236zM-2 0l717 1456h1333v-317h-752v-275h635v-297h-635v-250h779v-317h-1127v238h-438l-113 -238h-399zM629 526h319v594h-41z" />
    <glyph glyph-name="aeacute" unicode="&#x1fd;" horiz-adv-x="2101" 
d="M897 1274l244 356l387 -31l-395 -325h-236zM2054 561q0 -80 -2 -100h-813q48 -203 281 -203q89 0 167 35t128 100l217 -182q-76 -108 -207.5 -171t-288.5 -63q-190 0 -317 89v-66h-338v94q-98 -121 -299 -121q-236 0 -377.5 160.5t-141.5 427.5q0 270 139.5 432
t366.5 162q85 0 166.5 -27.5t138.5 -83.5v80h345v-61q118 90 282 90q173 0 299.5 -76t190 -209t63.5 -307zM1479 872q-89 0 -154 -47.5t-88 -150.5h477q-3 37 -17.5 70.5t-41.5 63t-72.5 47t-103.5 17.5zM881 408v317q-27 55 -87 87t-130 32q-109 0 -174.5 -73t-65.5 -208
q0 -131 66 -206.5t182 -75.5q69 0 124 31.5t85 95.5z" />
    <glyph glyph-name="Oslashacute" unicode="&#x1fe;" horiz-adv-x="1738" 
d="M731 1565l244 356l387 -31l-395 -325h-236zM1661 1456l-186 -217q184 -199 184 -512q0 -220 -98 -392.5t-278.5 -269t-414.5 -96.5q-222 0 -411 97l-56 -66h-311l180 209q-190 206 -190 518q0 166 57.5 307t159.5 240.5t249.5 156t321.5 56.5q231 0 422 -101l60 70h311z
M457 727q0 -135 59 -235l539 622q-81 37 -187 37q-184 0 -297.5 -116.5t-113.5 -307.5zM1282 727q0 132 -53 227l-537 -616q76 -33 176 -33q186 0 300 116t114 306z" />
    <glyph glyph-name="oslashacute" unicode="&#x1ff;" horiz-adv-x="1372" 
d="M537 1272l243 356l387 -31l-395 -325h-235zM1321 1122l-150 -168q134 -156 134 -393q0 -270 -169 -429t-452 -159q-181 0 -324 70l-36 -43h-277l150 168q-136 155 -136 393q0 269 170.5 429.5t452.5 160.5q186 0 324 -72l39 43h274zM397 561q0 -75 25 -139l379 426
q-50 20 -117 20q-131 0 -209 -83t-78 -224zM973 561q0 73 -27 139l-379 -426q55 -22 117 -22q130 0 209.5 84.5t79.5 224.5z" />
    <glyph glyph-name="uni0218" unicode="&#x218;" horiz-adv-x="1290" 
d="M774 887q115 -23 195.5 -53t148.5 -80.5t101.5 -128.5t33.5 -185q0 -471 -571 -471q-188 0 -333.5 33t-295.5 104l133 302q112 -56 239.5 -90.5t240.5 -34.5q208 0 208 129q0 62 -57 94.5t-194 58.5q-105 20 -183 43.5t-150 60t-117.5 84t-72 116t-26.5 155.5
q0 216 144.5 338.5t424.5 122.5q322 0 557 -113l-147 -295q-223 88 -408 88q-95 0 -145.5 -28.5t-50.5 -83.5q0 -23 8.5 -41t29.5 -33t44 -26.5t65 -23.5t79 -20.5t99 -21.5zM645 -74q88 0 141.5 -49.5t53.5 -132.5q0 -31 -7 -64.5t-29.5 -75t-57.5 -73.5t-98.5 -54
t-145.5 -22h-41v117h20q88 0 123 66q-66 12 -100.5 48.5t-34.5 90.5q0 65 47.5 107t128.5 42z" />
    <glyph glyph-name="uni0219" unicode="&#x219;" horiz-adv-x="1083" 
d="M623 698q204 -51 303.5 -128.5t99.5 -217.5q0 -383 -496 -383q-265 0 -479 92l105 265q71 -47 170 -72t188 -25q158 0 158 84q0 37 -42 57.5t-179 51.5q-93 21 -160 48t-121.5 68.5t-81.5 102t-27 141.5q0 182 123.5 274.5t341.5 92.5q136 0 240 -23.5t219 -66.5
l-115 -271q-71 38 -171 64.5t-175 26.5q-118 0 -118 -70q0 -36 40 -56.5t177 -54.5zM520 -78q88 0 141.5 -49.5t53.5 -132.5q0 -31 -7 -64.5t-29.5 -75t-57.5 -73.5t-98.5 -54t-145.5 -22h-41v117h20q88 0 123 65q-66 12 -100.5 49t-34.5 91q0 65 47.5 107t128.5 42z" />
    <glyph glyph-name="uni021A" unicode="&#x21a;" horiz-adv-x="1331" 
d="M39 1456h1251v-336h-440v-1120h-367v1120h-444v336zM651 -74q88 0 141.5 -49.5t53.5 -132.5q0 -31 -7 -64.5t-29.5 -75t-57.5 -73.5t-98.5 -54t-145.5 -22h-41v117h20q88 0 123 66q-66 12 -100.5 48.5t-34.5 90.5q0 65 47.5 107t128.5 42z" />
    <glyph glyph-name="uni021B" unicode="&#x21b;" horiz-adv-x="839" 
d="M803 817h-291v-409q0 -78 27 -111t96 -33q90 0 166 35v-297q-102 -31 -271 -31q-186 0 -277 88t-91 283v475h-146v305h146v434h350v-434h291v-305zM485 -74q88 0 141.5 -49.5t53.5 -132.5q0 -31 -7 -64.5t-29.5 -75t-57.5 -73.5t-98.5 -54t-145.5 -22h-41v117h21
q87 0 122 66q-66 12 -100.5 48.5t-34.5 90.5q0 65 47.5 107t128.5 42z" />
    <glyph glyph-name="uni0232" unicode="&#x232;" horiz-adv-x="1421" 
d="M334 1565v237h758v-237h-758zM1427 1456l-532 -946v-510h-367v508l-532 948h420l297 -594l301 594h413z" />
    <glyph glyph-name="uni0233" unicode="&#x233;" horiz-adv-x="1263" 
d="M250 1298v236h758v-236h-758zM881 1122h379l-449 -1118q-41 -104 -92.5 -178.5t-101 -116.5t-111 -66t-112.5 -31t-118 -7q-113 0 -192 26v293q80 -28 156 -28q164 0 235 124l-500 1102h398l260 -671z" />
    <glyph glyph-name="uni0237" unicode="&#x237;" horiz-adv-x="614" 
d="M141 -393q-114 0 -192 20v283q43 -12 76 -12q31 0 52 10.5t32.5 26.5t17 49t7 62t1.5 83v993h359v-1175q0 -172 -97.5 -256t-255.5 -84z" />
    <glyph glyph-name="uni0259" unicode="&#x259;" horiz-adv-x="1273" 
d="M45 561q0 72 2 101h809q-45 202 -274 202q-88 0 -164.5 -34t-128.5 -99l-217 182q166 234 540 234q283 0 440.5 -158t157.5 -430q0 -131 -44 -242t-121.5 -187t-186 -118.5t-235.5 -42.5q-141 0 -252 43.5t-182 123t-107.5 187t-36.5 238.5zM623 250q87 0 151 47.5
t84 151.5h-471q5 -79 64.5 -139t171.5 -60z" />
    <glyph glyph-name="circumflex" unicode="&#x2c6;" horiz-adv-x="1032" 
d="M104 1272l299 358h224l301 -358h-244l-170 129l-168 -129h-242z" />
    <glyph glyph-name="caron" unicode="&#x2c7;" horiz-adv-x="1032" 
d="M111 1630h241l168 -129l170 129h242l-301 -358h-221z" />
    <glyph glyph-name="breve" unicode="&#x2d8;" horiz-adv-x="1032" 
d="M516 1272q-174 0 -283 91.5t-112 262.5h213q43 -117 182 -117q138 0 178 117h215q-1 -116 -54 -197.5t-139.5 -119t-199.5 -37.5z" />
    <glyph glyph-name="dotaccent" unicode="&#x2d9;" horiz-adv-x="782" 
d="M391 1253q-85 0 -144 59t-59 144q0 84 59.5 143.5t143.5 59.5q83 0 142 -60t59 -143q0 -85 -59 -144t-142 -59z" />
    <glyph glyph-name="ring" unicode="&#x2da;" horiz-adv-x="1032" 
d="M518 1257q-108 0 -182 71t-74 179q0 106 74 177t182 71t181 -70.5t73 -177.5q0 -108 -73 -179t-181 -71zM518 1393q48 0 80.5 33t32.5 83q0 49 -32.5 82t-80.5 33q-50 0 -82.5 -33t-32.5 -84q0 -49 32.5 -81.5t82.5 -32.5z" />
    <glyph glyph-name="ogonek" unicode="&#x2db;" horiz-adv-x="1032" 
d="M453 -379q-114 0 -176 48.5t-62 125.5q0 69 54.5 136.5t162.5 107.5l166 -39q-61 -29 -90 -66t-29 -67q0 -68 99 -68q14 0 22 2v-163q-83 -17 -147 -17z" />
    <glyph glyph-name="tilde" unicode="&#x2dc;" horiz-adv-x="1032" 
d="M225 1251l-155 33q15 152 82.5 238t171.5 86q61 0 132 -29t129.5 -57.5t90.5 -28.5q35 0 69.5 28.5t57.5 77.5l153 -32q-15 -152 -82.5 -238t-171.5 -86q-58 0 -129 28.5t-130.5 56.5t-88.5 28q-81 0 -129 -105z" />
    <glyph glyph-name="hungarumlaut" unicode="&#x2dd;" horiz-adv-x="1032" 
d="M90 1270l178 372l287 -104l-264 -268h-201zM461 1270l182 372l315 -110l-311 -262h-186z" />
    <glyph glyph-name="gravecomb" unicode="&#x300;" 
d="M-453 1272h-235l-393 325l385 31z" />
    <glyph glyph-name="acutecomb" unicode="&#x301;" 
d="M-764 1272l244 356l387 -31l-395 -325h-236z" />
    <glyph glyph-name="uni0302" unicode="&#x302;" 
d="M-1020 1272l299 358h221l301 -358h-241l-170 129l-168 -129h-242z" />
    <glyph glyph-name="tildecomb" unicode="&#x303;" 
d="M-899 1251l-156 33q15 152 82.5 238t171.5 86q61 0 132 -29t129.5 -57.5t90.5 -28.5q35 0 68.5 28t58.5 78l154 -32q-17 -153 -83.5 -238.5t-170.5 -85.5q-58 0 -129 28.5t-131 56.5t-90 28q-37 0 -70.5 -27.5t-56.5 -77.5z" />
    <glyph glyph-name="uni0304" unicode="&#x304;" 
d="M-993 1298v236h757v-236h-757z" />
    <glyph glyph-name="uni0306" unicode="&#x306;" 
d="M-612 1272q-174 0 -283.5 91.5t-112.5 262.5h213q43 -117 183 -117q138 0 178 117h215q-3 -173 -111 -263.5t-282 -90.5z" />
    <glyph glyph-name="uni0307" unicode="&#x307;" 
d="M-614 1253q-85 0 -144 59t-59 144q0 84 59.5 143.5t143.5 59.5q83 0 141.5 -59.5t58.5 -143.5q0 -85 -58.5 -144t-141.5 -59z" />
    <glyph glyph-name="uni0308" unicode="&#x308;" 
d="M-862 1255q-82 0 -140.5 58t-58.5 141q0 82 58.5 139.5t140.5 57.5t139 -57.5t57 -139.5q0 -83 -57 -141t-139 -58zM-362 1255q-83 0 -141 58t-58 141q0 82 58 139.5t141 57.5q80 0 137 -57.5t57 -139.5q0 -83 -57 -141t-137 -58z" />
    <glyph glyph-name="uni030A" unicode="&#x30a;" 
d="M-612 1257q-107 0 -180.5 71t-73.5 179q0 106 73.5 177t180.5 71q109 0 182.5 -70.5t73.5 -177.5q0 -108 -73.5 -179t-182.5 -71zM-612 1393q50 0 82 32.5t32 83.5q0 50 -32.5 82.5t-81.5 32.5q-48 0 -80.5 -33t-32.5 -84q0 -49 32.5 -81.5t80.5 -32.5z" />
    <glyph glyph-name="uni030B" unicode="&#x30b;" 
d="M-928 1270l180 372l287 -104l-264 -268h-203zM-555 1270l180 372l318 -110l-314 -262h-184z" />
    <glyph glyph-name="uni030C" unicode="&#x30c;" 
d="M-1020 1630h242l168 -129l170 129h241l-301 -358h-221z" />
    <glyph glyph-name="uni0312" unicode="&#x312;" 
d="M-446 1599q-88 0 -123 -65q65 -12 100 -49t35 -90q0 -65 -47.5 -107.5t-128.5 -42.5q-88 0 -141.5 50t-53.5 132q0 31 7 64.5t29.5 75t57.5 73.5t98.5 54t145.5 22h41v-117h-20z" />
    <glyph glyph-name="uni0326" unicode="&#x326;" 
d="M-641 -74q88 0 141.5 -49.5t53.5 -132.5q0 -31 -7 -64.5t-29.5 -75t-57.5 -73.5t-98.5 -54t-145.5 -22h-41v117h20q88 0 123 66q-66 12 -100.5 48.5t-34.5 90.5q0 65 47.5 107t128.5 42z" />
    <glyph glyph-name="uni0327" unicode="&#x327;" 
d="M-526 -74q64 -13 98.5 -43t34.5 -86q0 -95 -81.5 -140.5t-227.5 -45.5q-90 0 -156 14v123q52 -8 104 -8q56 0 82.5 17.5t26.5 58.5q0 45 -100 57v53l75 82l178 6z" />
    <glyph glyph-name="uni0328" unicode="&#x328;" 
d="M-678 -379q-115 0 -177.5 48.5t-62.5 125.5q0 69 55 136.5t163 107.5l165 -39q-61 -29 -88.5 -66t-27.5 -67q0 -68 98 -68q13 0 21 2l2 -163q-87 -17 -148 -17z" />
    <glyph glyph-name="uni037E" unicode="&#x37e;" horiz-adv-x="536" 
d="M264 750q-84 0 -143.5 59t-59.5 143q0 83 60 143t143 60t142 -60t59 -143q0 -84 -58.5 -143t-142.5 -59zM266 369q33 0 64.5 -11t63.5 -37t51.5 -79t19.5 -127q0 -420 -412 -420v149q82 0 127.5 34.5t48.5 101.5q-71 9 -117 59.5t-46 130.5q0 96 58 147.5t142 51.5z" />
    <glyph glyph-name="tonos" unicode="&#x384;" horiz-adv-x="851" 
d="M301 1274l158 356l387 -31l-326 -325h-219z" />
    <glyph glyph-name="dieresistonos" unicode="&#x385;" horiz-adv-x="1177" 
d="M438 1280l27 422l311 -60l-192 -362h-146zM193 1255q-82 0 -140.5 58t-58.5 141q0 82 58.5 139.5t140.5 57.5t139 -57.5t57 -139.5q0 -83 -57 -141t-139 -58zM963 1255q-82 0 -140.5 58t-58.5 141q0 82 58.5 139.5t140.5 57.5t139 -57.5t57 -139.5q0 -83 -57 -141
t-139 -58z" />
    <glyph glyph-name="Alphatonos" unicode="&#x386;" horiz-adv-x="1591" 
d="M-6 1071l149 420l359 -31l-273 -389h-235zM1192 0l-107 238h-581l-107 -238h-393l670 1458h241l670 -1458h-393zM696 723l-82 -197h363l-82 197l-100 285z" />
    <glyph glyph-name="anoteleia" unicode="&#x387;" horiz-adv-x="550" 
d="M276 750q-85 0 -143.5 58.5t-58.5 143.5q0 84 59 143.5t143 59.5q83 0 142 -60t59 -143q0 -84 -58.5 -143t-142.5 -59z" />
    <glyph glyph-name="Epsilontonos" unicode="&#x388;" horiz-adv-x="1310" 
d="M-483 1071l149 420l359 -31l-273 -389h-235zM123 0v1456h1100v-317h-752v-275h633v-297h-633v-250h778v-317h-1126z" />
    <glyph glyph-name="Etatonos" unicode="&#x389;" horiz-adv-x="1536" 
d="M-485 1071l149 420l359 -31l-273 -389h-235zM123 0v1456h358v-620h574v620h358v-1456h-358v508h-574v-508h-358z" />
    <glyph glyph-name="Iotatonos" unicode="&#x38a;" horiz-adv-x="651" 
d="M-471 1071l149 420l359 -31l-273 -389h-235zM143 0v1456h367v-1456h-367z" />
    <glyph glyph-name="Omicrontonos" unicode="&#x38c;" horiz-adv-x="1738" 
d="M-274 1071l149 420l358 -31l-272 -389h-235zM868 -31q-229 0 -408.5 95t-279.5 267.5t-100 395.5q0 166 57.5 307t159.5 240.5t249.5 156t321.5 56.5q231 0 411 -95t280 -268t100 -397q0 -220 -98 -392.5t-278.5 -269t-414.5 -96.5zM868 305q186 0 300 116t114 306
t-113 307t-301 117q-184 0 -297.5 -116.5t-113.5 -307.5q0 -189 112.5 -305.5t298.5 -116.5z" />
    <glyph glyph-name="Upsilontonos" unicode="&#x38e;" horiz-adv-x="1421" 
d="M-561 1071l149 420l359 -31l-273 -389h-235zM1427 1456l-532 -946v-510h-367v508l-532 948h420l297 -594l301 594h413z" />
    <glyph glyph-name="Omegatonos" unicode="&#x38f;" horiz-adv-x="1687" 
d="M-152 1491l359 -31l-273 -389h-235zM1618 807q0 -145 -65.5 -272t-163.5 -207h215v-328h-684v236q321 250 321 507q0 196 -111.5 298t-285.5 102q-85 0 -156.5 -24.5t-126 -72.5t-85 -125.5t-30.5 -177.5q0 -258 324 -507v-236h-684v328h213q-97 80 -163 207t-66 272
q0 132 39 242.5t109.5 190t167.5 134.5t212.5 82t245.5 27t245.5 -27t212.5 -82t167.5 -134.5t109.5 -190t39 -242.5z" />
    <glyph glyph-name="iotadieresistonos" unicode="&#x390;" horiz-adv-x="598" 
d="M184 1280l27 422l311 -60l-192 -362h-146zM-61 1255q-82 0 -140.5 58t-58.5 141q0 82 58.5 139.5t140.5 57.5t139 -57.5t57 -139.5q0 -83 -57 -141t-139 -58zM709 1255q-82 0 -140.5 58t-58.5 141q0 82 58.5 139.5t140.5 57.5t139 -57.5t57 -139.5q0 -83 -57 -141
t-139 -58zM123 0v1122h354v-1122h-354z" />
    <glyph glyph-name="Alpha" unicode="&#x391;" horiz-adv-x="1591" 
d="M1192 0l-107 238h-581l-107 -238h-393l670 1458h241l670 -1458h-393zM696 723l-82 -197h363l-82 197l-100 285z" />
    <glyph glyph-name="Beta" unicode="&#x392;" horiz-adv-x="1437" 
d="M1100 791q134 -29 217.5 -123t83.5 -234q0 -434 -570 -434h-708v1456h682q235 0 360 -89.5t125 -258.5q0 -121 -50 -201t-140 -116zM481 1157v-293h291q176 0 176 148q0 70 -44 107.5t-124 37.5h-299zM834 303q95 0 145.5 38.5t50.5 107.5q0 68 -54.5 106.5t-154.5 38.5
h-340v-291h353z" />
    <glyph glyph-name="Gamma" unicode="&#x393;" horiz-adv-x="1241" 
d="M123 0v1456h1081v-336h-715v-1120h-366z" />
    <glyph glyph-name="uni0394" unicode="&#x394;" horiz-adv-x="1503" 
d="M866 1458l613 -1292v-166h-1454v166l606 1292h235zM748 979l-277 -660h551z" />
    <glyph glyph-name="Epsilon" unicode="&#x395;" horiz-adv-x="1310" 
d="M123 0v1456h1100v-317h-752v-275h633v-297h-633v-250h778v-317h-1126z" />
    <glyph glyph-name="Zeta" unicode="&#x396;" horiz-adv-x="1378" 
d="M608 328h690v-328h-1235v166l680 962h-639v328h1192v-174z" />
    <glyph glyph-name="Eta" unicode="&#x397;" horiz-adv-x="1536" 
d="M123 0v1456h358v-620h574v620h358v-1456h-358v508h-574v-508h-358z" />
    <glyph glyph-name="Theta" unicode="&#x398;" horiz-adv-x="1738" 
d="M868 -31q-229 0 -408.5 95t-279.5 267.5t-100 395.5q0 166 57.5 307t159.5 240.5t249.5 156t321.5 56.5q231 0 411 -95t280 -268t100 -397q0 -220 -98 -392.5t-278.5 -269t-414.5 -96.5zM868 299q186 0 300 118.5t114 313.5q0 193 -113 313.5t-301 120.5
q-183 0 -297 -119.5t-114 -314.5q0 -193 112.5 -312.5t298.5 -119.5zM604 571v285h533v-285h-533z" />
    <glyph glyph-name="Iota" unicode="&#x399;" horiz-adv-x="651" 
d="M143 0v1456h367v-1456h-367z" />
    <glyph glyph-name="Kappa" unicode="&#x39a;" horiz-adv-x="1470" 
d="M1034 0l-387 551l-174 -201v-350h-350v1456h350v-657l504 657h438l-510 -649l568 -807h-439z" />
    <glyph glyph-name="Lambda" unicode="&#x39b;" horiz-adv-x="1548" 
d="M1544 0h-405l-373 905l-365 -905h-397l653 1458h240z" />
    <glyph glyph-name="Mu" unicode="&#x39c;" horiz-adv-x="1792" 
d="M1483 1458h186v-1458h-350v698l-361 -456h-124l-361 452v-694h-350v1458h186l588 -749z" />
    <glyph glyph-name="Nu" unicode="&#x39d;" horiz-adv-x="1587" 
d="M1110 1456h356v-1460h-184l-803 807v-803h-356v1458h182l805 -805v803z" />
    <glyph glyph-name="Xi" unicode="&#x39e;" horiz-adv-x="1363" 
d="M74 1118v338h1216v-338h-1216zM213 565v318h940v-318h-940zM61 0v338h1239v-338h-1239z" />
    <glyph glyph-name="Omicron" unicode="&#x39f;" horiz-adv-x="1738" 
d="M868 -31q-229 0 -408.5 95t-279.5 267.5t-100 395.5q0 166 57.5 307t159.5 240.5t249.5 156t321.5 56.5q231 0 411 -95t280 -268t100 -397q0 -220 -98 -392.5t-278.5 -269t-414.5 -96.5zM868 305q186 0 300 116t114 306t-113 307t-301 117q-184 0 -297.5 -116.5
t-113.5 -307.5q0 -189 112.5 -305.5t298.5 -116.5z" />
    <glyph glyph-name="Pi" unicode="&#x3a0;" horiz-adv-x="1521" 
d="M123 0v1456h1276v-1456h-359v1126h-559v-1126h-358z" />
    <glyph glyph-name="Rho" unicode="&#x3a1;" horiz-adv-x="1355" 
d="M707 1456q302 0 461 -138.5t159 -402.5q0 -285 -162 -421t-477 -136h-207v-358h-358v1456h584zM678 664q276 0 276 239q0 123 -62 182.5t-204 59.5h-207v-481h197z" />
    <glyph glyph-name="Sigma" unicode="&#x3a3;" horiz-adv-x="1357" 
d="M594 330h702v-330h-1241v174l449 549l-420 559v174h1194v-330h-662l285 -358v-90z" />
    <glyph glyph-name="Tau" unicode="&#x3a4;" horiz-adv-x="1331" 
d="M483 0v1120h-444v336h1251v-336h-440v-1120h-367z" />
    <glyph glyph-name="Upsilon" unicode="&#x3a5;" horiz-adv-x="1421" 
d="M1427 1456l-532 -946v-510h-367v508l-532 948h420l297 -594l301 594h413z" />
    <glyph glyph-name="Phi" unicode="&#x3a6;" horiz-adv-x="1832" 
d="M1102 1372q196 0 349 -76.5t240 -221t87 -335.5q0 -281 -186.5 -455.5t-504.5 -174.5h-2v-142h-340v142q-206 0 -360 71t-242 214.5t-88 344.5q0 139 45 255t129 200t213 131t289 47h14v133h340v-133h17zM725 401h20v678h-16q-137 0 -222 -92t-85 -248q0 -146 85 -242
t218 -96zM1108 401q133 0 219 96t86 242q0 156 -86 248t-223 92h-19v-678h23z" />
    <glyph glyph-name="Chi" unicode="&#x3a7;" horiz-adv-x="1478" 
d="M1462 0h-424l-303 481l-295 -481h-424l471 743l-452 713h422l284 -467l287 467h414l-449 -713z" />
    <glyph glyph-name="Psi" unicode="&#x3a8;" horiz-adv-x="1759" 
d="M1337 1456h359v-532q0 -287 -163 -444.5t-458 -157.5h-18v-322h-355v322h-20q-295 0 -458 157.5t-163 444.5v532h359v-534q0 -143 73 -222t205 -79h4v835h355v-835h2q133 0 205.5 79t72.5 222v534z" />
    <glyph glyph-name="uni03A9" unicode="&#x3a9;" horiz-adv-x="1687" 
d="M1618 807q0 -145 -65.5 -272t-163.5 -207h215v-328h-684v236q321 250 321 507q0 196 -111.5 298t-285.5 102q-85 0 -156.5 -24.5t-126 -72.5t-85 -125.5t-30.5 -177.5q0 -258 324 -507v-236h-684v328h213q-97 80 -163 207t-66 272q0 132 39 242.5t109.5 190t167.5 134.5
t212.5 82t245.5 27t245.5 -27t212.5 -82t167.5 -134.5t109.5 -190t39 -242.5z" />
    <glyph glyph-name="Iotadieresis" unicode="&#x3aa;" horiz-adv-x="651" 
d="M80 1554q-82 0 -139.5 58t-57.5 141q0 82 57.5 140.5t139.5 58.5q81 0 138.5 -58.5t57.5 -140.5q0 -83 -57 -141t-139 -58zM580 1554q-83 0 -141 58t-58 141q0 82 58 140.5t141 58.5q80 0 137 -58.5t57 -140.5q0 -83 -57 -141t-137 -58zM143 0v1456h367v-1456h-367z" />
    <glyph glyph-name="Upsilondieresis" unicode="&#x3ab;" horiz-adv-x="1421" 
d="M465 1554q-82 0 -139.5 58t-57.5 141q0 82 57.5 140.5t139.5 58.5t139.5 -58.5t57.5 -140.5q0 -83 -57.5 -141t-139.5 -58zM965 1554q-83 0 -141 58t-58 141q0 82 58 140.5t141 58.5q80 0 137 -58.5t57 -140.5q0 -83 -57 -141t-137 -58zM1427 1456l-532 -946v-510h-367
v508l-532 948h420l297 -594l301 594h413z" />
    <glyph glyph-name="alphatonos" unicode="&#x3ac;" horiz-adv-x="1355" 
d="M545 1274l157 356l388 -31l-326 -325h-219zM596 -27q-244 0 -388.5 160t-144.5 428q0 269 143 430.5t376 161.5q89 0 172 -27t141 -84v80h348v-1122h-340v94q-101 -121 -307 -121zM686 283q153 0 217 125v315q-30 56 -91.5 87.5t-133.5 31.5q-112 0 -181 -73t-69 -206
q0 -131 68.5 -205.5t189.5 -74.5z" />
    <glyph glyph-name="epsilontonos" unicode="&#x3ad;" horiz-adv-x="1138" 
d="M449 1274l157 356l387 -31l-325 -325h-219zM1020 381l131 -279q-244 -131 -555 -131q-273 0 -405 78.5t-132 243.5q0 105 59.5 176.5t170.5 105.5q-92 39 -142.5 108.5t-50.5 164.5q0 68 27.5 121t74 87t111.5 56.5t135 31.5t150 9q294 0 506 -102l-119 -269
q-163 74 -346 74q-193 0 -193 -90q0 -40 41 -66t133 -26h211v-219h-243q-178 0 -178 -90q0 -97 227 -97q110 0 198.5 26t188.5 87z" />
    <glyph glyph-name="etatonos" unicode="&#x3ae;" horiz-adv-x="1316" 
d="M526 1274l158 356l387 -31l-326 -325h-219zM860 -362v940q0 144 -43 203t-145 59q-119 0 -197 -92v-748h-352v1122h338v-88q63 51 152.5 84t185.5 33q222 0 318.5 -110t96.5 -361v-1042h-354z" />
    <glyph glyph-name="iotatonos" unicode="&#x3af;" horiz-adv-x="598" 
d="M164 1274l158 356l387 -31l-326 -325h-219zM123 0v1122h354v-1122h-354z" />
    <glyph glyph-name="upsilondieresistonos" unicode="&#x3b0;" horiz-adv-x="1273" 
d="M512 1280l27 422l311 -60l-193 -362h-145zM266 1255q-82 0 -140 58t-58 141q0 82 58 139.5t140 57.5t139.5 -57.5t57.5 -139.5q0 -83 -57.5 -141t-139.5 -58zM1036 1255q-82 0 -140 58t-58 141q0 82 58 139.5t140 57.5t139.5 -57.5t57.5 -139.5q0 -83 -57.5 -141
t-139.5 -58zM637 -29q-279 0 -415 125.5t-136 380.5v645h354v-610q0 -122 48 -174.5t149 -52.5q103 0 150 52t47 175v610h354v-645q0 -255 -136 -380.5t-415 -125.5z" />
    <glyph glyph-name="alpha" unicode="&#x3b1;" horiz-adv-x="1355" 
d="M596 -27q-244 0 -388.5 160t-144.5 428q0 269 143 430.5t376 161.5q89 0 172 -27t141 -84v80h348v-1122h-340v94q-101 -121 -307 -121zM686 283q153 0 217 125v315q-30 56 -91.5 87.5t-133.5 31.5q-112 0 -181 -73t-69 -206q0 -131 68.5 -205.5t189.5 -74.5z" />
    <glyph glyph-name="beta" unicode="&#x3b2;" horiz-adv-x="1372" 
d="M1063 858q123 -44 190.5 -148.5t67.5 -252.5q0 -119 -42.5 -213t-114.5 -151.5t-163 -87.5t-194 -30q-106 0 -200.5 30t-143.5 93v-460h-350v1409q0 143 41 248.5t117 169t178 94t231 30.5q241 0 392 -115t151 -300q0 -100 -41 -182t-119 -134zM684 1298q-67 0 -112 -20
t-68 -59t-32 -84t-9 -107v-70h196q228 0 228 172q0 81 -57.5 124.5t-145.5 43.5zM737 283q104 0 162.5 52t58.5 146q0 95 -60 147t-177 52h-258v-262q37 -63 112 -99t162 -36z" />
    <glyph glyph-name="gamma" unicode="&#x3b3;" horiz-adv-x="1294" 
d="M905 1122h385l-465 -1130v-354h-354v360l-467 1124h389l170 -465l90 -256l90 256z" />
    <glyph glyph-name="delta" unicode="&#x3b4;" horiz-adv-x="1368" 
d="M1083 1030q222 -205 222 -485q0 -260 -170.5 -417t-444.5 -157q-179 0 -319.5 67t-224 200t-83.5 313q0 232 136 372.5t374 155.5q-194 161 -376 297v180h1024v-286h-498q242 -128 360 -240zM690 291q113 0 181.5 70.5t68.5 183.5q0 151 -125 260q-55 14 -115 14
q-120 0 -196 -65.5t-76 -190.5q0 -123 74.5 -197.5t187.5 -74.5z" />
    <glyph glyph-name="epsilon" unicode="&#x3b5;" horiz-adv-x="1138" 
d="M1020 381l131 -279q-244 -131 -555 -131q-273 0 -405 78.5t-132 243.5q0 105 59.5 176.5t170.5 105.5q-92 39 -142.5 108.5t-50.5 164.5q0 68 27.5 121t74 87t111.5 56.5t135 31.5t150 9q294 0 506 -102l-119 -269q-163 74 -346 74q-193 0 -193 -90q0 -40 41 -66t133 -26
h211v-219h-243q-178 0 -178 -90q0 -97 227 -97q110 0 198.5 26t188.5 87z" />
    <glyph glyph-name="zeta" unicode="&#x3b6;" horiz-adv-x="1140" 
d="M694 360q238 -41 336 -120t98 -232q0 -63 -13.5 -117.5t-48 -106.5t-88.5 -88.5t-142 -58.5t-201 -22h-35v246q197 0 197 84q0 43 -51.5 64t-190.5 36q-254 28 -378 138t-124 315q0 101 25 193t66.5 167t106.5 150t133 135t159 129h-416v284h997v-172
q-367 -249 -541.5 -433.5t-174.5 -354.5q0 -107 64 -158t222 -78z" />
    <glyph glyph-name="eta" unicode="&#x3b7;" horiz-adv-x="1316" 
d="M860 -362v940q0 144 -43 203t-145 59q-119 0 -197 -92v-748h-352v1122h338v-88q63 51 152.5 84t185.5 33q222 0 318.5 -110t96.5 -361v-1042h-354z" />
    <glyph glyph-name="theta" unicode="&#x3b8;" horiz-adv-x="1333" 
d="M668 1589q298 0 455 -212t157 -609q0 -395 -154.5 -594t-457.5 -199q-305 0 -460 199t-155 594q0 397 157.5 609t457.5 212zM668 1278q-128 0 -192.5 -101t-67.5 -270h520q-5 169 -69.5 270t-190.5 101zM668 287q244 0 258 352h-518q3 -79 19 -141.5t46.5 -110.5
t79.5 -74t115 -26z" />
    <glyph glyph-name="iota" unicode="&#x3b9;" horiz-adv-x="598" 
d="M123 0v1122h354v-1122h-354z" />
    <glyph glyph-name="kappa" unicode="&#x3ba;" horiz-adv-x="1298" 
d="M885 0l-258 438l-152 -153v-285h-352v1122h352v-430l377 430h424l-393 -444l397 -678h-395z" />
    <glyph glyph-name="lambda" unicode="&#x3bb;" horiz-adv-x="1318" 
d="M1313 0h-395l-232 696l-274 -696h-392l512 1106l-6 18q-33 90 -82 129t-139 39q-52 0 -129 -18v295q99 18 189 18q140 0 227 -32.5t146.5 -107t111.5 -214.5z" />
    <glyph glyph-name="uni03BC" unicode="&#x3bc;" horiz-adv-x="1323" 
d="M852 1122h354v-1122h-332v100q-92 -127 -247 -127q-96 0 -158 56v-391h-352v1484h352v-575q0 -141 43.5 -201.5t132.5 -60.5q124 0 207 102v735z" />
    <glyph glyph-name="nu" unicode="&#x3bd;" horiz-adv-x="1269" 
d="M874 1122h394l-529 -1124h-207l-528 1124h404l157 -405l74 -219l74 215z" />
    <glyph glyph-name="xi" unicode="&#x3be;" horiz-adv-x="1157" 
d="M719 358q239 -25 334.5 -108t95.5 -242q0 -63 -13.5 -117.5t-48 -106.5t-89 -88.5t-142 -58.5t-201.5 -22h-34v246q196 0 196 84q0 30 -19.5 47t-77.5 29.5t-171 21.5q-264 22 -381 111.5t-117 267.5q0 134 87.5 235.5t248.5 141.5q-114 28 -170.5 85t-56.5 148
q0 81 47 143t121 97h-238v284h1026v-280h-246q-90 0 -151.5 -7t-108.5 -24.5t-69.5 -48.5t-22.5 -78q0 -28 7.5 -50t25.5 -38t38.5 -27.5t57 -19t69.5 -12t88 -7t100 -3t116 -0.5v-279h-203q-152 0 -244.5 -22t-128.5 -58t-36 -90q0 -45 25.5 -73t93.5 -48.5t192 -32.5z" />
    <glyph glyph-name="omicron" unicode="&#x3bf;" horiz-adv-x="1372" 
d="M686 -27q-284 0 -453.5 159t-169.5 429q0 269 170 429.5t453 160.5q282 0 451.5 -160.5t169.5 -429.5q0 -270 -169 -429t-452 -159zM686 291q116 0 186 73t70 197q0 123 -70.5 198t-185.5 75q-117 0 -187.5 -75t-70.5 -198q0 -124 70.5 -197t187.5 -73z" />
    <glyph glyph-name="pi" unicode="&#x3c0;" horiz-adv-x="1333" 
d="M1217 1122v-1122h-355v813h-391v-813h-352v1122h1098z" />
    <glyph glyph-name="rho" unicode="&#x3c1;" horiz-adv-x="1347" 
d="M96 -362v935q0 274 159.5 426t434.5 152q278 0 436 -160.5t158 -435.5q0 -266 -144 -424t-384 -158q-212 0 -310 125v-460h-350zM672 283q120 0 184 72t64 202q0 137 -67 209t-173 72q-108 0 -174 -75t-66 -204v-141q38 -69 103 -102t129 -33z" />
    <glyph glyph-name="uni03C2" unicode="&#x3c2;" horiz-adv-x="1177" 
d="M600 -385v246q197 0 197 84q0 39 -47.5 60t-159.5 44q-535 110 -535 535q0 257 155.5 412t434.5 155q174 0 306 -62t206 -171l-244 -209q-38 60 -103 95.5t-146 35.5q-108 0 -176 -61.5t-68 -160.5q0 -59 20 -101.5t64.5 -73t93 -49.5t127.5 -42q69 -20 117 -36.5
t97.5 -39t80.5 -47t57 -57t37.5 -73t11.5 -91.5q0 -63 -13.5 -117.5t-48 -106.5t-88.5 -88.5t-142 -58.5t-201 -22h-33z" />
    <glyph glyph-name="sigma" unicode="&#x3c3;" horiz-adv-x="1361" 
d="M1335 1122v-309h-184q64 -60 99.5 -145.5t35.5 -178.5q0 -164 -79 -282.5t-214.5 -177t-312.5 -58.5q-180 0 -319.5 70.5t-218.5 204t-79 311.5q0 268 162.5 416.5t438.5 148.5h671zM680 291q116 0 185 71.5t69 192.5q0 101 -42.5 170t-98.5 104h-113
q-117 0 -186.5 -72.5t-69.5 -195.5q0 -124 69.5 -197t186.5 -73z" />
    <glyph glyph-name="tau" unicode="&#x3c4;" horiz-adv-x="1093" 
d="M1053 1122v-309h-330v-813h-354v813h-330v309h1014z" />
    <glyph glyph-name="upsilon" unicode="&#x3c5;" horiz-adv-x="1273" 
d="M637 -29q-279 0 -415 125.5t-136 380.5v645h354v-610q0 -122 48 -174.5t149 -52.5q103 0 150 52t47 175v610h354v-645q0 -255 -136 -380.5t-415 -125.5z" />
    <glyph glyph-name="phi" unicode="&#x3c6;" horiz-adv-x="1751" 
d="M1686 553q0 -182 -83.5 -314.5t-225 -199t-324.5 -68.5v-333h-355v333q-183 1 -325 67t-226 199t-84 316q0 278 172 435.5t463 160.5v225h355v-225q290 -3 461.5 -161t171.5 -435zM422 563q0 -63 15.5 -114t48 -92t89.5 -63.5t134 -23.5v580q-76 -1 -134 -27.5t-90 -69.5
t-47.5 -91t-15.5 -99zM1040 270q78 1 135 23.5t89.5 63.5t47.5 92t15 114q0 51 -15 98.5t-47 91t-90 70t-135 27.5v-580z" />
    <glyph glyph-name="chi" unicode="&#x3c7;" horiz-adv-x="1298" 
d="M1300 -362h-393l-268 495l-256 -495h-387l424 770l-408 714h404l223 -473l240 473h399l-416 -710z" />
    <glyph glyph-name="psi" unicode="&#x3c8;" horiz-adv-x="1675" 
d="M659 -362v344h-20q-553 0 -553 518v622h350v-610q0 -114 51.5 -166.5t159.5 -52.5h23v1081h336v-1081h22q110 0 161.5 52t51.5 167v610h348v-622q0 -518 -553 -518h-20v-344h-357z" />
    <glyph glyph-name="omega" unicode="&#x3c9;" horiz-adv-x="1771" 
d="M1141 1145q116 -2 216.5 -41t179 -113t124 -193t45.5 -270q0 -254 -121.5 -405.5t-343.5 -151.5q-139 0 -227.5 60t-128.5 151q-40 -91 -128 -151t-227 -60q-223 0 -345 151.5t-122 405.5q0 150 45.5 269.5t125 193.5t180 113t215.5 41v-316q-93 -22 -148 -94t-55 -200
q0 -108 43.5 -177t120.5 -69q139 0 139 237v181h311v-181q0 -237 140 -237q77 0 120 69t43 177q0 247 -202 294v316z" />
    <glyph glyph-name="iotadieresis" unicode="&#x3ca;" horiz-adv-x="598" 
d="M53 1255q-82 0 -140 58t-58 141q0 82 58 139.5t140 57.5t139.5 -57.5t57.5 -139.5q0 -83 -57.5 -141t-139.5 -58zM553 1255q-83 0 -141 58t-58 141q0 82 58 139.5t141 57.5q80 0 137.5 -58t57.5 -139q0 -83 -57.5 -141t-137.5 -58zM123 0v1122h354v-1122h-354z" />
    <glyph glyph-name="upsilondieresis" unicode="&#x3cb;" horiz-adv-x="1273" 
d="M381 1255q-82 0 -140.5 58t-58.5 141q0 82 58.5 139.5t140.5 57.5t139.5 -57.5t57.5 -139.5q0 -83 -57.5 -141t-139.5 -58zM881 1255q-83 0 -141 58t-58 141q0 82 58 139.5t141 57.5q80 0 137 -57.5t57 -139.5q0 -83 -57 -141t-137 -58zM637 -29q-279 0 -415 125.5
t-136 380.5v645h354v-610q0 -122 48 -174.5t149 -52.5q103 0 150 52t47 175v610h354v-645q0 -255 -136 -380.5t-415 -125.5z" />
    <glyph glyph-name="omicrontonos" unicode="&#x3cc;" horiz-adv-x="1372" 
d="M549 1274l158 356l387 -31l-326 -325h-219zM686 -27q-284 0 -453.5 159t-169.5 429q0 269 170 429.5t453 160.5q282 0 451.5 -160.5t169.5 -429.5q0 -270 -169 -429t-452 -159zM686 291q116 0 186 73t70 197q0 123 -70.5 198t-185.5 75q-117 0 -187.5 -75t-70.5 -198
q0 -124 70.5 -197t187.5 -73z" />
    <glyph glyph-name="upsilontonos" unicode="&#x3cd;" horiz-adv-x="1273" 
d="M489 1274l158 356l387 -31l-325 -325h-220zM637 -29q-279 0 -415 125.5t-136 380.5v645h354v-610q0 -122 48 -174.5t149 -52.5q103 0 150 52t47 175v610h354v-645q0 -255 -136 -380.5t-415 -125.5z" />
    <glyph glyph-name="omegatonos" unicode="&#x3ce;" horiz-adv-x="1771" 
d="M748 1274l157 356l387 -31l-325 -325h-219zM1141 1145q116 -2 216.5 -41t179 -113t124 -193t45.5 -270q0 -254 -121.5 -405.5t-343.5 -151.5q-139 0 -227.5 60t-128.5 151q-40 -91 -128 -151t-227 -60q-223 0 -345 151.5t-122 405.5q0 150 45.5 269.5t125 193.5t180 113
t215.5 41v-316q-93 -22 -148 -94t-55 -200q0 -108 43.5 -177t120.5 -69q139 0 139 237v181h311v-181q0 -237 140 -237q77 0 120 69t43 177q0 247 -202 294v316z" />
    <glyph glyph-name="uni0400" unicode="&#x400;" horiz-adv-x="1310" 
d="M813 1565h-235l-396 325l387 31zM123 0v1456h1100v-317h-752v-275h633v-297h-633v-250h778v-317h-1126z" />
    <glyph glyph-name="uni0401" unicode="&#x401;" horiz-adv-x="1310" 
d="M422 1587q-82 0 -140.5 58t-58.5 141q0 81 58.5 138.5t140.5 57.5t139 -57t57 -139q0 -83 -57 -141t-139 -58zM922 1587q-83 0 -141 58t-58 141q0 82 58 139t141 57q80 0 137 -57.5t57 -138.5q0 -83 -57 -141t-137 -58zM123 0v1456h1100v-317h-752v-275h633v-297h-633
v-250h778v-317h-1126z" />
    <glyph glyph-name="uni0402" unicode="&#x402;" horiz-adv-x="1693" 
d="M1143 909q254 0 388 -121.5t134 -330.5q0 -129 -35 -219t-106.5 -144t-171 -78t-236.5 -24q-64 0 -108 8v270h69q215 0 215 156q0 176 -231 176q-155 0 -297 -45v-557h-356v1120h-390v336h1293v-336h-547v-260q172 49 379 49z" />
    <glyph glyph-name="uni0403" unicode="&#x403;" horiz-adv-x="1241" 
d="M485 1565l244 356l387 -31l-395 -325h-236zM123 0v1456h1081v-336h-715v-1120h-366z" />
    <glyph glyph-name="uni0404" unicode="&#x404;" horiz-adv-x="1552" 
d="M1247 467l277 -234q-109 -130 -265.5 -197t-394.5 -67q-359 0 -571.5 204t-212.5 558q0 350 212 552t568 202q440 0 656 -264l-275 -232q-54 74 -153 120t-226 46q-161 0 -268.5 -76t-140.5 -223h677v-281h-671q39 -137 144 -203.5t261 -66.5q131 0 229 43.5t154 118.5z
" />
    <glyph glyph-name="uni0405" unicode="&#x405;" horiz-adv-x="1290" 
d="M682 -31q-188 0 -333.5 33t-295.5 104l133 302q112 -56 239.5 -90.5t240.5 -34.5q208 0 208 129q0 62 -57 94.5t-194 58.5q-105 20 -183 43.5t-150 60t-117.5 84t-72 116t-26.5 155.5q0 216 144.5 338.5t424.5 122.5q322 0 557 -113l-147 -295q-223 88 -408 88
q-95 0 -145.5 -28.5t-50.5 -83.5q0 -23 8.5 -41t29.5 -33t44 -26.5t65 -23.5t79 -20.5t99 -21.5q115 -23 195.5 -53t148.5 -80.5t101.5 -128.5t33.5 -185q0 -471 -571 -471z" />
    <glyph glyph-name="uni0406" unicode="&#x406;" horiz-adv-x="651" 
d="M143 0v1456h367v-1456h-367z" />
    <glyph glyph-name="uni0407" unicode="&#x407;" horiz-adv-x="651" 
d="M80 1587q-82 0 -140.5 58t-58.5 141q0 81 58.5 138.5t140.5 57.5t139 -57t57 -139q0 -83 -57 -141t-139 -58zM580 1587q-83 0 -141 58t-58 141q0 82 58 139t141 57q80 0 137 -57.5t57 -138.5q0 -83 -57 -141t-137 -58zM143 0v1456h367v-1456h-367z" />
    <glyph glyph-name="uni0408" unicode="&#x408;" horiz-adv-x="1286" 
d="M598 -31q-266 0 -422 155t-162 419h355q7 -126 72.5 -182t158.5 -56q102 0 156.5 62t54.5 213v876h365v-874q0 -321 -142.5 -467t-435.5 -146z" />
    <glyph glyph-name="uni0409" unicode="&#x409;" horiz-adv-x="2347" 
d="M1698 1063q303 0 461.5 -133t158.5 -389q0 -541 -641 -541h-587v1126h-422v-495q0 -147 -23.5 -259t-64 -183.5t-101.5 -116t-129.5 -62.5t-154.5 -18q-93 0 -166 8v309h84q104 0 150 89.5t46 285.5v772h1139v-393h250zM1667 309q279 0 279 221q0 115 -63.5 170.5
t-203.5 55.5h-231v-447h219z" />
    <glyph glyph-name="uni040A" unicode="&#x40a;" horiz-adv-x="2310" 
d="M123 0v1456h358v-590h555v590h359v-424h266q303 0 461.5 -130t158.5 -380q0 -522 -639 -522h-606v541h-555v-541h-358zM1397 309h235q143 0 210 53.5t67 149.5q0 114 -65 163.5t-202 49.5h-245v-416z" />
    <glyph glyph-name="uni040B" unicode="&#x40b;" horiz-adv-x="1695" 
d="M1061 909q102 0 186 -17t158 -58t124.5 -105t79.5 -162t29 -225v-342h-358v334q0 152 -64.5 210t-185.5 58q-131 0 -266 -37v-565h-356v1120h-390v336h1293v-336h-547v-252q146 41 297 41z" />
    <glyph glyph-name="uni040C" unicode="&#x40c;" horiz-adv-x="1468" 
d="M586 1565l243 356l388 -31l-396 -325h-235zM1468 0h-448l-539 659v-659h-358v1456h358v-651l488 651h440l-557 -696z" />
    <glyph glyph-name="uni040D" unicode="&#x40d;" horiz-adv-x="1587" 
d="M940 1565h-235l-396 325l387 31zM1276 1458h190v-1458h-358v811l-793 -815h-192v1460h358v-813z" />
    <glyph glyph-name="uni040E" unicode="&#x40e;" horiz-adv-x="1443" 
d="M727 1565q-113 0 -200 39t-139.5 120.5t-53.5 196.5h213q43 -119 180 -119q141 0 180 119h215q-3 -175 -112 -265.5t-283 -90.5zM1042 1456h406l-512 -1067q-55 -116 -104 -189.5t-114.5 -128.5t-148.5 -78.5t-196 -23.5q-88 0 -164 11v309q35 -2 96 -2q88 0 146 20
t100 72l-555 1077h418l229 -514l84 -219l84 223z" />
    <glyph glyph-name="uni040F" unicode="&#x40f;" horiz-adv-x="1523" 
d="M1401 1456v-1456h-475v-342h-326v342h-477v1456h358v-1126h561v1126h359z" />
    <glyph glyph-name="uni0410" unicode="&#x410;" horiz-adv-x="1591" 
d="M1192 0l-107 238h-581l-107 -238h-393l670 1458h241l670 -1458h-393zM696 723l-82 -197h363l-82 197l-100 285z" />
    <glyph glyph-name="uni0411" unicode="&#x411;" horiz-adv-x="1406" 
d="M793 922q287 0 433 -115t146 -332q0 -244 -149 -359.5t-449 -115.5h-651v1456h1128v-313h-768v-221h310zM764 295q128 0 181.5 45t53.5 129q0 88 -52.5 127t-170.5 39h-293v-340h281z" />
    <glyph glyph-name="uni0412" unicode="&#x412;" horiz-adv-x="1437" 
d="M1100 791q134 -29 217.5 -123t83.5 -234q0 -434 -570 -434h-708v1456h682q235 0 360 -89.5t125 -258.5q0 -121 -50 -201t-140 -116zM481 1157v-293h291q176 0 176 148q0 70 -44 107.5t-124 37.5h-299zM834 303q95 0 145.5 38.5t50.5 107.5q0 68 -54.5 106.5t-154.5 38.5
h-340v-291h353z" />
    <glyph glyph-name="uni0413" unicode="&#x413;" horiz-adv-x="1241" 
d="M123 0v1456h1081v-336h-715v-1120h-366z" />
    <glyph glyph-name="uni0414" unicode="&#x414;" horiz-adv-x="1734" 
d="M1690 330v-672h-324v342h-1004v-342h-325v672h156q112 92 112 438v688h1147v-1126h238zM565 330h529v796h-430v-378q0 -291 -99 -418z" />
    <glyph glyph-name="uni0415" unicode="&#x415;" horiz-adv-x="1310" 
d="M123 0v1456h1100v-317h-752v-275h633v-297h-633v-250h778v-317h-1126z" />
    <glyph glyph-name="uni0416" unicode="&#x416;" horiz-adv-x="2273" 
d="M2275 0h-450l-512 664v-664h-350v672l-525 -672h-440l586 750l-545 706h457l467 -659v659h350v-661l477 661h432l-532 -698z" />
    <glyph glyph-name="uni0417" unicode="&#x417;" horiz-adv-x="1380" 
d="M1036 770q131 -31 217 -124t86 -228q0 -220 -165 -334.5t-490 -114.5q-240 0 -395.5 65.5t-259.5 192.5l252 232q49 -87 155.5 -137t261.5 -50q137 0 204 45t67 129q0 66 -61 108t-193 42h-283v258h256q98 0 155.5 45.5t57.5 120.5q0 78 -65.5 120t-194.5 42
q-112 0 -195 -48.5t-127 -127.5l-253 223q97 123 241 189.5t359 66.5q287 0 435 -100t148 -287q0 -125 -57.5 -208t-155.5 -120z" />
    <glyph glyph-name="uni0418" unicode="&#x418;" horiz-adv-x="1587" 
d="M1276 1458h190v-1458h-358v811l-793 -815h-192v1460h358v-813z" />
    <glyph glyph-name="uni0419" unicode="&#x419;" horiz-adv-x="1587" 
d="M797 1565q-113 0 -200 39t-140 120.5t-54 196.5h213q43 -119 181 -119q141 0 180 119h215q-3 -175 -112 -265.5t-283 -90.5zM1276 1458h190v-1458h-358v811l-793 -815h-192v1460h358v-813z" />
    <glyph glyph-name="uni041A" unicode="&#x41a;" horiz-adv-x="1468" 
d="M1468 0h-448l-539 659v-659h-358v1456h358v-651l488 651h440l-557 -696z" />
    <glyph glyph-name="uni041B" unicode="&#x41b;" horiz-adv-x="1589" 
d="M195 -8q-93 0 -166 8v309h84q104 0 150 89.5t46 285.5v772h1157v-1456h-356v1126h-442v-495q0 -147 -23.5 -259t-64 -183.5t-101.5 -116t-129.5 -62.5t-154.5 -18z" />
    <glyph glyph-name="uni041C" unicode="&#x41c;" horiz-adv-x="1792" 
d="M1483 1458h186v-1458h-350v698l-361 -456h-124l-361 452v-694h-350v1458h186l588 -749z" />
    <glyph glyph-name="uni041D" unicode="&#x41d;" horiz-adv-x="1536" 
d="M123 0v1456h358v-620h574v620h358v-1456h-358v508h-574v-508h-358z" />
    <glyph glyph-name="uni041E" unicode="&#x41e;" horiz-adv-x="1738" 
d="M868 -31q-229 0 -408.5 95t-279.5 267.5t-100 395.5q0 166 57.5 307t159.5 240.5t249.5 156t321.5 56.5q231 0 411 -95t280 -268t100 -397q0 -220 -98 -392.5t-278.5 -269t-414.5 -96.5zM868 305q186 0 300 116t114 306t-113 307t-301 117q-184 0 -297.5 -116.5
t-113.5 -307.5q0 -189 112.5 -305.5t298.5 -116.5z" />
    <glyph glyph-name="uni041F" unicode="&#x41f;" horiz-adv-x="1521" 
d="M123 0v1456h1276v-1456h-359v1126h-559v-1126h-358z" />
    <glyph glyph-name="uni0420" unicode="&#x420;" horiz-adv-x="1355" 
d="M707 1456q302 0 461 -138.5t159 -402.5q0 -285 -162 -421t-477 -136h-207v-358h-358v1456h584zM678 664q276 0 276 239q0 123 -62 182.5t-204 59.5h-207v-481h197z" />
    <glyph glyph-name="uni0421" unicode="&#x421;" horiz-adv-x="1523" 
d="M854 -31q-353 0 -563.5 205t-210.5 557q0 232 95.5 403t270 261t408.5 90q203 0 369 -74.5t274 -206.5l-280 -233q-55 80 -146.5 128t-204.5 48q-189 0 -299 -111t-110 -305q0 -196 110.5 -310t298.5 -114q115 0 205.5 47t145.5 127l280 -235q-230 -277 -643 -277z" />
    <glyph glyph-name="uni0422" unicode="&#x422;" horiz-adv-x="1331" 
d="M483 0v1120h-444v336h1251v-336h-440v-1120h-367z" />
    <glyph glyph-name="uni0423" unicode="&#x423;" horiz-adv-x="1443" 
d="M1042 1456h406l-512 -1067q-55 -116 -104 -189.5t-114.5 -128.5t-148.5 -78.5t-196 -23.5q-88 0 -164 11v309q35 -2 96 -2q88 0 146 20t100 72l-555 1077h418l229 -514l84 -219l84 223z" />
    <glyph glyph-name="uni0424" unicode="&#x424;" horiz-adv-x="1832" 
d="M1102 1372q196 0 349 -76.5t240 -221t87 -335.5q0 -281 -186.5 -455.5t-504.5 -174.5h-2v-142h-340v142q-206 0 -360 71t-242 214.5t-88 344.5q0 139 45 255t129 200t213 131t289 47h14v133h340v-133h17zM725 401h20v678h-16q-137 0 -222 -92t-85 -248q0 -146 85 -242
t218 -96zM1108 401q133 0 219 96t86 242q0 156 -86 248t-223 92h-19v-678h23z" />
    <glyph glyph-name="uni0425" unicode="&#x425;" horiz-adv-x="1478" 
d="M1462 0h-424l-303 481l-295 -481h-424l471 743l-452 713h422l284 -467l287 467h414l-449 -713z" />
    <glyph glyph-name="uni0426" unicode="&#x426;" horiz-adv-x="1636" 
d="M1620 330v-672h-324v342h-1173v1456h358v-1126h545v1126h358v-1126h236z" />
    <glyph glyph-name="uni0427" unicode="&#x427;" horiz-adv-x="1429" 
d="M948 1456h359v-1456h-359v465q-126 -35 -276 -35q-101 0 -189.5 19t-167.5 63.5t-135.5 111t-89.5 167t-33 227.5v438h359v-428q0 -77 24 -133.5t67 -88.5t95 -46.5t115 -14.5q131 0 231 33v678z" />
    <glyph glyph-name="uni0428" unicode="&#x428;" horiz-adv-x="2201" 
d="M123 0v1456h358v-1126h441v1126h358v-1126h442v1126h359v-1456h-1958z" />
    <glyph glyph-name="uni0429" unicode="&#x429;" horiz-adv-x="2332" 
d="M2316 330v-672h-323v342h-1870v1456h358v-1126h441v1126h358v-1126h442v1126h359v-1126h235z" />
    <glyph glyph-name="uni042A" unicode="&#x42a;" horiz-adv-x="1662" 
d="M406 0v1120h-388v336h746v-393h250q303 0 460.5 -133t157.5 -389q0 -541 -637 -541h-589zM764 309h221q277 0 277 221q0 115 -62.5 170.5t-204.5 55.5h-231v-447z" />
    <glyph glyph-name="uni042B" unicode="&#x42b;" horiz-adv-x="1988" 
d="M123 0v1456h358v-393h234q303 0 461.5 -133t158.5 -389q0 -541 -639 -541h-573zM1499 0v1456h367v-1456h-367zM483 309h203q277 0 277 221q0 115 -62.5 170.5t-204.5 55.5h-213v-447z" />
    <glyph glyph-name="uni042C" unicode="&#x42c;" horiz-adv-x="1380" 
d="M123 0v1456h358v-393h250q303 0 462 -133t159 -389q0 -541 -639 -541h-590zM481 309h221q277 0 277 221q0 115 -62 170.5t-204 55.5h-232v-447z" />
    <glyph glyph-name="uni042D" unicode="&#x42d;" horiz-adv-x="1552" 
d="M692 1485q356 0 568.5 -202t212.5 -552q0 -235 -97 -407.5t-274 -263.5t-414 -91q-238 0 -394 67t-265 197l276 234q56 -75 154 -118.5t229 -43.5q156 0 261.5 66.5t144.5 203.5h-672v281h678q-33 147 -141 223t-269 76q-127 0 -226 -46t-153 -120l-274 232
q216 264 655 264z" />
    <glyph glyph-name="uni042E" unicode="&#x42e;" horiz-adv-x="2338" 
d="M1481 1487q230 0 409.5 -95t279 -268t99.5 -397q0 -165 -57 -305.5t-159 -240t-249.5 -156t-322.5 -56.5q-289 0 -494 148.5t-270 400.5h-240v-518h-356v1456h356v-616h221q37 291 250 469t533 178zM1481 305q185 0 298 116t113 306t-112.5 307t-298.5 117
q-184 0 -297 -116.5t-113 -307.5q0 -188 112.5 -305t297.5 -117z" />
    <glyph glyph-name="uni042F" unicode="&#x42f;" horiz-adv-x="1429" 
d="M637 1456h670v-1456h-359v383h-217h-41l-237 -383h-422l307 461q-254 130 -254 459q0 262 138.5 399t414.5 137zM735 682h213v463h-227q-137 0 -197.5 -58.5t-60.5 -175.5q0 -105 65 -167t207 -62z" />
    <glyph glyph-name="uni0430" unicode="&#x430;" horiz-adv-x="1355" 
d="M596 -27q-244 0 -388.5 160t-144.5 428q0 269 143 430.5t376 161.5q89 0 172 -27t141 -84v80h348v-1122h-340v94q-101 -121 -307 -121zM686 283q153 0 217 125v315q-30 56 -91.5 87.5t-133.5 31.5q-112 0 -181 -73t-69 -206q0 -131 68.5 -205.5t189.5 -74.5z" />
    <glyph glyph-name="uni0431" unicode="&#x431;" horiz-adv-x="1386" 
d="M786 1065q262 0 398.5 -135t136.5 -383q0 -263 -168.5 -418.5t-447.5 -155.5q-301 0 -464 182t-163 531q0 114 7 205.5t25 182.5t48.5 161t79.5 132.5t115 104.5t157 70t205 37q306 19 481 55l33 -327q-136 -31 -426 -56q-195 -13 -277 -85t-104 -244q63 70 159.5 106.5
t204.5 36.5zM707 291q113 0 181 73t68 197q0 108 -68.5 174t-172.5 66q-85 0 -161 -55.5t-108 -147.5q9 -146 78 -226.5t183 -80.5z" />
    <glyph glyph-name="uni0432" unicode="&#x432;" horiz-adv-x="1280" 
d="M1014 625q103 -26 166 -100t63 -187q0 -338 -479 -338h-643v1122h639q401 0 401 -268q0 -81 -38.5 -140t-108.5 -89zM467 868v-200h242q120 0 120 106q0 45 -30 69.5t-86 24.5h-246zM762 256q127 0 127 102q0 99 -131 99h-291v-201h295z" />
    <glyph glyph-name="uni0433" unicode="&#x433;" horiz-adv-x="1062" 
d="M1024 1122v-309h-549v-813h-352v1122h901z" />
    <glyph glyph-name="uni0434" unicode="&#x434;" horiz-adv-x="1431" 
d="M1206 313h199v-616h-307v303h-781v-303h-307v616h99q122 46 122 480v329h975v-809zM463 307h401v514h-297v-119q0 -279 -104 -395z" />
    <glyph glyph-name="uni0435" unicode="&#x435;" horiz-adv-x="1273" 
d="M1229 561q0 -71 -2 -100h-809q45 -203 274 -203q88 0 164.5 34t128.5 99l217 -182q-166 -234 -540 -234q-283 0 -441 158.5t-158 429.5q0 175 75.5 310t209 207.5t303.5 72.5q141 0 252 -43.5t182 -123t107.5 -187t36.5 -238.5zM651 872q-87 0 -151 -47.5t-84 -150.5h471
q-5 79 -64.5 138.5t-171.5 59.5z" />
    <glyph glyph-name="uni0436" unicode="&#x436;" horiz-adv-x="1976" 
d="M1966 0h-424l-377 475v-475h-354v481l-397 -481h-404l449 541l-443 581h416l379 -514v514h354v-520l391 520h406l-449 -561z" />
    <glyph glyph-name="uni0437" unicode="&#x437;" horiz-adv-x="1153" 
d="M887 588q231 -68 231 -279q0 -168 -148.5 -253t-410.5 -85q-179 0 -304 31t-247 100l129 287q105 -68 191 -97.5t194 -29.5q124 0 187 30t63 77q0 88 -184 88h-250v213h186q92 0 133 26.5t41 65.5q0 49 -55 74.5t-143 25.5q-75 0 -149 -20.5t-175 -65.5l-123 264
q115 59 225.5 86t264.5 27q80 0 150 -9t135.5 -31.5t112.5 -56.5t75 -87t28 -121q0 -178 -157 -260z" />
    <glyph glyph-name="uni0438" unicode="&#x438;" horiz-adv-x="1345" 
d="M1034 1126h189v-1126h-338v559l-572 -563h-190v1126h336v-555z" />
    <glyph glyph-name="uni0439" unicode="&#x439;" horiz-adv-x="1345" 
d="M674 1272q-174 0 -283 91.5t-112 262.5h213q43 -117 182 -117q138 0 178 117h215q-3 -173 -111 -263.5t-282 -90.5zM1034 1126h189v-1126h-338v559l-572 -563h-190v1126h336v-555z" />
    <glyph glyph-name="uni043A" unicode="&#x43a;" horiz-adv-x="1302" 
d="M1286 0h-432l-385 477v-477h-346v1122h346v-522l405 522h406l-455 -561z" />
    <glyph glyph-name="uni043B" unicode="&#x43b;" horiz-adv-x="1353" 
d="M176 -8q-82 0 -153 8v301h63q92 0 128 66.5t36 203.5v551h981v-1122h-354v813h-291v-328q0 -137 -29 -234t-84.5 -153t-128 -81t-168.5 -25z" />
    <glyph glyph-name="uni043C" unicode="&#x43c;" horiz-adv-x="1540" 
d="M1241 1126h178v-1126h-327v492l-267 -332h-110l-269 336v-496h-323v1126h174l473 -571z" />
    <glyph glyph-name="uni043D" unicode="&#x43d;" horiz-adv-x="1351" 
d="M874 1122h355v-1122h-355v385h-399v-385h-352v1122h352v-452h399v452z" />
    <glyph glyph-name="uni043E" unicode="&#x43e;" horiz-adv-x="1372" 
d="M686 -27q-284 0 -453.5 159t-169.5 429q0 269 170 429.5t453 160.5q282 0 451.5 -160.5t169.5 -429.5q0 -270 -169 -429t-452 -159zM686 291q116 0 186 73t70 197q0 123 -70.5 198t-185.5 75q-117 0 -187.5 -75t-70.5 -198q0 -124 70.5 -197t187.5 -73z" />
    <glyph glyph-name="uni043F" unicode="&#x43f;" horiz-adv-x="1341" 
d="M1221 1122v-1122h-355v813h-391v-813h-352v1122h1098z" />
    <glyph glyph-name="uni0440" unicode="&#x440;" horiz-adv-x="1366" 
d="M123 -362v1484h346v-80q117 111 315 111q231 0 373.5 -161.5t142.5 -430.5q0 -268 -144 -428t-386 -160q-203 0 -301 121v-456h-346zM680 283q120 0 188 74.5t68 205.5q0 133 -68.5 206t-181.5 73q-71 0 -132 -31.5t-91 -87.5v-315q64 -125 217 -125z" />
    <glyph glyph-name="uni0441" unicode="&#x441;" horiz-adv-x="1216" 
d="M674 -23q-288 0 -449.5 157.5t-161.5 426.5q0 170 70 301.5t208 208t325 76.5q170 0 299.5 -62.5t203.5 -171.5l-243 -213q-36 60 -99 95.5t-139 35.5q-119 0 -192.5 -72.5t-73.5 -191.5q0 -126 73 -200t195 -74q83 0 147 36.5t99 92.5l242 -213q-78 -108 -207.5 -170
t-296.5 -62z" />
    <glyph glyph-name="uni0442" unicode="&#x442;" horiz-adv-x="1093" 
d="M1053 1122v-309h-330v-813h-354v813h-330v309h1014z" />
    <glyph glyph-name="uni0443" unicode="&#x443;" horiz-adv-x="1263" 
d="M881 1122h379l-449 -1118q-41 -104 -92.5 -178.5t-101 -116.5t-111 -66t-112.5 -31t-118 -7q-113 0 -192 26v293q80 -28 156 -28q164 0 235 124l-500 1102h398l260 -671z" />
    <glyph glyph-name="uni0444" unicode="&#x444;" horiz-adv-x="1751" 
d="M1686 553q0 -182 -83.5 -314.5t-225 -199t-324.5 -68.5v-333h-355v333q-183 1 -325 67t-226 199t-84 316q0 278 172 435.5t463 160.5v407h355v-407q290 -3 461.5 -161t171.5 -435zM422 563q0 -63 15.5 -114t48 -92t89.5 -63.5t134 -23.5v580q-76 -1 -134 -27.5t-90 -69.5
t-47.5 -91t-15.5 -99zM1040 270q78 1 135 23.5t89.5 63.5t47.5 92t15 114q0 51 -15 98.5t-47 91t-90 70t-135 27.5v-580z" />
    <glyph glyph-name="uni0445" unicode="&#x445;" horiz-adv-x="1253" 
d="M1245 0h-399l-221 319l-222 -319h-395l395 575l-389 547h408l205 -305l207 305h405l-385 -540z" />
    <glyph glyph-name="uni0446" unicode="&#x446;" horiz-adv-x="1437" 
d="M1210 313h201v-616h-307v303h-981v1122h352v-809h381v809h354v-809z" />
    <glyph glyph-name="uni0447" unicode="&#x447;" horiz-adv-x="1255" 
d="M780 1122h355v-1122h-355v332q-106 -25 -211 -25q-108 0 -199 25.5t-165.5 79t-117 147.5t-42.5 221v342h354v-352q0 -52 18.5 -90t50.5 -58t68 -29t78 -9q85 0 166 22v516z" />
    <glyph glyph-name="uni0448" unicode="&#x448;" horiz-adv-x="1970" 
d="M123 0v1122h352v-809h334v809h354v-809h332v809h354v-1122h-1726z" />
    <glyph glyph-name="uni0449" unicode="&#x449;" horiz-adv-x="2076" 
d="M1849 313h201v-616h-307v303h-1620v1122h352v-809h334v809h354v-809h332v809h354v-809z" />
    <glyph glyph-name="uni044A" unicode="&#x44a;" horiz-adv-x="1443" 
d="M907 860q506 0 506 -424q0 -226 -125 -331t-387 -105h-555v813h-307v309h661v-262h207zM883 279q166 0 166 151q0 156 -164 156h-193v-307h191z" />
    <glyph glyph-name="uni044B" unicode="&#x44b;" horiz-adv-x="1802" 
d="M123 0v1122h352v-262h209q506 0 506 -424q0 -226 -125 -331t-387 -105h-555zM1325 0v1122h354v-1122h-354zM467 279h192q166 0 166 151q0 156 -166 156h-192v-307z" />
    <glyph glyph-name="uni044C" unicode="&#x44c;" horiz-adv-x="1218" 
d="M123 0v1122h352v-262h209q506 0 506 -424q0 -226 -125 -331t-387 -105h-555zM467 279h192q166 0 166 151q0 156 -166 156h-192v-307z" />
    <glyph glyph-name="uni044D" unicode="&#x44d;" horiz-adv-x="1249" 
d="M578 1149q189 0 328 -76.5t209.5 -208t70.5 -301.5q0 -271 -162.5 -428.5t-460.5 -157.5q-347 0 -522 226l221 196q42 -56 110.5 -92.5t157.5 -36.5q115 0 193 49t106 136h-438v215h443q-25 89 -101 135.5t-192 46.5q-85 0 -155 -36.5t-116 -98.5l-221 203
q78 105 214.5 167t314.5 62z" />
    <glyph glyph-name="uni044E" unicode="&#x44e;" horiz-adv-x="1933" 
d="M1251 1151q282 0 451.5 -160.5t169.5 -429.5q0 -270 -169 -429t-452 -159q-232 0 -390 110.5t-208 305.5h-184v-389h-354v1122h354v-456h172q32 225 195.5 355t414.5 130zM1251 291q117 0 186.5 73t69.5 197q0 123 -69.5 198t-186.5 75q-114 0 -184 -75t-70 -198
q0 -124 69.5 -197t184.5 -73z" />
    <glyph glyph-name="uni044F" unicode="&#x44f;" horiz-adv-x="1271" 
d="M592 1122h557v-1122h-354v313h-177l-188 -313h-377l230 365q-203 87 -203 340q0 216 125 316.5t387 100.5zM803 557v289h-193q-166 0 -166 -141q0 -148 164 -148h195z" />
    <glyph glyph-name="uni0450" unicode="&#x450;" horiz-adv-x="1273" 
d="M795 1274h-236l-393 325l385 31zM1229 561q0 -71 -2 -100h-809q45 -203 274 -203q88 0 164.5 34t128.5 99l217 -182q-166 -234 -540 -234q-283 0 -441 158.5t-158 429.5q0 175 75.5 310t209 207.5t303.5 72.5q141 0 252 -43.5t182 -123t107.5 -187t36.5 -238.5zM651 872
q-87 0 -151 -47.5t-84 -150.5h471q-5 79 -64.5 138.5t-171.5 59.5z" />
    <glyph glyph-name="uni0451" unicode="&#x451;" horiz-adv-x="1273" 
d="M391 1257q-82 0 -140 58t-58 141q0 82 58 139.5t140 57.5t139.5 -57.5t57.5 -139.5q0 -83 -57.5 -141t-139.5 -58zM891 1257q-83 0 -141 58t-58 141q0 82 58 139.5t141 57.5q80 0 137 -57.5t57 -139.5q0 -83 -57 -141t-137 -58zM1229 561q0 -71 -2 -100h-809
q45 -203 274 -203q88 0 164.5 34t128.5 99l217 -182q-166 -234 -540 -234q-283 0 -441 158.5t-158 429.5q0 175 75.5 310t209 207.5t303.5 72.5q141 0 252 -43.5t182 -123t107.5 -187t36.5 -238.5zM651 872q-87 0 -151 -47.5t-84 -150.5h471q-5 79 -64.5 138.5t-171.5 59.5z
" />
    <glyph glyph-name="uni0452" unicode="&#x452;" horiz-adv-x="1284" 
d="M791 1081q102 0 178.5 -33.5t135.5 -109.5t89.5 -209.5t30.5 -322.5q0 -130 -18.5 -240t-62 -209.5t-111 -168.5t-171 -109.5t-235.5 -40.5v311q73 0 127.5 65t80 162t25.5 207q0 214 -46.5 300.5t-149.5 86.5q-116 0 -197 -92v-678h-354v1198h-197v246h197v112h352v-112
h360v-246h-360v-233q58 52 144.5 84t181.5 32z" />
    <glyph glyph-name="uni0453" unicode="&#x453;" horiz-adv-x="1062" 
d="M350 1212l244 357l387 -31l-395 -326h-236zM1024 1122v-309h-549v-813h-352v1122h901z" />
    <glyph glyph-name="uni0454" unicode="&#x454;" horiz-adv-x="1249" 
d="M987 399l221 -196q-175 -226 -522 -226q-298 0 -460.5 157.5t-162.5 428.5q0 127 41 234.5t117.5 185.5t192.5 122t258 44q178 0 314 -62t214 -167l-221 -203q-46 62 -115.5 98.5t-154.5 36.5q-116 0 -192 -46.5t-101 -135.5h442v-215h-438q28 -87 106 -136t193 -49
q89 0 157.5 36.5t110.5 92.5z" />
    <glyph glyph-name="uni0455" unicode="&#x455;" horiz-adv-x="1083" 
d="M530 -31q-265 0 -479 92l105 265q71 -47 170 -72t188 -25q158 0 158 84q0 37 -42 57.5t-179 51.5q-93 21 -160 48t-121.5 68.5t-81.5 102t-27 141.5q0 182 123.5 274.5t341.5 92.5q136 0 240 -23.5t219 -66.5l-115 -271q-71 38 -171 64.5t-175 26.5q-118 0 -118 -70
q0 -36 40 -56.5t177 -54.5q204 -51 303.5 -128.5t99.5 -217.5q0 -383 -496 -383z" />
    <glyph glyph-name="uni0456" unicode="&#x456;" horiz-adv-x="598" 
d="M301 1253q-85 0 -144 59t-59 144q0 84 59.5 143.5t143.5 59.5q83 0 142 -60t59 -143q0 -85 -59 -144t-142 -59zM123 0v1122h354v-1122h-354z" />
    <glyph glyph-name="uni0457" unicode="&#x457;" horiz-adv-x="598" 
d="M53 1255q-82 0 -140 58t-58 141q0 82 58 139.5t140 57.5t139.5 -57.5t57.5 -139.5q0 -83 -57.5 -141t-139.5 -58zM553 1255q-83 0 -141 58t-58 141q0 82 58 139.5t141 57.5q80 0 137.5 -58t57.5 -139q0 -83 -57.5 -141t-137.5 -58zM123 0v1122h354v-1122h-354z" />
    <glyph glyph-name="uni0458" unicode="&#x458;" horiz-adv-x="614" 
d="M315 1253q-85 0 -143.5 59t-58.5 144q0 84 59 143.5t143 59.5q83 0 142 -60t59 -143q0 -85 -59 -144t-142 -59zM141 -393q-114 0 -192 20v283q43 -12 76 -12q31 0 52 10.5t32.5 26.5t17 49t7 62t1.5 83v993h359v-1175q0 -172 -97.5 -256t-255.5 -84z" />
    <glyph glyph-name="uni0459" unicode="&#x459;" horiz-adv-x="1953" 
d="M1430 860q503 0 503 -424q0 -226 -124 -331t-386 -105h-553v813h-286v-328q0 -137 -28.5 -234t-84 -153t-127.5 -81t-168 -25q-85 0 -156 8v301h66q91 0 126.5 66.5t35.5 203.5v551h977v-262h205zM1405 279q164 0 164 151q0 156 -162 156h-190v-307h188z" />
    <glyph glyph-name="uni045A" unicode="&#x45a;" horiz-adv-x="1951" 
d="M1432 856q501 0 501 -422q0 -225 -123 -329.5t-385 -104.5h-561v408h-395v-408h-352v1122h352v-428h395v428h355v-266h213zM1407 279q164 0 164 149q0 154 -162 154h-199v-303h197z" />
    <glyph glyph-name="uni045B" unicode="&#x45b;" horiz-adv-x="1310" 
d="M791 1081q222 0 319.5 -110t97.5 -361v-610h-354v506q0 145 -43.5 204.5t-146.5 59.5q-116 0 -197 -92v-678h-354v1198h-197v246h197v112h352v-112h360v-246h-360v-233q58 51 145 83.5t181 32.5z" />
    <glyph glyph-name="uni045C" unicode="&#x45c;" horiz-adv-x="1302" 
d="M500 1272l243 356l387 -31l-395 -325h-235zM1286 0h-432l-385 477v-477h-346v1122h346v-522l405 522h406l-455 -561z" />
    <glyph glyph-name="uni045D" unicode="&#x45d;" horiz-adv-x="1345" 
d="M829 1272h-235l-393 325l385 31zM1034 1126h189v-1126h-338v559l-572 -563h-190v1126h336v-555z" />
    <glyph glyph-name="uni045E" unicode="&#x45e;" horiz-adv-x="1263" 
d="M631 1272q-174 0 -283 91.5t-112 262.5h213q43 -117 182 -117q138 0 178 117h215q-3 -173 -111 -263.5t-282 -90.5zM881 1122h379l-449 -1118q-41 -104 -92.5 -178.5t-101 -116.5t-111 -66t-112.5 -31t-118 -7q-113 0 -192 26v293q80 -28 156 -28q164 0 235 124
l-500 1102h398l260 -671z" />
    <glyph glyph-name="uni045F" unicode="&#x45f;" horiz-adv-x="1333" 
d="M1210 1122v-1122h-391v-303h-307v303h-389v1122h352v-809h381v809h354z" />
    <glyph glyph-name="uni0462" unicode="&#x462;" horiz-adv-x="1656" 
d="M1087 874q282 0 410.5 -106t128.5 -313q0 -109 -30.5 -190.5t-81 -131t-127 -80.5t-157 -42t-181.5 -11h-670v1026h-361v301h361v129h358v-129h549v-301h-549v-152h350zM1030 287q111 0 168 35.5t57 117.5q0 95 -51 127.5t-162 32.5h-305v-313h293z" />
    <glyph glyph-name="uni0463" unicode="&#x463;" horiz-adv-x="1435" 
d="M948 715q240 0 348.5 -91t108.5 -266q0 -178 -109 -268t-354 -90h-631v813h-305v309h305v434h355v-434h415v-256h-415v-151h282zM905 262q70 0 106 29t36 84q0 51 -35 78.5t-99 27.5h-256v-219h248z" />
    <glyph glyph-name="uni0472" unicode="&#x472;" horiz-adv-x="1738" 
d="M868 1487q231 0 411 -95t280 -268t100 -397q0 -220 -98 -392.5t-278.5 -269t-414.5 -96.5q-229 0 -408.5 95t-279.5 267.5t-100 395.5q0 166 57.5 307t159.5 240.5t249.5 156t321.5 56.5zM868 1167q-159 0 -271 -84.5t-136 -234.5h815q-20 148 -132 233.5t-276 85.5z
M868 287q158 0 270 80t136 221h-809q27 -139 137 -220t266 -81z" />
    <glyph glyph-name="uni0473" unicode="&#x473;" horiz-adv-x="1372" 
d="M684 1153q282 0 452.5 -160.5t170.5 -429.5q0 -272 -170 -431t-453 -159q-282 0 -451.5 159t-169.5 431q0 269 170 429.5t451 160.5zM684 860q-97 0 -165.5 -50.5t-94.5 -139.5h522q-26 90 -95 140t-167 50zM684 264q98 0 167 50.5t95 140.5h-522q28 -90 96 -140.5
t164 -50.5z" />
    <glyph glyph-name="uni0474" unicode="&#x474;" horiz-adv-x="1515" 
d="M1319 1470q111 0 182 -8v-309h-84q-61 0 -103.5 -35t-78.5 -127l-393 -995h-228l-610 1460h408l235 -643l82 -260l76 258l129 389q47 152 139 211t246 59z" />
    <glyph glyph-name="uni0475" unicode="&#x475;" horiz-adv-x="1296" 
d="M1106 1135q94 0 180 -13v-307h-82q-61 0 -104 -34.5t-84 -127.5l-289 -655h-211l-512 1124h397l148 -385l69 -227l66 223l47 127q30 86 69.5 142t89.5 84.5t99.5 38.5t116.5 10z" />
    <glyph glyph-name="uni0490" unicode="&#x490;" horiz-adv-x="1241" 
d="M879 1815h325v-695h-715v-1120h-366v1456h756v359z" />
    <glyph glyph-name="uni0491" unicode="&#x491;" horiz-adv-x="1062" 
d="M717 1427h307v-614h-549v-813h-352v1122h594v305z" />
    <glyph glyph-name="uni0492" unicode="&#x492;" horiz-adv-x="1282" 
d="M1245 1120h-715v-299h396v-303h-396v-518h-366v518h-129v303h129v635h1081v-336z" />
    <glyph glyph-name="uni0493" unicode="&#x493;" horiz-adv-x="1107" 
d="M1069 813h-547v-223h357v-291h-357v-299h-354v299h-129v291h129v532h901v-309z" />
    <glyph glyph-name="uni049A" unicode="&#x49a;" horiz-adv-x="1538" 
d="M1522 330v-672h-324v342h-178l-539 659v-659h-358v1456h358v-651l488 651h440l-557 -696l348 -430h322z" />
    <glyph glyph-name="uni049B" unicode="&#x49b;" horiz-adv-x="1343" 
d="M1028 313h283v-616h-307v303h-150l-385 477v-477h-346v1122h346v-522l405 522h406l-455 -561z" />
    <glyph glyph-name="uni04A2" unicode="&#x4a2;" horiz-adv-x="1667" 
d="M1649 330v-672h-324v342h-270v508h-574v-508h-358v1456h358v-620h574v620h358v-1126h236z" />
    <glyph glyph-name="uni04A3" unicode="&#x4a3;" horiz-adv-x="1456" 
d="M1229 313h201v-616h-308v303h-248v385h-399v-385h-352v1122h352v-452h399v452h355v-809z" />
    <glyph glyph-name="uni04AE" unicode="&#x4ae;" horiz-adv-x="1421" 
d="M1427 1456l-532 -946v-510h-367v508l-532 948h420l297 -594l301 594h413z" />
    <glyph glyph-name="uni04AF" unicode="&#x4af;" horiz-adv-x="1294" 
d="M905 1122h385l-465 -1130v-354h-354v360l-467 1124h389l170 -465l90 -258z" />
    <glyph glyph-name="uni04B0" unicode="&#x4b0;" horiz-adv-x="1421" 
d="M1427 1456l-454 -809h248v-303h-326v-344h-367v344h-323v303h246l-455 809h420l297 -594l301 594h413z" />
    <glyph glyph-name="uni04B1" unicode="&#x4b1;" horiz-adv-x="1294" 
d="M1290 1122l-340 -827h156v-295h-277l-4 -8v-354h-354v362h-283v295h160l-344 827h389l170 -465l90 -256l90 256l162 465h385z" />
    <glyph glyph-name="uni04BA" unicode="&#x4ba;" horiz-adv-x="1445" 
d="M788 1067q98 0 183 -17t163.5 -58t133.5 -104.5t88 -162.5t33 -225v-500h-359v489q0 271 -285 271q-145 0 -264 -41v-719h-358v1456h358v-430q141 41 307 41z" />
    <glyph glyph-name="uni04BB" unicode="&#x4bb;" horiz-adv-x="1310" 
d="M113 0v1556h352v-522q59 50 146.5 83.5t179.5 33.5q222 0 319.5 -110t97.5 -361v-680h-354v578q0 144 -43.5 203t-146.5 59q-119 0 -197 -92v-748h-354z" />
    <glyph glyph-name="uni04D8" unicode="&#x4d8;" horiz-adv-x="1665" 
d="M803 1487q227 0 405.5 -95t278.5 -268.5t100 -396.5q0 -164 -57 -305.5t-156.5 -240.5t-240.5 -155.5t-304 -56.5q-221 0 -390 86.5t-264 251t-95 385.5q0 75 4 133h1122q-26 154 -133.5 240t-269.5 86q-128 0 -219 -54.5t-164 -150.5l-283 211q244 330 666 330zM827 287
q133 0 229.5 70.5t135.5 201.5h-735q25 -131 118.5 -201.5t251.5 -70.5z" />
    <glyph glyph-name="uni04D9" unicode="&#x4d9;" horiz-adv-x="1273" 
d="M45 561q0 72 2 101h809q-45 202 -274 202q-88 0 -164.5 -34t-128.5 -99l-217 182q166 234 540 234q283 0 440.5 -158t157.5 -430q0 -131 -44 -242t-121.5 -187t-186 -118.5t-235.5 -42.5q-141 0 -252 43.5t-182 123t-107.5 187t-36.5 238.5zM623 250q87 0 151 47.5
t84 151.5h-471q5 -79 64.5 -139t171.5 -60z" />
    <glyph glyph-name="uni04E8" unicode="&#x4e8;" horiz-adv-x="1738" 
d="M868 1487q231 0 411 -95t280 -268t100 -397q0 -220 -98 -392.5t-278.5 -269t-414.5 -96.5q-229 0 -408.5 95t-279.5 267.5t-100 395.5q0 166 57.5 307t159.5 240.5t249.5 156t321.5 56.5zM868 1167q-159 0 -271 -84.5t-136 -234.5h815q-20 148 -132 233.5t-276 85.5z
M868 287q158 0 270 80t136 221h-809q27 -139 137 -220t266 -81z" />
    <glyph glyph-name="uni04E9" unicode="&#x4e9;" horiz-adv-x="1372" 
d="M684 1153q282 0 452.5 -160.5t170.5 -429.5q0 -272 -170 -431t-453 -159q-282 0 -451.5 159t-169.5 431q0 269 170 429.5t451 160.5zM684 860q-97 0 -165.5 -50.5t-94.5 -139.5h522q-26 90 -95 140t-167 50zM684 264q98 0 167 50.5t95 140.5h-522q28 -90 96 -140.5
t164 -50.5z" />
    <glyph glyph-name="uni1E20" unicode="&#x1e20;" horiz-adv-x="1622" 
d="M496 1565v237h757v-237h-757zM815 829h744v-643q-105 -101 -271 -159t-377 -58q-380 0 -605.5 205t-225.5 553q0 230 101 403t283 265t419 92q390 0 620 -211l-227 -252q-68 59 -170 93t-217 34q-197 0 -314.5 -115t-117.5 -309q0 -205 126.5 -318.5t346.5 -113.5
q187 0 297 72v157h-412v305z" />
    <glyph glyph-name="Wgrave" unicode="&#x1e80;" horiz-adv-x="2199" 
d="M1245 1565h-235l-396 325l387 31zM1800 1456h395l-542 -1460h-180l-375 835l-369 -835h-178l-547 1460h402l266 -794l336 794h186l336 -801z" />
    <glyph glyph-name="wgrave" unicode="&#x1e81;" horiz-adv-x="1687" 
d="M1001 1272h-235l-393 325l385 31zM1323 1122h360l-383 -1124h-194l-264 590l-258 -590h-195l-385 1124h365l155 -561l234 563h172l233 -569z" />
    <glyph glyph-name="Wacute" unicode="&#x1e82;" horiz-adv-x="2199" 
d="M958 1565l244 356l387 -31l-395 -325h-236zM1800 1456h395l-542 -1460h-180l-375 835l-369 -835h-178l-547 1460h402l266 -794l336 794h186l336 -801z" />
    <glyph glyph-name="wacute" unicode="&#x1e83;" horiz-adv-x="1687" 
d="M694 1272l244 356l387 -31l-395 -325h-236zM1323 1122h360l-383 -1124h-194l-264 590l-258 -590h-195l-385 1124h365l155 -561l234 563h172l233 -569z" />
    <glyph glyph-name="Wdieresis" unicode="&#x1e84;" horiz-adv-x="2199" 
d="M854 1554q-82 0 -139.5 58t-57.5 141q0 82 57.5 140.5t139.5 58.5t139.5 -58.5t57.5 -140.5q0 -83 -57.5 -141t-139.5 -58zM1354 1554q-83 0 -141 58t-58 141q0 82 58 140.5t141 58.5q80 0 137 -58.5t57 -140.5q0 -83 -57 -141t-137 -58zM1800 1456h395l-542 -1460h-180
l-375 835l-369 -835h-178l-547 1460h402l266 -794l336 794h186l336 -801z" />
    <glyph glyph-name="wdieresis" unicode="&#x1e85;" horiz-adv-x="1687" 
d="M596 1255q-82 0 -140.5 58t-58.5 141q0 82 58.5 139.5t140.5 57.5t139.5 -57.5t57.5 -139.5q0 -83 -57.5 -141t-139.5 -58zM1096 1255q-83 0 -141 58t-58 141q0 82 58 139.5t141 57.5q80 0 137 -57.5t57 -139.5q0 -83 -57 -141t-137 -58zM1323 1122h360l-383 -1124h-194
l-264 590l-258 -590h-195l-385 1124h365l155 -561l234 563h172l233 -569z" />
    <glyph glyph-name="uni1E9E" unicode="&#x1e9e;" horiz-adv-x="1552" 
d="M1038 866q114 -1 207 -37t151 -95.5t89 -133.5t31 -154q0 -228 -141.5 -352.5t-432.5 -124.5q-217 0 -360 45l77 314q111 -54 238 -54q246 0 246 179q0 174 -240 174q-90 0 -180 -43l-119 137l232 301l102 113h-459v-1135h-356v1456h1229v-186z" />
    <glyph glyph-name="Ygrave" unicode="&#x1ef2;" horiz-adv-x="1421" 
d="M856 1565h-235l-396 325l387 31zM1427 1456l-532 -946v-510h-367v508l-532 948h420l297 -594l301 594h413z" />
    <glyph glyph-name="ygrave" unicode="&#x1ef3;" horiz-adv-x="1263" 
d="M786 1272h-235l-393 325l385 31zM881 1122h379l-449 -1118q-41 -104 -92.5 -178.5t-101 -116.5t-111 -66t-112.5 -31t-118 -7q-113 0 -192 26v293q80 -28 156 -28q164 0 235 124l-500 1102h398l260 -671z" />
    <glyph glyph-name="uni2002" unicode="&#x2002;" horiz-adv-x="1089" 
 />
    <glyph glyph-name="uni2003" unicode="&#x2003;" horiz-adv-x="1853" 
 />
    <glyph glyph-name="uni2009" unicode="&#x2009;" horiz-adv-x="61" 
 />
    <glyph glyph-name="endash" unicode="&#x2013;" horiz-adv-x="1089" 
d="M84 528v285h922v-285h-922z" />
    <glyph glyph-name="emdash" unicode="&#x2014;" horiz-adv-x="1853" 
d="M84 528v285h1685v-285h-1685z" />
    <glyph glyph-name="quoteleft" unicode="&#x2018;" horiz-adv-x="507" 
d="M457 1346q-96 0 -132 -38.5t-36 -111.5q74 -10 115.5 -62t41.5 -126q0 -87 -49.5 -139t-136.5 -52q-91 0 -142.5 65t-51.5 183q0 37 3 70t12.5 77.5t26 81t46.5 73.5t69.5 62.5t99.5 41.5t134 16v-141z" />
    <glyph glyph-name="quoteright" unicode="&#x2019;" horiz-adv-x="491" 
d="M252 1487q91 0 141.5 -64.5t50.5 -181.5q0 -38 -2.5 -71.5t-12.5 -78t-26 -81t-45.5 -73.5t-69.5 -62.5t-99.5 -41.5t-133.5 -16v141q94 0 130 38.5t38 111.5q-75 10 -117.5 62t-42.5 126q0 87 51 139t138 52z" />
    <glyph glyph-name="quotesinglbase" unicode="&#x201a;" horiz-adv-x="497" 
d="M250 375q91 0 142.5 -64.5t51.5 -181.5q0 -37 -3 -71t-12.5 -78.5t-26 -81t-46.5 -73.5t-70 -62.5t-99.5 -41.5t-133.5 -16v141q96 0 131 38t37 112q-75 10 -116.5 62t-41.5 126q0 87 50 139t137 52z" />
    <glyph glyph-name="quotedblleft" unicode="&#x201c;" horiz-adv-x="962" 
d="M66 1065q0 37 3 70t12.5 77.5t26 81t46.5 73.5t69.5 62.5t99.5 41.5t134 16v-141q-96 0 -132 -38.5t-36 -111.5q74 -10 115.5 -62t41.5 -126q0 -87 -49.5 -139t-136.5 -52q-91 0 -142.5 65t-51.5 183zM913 1346q-96 0 -132 -38t-38 -112q76 -10 118 -62t42 -126
q0 -87 -50 -139t-136 -52q-92 0 -143.5 65t-51.5 183q0 37 2.5 70t12.5 77.5t26 81t46 73.5t70 62.5t100 41.5t134 16v-141z" />
    <glyph glyph-name="quotedblright" unicode="&#x201d;" horiz-adv-x="946" 
d="M252 1487q91 0 141.5 -64.5t50.5 -181.5q0 -38 -2.5 -71.5t-12.5 -78t-26 -81t-45.5 -73.5t-69.5 -62.5t-99.5 -41.5t-133.5 -16v141q94 0 130 38.5t38 111.5q-75 10 -117.5 62t-42.5 126q0 87 51 139t138 52zM707 1487q91 0 142.5 -64.5t51.5 -181.5q0 -37 -3 -71
t-12.5 -78.5t-26 -81t-46.5 -73.5t-70 -62.5t-99.5 -41.5t-133.5 -16v141q95 0 131 38t39 112q-76 10 -118 61.5t-42 126.5q0 87 50.5 139t136.5 52z" />
    <glyph glyph-name="quotedblbase" unicode="&#x201e;" horiz-adv-x="952" 
d="M250 375q91 0 142.5 -64.5t51.5 -181.5q0 -37 -3 -71t-12.5 -78.5t-26 -81t-46.5 -73.5t-70 -62.5t-99.5 -41.5t-133.5 -16v141q96 0 131 38t37 112q-75 10 -116.5 62t-41.5 126q0 87 50 139t137 52zM705 375q92 0 143 -64.5t51 -181.5q0 -424 -391 -424v141q95 0 131 38
t39 112q-76 10 -118 61.5t-42 126.5q0 87 50.5 139t136.5 52z" />
    <glyph glyph-name="dagger" unicode="&#x2020;" horiz-adv-x="716" 
d="M250 539l14 276l-2 242h-41l-207 -10v217l207 -11h39l-10 209h217l-10 -209h43l202 13v-219l-202 10h-45v-242l12 -276h-217z" />
    <glyph glyph-name="daggerdbl" unicode="&#x2021;" horiz-adv-x="716" 
d="M250 0l12 209h-43l-205 -12v219l203 -10h45v75l-14 248l14 254v74h-41l-207 -10v217l207 -11h39l-10 209h217l-10 -209h43l202 13v-219l-202 10h-45v-74l12 -254l-14 -248l2 -75h43l204 10v-217l-204 10h-43l10 -209h-215z" />
    <glyph glyph-name="bullet" unicode="&#x2022;" horiz-adv-x="763" 
d="M383 385q-120 0 -204.5 84t-84.5 203q0 120 84.5 204.5t204.5 84.5t203.5 -84.5t83.5 -204.5q0 -119 -83.5 -203t-203.5 -84z" />
    <glyph glyph-name="ellipsis" unicode="&#x2026;" horiz-adv-x="1681" 
d="M287 -31q-84 0 -143.5 59.5t-59.5 143.5q0 83 60 143t143 60t141.5 -59.5t58.5 -143.5q0 -85 -58.5 -144t-141.5 -59zM840 -31q-85 0 -144 59t-59 144q0 84 59.5 143.5t143.5 59.5q83 0 141.5 -59.5t58.5 -143.5q0 -85 -58.5 -144t-141.5 -59zM1397 -31
q-84 0 -143.5 59.5t-59.5 143.5q0 83 60 143t143 60t141.5 -59.5t58.5 -143.5q0 -85 -58.5 -144t-141.5 -59z" />
    <glyph glyph-name="perthousand" unicode="&#x2030;" horiz-adv-x="2904" 
d="M393 0l1004 1456h239l-1001 -1456h-242zM444 557q-190 0 -299.5 122t-109.5 335q0 214 109.5 336.5t299.5 122.5q192 0 301 -122t109 -337q0 -214 -109 -335.5t-301 -121.5zM444 741q93 0 145 71.5t52 199.5q0 131 -52 202.5t-145 71.5q-91 0 -143.5 -72t-52.5 -202
q0 -128 52.5 -199.5t143.5 -71.5zM1571 -20q-191 0 -300.5 121.5t-109.5 334.5q0 215 109.5 337t300.5 122t300 -122t109 -337q0 -213 -109 -334.5t-300 -121.5zM1571 164q93 0 144.5 70.5t51.5 199.5q0 131 -51.5 203t-144.5 72q-91 0 -144 -72.5t-53 -202.5
q0 -128 52.5 -199t144.5 -71zM2458 -20q-191 0 -300.5 121.5t-109.5 334.5q0 215 109.5 337t300.5 122t300 -122t109 -337q0 -213 -109 -334.5t-300 -121.5zM2458 164q93 0 144.5 70.5t51.5 199.5q0 131 -51.5 203t-144.5 72q-91 0 -144 -72.5t-53 -202.5q0 -128 52.5 -199
t144.5 -71z" />
    <glyph glyph-name="guilsinglleft" unicode="&#x2039;" horiz-adv-x="698" 
d="M412 14l-363 535l363 534l227 -170l-274 -364l274 -363z" />
    <glyph glyph-name="guilsinglright" unicode="&#x203a;" horiz-adv-x="698" 
d="M287 14l-228 172l275 363l-275 364l228 170l364 -534z" />
    <glyph glyph-name="fraction" unicode="&#x2044;" horiz-adv-x="428" 
d="M-410 0l1004 1456h240l-1002 -1456h-242z" />
    <glyph glyph-name="uni2070" unicode="&#x2070;" horiz-adv-x="907" 
d="M453 557q-190 0 -300 122t-110 335q0 214 110 336.5t300 122.5q192 0 301.5 -122t109.5 -337q0 -214 -109.5 -335.5t-301.5 -121.5zM453 741q93 0 145.5 71.5t52.5 199.5q0 131 -52.5 202.5t-145.5 71.5q-92 0 -144.5 -72.5t-52.5 -201.5q0 -128 53 -199.5t144 -71.5z
" />
    <glyph glyph-name="uni2074" unicode="&#x2074;" horiz-adv-x="835" 
d="M686 895h137v-174h-137v-143h-205v143h-456v104l514 635h147v-565zM262 881h242v307z" />
    <glyph glyph-name="uni2075" unicode="&#x2075;" horiz-adv-x="792" 
d="M436 1171q143 0 231.5 -84t88.5 -227q0 -146 -94.5 -224.5t-255.5 -78.5q-166 0 -263.5 75.5t-97.5 205.5v12h199v-4q0 -49 42.5 -78t108.5 -29q72 0 111 34.5t39 98.5q0 66 -38 102t-110 36q-45 0 -83 -15t-56 -37h-180l31 498h589v-186h-413l-9 -129q65 30 160 30z" />
    <glyph glyph-name="uni2076" unicode="&#x2076;" horiz-adv-x="847" 
d="M494 1153q65 0 119 -15.5t97 -47.5t67 -87t24 -129q0 -152 -97.5 -234.5t-257.5 -82.5q-196 0 -293.5 114.5t-97.5 327.5q0 241 101.5 357.5t287.5 116.5q149 0 238.5 -68t89.5 -166v-16h-209q-10 75 -117 75q-84 0 -133.5 -60t-52.5 -161q38 35 101 55.5t133 20.5z
M446 733q70 0 108 38t38 97q0 61 -43 92t-109 31q-97 0 -170 -88q0 -67 46.5 -118.5t129.5 -51.5z" />
    <glyph glyph-name="uni2077" unicode="&#x2077;" horiz-adv-x="714" 
d="M20 1456h668v-104l-397 -774h-238l371 688h-404v190z" />
    <glyph glyph-name="uni2078" unicode="&#x2078;" horiz-adv-x="847" 
d="M643 1040q71 -23 112.5 -81.5t41.5 -127.5q0 -139 -98.5 -206.5t-272.5 -67.5q-176 0 -275.5 67t-99.5 205q0 69 42 129t116 82q-54 25 -84.5 74.5t-30.5 116.5q0 120 90.5 181t241.5 61q149 0 239.5 -61t90.5 -181q0 -130 -113 -191zM426 1305q-64 0 -99.5 -27.5
t-35.5 -73.5q0 -42 36 -71t99 -29q62 0 97.5 29t35.5 71q0 46 -35.5 73.5t-97.5 27.5zM426 731q74 0 118 27.5t44 85.5q0 52 -44.5 82t-117.5 30q-75 0 -119.5 -29.5t-44.5 -82.5q0 -113 164 -113z" />
    <glyph glyph-name="uni2079" unicode="&#x2079;" horiz-adv-x="827" 
d="M393 1473q195 0 293 -115t98 -328q0 -239 -104 -356t-285 -117q-158 0 -246 69t-88 167v20h207q11 -80 125 -80q84 0 133 60t52 161q-81 -75 -232 -75q-138 0 -222.5 67t-84.5 211q0 153 96.5 234.5t257.5 81.5zM565 1126q2 69 -44.5 120.5t-127.5 51.5
q-72 0 -109.5 -38.5t-37.5 -98.5t42.5 -91.5t108.5 -31.5q69 0 112.5 29t55.5 59z" />
    <glyph glyph-name="uni2080" unicode="&#x2080;" horiz-adv-x="907" 
d="M453 -221q-190 0 -300 122t-110 335q0 214 110 336t300 122q192 0 301.5 -121.5t109.5 -336.5q0 -214 -109.5 -335.5t-301.5 -121.5zM453 -37q93 0 145.5 71t52.5 199q0 131 -52.5 203t-145.5 72q-91 0 -144 -72.5t-53 -202.5q0 -128 52.5 -199t144.5 -71z" />
    <glyph glyph-name="uni2081" unicode="&#x2081;" horiz-adv-x="542" 
d="M238 -201v660l-168 -56l-62 164l307 111h129v-879h-206z" />
    <glyph glyph-name="uni2082" unicode="&#x2082;" horiz-adv-x="770" 
d="M283 -14h442v-187h-678v66q0 100 53.5 172t192.5 166q51 33 72.5 48t55 40.5t46.5 42t24 39.5t11 47q0 42 -34.5 65t-86.5 23q-65 0 -104 -34t-39 -95v-25h-197v39q0 140 91 219.5t253 79.5q148 0 243 -67t95 -189q0 -50 -13.5 -92t-33 -72t-60 -64t-74 -56.5
t-96.5 -61.5q-18 -11 -50 -30t-47 -28t-34 -22t-32 -24z" />
    <glyph glyph-name="uni2083" unicode="&#x2083;" horiz-adv-x="776" 
d="M473 356q124 -9 194 -89.5t70 -190.5q0 -138 -93.5 -214.5t-256.5 -76.5q-165 0 -260.5 73t-95.5 203v15h196v-4q0 -51 41.5 -79t112.5 -28q70 0 107.5 33.5t37.5 87.5q0 61 -43 93t-112 32q-53 0 -109 -23l-74 95l222 213h-332v182h629v-105z" />
    <glyph glyph-name="uni2084" unicode="&#x2084;" horiz-adv-x="835" 
d="M686 117h137v-174h-137v-144h-205v144h-456v104l514 635h147v-565zM262 102h242v308z" />
    <glyph glyph-name="uni2085" unicode="&#x2085;" horiz-adv-x="792" 
d="M436 393q143 0 231.5 -84t88.5 -227q0 -146 -94.5 -224.5t-255.5 -78.5q-166 0 -263.5 75t-97.5 205v13h199v-4q0 -49 42.5 -78t108.5 -29q72 0 111 34.5t39 98.5q0 66 -38 101.5t-110 35.5q-45 0 -83 -15t-56 -36h-180l31 498h589v-186h-413l-9 -130q67 31 160 31z" />
    <glyph glyph-name="uni2086" unicode="&#x2086;" horiz-adv-x="847" 
d="M494 375q65 0 119 -15.5t97 -47.5t67 -87t24 -129q0 -152 -97.5 -234.5t-257.5 -82.5q-196 0 -293.5 114.5t-97.5 327.5q0 241 101.5 357t287.5 116q149 0 238.5 -68t89.5 -165v-17h-209q-11 76 -117 76q-84 0 -133.5 -60t-52.5 -161q38 35 101 55.5t133 20.5zM446 -45
q70 0 108 38t38 97q0 61 -43 92t-109 31q-97 0 -170 -88q0 -67 46.5 -118.5t129.5 -51.5z" />
    <glyph glyph-name="uni2087" unicode="&#x2087;" horiz-adv-x="714" 
d="M20 678h668v-105l-397 -774h-238l371 688h-404v191z" />
    <glyph glyph-name="uni2088" unicode="&#x2088;" horiz-adv-x="847" 
d="M643 262q71 -23 112.5 -81.5t41.5 -127.5q0 -139 -98.5 -206.5t-272.5 -67.5q-176 0 -275.5 67t-99.5 205q0 69 42 129t116 82q-54 25 -84.5 74.5t-30.5 116.5q0 120 90 180.5t242 60.5q150 0 240 -60.5t90 -180.5q0 -130 -113 -191zM426 526q-64 0 -99.5 -27t-35.5 -73
q0 -42 36 -71t99 -29q62 0 97.5 29t35.5 71q0 46 -35.5 73t-97.5 27zM426 -47q74 0 118 27.5t44 85.5q0 52 -44.5 82t-117.5 30q-75 0 -119.5 -29.5t-44.5 -82.5q0 -113 164 -113z" />
    <glyph glyph-name="uni2089" unicode="&#x2089;" horiz-adv-x="827" 
d="M393 694q195 0 293 -114.5t98 -327.5q0 -239 -104 -356t-285 -117q-158 0 -246 68.5t-88 166.5v21h207q11 -80 125 -80q84 0 133 60t52 161q-82 -76 -232 -76q-138 0 -222.5 67.5t-84.5 211.5q0 153 96 234t258 81zM565 348q2 69 -44.5 120.5t-127.5 51.5
q-72 0 -109.5 -38.5t-37.5 -98.5t42.5 -91.5t108.5 -31.5q69 0 112.5 29t55.5 59z" />
    <glyph glyph-name="lira" unicode="&#x20a4;" horiz-adv-x="1351" 
d="M647 317h645v-317h-1200v256l205 43q0 60 -14 160h-193v166h170q-9 55 -12 114h-158v166h152q5 155 46.5 268.5t112.5 180t160.5 98t200.5 31.5q108 0 202 -32.5t164.5 -93.5t111 -155.5t40.5 -212.5v-28h-309v24q0 76 -53 122t-132 46q-193 0 -196 -248h430v-166h-420
q2 -16 7 -54t7 -60h406v-166h-383q10 -82 10 -142z" />
    <glyph glyph-name="Euro" unicode="&#x20ac;" horiz-adv-x="1421" 
d="M858 297q181 0 285 160l256 -211q-200 -277 -549 -277q-261 0 -433.5 141t-226.5 392h-143v166h123q-2 20 -2 59q0 37 2 55h-123v168h143q55 251 226 393t430 142q352 0 553 -281l-264 -211q-42 74 -116 118t-165 44q-101 0 -177.5 -52.5t-115.5 -152.5h385v-168h-420
q-2 -18 -2 -55q0 -41 2 -59h420v-166h-385q39 -100 116 -152.5t181 -52.5z" />
    <glyph glyph-name="uni20B4" unicode="&#x20b4;" horiz-adv-x="1284" 
d="M991 782q-64 -38 -160 -80q-15 -6 -44.5 -17t-43.5 -17h506v-166h-790q-62 -37 -62 -101q0 -38 20 -64.5t54.5 -40t70.5 -19t79 -5.5q267 0 438 136l164 -295q-136 -75 -277 -109.5t-325 -34.5q-253 0 -399 101t-146 292q0 66 22 140h-61v166h231q38 30 123 71
q53 27 96 43h-450v168h751q91 43 91 113q0 121 -213 121q-190 0 -402 -109l-147 279q217 131 536 131q237 0 387 -107.5t150 -285.5q0 -68 -27 -142h86v-168h-258z" />
    <glyph glyph-name="uni20B8" unicode="&#x20b8;" horiz-adv-x="1273" 
d="M39 1288v168h1196v-168h-1196zM461 0v862h-422v312h1196v-312h-418v-862h-356z" />
    <glyph glyph-name="uni20BD" unicode="&#x20bd;" horiz-adv-x="1325" 
d="M692 485h-125v-114h373v-185h-373v-186h-356v186h-164v185h164v114h-164v226h164v745h496q286 0 437.5 -124.5t151.5 -360.5q0 -486 -604 -486zM567 1145v-434h101q137 0 195.5 55t58.5 162q0 113 -56.5 165t-177.5 52h-121z" />
    <glyph glyph-name="uni2117" unicode="&#x2117;" horiz-adv-x="1564" 
d="M782 -18q-160 0 -298.5 56t-236.5 154.5t-154 238t-56 300.5t56.5 300.5t155 238t237.5 155t300 56.5q212 0 381.5 -96t265 -267.5t95.5 -386.5q0 -161 -56 -300.5t-154 -238t-236.5 -154.5t-299.5 -56zM782 135q166 0 299.5 77t209 213.5t75.5 305.5t-75 305.5
t-207.5 213.5t-297.5 77q-168 0 -302.5 -78t-209.5 -214.5t-75 -305.5q0 -168 74.5 -304t208 -213t300.5 -77zM477 319v840h361q172 0 259 -79.5t87 -231.5q0 -166 -94 -237.5t-269 -71.5h-123v-220h-221zM698 721h105q70 0 104.5 34.5t34.5 90.5q0 127 -137 127h-107v-252z
" />
    <glyph glyph-name="trademark" unicode="&#x2122;" horiz-adv-x="1386" 
d="M12 1305v151h561v-151h-194v-494h-172v494h-195zM1243 1456h111v-645h-168v309l-142 -209h-79l-142 209v-309h-168v645h113l236 -360z" />
    <glyph glyph-name="uni2126" unicode="&#x2126;" horiz-adv-x="1687" 
d="M1618 807q0 -145 -65.5 -272t-163.5 -207h215v-328h-684v236q321 250 321 507q0 196 -111.5 298t-285.5 102q-85 0 -156.5 -24.5t-126 -72.5t-85 -125.5t-30.5 -177.5q0 -258 324 -507v-236h-684v328h213q-97 80 -163 207t-66 272q0 132 39 242.5t109.5 190t167.5 134.5
t212.5 82t245.5 27t245.5 -27t212.5 -82t167.5 -134.5t109.5 -190t39 -242.5z" />
    <glyph glyph-name="partialdiff" unicode="&#x2202;" horiz-adv-x="1359" 
d="M584 1483q124 0 230 -27t195.5 -87t152 -150t97.5 -221.5t35 -295.5q0 -228 -69.5 -390.5t-215 -252.5t-358.5 -90q-269 0 -428.5 132t-159.5 374q0 124 39.5 217.5t109 148t157 81t192.5 26.5q246 0 381 -129q0 169 -110.5 256.5t-284.5 87.5q-147 0 -264 -63l-142 286
q180 97 443 97zM651 264q118 0 191 79t78 192q-26 58 -94.5 106.5t-172.5 48.5q-101 0 -166 -56t-65 -153q0 -92 59.5 -154.5t169.5 -62.5z" />
    <glyph glyph-name="uni2206" unicode="&#x2206;" horiz-adv-x="1503" 
d="M866 1458l613 -1292v-166h-1454v166l606 1292h235zM748 979l-277 -660h551z" />
    <glyph glyph-name="product" unicode="&#x220f;" horiz-adv-x="1501" 
d="M123 -332v1788h1255v-1788h-358v1458h-539v-1458h-358z" />
    <glyph glyph-name="summation" unicode="&#x2211;" horiz-adv-x="1304" 
d="M524 -4h754v-328h-1239v176l483 740l-456 696v176h1196v-328h-709l330 -516v-96z" />
    <glyph glyph-name="minus" unicode="&#x2212;" horiz-adv-x="1034" 
d="M57 524v297h918v-297h-918z" />
    <glyph glyph-name="radical" unicode="&#x221a;" horiz-adv-x="1423" 
d="M1253 1888h297l-567 -1890h-231l-420 1190h-328v268h635l256 -854z" />
    <glyph glyph-name="infinity" unicode="&#x221e;" horiz-adv-x="1708" 
d="M459 258q-174 0 -282.5 116t-108.5 298q0 197 107 307.5t284 110.5q110 0 202.5 -54t182.5 -162q88 108 180 162t203 54q177 0 284 -110.5t107 -307.5q0 -182 -108.5 -298t-282.5 -116q-112 0 -203.5 52.5t-179.5 160.5q-87 -107 -179.5 -160t-205.5 -53zM496 530
q70 0 121 37.5t94 104.5q-43 69 -93.5 105t-121.5 36q-59 0 -97.5 -35t-38.5 -106q0 -70 39 -106t97 -36zM1190 530q58 0 96.5 36t38.5 106q0 71 -38 106t-97 35q-71 0 -121.5 -36t-93.5 -105q43 -67 94 -104.5t121 -37.5z" />
    <glyph glyph-name="integral" unicode="&#x222b;" horiz-adv-x="776" 
d="M193 -393q-111 0 -193 20v283q46 -12 78 -12q31 0 51.5 10.5t31.5 26.5t17 49t7 62t1 83v1212q0 184 100 277.5t273 93.5q156 0 248 -47v-260q-77 22 -131 22q-70 0 -105.5 -34t-35.5 -111v-1319q0 -94 -27 -164t-75 -111t-108 -61t-132 -20z" />
    <glyph glyph-name="approxequal" unicode="&#x2248;" horiz-adv-x="1261" 
d="M889 700q-36 0 -76 9.5t-64 18t-73 28.5q-146 59 -240 59q-130 0 -260 -90l-96 256q176 127 319 127q104 0 242 -57q48 -21 70.5 -29.5t63 -18.5t75.5 -10q126 0 231 101l99 -271q-53 -51 -128 -87t-163 -36zM889 207q-36 0 -75.5 9t-65 18t-72.5 28q-149 60 -240 60
q-122 0 -260 -91l-96 254q179 129 319 129q100 0 242 -59q129 -55 209 -55q127 0 231 96l99 -266q-51 -51 -126.5 -87t-164.5 -36z" />
    <glyph glyph-name="notequal" unicode="&#x2260;" horiz-adv-x="1179" 
d="M1098 784h-332l-143 -223h475v-297h-668l-129 -198h-217l129 198h-131v297h324l145 223h-469v297h661l127 195h215l-127 -195h140v-297z" />
    <glyph glyph-name="lessequal" unicode="&#x2264;" horiz-adv-x="1183" 
d="M1106 637v-313l-1022 444v203l1022 446v-313l-567 -234zM82 291h1026v-293h-1026v293z" />
    <glyph glyph-name="greaterequal" unicode="&#x2265;" horiz-adv-x="1183" 
d="M1100 971v-203l-1022 -444v313l567 233l-567 234v313zM78 291h1024v-293h-1024v293z" />
    <glyph glyph-name="lozenge" unicode="&#x25ca;" horiz-adv-x="1036" 
d="M432 -12l-360 737l360 739h174l361 -739l-361 -737h-174zM520 371l152 354l-152 350l-158 -350z" />
    <glyph glyph-name="NULL" 
 />
    <glyph glyph-name="uni00A40301" horiz-adv-x="1286" 
d="M786 1565l244 356l387 -31l-395 -325h-236zM598 -31q-266 0 -422 155t-162 419h355q7 -126 72.5 -182t158.5 -56q102 0 156.5 62t54.5 213v876h365v-874q0 -321 -142.5 -467t-435.5 -146z" />
    <glyph glyph-name="uni1E9E.calt" horiz-adv-x="1552" 
d="M1038 866q114 -1 207 -37t151 -95.5t89 -133.5t31 -154q0 -228 -141.5 -352.5t-432.5 -124.5q-217 0 -360 45l77 314q111 -54 238 -54q246 0 246 179q0 174 -240 174q-90 0 -180 -43l-119 137l232 301l102 113h-459v-1135h-356v1456h1229v-186z" />
    <glyph glyph-name="IJ.dutch" horiz-adv-x="1382" 
d="M111 647v809h362v-809h-362zM694 -31q-270 0 -423.5 142t-159.5 403h354q3 -53 17.5 -91.5t35.5 -61t52 -35.5t60 -17t66 -4q102 0 156.5 62t54.5 213v876h365v-874q0 -321 -142.5 -467t-435.5 -146z" />
    <glyph glyph-name="K.ss04" horiz-adv-x="1468" 
d="M1468 0h-448l-539 659v-659h-358v1456h358v-651l488 651h440l-557 -696z" />
    <glyph glyph-name="uni0136.ss04" horiz-adv-x="1468" 
d="M852 760l616 -760h-448l-539 659v-659h-358v1456h358v-651l488 651h440zM729 -74q88 0 141.5 -49.5t53.5 -132.5q0 -31 -7 -64.5t-29.5 -75t-57.5 -73.5t-98.5 -54t-145.5 -22h-41v117h20q88 0 123 66q-66 12 -100.5 48.5t-34.5 90.5q0 65 47.5 107t128.5 42z" />
    <glyph glyph-name="i.loclTRK" horiz-adv-x="598" 
d="M301 1253q-85 0 -144 59t-59 144q0 84 59.5 143.5t143.5 59.5q83 0 142 -60t59 -143q0 -85 -59 -144t-142 -59zM123 0v1122h354v-1122h-354z" />
    <glyph glyph-name="uni006A0301" horiz-adv-x="614" 
d="M166 1272l244 356l387 -31l-396 -325h-235zM141 -393q-114 0 -192 20v283q43 -12 76 -12q31 0 52 10.5t32.5 26.5t17 49t7 62t1.5 83v993h359v-1175q0 -172 -97.5 -256t-255.5 -84z" />
    <glyph glyph-name="k.ss04" horiz-adv-x="1302" 
d="M1286 0h-432l-385 477v-477h-346v1556h346v-956l405 522h406l-455 -561z" />
    <glyph glyph-name="uni0137.ss04" horiz-adv-x="1302" 
d="M1286 0h-432l-385 477v-477h-346v1556h346v-956l405 522h406l-455 -561zM668 -74q88 0 141 -49.5t53 -132.5q0 -31 -7 -64.5t-29.5 -75t-57.5 -73.5t-98.5 -54t-145.5 -22h-41v117h21q88 0 123 66q-66 12 -100.5 48.5t-34.5 90.5q0 65 47.5 107t128.5 42z" />
    <glyph glyph-name="kgreenlandic.ss04" horiz-adv-x="1302" 
d="M1286 0h-432l-385 477v-477h-346v1122h346v-524l405 524h406l-455 -561z" />
    <glyph glyph-name="uni0414.loclBGR" horiz-adv-x="1724" 
d="M1485 330h196v-672h-325v342h-994v-342h-325v672h178l520 1128h232zM588 330h520l-150 354l-110 309l-115 -309z" />
    <glyph glyph-name="uni041B.loclBGR" horiz-adv-x="1548" 
d="M1544 0h-405l-373 905l-365 -905h-397l653 1458h240z" />
    <glyph glyph-name="uni0457.calt1" horiz-adv-x="598" 
d="M59 1255q-83 0 -140.5 58t-57.5 141q0 82 57.5 139.5t140.5 57.5q80 0 137.5 -58t57.5 -139q0 -83 -57.5 -141t-137.5 -58zM123 0v1122h354v-1122h-354z" />
    <glyph glyph-name="uni0457.calt2" horiz-adv-x="598" 
d="M2 1255q-83 0 -141 58t-58 141q0 82 58 139.5t141 57.5q80 0 137.5 -58t57.5 -139q0 -83 -57.5 -141t-137.5 -58zM549 1255q-82 0 -139.5 58t-57.5 141q0 82 57.5 139.5t139.5 57.5t139 -57.5t57 -139.5q0 -83 -57 -141t-139 -58zM123 0v1122h354v-1122h-354z" />
    <glyph glyph-name="uni0432.loclBGR" horiz-adv-x="1316" 
d="M1018 850q112 -47 172.5 -150t60.5 -243q0 -120 -46 -214t-125.5 -152t-180.5 -88t-217 -30q-295 0 -449.5 155.5t-154.5 449.5v378q0 167 43 291t121 197.5t179.5 109t227.5 35.5q237 0 385 -115t148 -298q0 -105 -41 -189t-123 -137zM655 1298q-118 0 -169.5 -84.5
t-51.5 -250.5v-5h168q41 0 72 3t65.5 13.5t56 28.5t36 50t14.5 77q0 81 -55 124.5t-136 43.5zM680 283q95 0 153 51t58 145t-58.5 147.5t-170.5 53.5h-228v-98q0 -135 64 -217t182 -82z" />
    <glyph glyph-name="uni0433.loclBGR" horiz-adv-x="1103" 
d="M530 -31q-485 0 -485 338q0 71 27 126t84.5 98t124 74t168.5 67q122 43 166 72t44 67q0 66 -129 66q-131 0 -311 -107l-133 266q203 115 477 115q218 0 341.5 -84.5t123.5 -265.5q0 -60 -19 -107.5t-49.5 -81.5t-84.5 -65t-106.5 -52.5t-133.5 -48.5
q-120 -42 -162.5 -69.5t-42.5 -65.5q0 -69 152 -69q74 0 166 35.5t153 91.5l154 -260q-101 -81 -224.5 -110.5t-300.5 -29.5z" />
    <glyph glyph-name="uni0434.loclBGR" horiz-adv-x="1347" 
d="M645 -395q-298 0 -459 63v307q205 -81 394 -81q161 0 242 48.5t81 161.5v68q-100 -123 -307 -123q-241 0 -387 154.5t-146 396.5q0 243 144 398t375 155q89 0 172 -27t141 -84v80h348v-874q0 -117 -17 -210.5t-59 -176.5t-109.5 -138t-171.5 -86.5t-241 -31.5zM686 356
q153 0 217 125v244q-30 57 -91.5 89t-133.5 32q-111 0 -180.5 -68t-69.5 -176q0 -106 70 -176t188 -70z" />
    <glyph glyph-name="uni0436.loclBGR" horiz-adv-x="1976" 
d="M1966 0h-424l-377 475v-475h-354v481l-397 -481h-404l449 541l-443 581h416l379 -514v948h354v-954l391 520h406l-449 -561z" />
    <glyph glyph-name="uni0437.loclBGR" horiz-adv-x="1138" 
d="M868 438q116 -45 177 -141t61 -225q0 -122 -45 -213.5t-127 -146t-190 -81t-242 -26.5q-268 0 -469 84v338q214 -103 436 -103q137 0 205.5 46t68.5 128q0 90 -73 131t-224 41h-198v279h192q56 0 98 5t82.5 19.5t62.5 45t22 75.5q0 158 -220 158q-156 0 -311 -92
l-131 272q217 123 471 123q255 0 396 -109.5t141 -297.5q0 -100 -46 -180t-137 -130z" />
    <glyph glyph-name="uni0438.loclBGR" horiz-adv-x="1308" 
d="M512 -27q-416 0 -416 471v678h355v-575q0 -141 43.5 -201.5t132.5 -60.5q124 0 207 102v735h354v-1122h-332v100q-130 -127 -344 -127z" />
    <glyph glyph-name="uni0439.loclBGR" horiz-adv-x="1308" 
d="M651 1272q-174 0 -283 91.5t-112 262.5h213q43 -117 182 -117q138 0 178 117h215q-3 -173 -111 -263.5t-282 -90.5zM512 -27q-416 0 -416 471v678h355v-575q0 -141 43.5 -201.5t132.5 -60.5q124 0 207 102v735h354v-1122h-332v100q-130 -127 -344 -127z" />
    <glyph glyph-name="uni045D.loclBGR" horiz-adv-x="1308" 
d="M807 1272h-236l-393 325l385 31zM512 -27q-416 0 -416 471v678h355v-575q0 -141 43.5 -201.5t132.5 -60.5q124 0 207 102v735h354v-1122h-332v100q-130 -127 -344 -127z" />
    <glyph glyph-name="uni043A.loclBGR" horiz-adv-x="1302" 
d="M1286 0h-432l-385 477v-477h-346v1556h346v-958l405 524h406l-455 -561z" />
    <glyph glyph-name="uni043B.loclBGR" horiz-adv-x="1298" 
d="M754 1126l534 -1126h-397l-168 397l-82 232l-80 -230l-166 -399h-385l537 1126h207z" />
    <glyph glyph-name="uni043F.loclBGR" horiz-adv-x="1316" 
d="M123 0v1122h338v-88q63 51 152.5 84t185.5 33q222 0 318.5 -110t96.5 -361v-680h-354v578q0 144 -43 203t-145 59q-119 0 -197 -92v-748h-352z" />
    <glyph glyph-name="uni0442.loclBGR" horiz-adv-x="2025" 
d="M1520 1153q212 0 307.5 -112.5t95.5 -364.5v-676h-354v606q0 122 -42.5 178t-133.5 56q-123 0 -199 -88q2 -25 2 -76v-676h-348v610q0 119 -42 174.5t-132 55.5q-115 0 -199 -90v-750h-352v1122h338v-88q150 119 354 119q220 0 309 -137q166 137 396 137z" />
    <glyph glyph-name="uni0446.loclBGR" horiz-adv-x="1413" 
d="M1327 313h59v-616h-305v303q-63 0 -116.5 37t-81.5 100q-133 -164 -373 -164q-416 0 -416 471v678h355v-575q0 -141 43 -201.5t133 -60.5q123 0 206 102v735h355v-665q0 -85 28 -114.5t113 -29.5z" />
    <glyph glyph-name="uni0448.loclBGR" horiz-adv-x="2015" 
d="M1540 1122h354v-1122h-333v102q-56 -59 -147.5 -94t-201.5 -35q-231 0 -321 150q-63 -63 -170 -106.5t-227 -43.5q-202 0 -300 113.5t-98 357.5v678h355v-575q0 -142 40.5 -202t129.5 -60q124 0 202 98q-2 20 -2 61v678h348v-575q0 -143 40 -202.5t130 -59.5
q133 0 201 104v733z" />
    <glyph glyph-name="uni0449.loclBGR" horiz-adv-x="2121" 
d="M2036 313h59v-616h-305v303q-63 0 -117 37t-82 100q-133 -164 -379 -164q-231 0 -321 150q-63 -63 -170 -106.5t-227 -43.5q-202 0 -300 113.5t-98 357.5v678h355v-575q0 -142 40.5 -202t129.5 -60q124 0 202 98q-2 20 -2 61v678h348v-575q0 -143 40 -202.5t130 -59.5
q133 0 201 104v733h354v-665q0 -84 28.5 -114t113.5 -30z" />
    <glyph glyph-name="uni044C.loclBGR" horiz-adv-x="1228" 
d="M748 944q195 0 316.5 -130.5t121.5 -348.5q0 -230 -146.5 -362t-400.5 -132q-263 0 -403 134t-140 384v633h355v-282q129 104 297 104zM639 281q85 0 133.5 51.5t48.5 132.5q0 84 -45 135t-133 51q-114 0 -192 -88v-55q0 -227 188 -227z" />
    <glyph glyph-name="uni044A.loclBGR" horiz-adv-x="1458" 
d="M975 944q196 0 318 -130.5t122 -348.5q0 -230 -147.5 -362t-401.5 -132q-263 0 -402.5 134t-139.5 384v324h-285v309h639v-284q125 106 297 106zM866 281q87 0 136 51.5t49 132.5q0 83 -46 134.5t-135 51.5q-111 0 -192 -88v-55q0 -227 188 -227z" />
    <glyph glyph-name="uni044E.loclBGR" horiz-adv-x="1931" 
d="M1251 1151q282 0 451.5 -160.5t169.5 -429.5q0 -270 -169 -429t-452 -159q-233 0 -391.5 110.5t-208.5 305.5h-184v-389h-354v1556h354v-890h172q32 225 195.5 355t416.5 130zM1251 291q116 0 186 73t70 197q0 123 -70.5 198t-185.5 75t-185.5 -75t-70.5 -198
q0 -124 70 -197t186 -73z" />
    <glyph glyph-name="uni0431.loclSRB" horiz-adv-x="1370" 
d="M866 1055q74 -25 133.5 -54.5t118.5 -75.5t98.5 -101t64 -132.5t24.5 -169.5q0 -257 -169.5 -404t-445.5 -147q-177 0 -319 67t-225 193.5t-83 288.5q0 181 79.5 296t230.5 161q-174 112 -174 274q0 152 99.5 228.5t285.5 76.5h131q255 0 479 48l20 -299
q-170 -31 -411 -31h-117q-71 0 -100 -14t-29 -43q0 -33 67.5 -68.5t241.5 -93.5zM698 291q113 0 177.5 67t64.5 170q0 101 -74 167t-215 116q-95 -13 -159 -78t-64 -174q0 -121 75.5 -194.5t194.5 -73.5z" />
    <glyph glyph-name="Kappa.ss04" horiz-adv-x="1468" 
d="M1468 0h-448l-539 659v-659h-358v1456h358v-651l488 651h440l-557 -696z" />
    <glyph glyph-name="kappa.ss04" horiz-adv-x="1302" 
d="M1286 0h-432l-385 477v-477h-346v1122h346v-522l405 522h406l-455 -561z" />
    <glyph glyph-name="zero.dnom" horiz-adv-x="907" 
d="M453 -20q-190 0 -300 121.5t-110 334.5q0 214 110 336.5t300 122.5q192 0 301.5 -122t109.5 -337q0 -214 -109.5 -335t-301.5 -121zM453 164q93 0 145.5 71t52.5 199q0 131 -52.5 203t-145.5 72q-91 0 -144 -72.5t-53 -202.5q0 -128 52.5 -199t144.5 -71z" />
    <glyph glyph-name="one.dnom" horiz-adv-x="542" 
d="M238 0v659l-168 -55l-62 164l307 111h129v-879h-206z" />
    <glyph glyph-name="two.dnom" horiz-adv-x="770" 
d="M283 186h442v-186h-678v66q0 100 53.5 171.5t192.5 165.5q62 40 89.5 59.5t61 48.5t46 54.5t12.5 55.5q0 42 -34.5 65t-86.5 23q-65 0 -104 -34t-39 -95v-25h-197v39q0 140 91 219.5t253 79.5q148 0 243 -67t95 -189q0 -50 -13.5 -92t-33 -72t-60 -64t-74 -56.5
t-96.5 -61.5q-15 -9 -41 -24.5t-39 -23.5t-30 -19t-29.5 -20t-23.5 -18z" />
    <glyph glyph-name="three.dnom" horiz-adv-x="776" 
d="M473 557q124 -9 194 -90t70 -191q0 -138 -93.5 -214t-256.5 -76q-165 0 -260.5 73t-95.5 203v14h196v-4q0 -50 41.5 -78t112.5 -28q70 0 107.5 33.5t37.5 87.5q0 61 -43 93t-112 32q-53 0 -109 -23l-74 94l222 213h-332v183h629v-105z" />
    <glyph glyph-name="four.dnom" horiz-adv-x="835" 
d="M686 317h137v-174h-137v-143h-205v143h-456v105l514 635h147v-566zM262 303h242v307z" />
    <glyph glyph-name="five.dnom" horiz-adv-x="792" 
d="M436 594q143 0 231.5 -84t88.5 -227q0 -146 -94.5 -224.5t-255.5 -78.5q-166 0 -263.5 75t-97.5 205v12h199v-4q0 -49 42.5 -77.5t108.5 -28.5q72 0 111 34.5t39 98.5q0 66 -38 101.5t-110 35.5q-45 0 -83 -15t-56 -36h-180l31 498h589v-187h-413l-9 -129q67 31 160 31z
" />
    <glyph glyph-name="six.dnom" horiz-adv-x="847" 
d="M494 575q137 0 222 -67.5t85 -210.5q0 -152 -97.5 -234.5t-257.5 -82.5q-196 0 -293.5 114.5t-97.5 327.5q0 241 101.5 357t287.5 116q149 0 238.5 -67.5t89.5 -165.5v-17h-209q-11 76 -117 76q-84 0 -133.5 -60t-52.5 -161q38 35 100.5 55t133.5 20zM446 156
q70 0 108 38t38 97q0 61 -43 92t-109 31q-97 0 -170 -88q0 -67 46.5 -118.5t129.5 -51.5z" />
    <glyph glyph-name="seven.dnom" horiz-adv-x="714" 
d="M20 879h668v-105l-397 -774h-238l371 688h-404v191z" />
    <glyph glyph-name="eight.dnom" horiz-adv-x="847" 
d="M643 463q71 -23 112.5 -81.5t41.5 -127.5q0 -139 -98.5 -206.5t-272.5 -67.5q-176 0 -275.5 67t-99.5 205q0 69 42 129t116 82q-54 25 -84.5 74t-30.5 116q0 120 90.5 181t241.5 61q149 0 239.5 -61t90.5 -181q0 -129 -113 -190zM426 727q-64 0 -99.5 -27t-35.5 -73
q0 -42 36 -71.5t99 -29.5q62 0 97.5 29.5t35.5 71.5q0 46 -35.5 73t-97.5 27zM426 154q162 0 162 112q0 52 -44.5 82.5t-117.5 30.5q-75 0 -119.5 -30t-44.5 -83q0 -112 164 -112z" />
    <glyph glyph-name="nine.dnom" horiz-adv-x="827" 
d="M393 895q195 0 293 -114.5t98 -327.5q0 -239 -104 -356t-285 -117q-158 0 -246 68.5t-88 166.5v21h207q11 -80 125 -80q84 0 133 60t52 161q-82 -76 -232 -76q-138 0 -222.5 67.5t-84.5 211.5q0 153 96 234t258 81zM565 549q2 69 -44.5 120.5t-127.5 51.5
q-72 0 -109.5 -38.5t-37.5 -98.5t42.5 -91.5t108.5 -31.5q69 0 112.5 29t55.5 59z" />
    <glyph glyph-name="zero.numr" horiz-adv-x="907" 
d="M453 557q-190 0 -300 122t-110 335q0 214 110 336.5t300 122.5q192 0 301.5 -122t109.5 -337q0 -214 -109.5 -335.5t-301.5 -121.5zM453 741q93 0 145.5 71.5t52.5 199.5q0 131 -52.5 202.5t-145.5 71.5q-92 0 -144.5 -72.5t-52.5 -201.5q0 -128 53 -199.5t144 -71.5z
" />
    <glyph glyph-name="one.numr" horiz-adv-x="542" 
d="M238 578v659l-168 -55l-62 164l307 110h129v-878h-206z" />
    <glyph glyph-name="two.numr" horiz-adv-x="770" 
d="M283 764h442v-186h-678v65q0 100 53.5 172t192.5 166q51 33 72.5 48t55 40.5t46.5 42t24 39.5t11 47q0 42 -34.5 65t-86.5 23q-65 0 -104 -34t-39 -95v-24h-197v38q0 140 91 219.5t253 79.5q148 0 243 -67t95 -189q0 -50 -13.5 -92t-33 -72t-60 -64t-74 -56.5
t-96.5 -61.5q-18 -11 -50 -30t-47 -28t-34 -22t-32 -24z" />
    <glyph glyph-name="three.numr" horiz-adv-x="776" 
d="M473 1135q124 -9 194 -90t70 -191q0 -138 -93.5 -214.5t-256.5 -76.5q-165 0 -260.5 73.5t-95.5 203.5v14h196v-4q0 -51 41.5 -79t112.5 -28q70 0 107.5 33.5t37.5 87.5q0 61 -43 93t-112 32q-55 0 -109 -22l-74 94l222 213h-332v182h629v-104z" />
    <glyph glyph-name="four.numr" horiz-adv-x="835" 
d="M686 895h137v-174h-137v-143h-205v143h-456v104l514 635h147v-565zM262 881h242v307z" />
    <glyph glyph-name="five.numr" horiz-adv-x="792" 
d="M436 1171q143 0 231.5 -84t88.5 -227q0 -146 -94.5 -224.5t-255.5 -78.5q-166 0 -263.5 75.5t-97.5 205.5v12h199v-4q0 -49 42.5 -78t108.5 -29q72 0 111 34.5t39 98.5q0 66 -38 102t-110 36q-45 0 -83 -15t-56 -37h-180l31 498h589v-186h-413l-9 -129q65 30 160 30z" />
    <glyph glyph-name="six.numr" horiz-adv-x="847" 
d="M494 1153q65 0 119 -15.5t97 -47.5t67 -87t24 -129q0 -152 -97.5 -234.5t-257.5 -82.5q-196 0 -293.5 114.5t-97.5 327.5q0 241 101.5 357.5t287.5 116.5q149 0 238.5 -68t89.5 -166v-16h-209q-10 75 -117 75q-84 0 -133.5 -60t-52.5 -161q38 35 101 55.5t133 20.5z
M446 733q70 0 108 38t38 97q0 61 -43 92t-109 31q-97 0 -170 -88q0 -67 46.5 -118.5t129.5 -51.5z" />
    <glyph glyph-name="seven.numr" horiz-adv-x="714" 
d="M20 1456h668v-104l-397 -774h-238l371 688h-404v190z" />
    <glyph glyph-name="eight.numr" horiz-adv-x="847" 
d="M643 1040q71 -23 112.5 -81.5t41.5 -127.5q0 -139 -98.5 -206.5t-272.5 -67.5q-176 0 -275.5 67t-99.5 205q0 69 42 129t116 82q-54 25 -84.5 74.5t-30.5 116.5q0 120 90.5 181t241.5 61q149 0 239.5 -61t90.5 -181q0 -130 -113 -191zM426 1305q-64 0 -99.5 -27.5
t-35.5 -73.5q0 -42 36 -71t99 -29q62 0 97.5 29t35.5 71q0 46 -35.5 73.5t-97.5 27.5zM426 731q74 0 118 27.5t44 85.5q0 52 -44.5 82t-117.5 30q-75 0 -119.5 -29.5t-44.5 -82.5q0 -113 164 -113z" />
    <glyph glyph-name="nine.numr" horiz-adv-x="827" 
d="M393 1473q195 0 293 -115t98 -328q0 -239 -104 -356t-285 -117q-158 0 -246 69t-88 167v20h207q11 -80 125 -80q84 0 133 60t52 161q-81 -75 -232 -75q-138 0 -222.5 67t-84.5 211q0 153 96.5 234.5t257.5 81.5zM565 1126q2 69 -44.5 120.5t-127.5 51.5
q-72 0 -109.5 -38.5t-37.5 -98.5t42.5 -91.5t108.5 -31.5q69 0 112.5 29t55.5 59z" />
    <glyph glyph-name="periodcentered.loclCAT.case" horiz-adv-x="561" 
d="M244 596q-85 0 -144 59t-59 144t59 143.5t144 58.5q82 0 140 -59t58 -143q0 -85 -58 -144t-140 -59z" />
    <glyph glyph-name="periodcentered.loclCAT" horiz-adv-x="366" 
d="M193 489q-85 0 -144 59t-59 144q0 84 59.5 143.5t143.5 59.5q82 0 140 -60t58 -143q0 -85 -58 -144t-140 -59z" />
    <glyph glyph-name="uni0308.case" 
d="M-862 1554q-82 0 -139.5 58t-57.5 141q0 82 57.5 140.5t139.5 58.5q81 0 138.5 -58.5t57.5 -140.5q0 -83 -57 -141t-139 -58zM-362 1554q-83 0 -141 58t-58 141q0 82 58 140.5t141 58.5q80 0 137 -58.5t57 -140.5q0 -83 -57 -141t-137 -58z" />
    <glyph glyph-name="uni0307.case" 
d="M-614 1565q-85 0 -144 58.5t-59 143.5q0 84 59.5 143.5t143.5 59.5q83 0 141.5 -59.5t58.5 -143.5q0 -85 -58.5 -143.5t-141.5 -58.5z" />
    <glyph glyph-name="gravecomb.case" 
d="M-471 1565h-236l-395 325l387 31z" />
    <glyph glyph-name="acutecomb.case" 
d="M-758 1565l244 356l387 -31l-395 -325h-236z" />
    <glyph glyph-name="uni030B.case" 
d="M-928 1565l180 372l287 -104l-264 -268h-203zM-555 1565l180 372l318 -108l-314 -264h-184z" />
    <glyph glyph-name="uni0302.case" 
d="M-1020 1565l299 360h221l301 -360h-241l-170 131l-168 -131h-242z" />
    <glyph glyph-name="uni030C.case" 
d="M-1020 1925h242l168 -131l170 131h241l-301 -360h-221z" />
    <glyph glyph-name="uni0306.case" 
d="M-614 1565q-113 0 -200 39t-140 120.5t-54 196.5h213q43 -119 181 -119q141 0 180 119h215q-3 -175 -112 -265.5t-283 -90.5z" />
    <glyph glyph-name="uni030A.case" 
d="M-614 1386q-107 0 -180.5 70.5t-73.5 177.5t73.5 177.5t180.5 70.5q110 0 183 -70t73 -178t-73 -178t-183 -70zM-614 1522q50 0 82 32t32 84q0 50 -32.5 82.5t-81.5 32.5q-48 0 -80.5 -33.5t-32.5 -85.5q0 -49 32.5 -80.5t80.5 -31.5z" />
    <glyph glyph-name="tildecomb.case" 
d="M-899 1550l-156 33q15 152 82.5 238t171.5 86q48 0 103.5 -18t96 -39.5t83.5 -39.5t69 -18q36 0 69 27.5t58 78.5l154 -32q-17 -154 -83.5 -239t-170.5 -85q-58 0 -129 28t-131 56.5t-90 28.5q-37 0 -70.5 -27.5t-56.5 -77.5z" />
    <glyph glyph-name="uni0304.case" 
d="M-993 1565v237h757v-237h-757z" />
    <glyph glyph-name="dieresis.short" horiz-adv-x="1239" 
d="M383 1255q-82 0 -140.5 58t-58.5 141q0 82 58.5 139.5t140.5 57.5t139.5 -57.5t57.5 -139.5q0 -83 -57.5 -141t-139.5 -58zM872 1255q-82 0 -140 58t-58 141q0 82 58 139.5t140 57.5t139.5 -57.5t57.5 -139.5q0 -83 -57.5 -141t-139.5 -58z" />
    <glyph glyph-name="tonos.case" horiz-adv-x="851" 
d="M213 1071l149 420l359 -31l-272 -389h-236z" />
    <glyph glyph-name="brevecombcy" 
d="M-612 1272q-174 0 -283.5 91.5t-112.5 262.5h213q43 -117 183 -117q138 0 178 117h215q-3 -173 -111 -263.5t-282 -90.5z" />
    <glyph glyph-name="brevecombcy.case" 
d="M-614 1565q-113 0 -200 39t-140 120.5t-54 196.5h213q43 -119 181 -119q141 0 180 119h215q-3 -175 -112 -265.5t-283 -90.5z" />
    <glyph glyph-name="KB" horiz-adv-x="1892" 
d="M969 -2q-192 0 -327.5 74t-192.5 194l43 19q77 -103 176.5 -148t232.5 -45q108 0 179 51t71 156q0 89 -89 176.5t-241 145.5q-32 -120 -39 -152q81 -14 146 -35l-10 -74h-508l-2 70q96 67 200 102l150 783l-133 39l-4 61q96 60 239 60l144 -72l-130 -397l-135 -388l21 -4
q37 138 85 236.5t106.5 155.5t122 82.5t138.5 25.5q113 0 181.5 -50t68.5 -151q0 -122 -100 -200t-299 -78q-76 0 -141 8v-18q56 -7 98 -13.5t100 -19.5t100.5 -28t87.5 -39t74 -53t47.5 -70t18.5 -89q0 -136 -127 -225.5t-352 -89.5zM840 676q78 3 141 20.5t101.5 43.5
t64.5 59.5t36.5 65.5t10.5 65q0 43 -23 72.5t-61 29.5q-23 0 -53.5 -18.5t-67 -57.5t-76.5 -111.5t-73 -168.5z" />
    </font>
</defs>
</svg>
